<svg width="183" height="138" viewBox="0 0 183 138" fill="none" xmlns="http://www.w3.org/2000/svg">
<g clip-path="url(#clip0_42_1754)">
<rect width="182.08" height="138.01" fill="#3A53A4"/>
<mask id="mask0_42_1754" style="mask-type:luminance" maskUnits="userSpaceOnUse" x="0" y="0" width="183" height="139">
<path d="M182.08 0H0V138.01H182.08V0Z" fill="white"/>
</mask>
<g mask="url(#mask0_42_1754)">
<mask id="mask1_42_1754" style="mask-type:luminance" maskUnits="userSpaceOnUse" x="0" y="0" width="183" height="139">
<path d="M182.08 0H0V138.01H182.08V0Z" fill="white"/>
</mask>
<g mask="url(#mask1_42_1754)">
<path d="M15.7302 72.67V80.77H7.91016V7.96002H15.7302V39.8C18.5602 35 25.2402 30.66 32.4002 30.66C45.3002 30.66 54.8202 40.08 54.8202 55.43V56.18C54.8202 71.25 45.9702 81.61 32.4002 81.61C24.3902 81.61 18.5502 77.56 15.7302 72.66V72.67ZM46.7202 56.57V55.82C46.7202 43.39 39.8402 37.17 31.5502 37.17C22.4102 37.17 15.4402 43.2 15.4402 55.82V56.57C15.4402 69.19 22.0302 75.13 31.6402 75.13C41.2502 75.13 46.7102 68.54 46.7102 56.57H46.7202Z" fill="white"/>
<path d="M64.71 51.2H84.87V58.55H64.71V51.2Z" fill="white"/>
<path d="M127.26 93.68V92.93C127.26 77.86 136.68 67.22 150.24 67.22C158.43 67.22 163.52 71.18 166.35 75.98V44.52H174.17V117.33H166.35V108.85C163.52 113.65 156.65 118.18 149.49 118.18C136.59 118.18 127.26 109.04 127.26 93.69V93.68ZM166.64 93.02V92.27C166.64 79.65 160.61 73.71 151 73.71C141.39 73.71 135.36 80.59 135.36 92.55V93.3C135.36 105.73 142.05 111.67 150.34 111.67C159.48 111.67 166.64 105.64 166.64 93.02Z" fill="white"/>
</g>
</g>
</g>
<defs>
<clipPath id="clip0_42_1754">
<rect width="182.08" height="138.01" fill="white"/>
</clipPath>
</defs>
</svg>
