<svg width="183" height="183" viewBox="0 0 183 183" fill="none" xmlns="http://www.w3.org/2000/svg">
<rect width="182.08" height="182.08" fill="#3A53A4"/>
<mask id="mask0_64_619" style="mask-type:luminance" maskUnits="userSpaceOnUse" x="0" y="22" width="183" height="139">
<path d="M182.08 22H0V160.01H182.08V22Z" fill="white"/>
</mask>
<g mask="url(#mask0_64_619)">
<mask id="mask1_64_619" style="mask-type:luminance" maskUnits="userSpaceOnUse" x="0" y="22" width="183" height="139">
<path d="M182.08 22H0V160.01H182.08V22Z" fill="white"/>
</mask>
<g mask="url(#mask1_64_619)">
<path d="M15.7302 94.67V102.77H7.91016V29.96H15.7302V61.8C18.5602 57 25.2402 52.66 32.4002 52.66C45.3002 52.66 54.8202 62.08 54.8202 77.43V78.18C54.8202 93.25 45.9702 103.61 32.4002 103.61C24.3902 103.61 18.5502 99.56 15.7302 94.66V94.67ZM46.7202 78.57V77.82C46.7202 65.39 39.8402 59.17 31.5502 59.17C22.4102 59.17 15.4402 65.2 15.4402 77.82V78.57C15.4402 91.19 22.0302 97.13 31.6402 97.13C41.2502 97.13 46.7102 90.54 46.7102 78.57H46.7202Z" fill="white"/>
<path d="M64.71 73.2H84.87V80.55H64.71V73.2Z" fill="white"/>
<path d="M127.26 115.68V114.93C127.26 99.86 136.68 89.22 150.24 89.22C158.43 89.22 163.52 93.18 166.35 97.98V66.52H174.17V139.33H166.35V130.85C163.52 135.65 156.65 140.18 149.49 140.18C136.59 140.18 127.26 131.04 127.26 115.69V115.68ZM166.64 115.02V114.27C166.64 101.65 160.61 95.71 151 95.71C141.39 95.71 135.36 102.59 135.36 114.55V115.3C135.36 127.73 142.05 133.67 150.34 133.67C159.48 133.67 166.64 127.64 166.64 115.02Z" fill="white"/>
</g>
</g>
</svg>
