<svg width="339" height="40" viewBox="0 0 339 40" fill="none" xmlns="http://www.w3.org/2000/svg">
<rect width="339" height="40" rx="8" fill="#F7F7F7"/>
<g filter="url(#filter0_d_23_990)">
<rect x="4" y="4" width="111" height="32" rx="4" fill="white" shape-rendering="crispEdges"/>
<path d="M17.2784 26V14.3636H19.0341V24.4886H24.3068V26H17.2784ZM28.7131 26.1932C28.16 26.1932 27.66 26.0909 27.2131 25.8864C26.7661 25.678 26.4119 25.3769 26.1506 24.983C25.893 24.589 25.7642 24.1061 25.7642 23.5341C25.7642 23.0417 25.8589 22.6364 26.0483 22.3182C26.2377 22 26.4934 21.7481 26.8153 21.5625C27.1373 21.3769 27.4972 21.2367 27.8949 21.142C28.2926 21.0473 28.6979 20.9754 29.1108 20.9261C29.6335 20.8655 30.0578 20.8163 30.3835 20.7784C30.7093 20.7367 30.946 20.6705 31.0938 20.5795C31.2415 20.4886 31.3153 20.3409 31.3153 20.1364V20.0966C31.3153 19.6004 31.1752 19.2159 30.8949 18.9432C30.6184 18.6705 30.2055 18.5341 29.6562 18.5341C29.0843 18.5341 28.6335 18.661 28.304 18.9148C27.9782 19.1648 27.7528 19.4432 27.6278 19.75L26.0312 19.3864C26.2206 18.8561 26.4972 18.428 26.8608 18.1023C27.2282 17.7727 27.6506 17.5341 28.1278 17.3864C28.6051 17.2348 29.107 17.1591 29.6335 17.1591C29.982 17.1591 30.3513 17.2008 30.7415 17.2841C31.1354 17.3636 31.5028 17.5114 31.8438 17.7273C32.1884 17.9432 32.4706 18.2519 32.6903 18.6534C32.91 19.0511 33.0199 19.5682 33.0199 20.2045V26H31.3608V24.8068H31.2926C31.1828 25.0265 31.018 25.2424 30.7983 25.4545C30.5786 25.6667 30.2964 25.8428 29.9517 25.983C29.607 26.1231 29.1941 26.1932 28.7131 26.1932ZM29.0824 24.8295C29.5521 24.8295 29.9536 24.7367 30.2869 24.5511C30.6241 24.3655 30.8797 24.1231 31.054 23.8239C31.232 23.5208 31.321 23.197 31.321 22.8523V21.7273C31.2604 21.7879 31.143 21.8447 30.9688 21.8977C30.7983 21.947 30.6032 21.9905 30.3835 22.0284C30.1638 22.0625 29.9498 22.0947 29.7415 22.125C29.5331 22.1515 29.3589 22.1742 29.2188 22.1932C28.8892 22.2348 28.5881 22.3049 28.3153 22.4034C28.0464 22.5019 27.8305 22.6439 27.6676 22.8295C27.5085 23.0114 27.429 23.2538 27.429 23.5568C27.429 23.9773 27.5843 24.2955 27.8949 24.5114C28.2055 24.7235 28.6013 24.8295 29.0824 24.8295ZM41.8224 19.4034L40.2827 19.6761C40.2183 19.4792 40.116 19.2917 39.9759 19.1136C39.8395 18.9356 39.6539 18.7898 39.419 18.6761C39.1842 18.5625 38.8906 18.5057 38.5384 18.5057C38.0573 18.5057 37.6558 18.6136 37.3338 18.8295C37.0118 19.0417 36.8509 19.3163 36.8509 19.6534C36.8509 19.9451 36.9588 20.1799 37.1747 20.358C37.3906 20.536 37.7391 20.6818 38.2202 20.7955L39.6065 21.1136C40.4096 21.2992 41.008 21.5852 41.402 21.9716C41.7959 22.358 41.9929 22.8598 41.9929 23.4773C41.9929 24 41.8414 24.4659 41.5384 24.875C41.2391 25.2803 40.8205 25.5985 40.2827 25.8295C39.7486 26.0606 39.1293 26.1761 38.4247 26.1761C37.4474 26.1761 36.6501 25.9678 36.0327 25.5511C35.4152 25.1307 35.0365 24.5341 34.8963 23.7614L36.5384 23.5114C36.6406 23.9394 36.8509 24.2633 37.169 24.483C37.4872 24.6989 37.902 24.8068 38.4134 24.8068C38.9702 24.8068 39.4152 24.6913 39.7486 24.4602C40.0819 24.2254 40.2486 23.9394 40.2486 23.6023C40.2486 23.3295 40.1463 23.1004 39.9418 22.9148C39.741 22.7292 39.4323 22.589 39.0156 22.4943L37.5384 22.1705C36.724 21.9848 36.1217 21.6894 35.7315 21.2841C35.3452 20.8788 35.152 20.3655 35.152 19.7443C35.152 19.2292 35.2959 18.7784 35.5838 18.392C35.8717 18.0057 36.2694 17.7045 36.777 17.4886C37.2846 17.2689 37.866 17.1591 38.5213 17.1591C39.4645 17.1591 40.2069 17.3636 40.7486 17.7727C41.2902 18.178 41.6482 18.7216 41.8224 19.4034ZM47.9347 17.2727V18.6364H43.1676V17.2727H47.9347ZM44.446 15.1818H46.1449V23.4375C46.1449 23.767 46.1941 24.0152 46.2926 24.1818C46.3911 24.3447 46.518 24.4564 46.6733 24.517C46.8324 24.5739 47.0047 24.6023 47.1903 24.6023C47.3267 24.6023 47.446 24.5928 47.5483 24.5739C47.6506 24.5549 47.7301 24.5398 47.7869 24.5284L48.0938 25.9318C47.9953 25.9697 47.8551 26.0076 47.6733 26.0455C47.4915 26.0871 47.2642 26.1098 46.9915 26.1136C46.5445 26.1212 46.1278 26.0417 45.7415 25.875C45.3551 25.7083 45.0426 25.4508 44.804 25.1023C44.5653 24.7538 44.446 24.3163 44.446 23.7898V15.1818ZM54.1847 14.3636H56.3153L60.0199 23.4091H60.1562L63.8608 14.3636H65.9915V26H64.321V17.5795H64.2131L60.7812 25.983H59.3949L55.9631 17.5739H55.8551V26H54.1847V14.3636ZM72.0838 26.1761C71.2656 26.1761 70.5516 25.9886 69.9418 25.6136C69.3319 25.2386 68.8584 24.714 68.5213 24.0398C68.1842 23.3655 68.0156 22.5777 68.0156 21.6761C68.0156 20.7708 68.1842 19.9792 68.5213 19.3011C68.8584 18.6231 69.3319 18.0966 69.9418 17.7216C70.5516 17.3466 71.2656 17.1591 72.0838 17.1591C72.902 17.1591 73.616 17.3466 74.2259 17.7216C74.8357 18.0966 75.3092 18.6231 75.6463 19.3011C75.9834 19.9792 76.152 20.7708 76.152 21.6761C76.152 22.5777 75.9834 23.3655 75.6463 24.0398C75.3092 24.714 74.8357 25.2386 74.2259 25.6136C73.616 25.9886 72.902 26.1761 72.0838 26.1761ZM72.0895 24.75C72.6198 24.75 73.0592 24.6098 73.4077 24.3295C73.7562 24.0492 74.0137 23.6761 74.1804 23.2102C74.3509 22.7443 74.4361 22.2311 74.4361 21.6705C74.4361 21.1136 74.3509 20.6023 74.1804 20.1364C74.0137 19.6667 73.7562 19.2898 73.4077 19.0057C73.0592 18.7216 72.6198 18.5795 72.0895 18.5795C71.5554 18.5795 71.1122 18.7216 70.7599 19.0057C70.4115 19.2898 70.152 19.6667 69.9815 20.1364C69.8149 20.6023 69.7315 21.1136 69.7315 21.6705C69.7315 22.2311 69.8149 22.7443 69.9815 23.2102C70.152 23.6761 70.4115 24.0492 70.7599 24.3295C71.1122 24.6098 71.5554 24.75 72.0895 24.75ZM79.7472 20.8182V26H78.0483V17.2727H79.679V18.6932H79.7869C79.9877 18.2311 80.3021 17.8598 80.7301 17.5795C81.1619 17.2992 81.7055 17.1591 82.3608 17.1591C82.9555 17.1591 83.4763 17.2841 83.9233 17.5341C84.3703 17.7803 84.7169 18.1477 84.9631 18.6364C85.2093 19.125 85.3324 19.7292 85.3324 20.4489V26H83.6335V20.6534C83.6335 20.0208 83.4688 19.5265 83.1392 19.1705C82.8097 18.8106 82.357 18.6307 81.7812 18.6307C81.3873 18.6307 81.0369 18.7159 80.7301 18.8864C80.4271 19.0568 80.1866 19.3068 80.0085 19.6364C79.8343 19.9621 79.7472 20.3561 79.7472 20.8182ZM91.6847 17.2727V18.6364H86.9176V17.2727H91.6847ZM88.196 15.1818H89.8949V23.4375C89.8949 23.767 89.9441 24.0152 90.0426 24.1818C90.1411 24.3447 90.268 24.4564 90.4233 24.517C90.5824 24.5739 90.7547 24.6023 90.9403 24.6023C91.0767 24.6023 91.196 24.5928 91.2983 24.5739C91.4006 24.5549 91.4801 24.5398 91.5369 24.5284L91.8438 25.9318C91.7453 25.9697 91.6051 26.0076 91.4233 26.0455C91.2415 26.0871 91.0142 26.1098 90.7415 26.1136C90.2945 26.1212 89.8778 26.0417 89.4915 25.875C89.1051 25.7083 88.7926 25.4508 88.554 25.1023C88.3153 24.7538 88.196 24.3163 88.196 23.7898V15.1818ZM95.4503 20.8182V26H93.7514V14.3636H95.4276V18.6932H95.5355C95.7401 18.2235 96.0526 17.8504 96.473 17.5739C96.8935 17.2973 97.4427 17.1591 98.1207 17.1591C98.7192 17.1591 99.242 17.2822 99.6889 17.5284C100.14 17.7746 100.488 18.142 100.734 18.6307C100.984 19.1155 101.109 19.7216 101.109 20.4489V26H99.4105V20.6534C99.4105 20.0133 99.2457 19.517 98.9162 19.1648C98.5866 18.8087 98.1283 18.6307 97.5412 18.6307C97.1397 18.6307 96.7798 18.7159 96.4616 18.8864C96.1473 19.0568 95.8991 19.3068 95.7173 19.6364C95.5393 19.9621 95.4503 20.3561 95.4503 20.8182Z" fill="black"/>
</g>
<path d="M128.278 26V14.3636H130.034V24.4886H135.307V26H128.278ZM139.713 26.1932C139.16 26.1932 138.66 26.0909 138.213 25.8864C137.766 25.678 137.412 25.3769 137.151 24.983C136.893 24.589 136.764 24.1061 136.764 23.5341C136.764 23.0417 136.859 22.6364 137.048 22.3182C137.238 22 137.493 21.7481 137.815 21.5625C138.137 21.3769 138.497 21.2367 138.895 21.142C139.293 21.0473 139.698 20.9754 140.111 20.9261C140.634 20.8655 141.058 20.8163 141.384 20.7784C141.709 20.7367 141.946 20.6705 142.094 20.5795C142.241 20.4886 142.315 20.3409 142.315 20.1364V20.0966C142.315 19.6004 142.175 19.2159 141.895 18.9432C141.618 18.6705 141.205 18.5341 140.656 18.5341C140.084 18.5341 139.634 18.661 139.304 18.9148C138.978 19.1648 138.753 19.4432 138.628 19.75L137.031 19.3864C137.221 18.8561 137.497 18.428 137.861 18.1023C138.228 17.7727 138.651 17.5341 139.128 17.3864C139.605 17.2348 140.107 17.1591 140.634 17.1591C140.982 17.1591 141.351 17.2008 141.741 17.2841C142.135 17.3636 142.503 17.5114 142.844 17.7273C143.188 17.9432 143.471 18.2519 143.69 18.6534C143.91 19.0511 144.02 19.5682 144.02 20.2045V26H142.361V24.8068H142.293C142.183 25.0265 142.018 25.2424 141.798 25.4545C141.579 25.6667 141.296 25.8428 140.952 25.983C140.607 26.1231 140.194 26.1932 139.713 26.1932ZM140.082 24.8295C140.552 24.8295 140.954 24.7367 141.287 24.5511C141.624 24.3655 141.88 24.1231 142.054 23.8239C142.232 23.5208 142.321 23.197 142.321 22.8523V21.7273C142.26 21.7879 142.143 21.8447 141.969 21.8977C141.798 21.947 141.603 21.9905 141.384 22.0284C141.164 22.0625 140.95 22.0947 140.741 22.125C140.533 22.1515 140.359 22.1742 140.219 22.1932C139.889 22.2348 139.588 22.3049 139.315 22.4034C139.046 22.5019 138.83 22.6439 138.668 22.8295C138.509 23.0114 138.429 23.2538 138.429 23.5568C138.429 23.9773 138.584 24.2955 138.895 24.5114C139.205 24.7235 139.601 24.8295 140.082 24.8295ZM152.822 19.4034L151.283 19.6761C151.218 19.4792 151.116 19.2917 150.976 19.1136C150.839 18.9356 150.654 18.7898 150.419 18.6761C150.184 18.5625 149.891 18.5057 149.538 18.5057C149.057 18.5057 148.656 18.6136 148.334 18.8295C148.012 19.0417 147.851 19.3163 147.851 19.6534C147.851 19.9451 147.959 20.1799 148.175 20.358C148.391 20.536 148.739 20.6818 149.22 20.7955L150.607 21.1136C151.41 21.2992 152.008 21.5852 152.402 21.9716C152.796 22.358 152.993 22.8598 152.993 23.4773C152.993 24 152.841 24.4659 152.538 24.875C152.239 25.2803 151.821 25.5985 151.283 25.8295C150.749 26.0606 150.129 26.1761 149.425 26.1761C148.447 26.1761 147.65 25.9678 147.033 25.5511C146.415 25.1307 146.036 24.5341 145.896 23.7614L147.538 23.5114C147.641 23.9394 147.851 24.2633 148.169 24.483C148.487 24.6989 148.902 24.8068 149.413 24.8068C149.97 24.8068 150.415 24.6913 150.749 24.4602C151.082 24.2254 151.249 23.9394 151.249 23.6023C151.249 23.3295 151.146 23.1004 150.942 22.9148C150.741 22.7292 150.432 22.589 150.016 22.4943L148.538 22.1705C147.724 21.9848 147.122 21.6894 146.732 21.2841C146.345 20.8788 146.152 20.3655 146.152 19.7443C146.152 19.2292 146.296 18.7784 146.584 18.392C146.872 18.0057 147.269 17.7045 147.777 17.4886C148.285 17.2689 148.866 17.1591 149.521 17.1591C150.464 17.1591 151.207 17.3636 151.749 17.7727C152.29 18.178 152.648 18.7216 152.822 19.4034ZM158.935 17.2727V18.6364H154.168V17.2727H158.935ZM155.446 15.1818H157.145V23.4375C157.145 23.767 157.194 24.0152 157.293 24.1818C157.391 24.3447 157.518 24.4564 157.673 24.517C157.832 24.5739 158.005 24.6023 158.19 24.6023C158.327 24.6023 158.446 24.5928 158.548 24.5739C158.651 24.5549 158.73 24.5398 158.787 24.5284L159.094 25.9318C158.995 25.9697 158.855 26.0076 158.673 26.0455C158.491 26.0871 158.264 26.1098 157.991 26.1136C157.545 26.1212 157.128 26.0417 156.741 25.875C156.355 25.7083 156.043 25.4508 155.804 25.1023C155.565 24.7538 155.446 24.3163 155.446 23.7898V15.1818ZM169.088 26.1591C168.569 26.1515 168.058 26.0568 167.554 25.875C167.054 25.6932 166.599 25.3902 166.19 24.9659C165.781 24.5417 165.454 23.9716 165.207 23.2557C164.965 22.5398 164.844 21.6458 164.844 20.5739C164.844 19.5587 164.944 18.6572 165.145 17.8693C165.349 17.0814 165.643 16.4167 166.026 15.875C166.408 15.3295 166.87 14.9148 167.412 14.6307C167.954 14.3466 168.562 14.2045 169.236 14.2045C169.929 14.2045 170.545 14.3409 171.082 14.6136C171.62 14.8864 172.056 15.2633 172.389 15.7443C172.726 16.2254 172.94 16.7727 173.031 17.3864H171.298C171.181 16.9015 170.948 16.5057 170.599 16.1989C170.251 15.892 169.796 15.7386 169.236 15.7386C168.384 15.7386 167.719 16.1098 167.241 16.8523C166.768 17.5947 166.529 18.6269 166.526 19.9489H166.611C166.812 19.6193 167.058 19.339 167.349 19.108C167.645 18.8731 167.974 18.6932 168.338 18.5682C168.705 18.4394 169.092 18.375 169.497 18.375C170.171 18.375 170.781 18.5398 171.327 18.8693C171.876 19.1951 172.313 19.6458 172.639 20.2216C172.965 20.7973 173.128 21.4564 173.128 22.1989C173.128 22.9413 172.959 23.6136 172.622 24.2159C172.289 24.8182 171.819 25.2955 171.213 25.6477C170.607 25.9962 169.899 26.1667 169.088 26.1591ZM169.082 24.6818C169.529 24.6818 169.929 24.572 170.281 24.3523C170.634 24.1326 170.912 23.8371 171.116 23.4659C171.321 23.0947 171.423 22.6799 171.423 22.2216C171.423 21.7746 171.323 21.3674 171.122 21C170.925 20.6326 170.652 20.3409 170.304 20.125C169.959 19.9091 169.565 19.8011 169.122 19.8011C168.785 19.8011 168.473 19.8655 168.185 19.9943C167.901 20.1231 167.651 20.3011 167.435 20.5284C167.219 20.7557 167.048 21.017 166.923 21.3125C166.802 21.6042 166.741 21.9129 166.741 22.2386C166.741 22.6742 166.842 23.0777 167.043 23.4489C167.247 23.8201 167.526 24.1193 167.878 24.3466C168.234 24.5701 168.635 24.6818 169.082 24.6818ZM179.591 14.3636H181.722L185.426 23.4091H185.562L189.267 14.3636H191.398V26H189.727V17.5795H189.619L186.188 25.983H184.801L181.369 17.5739H181.261V26H179.591V14.3636ZM197.49 26.1761C196.672 26.1761 195.958 25.9886 195.348 25.6136C194.738 25.2386 194.265 24.714 193.928 24.0398C193.59 23.3655 193.422 22.5777 193.422 21.6761C193.422 20.7708 193.59 19.9792 193.928 19.3011C194.265 18.6231 194.738 18.0966 195.348 17.7216C195.958 17.3466 196.672 17.1591 197.49 17.1591C198.308 17.1591 199.022 17.3466 199.632 17.7216C200.242 18.0966 200.715 18.6231 201.053 19.3011C201.39 19.9792 201.558 20.7708 201.558 21.6761C201.558 22.5777 201.39 23.3655 201.053 24.0398C200.715 24.714 200.242 25.2386 199.632 25.6136C199.022 25.9886 198.308 26.1761 197.49 26.1761ZM197.496 24.75C198.026 24.75 198.465 24.6098 198.814 24.3295C199.162 24.0492 199.42 23.6761 199.587 23.2102C199.757 22.7443 199.842 22.2311 199.842 21.6705C199.842 21.1136 199.757 20.6023 199.587 20.1364C199.42 19.6667 199.162 19.2898 198.814 19.0057C198.465 18.7216 198.026 18.5795 197.496 18.5795C196.962 18.5795 196.518 18.7216 196.166 19.0057C195.818 19.2898 195.558 19.6667 195.388 20.1364C195.221 20.6023 195.138 21.1136 195.138 21.6705C195.138 22.2311 195.221 22.7443 195.388 23.2102C195.558 23.6761 195.818 24.0492 196.166 24.3295C196.518 24.6098 196.962 24.75 197.496 24.75ZM205.153 20.8182V26H203.455V17.2727H205.085V18.6932H205.193C205.394 18.2311 205.708 17.8598 206.136 17.5795C206.568 17.2992 207.112 17.1591 207.767 17.1591C208.362 17.1591 208.883 17.2841 209.33 17.5341C209.777 17.7803 210.123 18.1477 210.369 18.6364C210.616 19.125 210.739 19.7292 210.739 20.4489V26H209.04V20.6534C209.04 20.0208 208.875 19.5265 208.545 19.1705C208.216 18.8106 207.763 18.6307 207.188 18.6307C206.794 18.6307 206.443 18.7159 206.136 18.8864C205.833 19.0568 205.593 19.3068 205.415 19.6364C205.241 19.9621 205.153 20.3561 205.153 20.8182ZM217.091 17.2727V18.6364H212.324V17.2727H217.091ZM213.602 15.1818H215.301V23.4375C215.301 23.767 215.35 24.0152 215.449 24.1818C215.547 24.3447 215.674 24.4564 215.83 24.517C215.989 24.5739 216.161 24.6023 216.347 24.6023C216.483 24.6023 216.602 24.5928 216.705 24.5739C216.807 24.5549 216.886 24.5398 216.943 24.5284L217.25 25.9318C217.152 25.9697 217.011 26.0076 216.83 26.0455C216.648 26.0871 216.42 26.1098 216.148 26.1136C215.701 26.1212 215.284 26.0417 214.898 25.875C214.511 25.7083 214.199 25.4508 213.96 25.1023C213.722 24.7538 213.602 24.3163 213.602 23.7898V15.1818ZM220.857 20.8182V26H219.158V14.3636H220.834V18.6932H220.942C221.146 18.2235 221.459 17.8504 221.879 17.5739C222.3 17.2973 222.849 17.1591 223.527 17.1591C224.125 17.1591 224.648 17.2822 225.095 17.5284C225.546 17.7746 225.894 18.142 226.141 18.6307C226.391 19.1155 226.516 19.7216 226.516 20.4489V26H224.817V20.6534C224.817 20.0133 224.652 19.517 224.322 19.1648C223.993 18.8087 223.535 18.6307 222.947 18.6307C222.546 18.6307 222.186 18.7159 221.868 18.8864C221.554 19.0568 221.305 19.3068 221.124 19.6364C220.946 19.9621 220.857 20.3561 220.857 20.8182ZM235.322 19.4034L233.783 19.6761C233.718 19.4792 233.616 19.2917 233.476 19.1136C233.339 18.9356 233.154 18.7898 232.919 18.6761C232.684 18.5625 232.391 18.5057 232.038 18.5057C231.557 18.5057 231.156 18.6136 230.834 18.8295C230.512 19.0417 230.351 19.3163 230.351 19.6534C230.351 19.9451 230.459 20.1799 230.675 20.358C230.891 20.536 231.239 20.6818 231.72 20.7955L233.107 21.1136C233.91 21.2992 234.508 21.5852 234.902 21.9716C235.296 22.358 235.493 22.8598 235.493 23.4773C235.493 24 235.341 24.4659 235.038 24.875C234.739 25.2803 234.321 25.5985 233.783 25.8295C233.249 26.0606 232.629 26.1761 231.925 26.1761C230.947 26.1761 230.15 25.9678 229.533 25.5511C228.915 25.1307 228.536 24.5341 228.396 23.7614L230.038 23.5114C230.141 23.9394 230.351 24.2633 230.669 24.483C230.987 24.6989 231.402 24.8068 231.913 24.8068C232.47 24.8068 232.915 24.6913 233.249 24.4602C233.582 24.2254 233.749 23.9394 233.749 23.6023C233.749 23.3295 233.646 23.1004 233.442 22.9148C233.241 22.7292 232.932 22.589 232.516 22.4943L231.038 22.1705C230.224 21.9848 229.622 21.6894 229.232 21.2841C228.845 20.8788 228.652 20.3655 228.652 19.7443C228.652 19.2292 228.796 18.7784 229.084 18.392C229.372 18.0057 229.769 17.7045 230.277 17.4886C230.785 17.2689 231.366 17.1591 232.021 17.1591C232.964 17.1591 233.707 17.3636 234.249 17.7727C234.79 18.178 235.148 18.7216 235.322 19.4034Z" fill="black"/>
<path d="M263.261 26H261.398L265.585 14.3636H267.614L271.801 26H269.938L266.648 16.4773H266.557L263.261 26ZM263.574 21.4432H269.619V22.9205H263.574V21.4432ZM275.044 14.3636V26H273.345V14.3636H275.044ZM279.028 14.3636V26H277.33V14.3636H279.028ZM285.111 15.875V14.3636H294.116V15.875H290.486V26H288.736V15.875H285.111ZM295.97 26V17.2727H297.669V26H295.97ZM296.828 15.9261C296.533 15.9261 296.279 15.8277 296.067 15.6307C295.858 15.4299 295.754 15.1913 295.754 14.9148C295.754 14.6345 295.858 14.3958 296.067 14.1989C296.279 13.9981 296.533 13.8977 296.828 13.8977C297.124 13.8977 297.375 13.9981 297.584 14.1989C297.796 14.3958 297.902 14.6345 297.902 14.9148C297.902 15.1913 297.796 15.4299 297.584 15.6307C297.375 15.8277 297.124 15.9261 296.828 15.9261ZM299.955 26V17.2727H301.585V18.6932H301.693C301.875 18.2121 302.172 17.8371 302.585 17.5682C302.998 17.2955 303.492 17.1591 304.068 17.1591C304.652 17.1591 305.14 17.2955 305.534 17.5682C305.932 17.8409 306.225 18.2159 306.415 18.6932H306.506C306.714 18.2273 307.045 17.8561 307.5 17.5795C307.955 17.2992 308.496 17.1591 309.125 17.1591C309.917 17.1591 310.562 17.4072 311.062 17.9034C311.566 18.3996 311.818 19.1477 311.818 20.1477V26H310.119V20.3068C310.119 19.7159 309.958 19.2879 309.636 19.0227C309.314 18.7576 308.93 18.625 308.483 18.625C307.93 18.625 307.5 18.7955 307.193 19.1364C306.886 19.4735 306.733 19.9072 306.733 20.4375V26H305.04V20.1989C305.04 19.7254 304.892 19.3447 304.597 19.0568C304.301 18.7689 303.917 18.625 303.443 18.625C303.121 18.625 302.824 18.7102 302.551 18.8807C302.282 19.0473 302.064 19.2803 301.898 19.5795C301.735 19.8788 301.653 20.2254 301.653 20.6193V26H299.955ZM317.857 26.1761C316.997 26.1761 316.256 25.9924 315.635 25.625C315.018 25.2538 314.54 24.733 314.203 24.0625C313.87 23.3883 313.703 22.5985 313.703 21.6932C313.703 20.7992 313.87 20.0114 314.203 19.3295C314.54 18.6477 315.01 18.1155 315.612 17.733C316.218 17.3504 316.927 17.1591 317.737 17.1591C318.23 17.1591 318.707 17.2405 319.169 17.4034C319.631 17.5663 320.046 17.822 320.413 18.1705C320.781 18.5189 321.071 18.9716 321.283 19.5284C321.495 20.0814 321.601 20.7538 321.601 21.5455V22.1477H314.663V20.875H319.936C319.936 20.428 319.845 20.0322 319.663 19.6875C319.482 19.339 319.226 19.0644 318.896 18.8636C318.571 18.6629 318.188 18.5625 317.749 18.5625C317.271 18.5625 316.855 18.6799 316.499 18.9148C316.146 19.1458 315.874 19.4489 315.68 19.8239C315.491 20.1951 315.396 20.5985 315.396 21.0341V22.0284C315.396 22.6117 315.499 23.108 315.703 23.517C315.911 23.9261 316.201 24.2386 316.572 24.4545C316.944 24.6667 317.377 24.7727 317.874 24.7727C318.196 24.7727 318.489 24.7273 318.754 24.6364C319.019 24.5417 319.249 24.4015 319.442 24.2159C319.635 24.0303 319.783 23.8011 319.885 23.5284L321.493 23.8182C321.364 24.2917 321.133 24.7064 320.8 25.0625C320.47 25.4148 320.055 25.6894 319.555 25.8864C319.059 26.0795 318.493 26.1761 317.857 26.1761Z" fill="black"/>
<defs>
<filter id="filter0_d_23_990" x="2" y="3" width="115" height="36" filterUnits="userSpaceOnUse" color-interpolation-filters="sRGB">
<feFlood flood-opacity="0" result="BackgroundImageFix"/>
<feColorMatrix in="SourceAlpha" type="matrix" values="0 0 0 0 0 0 0 0 0 0 0 0 0 0 0 0 0 0 127 0" result="hardAlpha"/>
<feOffset dy="1"/>
<feGaussianBlur stdDeviation="1"/>
<feComposite in2="hardAlpha" operator="out"/>
<feColorMatrix type="matrix" values="0 0 0 0 0 0 0 0 0 0 0 0 0 0 0 0 0 0 0.05 0"/>
<feBlend mode="normal" in2="BackgroundImageFix" result="effect1_dropShadow_23_990"/>
<feBlend mode="normal" in="SourceGraphic" in2="effect1_dropShadow_23_990" result="shape"/>
</filter>
</defs>
</svg>
