<svg width="757" height="472" viewBox="0 0 757 472" fill="none" xmlns="http://www.w3.org/2000/svg">
<g filter="url(#filter0_d_69_635)">
<rect x="12" y="8" width="733" height="448" rx="8" fill="white"/>
<rect x="12.5" y="8.5" width="732" height="447" rx="7.5" stroke="#E0E0E0"/>
<path d="M36 79H721" stroke="#E6E6E6"/>
<path d="M36 133.833H721" stroke="#E6E6E6"/>
<path d="M36 188.667H721" stroke="#E6E6E6"/>
<path d="M36 243.5H721" stroke="#E6E6E6"/>
<path d="M36 298.333H721" stroke="#E6E6E6"/>
<path d="M36 353.167H721" stroke="#E6E6E6"/>
<path d="M36 408H721" stroke="#E6E6E6"/>
<path d="M142.091 419.909C142.036 419.441 141.811 419.078 141.417 418.82C141.023 418.561 140.54 418.432 139.968 418.432C139.549 418.432 139.183 418.5 138.869 418.635C138.558 418.77 138.315 418.957 138.14 419.194C137.967 419.431 137.881 419.7 137.881 420.001C137.881 420.254 137.941 420.471 138.061 420.652C138.184 420.831 138.341 420.98 138.532 421.1C138.723 421.217 138.923 421.314 139.132 421.391C139.341 421.465 139.534 421.525 139.709 421.571L140.669 421.83C140.916 421.894 141.189 421.983 141.491 422.097C141.796 422.211 142.087 422.367 142.364 422.564C142.644 422.757 142.874 423.007 143.056 423.311C143.238 423.616 143.328 423.99 143.328 424.433C143.328 424.944 143.195 425.406 142.927 425.818C142.662 426.231 142.274 426.558 141.763 426.801C141.256 427.045 140.639 427.166 139.912 427.166C139.235 427.166 138.649 427.057 138.153 426.838C137.661 426.62 137.273 426.315 136.99 425.924C136.71 425.533 136.551 425.08 136.515 424.562H137.696C137.727 424.92 137.847 425.215 138.056 425.449C138.269 425.68 138.537 425.852 138.86 425.966C139.186 426.077 139.537 426.132 139.912 426.132C140.349 426.132 140.742 426.061 141.089 425.92C141.437 425.775 141.713 425.575 141.916 425.32C142.119 425.061 142.22 424.759 142.22 424.415C142.22 424.101 142.133 423.845 141.957 423.648C141.782 423.451 141.551 423.291 141.265 423.168C140.979 423.045 140.669 422.937 140.337 422.845L139.174 422.513C138.435 422.3 137.85 421.997 137.419 421.603C136.988 421.209 136.773 420.694 136.773 420.057C136.773 419.527 136.916 419.066 137.202 418.672C137.492 418.275 137.879 417.967 138.366 417.749C138.855 417.527 139.401 417.416 140.005 417.416C140.614 417.416 141.156 417.525 141.63 417.744C142.104 417.959 142.479 418.255 142.756 418.63C143.036 419.006 143.184 419.432 143.199 419.909H142.091ZM149.532 424.101V419.909H150.621V427H149.532V425.8H149.458C149.292 426.16 149.033 426.466 148.682 426.718C148.332 426.968 147.888 427.092 147.353 427.092C146.91 427.092 146.516 426.995 146.171 426.801C145.826 426.605 145.556 426.309 145.359 425.915C145.162 425.518 145.063 425.018 145.063 424.415V419.909H146.153V424.341C146.153 424.858 146.297 425.27 146.587 425.578C146.879 425.886 147.251 426.04 147.704 426.04C147.975 426.04 148.25 425.971 148.53 425.832C148.813 425.694 149.05 425.481 149.241 425.195C149.435 424.909 149.532 424.544 149.532 424.101ZM153.706 422.734V427H152.617V419.909H153.669V421.017H153.762C153.928 420.657 154.18 420.368 154.519 420.149C154.857 419.928 155.294 419.817 155.83 419.817C156.31 419.817 156.73 419.915 157.09 420.112C157.45 420.306 157.73 420.602 157.93 420.999C158.13 421.393 158.23 421.891 158.23 422.494V427H157.141V422.568C157.141 422.011 156.996 421.577 156.707 421.266C156.418 420.952 156.021 420.795 155.516 420.795C155.168 420.795 154.857 420.871 154.583 421.022C154.313 421.172 154.099 421.393 153.942 421.682C153.785 421.971 153.706 422.322 153.706 422.734Z" fill="#828282"/>
<path d="M212.182 417.545H213.548L216.761 425.393H216.872L220.085 417.545H221.451V427H220.38V419.817H220.288L217.333 427H216.299L213.345 419.817H213.253V427H212.182V417.545ZM226.48 427.148C225.84 427.148 225.278 426.995 224.795 426.691C224.315 426.386 223.939 425.96 223.668 425.412C223.401 424.864 223.267 424.224 223.267 423.491C223.267 422.753 223.401 422.108 223.668 421.557C223.939 421.006 224.315 420.578 224.795 420.274C225.278 419.969 225.84 419.817 226.48 419.817C227.12 419.817 227.68 419.969 228.16 420.274C228.643 420.578 229.019 421.006 229.287 421.557C229.558 422.108 229.693 422.753 229.693 423.491C229.693 424.224 229.558 424.864 229.287 425.412C229.019 425.96 228.643 426.386 228.16 426.691C227.68 426.995 227.12 427.148 226.48 427.148ZM226.48 426.169C226.966 426.169 227.366 426.044 227.68 425.795C227.994 425.546 228.226 425.218 228.377 424.812C228.528 424.406 228.603 423.965 228.603 423.491C228.603 423.018 228.528 422.576 228.377 422.167C228.226 421.757 227.994 421.426 227.68 421.174C227.366 420.922 226.966 420.795 226.48 420.795C225.994 420.795 225.594 420.922 225.28 421.174C224.966 421.426 224.733 421.757 224.583 422.167C224.432 422.576 224.356 423.018 224.356 423.491C224.356 423.965 224.432 424.406 224.583 424.812C224.733 425.218 224.966 425.546 225.28 425.795C225.594 426.044 225.994 426.169 226.48 426.169ZM232.446 422.734V427H231.356V419.909H232.409V421.017H232.501C232.667 420.657 232.919 420.368 233.258 420.149C233.597 419.928 234.034 419.817 234.569 419.817C235.049 419.817 235.469 419.915 235.829 420.112C236.189 420.306 236.47 420.602 236.67 420.999C236.87 421.393 236.97 421.891 236.97 422.494V427H235.88V422.568C235.88 422.011 235.736 421.577 235.446 421.266C235.157 420.952 234.76 420.795 234.255 420.795C233.907 420.795 233.597 420.871 233.323 421.022C233.052 421.172 232.838 421.393 232.681 421.682C232.524 421.971 232.446 422.322 232.446 422.734Z" fill="#828282"/>
<path d="M287.484 418.561V417.545H294.575V418.561H291.602V427H290.457V418.561H287.484ZM299.698 424.101V419.909H300.787V427H299.698V425.8H299.624C299.458 426.16 299.199 426.466 298.848 426.718C298.498 426.968 298.054 427.092 297.519 427.092C297.076 427.092 296.682 426.995 296.337 426.801C295.992 426.605 295.722 426.309 295.525 425.915C295.328 425.518 295.229 425.018 295.229 424.415V419.909H296.319V424.341C296.319 424.858 296.463 425.27 296.753 425.578C297.045 425.886 297.417 426.04 297.87 426.04C298.141 426.04 298.416 425.971 298.696 425.832C298.979 425.694 299.216 425.481 299.407 425.195C299.601 424.909 299.698 424.544 299.698 424.101ZM305.756 427.148C305.073 427.148 304.483 426.997 303.988 426.695C303.495 426.391 303.115 425.966 302.847 425.421C302.583 424.873 302.45 424.236 302.45 423.51C302.45 422.784 302.583 422.143 302.847 421.589C303.115 421.032 303.488 420.598 303.965 420.288C304.445 419.974 305.005 419.817 305.645 419.817C306.014 419.817 306.379 419.878 306.739 420.001C307.099 420.125 307.427 420.325 307.722 420.602C308.018 420.875 308.253 421.239 308.429 421.691C308.604 422.143 308.692 422.701 308.692 423.362V423.824H303.226V422.882H307.584C307.584 422.482 307.504 422.125 307.344 421.811C307.187 421.497 306.962 421.249 306.67 421.068C306.381 420.886 306.039 420.795 305.645 420.795C305.211 420.795 304.836 420.903 304.519 421.119C304.205 421.331 303.963 421.608 303.794 421.95C303.625 422.291 303.54 422.657 303.54 423.048V423.676C303.54 424.212 303.632 424.666 303.817 425.038C304.005 425.407 304.265 425.689 304.597 425.883C304.929 426.074 305.316 426.169 305.756 426.169C306.042 426.169 306.301 426.129 306.531 426.049C306.765 425.966 306.967 425.843 307.136 425.68C307.305 425.513 307.436 425.307 307.529 425.061L308.581 425.357C308.47 425.714 308.284 426.027 308.023 426.298C307.761 426.566 307.438 426.775 307.053 426.926C306.668 427.074 306.236 427.148 305.756 427.148ZM315.372 421.497L314.393 421.774C314.332 421.611 314.241 421.453 314.121 421.299C314.004 421.142 313.844 421.012 313.641 420.911C313.438 420.809 313.178 420.759 312.861 420.759C312.427 420.759 312.065 420.859 311.776 421.059C311.489 421.256 311.346 421.506 311.346 421.811C311.346 422.082 311.445 422.296 311.642 422.453C311.839 422.61 312.147 422.741 312.565 422.845L313.618 423.104C314.252 423.258 314.724 423.493 315.035 423.81C315.346 424.124 315.501 424.529 315.501 425.024C315.501 425.43 315.384 425.794 315.15 426.114C314.92 426.434 314.596 426.686 314.181 426.871C313.765 427.055 313.282 427.148 312.731 427.148C312.008 427.148 311.409 426.991 310.936 426.677C310.462 426.363 310.161 425.904 310.035 425.301L311.069 425.043C311.168 425.424 311.354 425.71 311.628 425.901C311.905 426.092 312.267 426.188 312.713 426.188C313.221 426.188 313.624 426.08 313.922 425.864C314.224 425.646 314.375 425.384 314.375 425.08C314.375 424.833 314.289 424.627 314.116 424.461C313.944 424.292 313.679 424.165 313.322 424.082L312.14 423.805C311.491 423.652 311.014 423.413 310.709 423.09C310.408 422.764 310.257 422.356 310.257 421.866C310.257 421.466 310.369 421.112 310.594 420.805C310.822 420.497 311.131 420.255 311.522 420.08C311.916 419.904 312.362 419.817 312.861 419.817C313.562 419.817 314.113 419.971 314.513 420.278C314.916 420.586 315.203 420.992 315.372 421.497Z" fill="#828282"/>
<path d="M367.702 427L365.117 417.545H366.28L368.256 425.246H368.348L370.361 417.545H371.654L373.667 425.246H373.759L375.735 417.545H376.898L374.313 427H373.131L371.044 419.466H370.971L368.884 427H367.702ZM380.49 427.148C379.806 427.148 379.217 426.997 378.722 426.695C378.229 426.391 377.849 425.966 377.581 425.421C377.317 424.873 377.184 424.236 377.184 423.51C377.184 422.784 377.317 422.143 377.581 421.589C377.849 421.032 378.221 420.598 378.699 420.288C379.179 419.974 379.739 419.817 380.379 419.817C380.748 419.817 381.113 419.878 381.473 420.001C381.833 420.125 382.161 420.325 382.456 420.602C382.752 420.875 382.987 421.239 383.163 421.691C383.338 422.143 383.426 422.701 383.426 423.362V423.824H377.96V422.882H382.318C382.318 422.482 382.238 422.125 382.078 421.811C381.921 421.497 381.696 421.249 381.404 421.068C381.114 420.886 380.773 420.795 380.379 420.795C379.945 420.795 379.569 420.903 379.252 421.119C378.939 421.331 378.697 421.608 378.528 421.95C378.358 422.291 378.274 422.657 378.274 423.048V423.676C378.274 424.212 378.366 424.666 378.551 425.038C378.739 425.407 378.999 425.689 379.331 425.883C379.663 426.074 380.05 426.169 380.49 426.169C380.776 426.169 381.034 426.129 381.265 426.049C381.499 425.966 381.701 425.843 381.87 425.68C382.039 425.513 382.17 425.307 382.262 425.061L383.315 425.357C383.204 425.714 383.018 426.027 382.756 426.298C382.495 426.566 382.172 426.775 381.787 426.926C381.402 427.074 380.97 427.148 380.49 427.148ZM387.761 427.148C387.17 427.148 386.648 426.998 386.196 426.7C385.743 426.398 385.389 425.974 385.134 425.426C384.878 424.875 384.751 424.224 384.751 423.473C384.751 422.728 384.878 422.082 385.134 421.534C385.389 420.986 385.745 420.563 386.2 420.265C386.656 419.966 387.182 419.817 387.779 419.817C388.241 419.817 388.605 419.894 388.873 420.048C389.144 420.198 389.35 420.371 389.492 420.565C389.636 420.755 389.749 420.912 389.829 421.036H389.921V417.545H391.011V427H389.958V425.911H389.829C389.749 426.04 389.635 426.203 389.487 426.4C389.339 426.594 389.129 426.768 388.855 426.922C388.581 427.072 388.216 427.148 387.761 427.148ZM387.908 426.169C388.345 426.169 388.715 426.055 389.016 425.827C389.318 425.597 389.547 425.278 389.704 424.872C389.861 424.462 389.94 423.99 389.94 423.455C389.94 422.925 389.863 422.462 389.709 422.065C389.555 421.665 389.327 421.354 389.026 421.132C388.724 420.908 388.352 420.795 387.908 420.795C387.447 420.795 387.062 420.914 386.754 421.151C386.45 421.385 386.22 421.703 386.066 422.107C385.916 422.507 385.84 422.956 385.84 423.455C385.84 423.959 385.917 424.418 386.071 424.83C386.228 425.24 386.459 425.566 386.763 425.809C387.071 426.049 387.453 426.169 387.908 426.169Z" fill="#828282"/>
<path d="M438.526 418.561V417.545H445.617V418.561H442.644V427H441.499V418.561H438.526ZM448.325 422.734V427H447.236V417.545H448.325V421.017H448.418C448.584 420.651 448.833 420.36 449.166 420.145C449.501 419.926 449.947 419.817 450.504 419.817C450.988 419.817 451.411 419.914 451.774 420.108C452.137 420.298 452.419 420.592 452.619 420.989C452.822 421.383 452.923 421.885 452.923 422.494V427H451.834V422.568C451.834 422.005 451.688 421.569 451.395 421.262C451.106 420.951 450.704 420.795 450.19 420.795C449.833 420.795 449.513 420.871 449.23 421.022C448.95 421.172 448.729 421.393 448.565 421.682C448.405 421.971 448.325 422.322 448.325 422.734ZM459.385 424.101V419.909H460.475V427H459.385V425.8H459.311C459.145 426.16 458.887 426.466 458.536 426.718C458.185 426.968 457.742 427.092 457.206 427.092C456.763 427.092 456.369 426.995 456.025 426.801C455.68 426.605 455.409 426.309 455.212 425.915C455.015 425.518 454.917 425.018 454.917 424.415V419.909H456.006V424.341C456.006 424.858 456.151 425.27 456.44 425.578C456.732 425.886 457.105 426.04 457.557 426.04C457.828 426.04 458.104 425.971 458.384 425.832C458.667 425.694 458.904 425.481 459.095 425.195C459.288 424.909 459.385 424.544 459.385 424.101ZM462.47 427V419.909H463.523V420.98H463.597C463.726 420.629 463.96 420.345 464.298 420.126C464.637 419.908 465.019 419.798 465.443 419.798C465.523 419.798 465.623 419.8 465.743 419.803C465.863 419.806 465.954 419.811 466.016 419.817V420.925C465.979 420.915 465.894 420.902 465.762 420.883C465.633 420.862 465.496 420.851 465.351 420.851C465.006 420.851 464.699 420.923 464.428 421.068C464.16 421.209 463.948 421.406 463.791 421.659C463.637 421.908 463.56 422.193 463.56 422.513V427H462.47ZM472.33 421.497L471.351 421.774C471.29 421.611 471.199 421.453 471.079 421.299C470.962 421.142 470.802 421.012 470.599 420.911C470.396 420.809 470.136 420.759 469.819 420.759C469.385 420.759 469.023 420.859 468.734 421.059C468.447 421.256 468.304 421.506 468.304 421.811C468.304 422.082 468.403 422.296 468.6 422.453C468.797 422.61 469.105 422.741 469.523 422.845L470.576 423.104C471.21 423.258 471.682 423.493 471.993 423.81C472.304 424.124 472.459 424.529 472.459 425.024C472.459 425.43 472.342 425.794 472.108 426.114C471.878 426.434 471.554 426.686 471.139 426.871C470.723 427.055 470.24 427.148 469.689 427.148C468.966 427.148 468.367 426.991 467.894 426.677C467.42 426.363 467.119 425.904 466.993 425.301L468.027 425.043C468.126 425.424 468.312 425.71 468.586 425.901C468.863 426.092 469.225 426.188 469.671 426.188C470.179 426.188 470.582 426.08 470.88 425.864C471.182 425.646 471.333 425.384 471.333 425.08C471.333 424.833 471.247 424.627 471.074 424.461C470.902 424.292 470.637 424.165 470.28 424.082L469.098 423.805C468.449 423.652 467.972 423.413 467.667 423.09C467.366 422.764 467.215 422.356 467.215 421.866C467.215 421.466 467.327 421.112 467.552 420.805C467.78 420.497 468.089 420.255 468.48 420.08C468.874 419.904 469.32 419.817 469.819 419.817C470.52 419.817 471.071 419.971 471.471 420.278C471.874 420.586 472.161 420.992 472.33 421.497Z" fill="#828282"/>
<path d="M525.907 427V417.545H531.576V418.561H527.052V421.756H531.151V422.771H527.052V427H525.907ZM533.313 427V419.909H534.366V420.98H534.439C534.569 420.629 534.803 420.345 535.141 420.126C535.48 419.908 535.861 419.798 536.286 419.798C536.366 419.798 536.466 419.8 536.586 419.803C536.706 419.806 536.797 419.811 536.859 419.817V420.925C536.822 420.915 536.737 420.902 536.605 420.883C536.475 420.862 536.338 420.851 536.194 420.851C535.849 420.851 535.541 420.923 535.27 421.068C535.003 421.209 534.79 421.406 534.633 421.659C534.48 421.908 534.403 422.193 534.403 422.513V427H533.313ZM538.15 427V419.909H539.239V427H538.15ZM538.704 418.727C538.492 418.727 538.308 418.655 538.155 418.51C538.004 418.366 537.928 418.192 537.928 417.989C537.928 417.786 538.004 417.612 538.155 417.467C538.308 417.322 538.492 417.25 538.704 417.25C538.916 417.25 539.098 417.322 539.249 417.467C539.403 417.612 539.48 417.786 539.48 417.989C539.48 418.192 539.403 418.366 539.249 418.51C539.098 418.655 538.916 418.727 538.704 418.727Z" fill="#828282"/>
<path d="M605.646 419.909C605.591 419.441 605.366 419.078 604.972 418.82C604.578 418.561 604.095 418.432 603.523 418.432C603.104 418.432 602.738 418.5 602.424 418.635C602.113 418.77 601.87 418.957 601.695 419.194C601.522 419.431 601.436 419.7 601.436 420.001C601.436 420.254 601.496 420.471 601.616 420.652C601.739 420.831 601.896 420.98 602.087 421.1C602.278 421.217 602.478 421.314 602.687 421.391C602.897 421.465 603.089 421.525 603.264 421.571L604.225 421.83C604.471 421.894 604.745 421.983 605.046 422.097C605.351 422.211 605.642 422.367 605.919 422.564C606.199 422.757 606.43 423.007 606.611 423.311C606.793 423.616 606.884 423.99 606.884 424.433C606.884 424.944 606.75 425.406 606.482 425.818C606.217 426.231 605.83 426.558 605.319 426.801C604.811 427.045 604.194 427.166 603.467 427.166C602.79 427.166 602.204 427.057 601.709 426.838C601.216 426.62 600.828 426.315 600.545 425.924C600.265 425.533 600.107 425.08 600.07 424.562H601.252C601.282 424.92 601.402 425.215 601.612 425.449C601.824 425.68 602.092 425.852 602.415 425.966C602.741 426.077 603.092 426.132 603.467 426.132C603.904 426.132 604.297 426.061 604.645 425.92C604.992 425.775 605.268 425.575 605.471 425.32C605.674 425.061 605.776 424.759 605.776 424.415C605.776 424.101 605.688 423.845 605.513 423.648C605.337 423.451 605.106 423.291 604.82 423.168C604.534 423.045 604.225 422.937 603.892 422.845L602.729 422.513C601.99 422.3 601.405 421.997 600.975 421.603C600.544 421.209 600.328 420.694 600.328 420.057C600.328 419.527 600.471 419.066 600.758 418.672C601.047 418.275 601.435 417.967 601.921 417.749C602.41 417.527 602.957 417.416 603.56 417.416C604.169 417.416 604.711 417.525 605.185 417.744C605.659 417.959 606.034 418.255 606.311 418.63C606.591 419.006 606.739 419.432 606.754 419.909H605.646ZM610.705 427.166C610.256 427.166 609.848 427.082 609.482 426.912C609.115 426.74 608.824 426.492 608.609 426.169C608.394 425.843 608.286 425.449 608.286 424.987C608.286 424.581 608.366 424.252 608.526 423.999C608.686 423.744 608.9 423.544 609.168 423.399C609.435 423.254 609.731 423.147 610.054 423.076C610.38 423.002 610.708 422.944 611.037 422.901C611.468 422.845 611.817 422.804 612.085 422.776C612.356 422.745 612.553 422.694 612.676 422.624C612.802 422.553 612.865 422.43 612.865 422.254V422.217C612.865 421.762 612.741 421.408 612.491 421.156C612.245 420.903 611.871 420.777 611.37 420.777C610.85 420.777 610.442 420.891 610.146 421.119C609.851 421.346 609.643 421.589 609.523 421.848L608.489 421.479C608.674 421.048 608.92 420.712 609.228 420.472C609.538 420.229 609.877 420.06 610.243 419.964C610.613 419.866 610.976 419.817 611.333 419.817C611.56 419.817 611.822 419.844 612.118 419.9C612.416 419.952 612.704 420.061 612.981 420.228C613.261 420.394 613.493 420.645 613.678 420.98C613.863 421.316 613.955 421.765 613.955 422.328V427H612.865V426.04H612.81C612.736 426.194 612.613 426.358 612.441 426.534C612.268 426.709 612.039 426.858 611.753 426.982C611.467 427.105 611.117 427.166 610.705 427.166ZM610.871 426.188C611.302 426.188 611.665 426.103 611.961 425.934C612.259 425.764 612.484 425.546 612.635 425.278C612.788 425.01 612.865 424.729 612.865 424.433V423.436C612.819 423.491 612.718 423.542 612.561 423.588C612.407 423.632 612.228 423.67 612.025 423.704C611.825 423.735 611.63 423.762 611.439 423.787C611.251 423.808 611.099 423.827 610.982 423.842C610.699 423.879 610.434 423.939 610.188 424.022C609.945 424.102 609.748 424.224 609.597 424.387C609.449 424.547 609.375 424.766 609.375 425.043C609.375 425.421 609.515 425.707 609.795 425.901C610.079 426.092 610.437 426.188 610.871 426.188ZM619.027 419.909V420.832H615.353V419.909H619.027ZM616.424 418.21H617.513V424.969C617.513 425.277 617.558 425.507 617.647 425.661C617.739 425.812 617.856 425.914 617.998 425.966C618.142 426.015 618.295 426.04 618.455 426.04C618.575 426.04 618.673 426.034 618.75 426.021C618.827 426.006 618.889 425.994 618.935 425.984L619.157 426.963C619.083 426.991 618.98 427.018 618.847 427.046C618.715 427.077 618.547 427.092 618.344 427.092C618.036 427.092 617.735 427.026 617.439 426.894C617.147 426.761 616.904 426.56 616.71 426.289C616.519 426.018 616.424 425.677 616.424 425.264V418.21Z" fill="#828282"/>
<path d="M681.091 419.909C681.036 419.441 680.811 419.078 680.417 418.82C680.023 418.561 679.54 418.432 678.968 418.432C678.549 418.432 678.183 418.5 677.869 418.635C677.558 418.77 677.315 418.957 677.14 419.194C676.967 419.431 676.881 419.7 676.881 420.001C676.881 420.254 676.941 420.471 677.061 420.652C677.184 420.831 677.341 420.98 677.532 421.1C677.723 421.217 677.923 421.314 678.132 421.391C678.341 421.465 678.534 421.525 678.709 421.571L679.669 421.83C679.916 421.894 680.189 421.983 680.491 422.097C680.796 422.211 681.087 422.367 681.364 422.564C681.644 422.757 681.874 423.007 682.056 423.311C682.238 423.616 682.328 423.99 682.328 424.433C682.328 424.944 682.195 425.406 681.927 425.818C681.662 426.231 681.274 426.558 680.763 426.801C680.256 427.045 679.639 427.166 678.912 427.166C678.235 427.166 677.649 427.057 677.153 426.838C676.661 426.62 676.273 426.315 675.99 425.924C675.71 425.533 675.551 425.08 675.515 424.562H676.696C676.727 424.92 676.847 425.215 677.056 425.449C677.269 425.68 677.537 425.852 677.86 425.966C678.186 426.077 678.537 426.132 678.912 426.132C679.349 426.132 679.742 426.061 680.089 425.92C680.437 425.775 680.713 425.575 680.916 425.32C681.119 425.061 681.22 424.759 681.22 424.415C681.22 424.101 681.133 423.845 680.957 423.648C680.782 423.451 680.551 423.291 680.265 423.168C679.979 423.045 679.669 422.937 679.337 422.845L678.174 422.513C677.435 422.3 676.85 421.997 676.419 421.603C675.988 421.209 675.773 420.694 675.773 420.057C675.773 419.527 675.916 419.066 676.202 418.672C676.492 418.275 676.879 417.967 677.366 417.749C677.855 417.527 678.401 417.416 679.005 417.416C679.614 417.416 680.156 417.525 680.63 417.744C681.104 417.959 681.479 418.255 681.756 418.63C682.036 419.006 682.184 419.432 682.199 419.909H681.091ZM688.532 424.101V419.909H689.621V427H688.532V425.8H688.458C688.292 426.16 688.033 426.466 687.682 426.718C687.332 426.968 686.888 427.092 686.353 427.092C685.91 427.092 685.516 426.995 685.171 426.801C684.826 426.605 684.556 426.309 684.359 425.915C684.162 425.518 684.063 425.018 684.063 424.415V419.909H685.153V424.341C685.153 424.858 685.297 425.27 685.587 425.578C685.879 425.886 686.251 426.04 686.704 426.04C686.975 426.04 687.25 425.971 687.53 425.832C687.813 425.694 688.05 425.481 688.241 425.195C688.435 424.909 688.532 424.544 688.532 424.101ZM692.706 422.734V427H691.617V419.909H692.669V421.017H692.762C692.928 420.657 693.18 420.368 693.519 420.149C693.857 419.928 694.294 419.817 694.83 419.817C695.31 419.817 695.73 419.915 696.09 420.112C696.45 420.306 696.73 420.602 696.93 420.999C697.13 421.393 697.23 421.891 697.23 422.494V427H696.141V422.568C696.141 422.011 695.996 421.577 695.707 421.266C695.418 420.952 695.021 420.795 694.516 420.795C694.168 420.795 693.857 420.871 693.583 421.022C693.313 421.172 693.099 421.393 692.942 421.682C692.785 421.971 692.706 422.322 692.706 422.734Z" fill="#828282"/>
<path d="M39.9332 94.1293C39.3916 94.1293 38.9038 94.0215 38.4698 93.8061C38.0359 93.5907 37.6881 93.2952 37.4265 92.9197C37.1649 92.5443 37.0218 92.1165 36.9972 91.6364H38.1051C38.1482 92.0642 38.3421 92.4181 38.6868 92.6982C39.0346 92.9751 39.45 93.1136 39.9332 93.1136C40.321 93.1136 40.6657 93.0228 40.9673 92.8413C41.272 92.6597 41.5105 92.4104 41.6829 92.0934C41.8583 91.7733 41.946 91.4117 41.946 91.0085C41.946 90.5961 41.8552 90.2283 41.6737 89.9052C41.4951 89.579 41.2489 89.322 40.935 89.1342C40.6211 88.9465 40.2625 88.8511 39.8594 88.848C39.5701 88.8449 39.2731 88.8896 38.9684 88.9819C38.6637 89.0711 38.4129 89.1866 38.2159 89.3281L37.1449 89.1989L37.7173 84.5455H42.6293V85.5611H38.6776L38.3452 88.3494H38.4006C38.5945 88.1955 38.8376 88.0678 39.13 87.9663C39.4223 87.8647 39.727 87.8139 40.044 87.8139C40.6226 87.8139 41.1381 87.9524 41.5906 88.2294C42.046 88.5033 42.4031 88.8788 42.6616 89.3558C42.9232 89.8329 43.054 90.3776 43.054 90.9901C43.054 91.5933 42.9186 92.1319 42.6477 92.6058C42.38 93.0767 42.0107 93.4491 41.5398 93.723C41.0689 93.9938 40.5334 94.1293 39.9332 94.1293ZM48.2487 84.1023L45.2018 95.4219H44.2046L47.2515 84.1023H48.2487ZM52.4762 94.1293C51.9345 94.1293 51.4467 94.0215 51.0128 93.8061C50.5788 93.5907 50.2311 93.2952 49.9695 92.9197C49.7079 92.5443 49.5647 92.1165 49.5401 91.6364H50.6481C50.6912 92.0642 50.8851 92.4181 51.2298 92.6982C51.5775 92.9751 51.993 93.1136 52.4762 93.1136C52.864 93.1136 53.2087 93.0228 53.5103 92.8413C53.815 92.6597 54.0535 92.4104 54.2259 92.0934C54.4013 91.7733 54.489 91.4117 54.489 91.0085C54.489 90.5961 54.3982 90.2283 54.2166 89.9052C54.0381 89.579 53.7919 89.322 53.478 89.1342C53.1641 88.9465 52.8055 88.8511 52.4023 88.848C52.113 88.8449 51.8161 88.8896 51.5114 88.9819C51.2067 89.0711 50.9558 89.1866 50.7589 89.3281L49.6879 89.1989L50.2603 84.5455H55.1722V85.5611H51.2205L50.8881 88.3494H50.9435C51.1374 88.1955 51.3806 88.0678 51.6729 87.9663C51.9653 87.8647 52.27 87.8139 52.587 87.8139C53.1656 87.8139 53.6811 87.9524 54.1335 88.2294C54.589 88.5033 54.946 88.8788 55.2045 89.3558C55.4661 89.8329 55.5969 90.3776 55.5969 90.9901C55.5969 91.5933 55.4615 92.1319 55.1907 92.6058C54.9229 93.0767 54.5536 93.4491 54.0827 93.723C53.6119 93.9938 53.0763 94.1293 52.4762 94.1293Z" fill="#828282"/>
<path d="M36.7571 147.061V146.119L40.9119 139.545H41.5952V141.004H41.1335L37.9943 145.972V146.045H43.5895V147.061H36.7571ZM41.2074 149V146.775V146.336V139.545H42.2969V149H41.2074Z" fill="#828282"/>
<path d="M40.1733 204.129C39.5639 204.129 39.0207 204.025 38.5437 203.815C38.0697 203.606 37.6927 203.315 37.4126 202.943C37.1357 202.567 36.9848 202.132 36.9602 201.636H38.1236C38.1482 201.941 38.2528 202.204 38.4375 202.426C38.6222 202.644 38.8638 202.814 39.1623 202.934C39.4608 203.054 39.7917 203.114 40.1548 203.114C40.5611 203.114 40.9212 203.043 41.2351 202.901C41.549 202.76 41.7952 202.563 41.9737 202.31C42.1522 202.058 42.2415 201.766 42.2415 201.433C42.2415 201.085 42.1553 200.779 41.983 200.515C41.8106 200.247 41.5582 200.038 41.2259 199.887C40.8935 199.736 40.4872 199.661 40.0071 199.661H39.25V198.645H40.0071C40.3826 198.645 40.7119 198.577 40.995 198.442C41.2813 198.306 41.5044 198.116 41.6644 197.869C41.8275 197.623 41.9091 197.334 41.9091 197.001C41.9091 196.681 41.8383 196.403 41.6967 196.166C41.5552 195.929 41.3551 195.744 41.0966 195.612C40.8411 195.48 40.5395 195.413 40.1918 195.413C39.8655 195.413 39.5578 195.473 39.2685 195.593C38.9822 195.71 38.7483 195.881 38.5668 196.106C38.3852 196.327 38.2867 196.595 38.2713 196.909H37.1634C37.1818 196.414 37.3311 195.98 37.6112 195.607C37.8912 195.232 38.2575 194.939 38.7099 194.73C39.1654 194.521 39.6655 194.416 40.2102 194.416C40.795 194.416 41.2966 194.535 41.7152 194.772C42.1338 195.006 42.4554 195.315 42.68 195.7C42.9047 196.084 43.017 196.5 43.017 196.946C43.017 197.478 42.877 197.932 42.5969 198.308C42.32 198.683 41.9429 198.943 41.4659 199.088V199.162C42.063 199.26 42.5292 199.514 42.8647 199.924C43.2002 200.33 43.3679 200.833 43.3679 201.433C43.3679 201.947 43.2279 202.409 42.9478 202.818C42.6708 203.224 42.2923 203.545 41.8121 203.778C41.332 204.012 40.7857 204.129 40.1733 204.129Z" fill="#828282"/>
<path d="M36.9787 259V258.169L40.0994 254.753C40.4657 254.353 40.7673 254.005 41.0043 253.71C41.2412 253.411 41.4167 253.131 41.5305 252.869C41.6475 252.605 41.706 252.328 41.706 252.038C41.706 251.706 41.6259 251.418 41.4659 251.175C41.3089 250.932 41.0935 250.744 40.8196 250.612C40.5457 250.48 40.2379 250.413 39.8963 250.413C39.5331 250.413 39.2161 250.489 38.9453 250.64C38.6776 250.787 38.4698 250.995 38.3221 251.263C38.1774 251.531 38.1051 251.844 38.1051 252.205H37.0156C37.0156 251.651 37.1433 251.164 37.3988 250.746C37.6542 250.327 38.002 250.001 38.4421 249.767C38.8853 249.533 39.3823 249.416 39.9332 249.416C40.4872 249.416 40.9781 249.533 41.4059 249.767C41.8337 250.001 42.1692 250.316 42.4123 250.713C42.6554 251.11 42.777 251.552 42.777 252.038C42.777 252.386 42.7139 252.726 42.5877 253.059C42.4646 253.388 42.2492 253.756 41.9414 254.162C41.6367 254.565 41.2135 255.058 40.6719 255.639L38.5483 257.911V257.984H42.9432V259H36.9787Z" fill="#828282"/>
<path d="M40.3026 304.545V314H39.1577V305.746H39.1023L36.794 307.278V306.115L39.1577 304.545H40.3026Z" fill="#828282"/>
<path d="M40.0625 369.129C39.367 369.129 38.7745 368.94 38.2852 368.561C37.7958 368.18 37.4219 367.627 37.1634 366.904C36.9048 366.178 36.7756 365.301 36.7756 364.273C36.7756 363.251 36.9048 362.378 37.1634 361.655C37.425 360.929 37.8004 360.375 38.2898 359.993C38.7822 359.609 39.3731 359.416 40.0625 359.416C40.7519 359.416 41.3413 359.609 41.8306 359.993C42.323 360.375 42.6985 360.929 42.957 361.655C43.2186 362.378 43.3494 363.251 43.3494 364.273C43.3494 365.301 43.2202 366.178 42.9616 366.904C42.7031 367.627 42.3292 368.18 41.8398 368.561C41.3505 368.94 40.758 369.129 40.0625 369.129ZM40.0625 368.114C40.7519 368.114 41.2874 367.781 41.669 367.116C42.0507 366.452 42.2415 365.504 42.2415 364.273C42.2415 363.454 42.1538 362.757 41.9783 362.181C41.806 361.606 41.5567 361.167 41.2305 360.866C40.9073 360.564 40.518 360.413 40.0625 360.413C39.3793 360.413 38.8453 360.75 38.4606 361.424C38.0759 362.095 37.8835 363.045 37.8835 364.273C37.8835 365.091 37.9697 365.787 38.142 366.359C38.3144 366.932 38.5621 367.367 38.8853 367.666C39.2115 367.964 39.6039 368.114 40.0625 368.114ZM48.4645 359.102L45.4176 370.422H44.4205L47.4673 359.102H48.4645ZM52.692 369.129C52.1504 369.129 51.6626 369.022 51.2286 368.806C50.7947 368.591 50.4469 368.295 50.1853 367.92C49.9237 367.544 49.7806 367.116 49.7559 366.636H50.8639C50.907 367.064 51.1009 367.418 51.4456 367.698C51.7934 367.975 52.2088 368.114 52.692 368.114C53.0798 368.114 53.4245 368.023 53.7261 367.841C54.0308 367.66 54.2693 367.41 54.4417 367.093C54.6171 366.773 54.7048 366.412 54.7048 366.009C54.7048 365.596 54.614 365.228 54.4324 364.905C54.2539 364.579 54.0077 364.322 53.6938 364.134C53.3799 363.946 53.0213 363.851 52.6182 363.848C52.3289 363.845 52.0319 363.89 51.7272 363.982C51.4225 364.071 51.1717 364.187 50.9747 364.328L49.9037 364.199L50.4761 359.545H55.3881V360.561H51.4363L51.104 363.349H51.1594C51.3532 363.196 51.5964 363.068 51.8888 362.966C52.1811 362.865 52.4858 362.814 52.8028 362.814C53.3814 362.814 53.8969 362.952 54.3493 363.229C54.8048 363.503 55.1618 363.879 55.4204 364.356C55.682 364.833 55.8128 365.378 55.8128 365.99C55.8128 366.593 55.6773 367.132 55.4065 367.606C55.1388 368.077 54.7694 368.449 54.2986 368.723C53.8277 368.994 53.2922 369.129 52.692 369.129Z" fill="#828282"/>
<path d="M37.1477 50V38.3636H39.2557V48.233H44.3807V50H37.1477ZM48.6307 50.1761C48.0777 50.1761 47.5795 50.0777 47.1364 49.8807C46.697 49.6799 46.3485 49.3845 46.0909 48.9943C45.8371 48.6042 45.7102 48.1231 45.7102 47.5511C45.7102 47.0587 45.8011 46.6515 45.983 46.3295C46.1648 46.0076 46.4129 45.75 46.7273 45.5568C47.0417 45.3636 47.3958 45.2178 47.7898 45.1193C48.1875 45.017 48.5985 44.9432 49.0227 44.8977C49.5341 44.8447 49.9489 44.7973 50.267 44.7557C50.5852 44.7102 50.8163 44.642 50.9602 44.5511C51.108 44.4564 51.1818 44.3106 51.1818 44.1136V44.0795C51.1818 43.6515 51.0549 43.3201 50.8011 43.0852C50.5473 42.8504 50.1818 42.733 49.7045 42.733C49.2008 42.733 48.8011 42.8428 48.5057 43.0625C48.214 43.2822 48.017 43.5417 47.9148 43.8409L45.9943 43.5682C46.1458 43.0379 46.3958 42.5947 46.7443 42.2386C47.0928 41.8788 47.5189 41.6098 48.0227 41.4318C48.5265 41.25 49.0833 41.1591 49.6932 41.1591C50.1136 41.1591 50.5322 41.2083 50.9489 41.3068C51.3655 41.4053 51.7462 41.5682 52.0909 41.7955C52.4356 42.0189 52.7121 42.3239 52.9205 42.7102C53.1326 43.0966 53.2386 43.5795 53.2386 44.1591V50H51.2614V48.8011H51.1932C51.0682 49.0436 50.892 49.2708 50.6648 49.483C50.4413 49.6913 50.1591 49.8598 49.8182 49.9886C49.4811 50.1136 49.0852 50.1761 48.6307 50.1761ZM49.1648 48.6648C49.5777 48.6648 49.9356 48.5833 50.2386 48.4205C50.5417 48.2538 50.7746 48.0341 50.9375 47.7614C51.1042 47.4886 51.1875 47.1913 51.1875 46.8693V45.8409C51.1231 45.8939 51.0133 45.9432 50.858 45.9886C50.7064 46.0341 50.536 46.0739 50.3466 46.108C50.1572 46.142 49.9697 46.1723 49.7841 46.1989C49.5985 46.2254 49.4375 46.2481 49.3011 46.267C48.9943 46.3087 48.7197 46.3769 48.4773 46.4716C48.2348 46.5663 48.0436 46.6989 47.9034 46.8693C47.7633 47.036 47.6932 47.2519 47.6932 47.517C47.6932 47.8958 47.8314 48.1818 48.108 48.375C48.3845 48.5682 48.7367 48.6648 49.1648 48.6648ZM62.2045 43.5795L60.3295 43.7841C60.2765 43.5947 60.1837 43.4167 60.0511 43.25C59.9223 43.0833 59.7481 42.9489 59.5284 42.8466C59.3087 42.7443 59.0398 42.6932 58.7216 42.6932C58.2936 42.6932 57.9337 42.786 57.642 42.9716C57.3542 43.1572 57.2121 43.3977 57.2159 43.6932C57.2121 43.947 57.3049 44.1534 57.4943 44.3125C57.6875 44.4716 58.0057 44.6023 58.4489 44.7045L59.9375 45.0227C60.7633 45.2008 61.3769 45.483 61.7784 45.8693C62.1837 46.2557 62.3883 46.7614 62.392 47.3864C62.3883 47.9356 62.2273 48.4205 61.9091 48.8409C61.5947 49.2576 61.1572 49.5833 60.5966 49.8182C60.036 50.053 59.392 50.1705 58.6648 50.1705C57.5966 50.1705 56.7367 49.947 56.0852 49.5C55.4337 49.0492 55.0455 48.4223 54.9205 47.6193L56.9261 47.4261C57.017 47.8201 57.2102 48.1174 57.5057 48.3182C57.8011 48.5189 58.1856 48.6193 58.6591 48.6193C59.1477 48.6193 59.5398 48.5189 59.8352 48.3182C60.1345 48.1174 60.2841 47.8693 60.2841 47.5739C60.2841 47.3239 60.1875 47.1174 59.9943 46.9545C59.8049 46.7917 59.5095 46.6667 59.108 46.5795L57.6193 46.267C56.7822 46.0928 56.1629 45.7992 55.7614 45.3864C55.3598 44.9697 55.161 44.4432 55.1648 43.8068C55.161 43.2689 55.3068 42.803 55.6023 42.4091C55.9015 42.0114 56.3163 41.7045 56.8466 41.4886C57.3807 41.2689 57.9962 41.1591 58.6932 41.1591C59.7159 41.1591 60.5208 41.3769 61.108 41.8125C61.6989 42.2481 62.0644 42.8371 62.2045 43.5795ZM68.446 41.2727V42.8636H63.429V41.2727H68.446ZM64.6676 39.1818H66.7244V47.375C66.7244 47.6515 66.7661 47.8636 66.8494 48.0114C66.9366 48.1553 67.0502 48.2538 67.1903 48.3068C67.3305 48.3598 67.4858 48.3864 67.6562 48.3864C67.785 48.3864 67.9025 48.3769 68.0085 48.358C68.1184 48.339 68.2017 48.322 68.2585 48.3068L68.6051 49.9148C68.4953 49.9527 68.3381 49.9943 68.1335 50.0398C67.9328 50.0852 67.6866 50.1117 67.3949 50.1193C66.8797 50.1345 66.4157 50.0568 66.0028 49.8864C65.59 49.7121 65.2623 49.4432 65.0199 49.0795C64.7813 48.7159 64.6638 48.2614 64.6676 47.7159V39.1818ZM76.6747 50L73.3906 38.3636H75.6577L77.7543 46.9148H77.8622L80.1009 38.3636H82.1634L84.4077 46.9205H84.5099L86.6065 38.3636H88.8736L85.5895 50H83.5099L81.1804 41.8352H81.0895L78.7543 50H76.6747ZM93.2173 50.1705C92.3423 50.1705 91.5866 49.9886 90.9503 49.625C90.3177 49.2576 89.831 48.7386 89.4901 48.0682C89.1491 47.3939 88.9787 46.6004 88.9787 45.6875C88.9787 44.7898 89.1491 44.0019 89.4901 43.3239C89.8348 42.642 90.3158 42.1117 90.9332 41.733C91.5507 41.3504 92.276 41.1591 93.1094 41.1591C93.6473 41.1591 94.1548 41.2462 94.6321 41.4205C95.1132 41.5909 95.5374 41.8561 95.9048 42.2159C96.276 42.5758 96.5677 43.0341 96.7798 43.5909C96.992 44.1439 97.098 44.803 97.098 45.5682V46.1989H89.9446V44.8125H95.1264C95.1226 44.4186 95.0374 44.0682 94.8707 43.7614C94.7041 43.4508 94.4711 43.2064 94.1719 43.0284C93.8764 42.8504 93.5317 42.7614 93.1378 42.7614C92.7173 42.7614 92.348 42.8636 92.0298 43.0682C91.7116 43.2689 91.4635 43.5341 91.2855 43.8636C91.1113 44.1894 91.0223 44.5473 91.0185 44.9375V46.1477C91.0185 46.6553 91.1113 47.0909 91.2969 47.4545C91.4825 47.8144 91.742 48.0909 92.0753 48.2841C92.4086 48.4735 92.7988 48.5682 93.2457 48.5682C93.545 48.5682 93.8158 48.5265 94.0582 48.4432C94.3007 48.3561 94.5109 48.2292 94.6889 48.0625C94.867 47.8958 95.0014 47.6894 95.0923 47.4432L97.0128 47.6591C96.8916 48.1667 96.6605 48.6098 96.3196 48.9886C95.9825 49.3636 95.5507 49.6553 95.0241 49.8636C94.4976 50.0682 93.8954 50.1705 93.2173 50.1705ZM102.702 50.1705C101.827 50.1705 101.071 49.9886 100.435 49.625C99.8021 49.2576 99.3153 48.7386 98.9744 48.0682C98.6335 47.3939 98.4631 46.6004 98.4631 45.6875C98.4631 44.7898 98.6335 44.0019 98.9744 43.3239C99.3191 42.642 99.8002 42.1117 100.418 41.733C101.035 41.3504 101.76 41.1591 102.594 41.1591C103.132 41.1591 103.639 41.2462 104.116 41.4205C104.598 41.5909 105.022 41.8561 105.389 42.2159C105.76 42.5758 106.052 43.0341 106.264 43.5909C106.476 44.1439 106.582 44.803 106.582 45.5682V46.1989H99.429V44.8125H104.611C104.607 44.4186 104.522 44.0682 104.355 43.7614C104.188 43.4508 103.955 43.2064 103.656 43.0284C103.361 42.8504 103.016 42.7614 102.622 42.7614C102.202 42.7614 101.832 42.8636 101.514 43.0682C101.196 43.2689 100.948 43.5341 100.77 43.8636C100.596 44.1894 100.507 44.5473 100.503 44.9375V46.1477C100.503 46.6553 100.596 47.0909 100.781 47.4545C100.967 47.8144 101.226 48.0909 101.56 48.2841C101.893 48.4735 102.283 48.5682 102.73 48.5682C103.029 48.5682 103.3 48.5265 103.543 48.4432C103.785 48.3561 103.995 48.2292 104.173 48.0625C104.351 47.8958 104.486 47.6894 104.577 47.4432L106.497 47.6591C106.376 48.1667 106.145 48.6098 105.804 48.9886C105.467 49.3636 105.035 49.6553 104.509 49.8636C103.982 50.0682 103.38 50.1705 102.702 50.1705ZM110.197 47.2614L110.192 44.7784H110.521L113.658 41.2727H116.061L112.203 45.5682H111.777L110.197 47.2614ZM108.322 50V38.3636H110.379V50H108.322ZM113.8 50L110.959 46.0284L112.345 44.5795L116.26 50H113.8Z" fill="#3A53A4"/>
</g>
<g filter="url(#filter1_d_69_635)">
<path d="M36 353.5H146.5L227.5 241L298.5 407.5L383.5 294.5L444 134L515.5 190.5L604 79L679 294.5L718.5 353.5" stroke="#3A97A4" stroke-width="5" stroke-linecap="round" stroke-linejoin="round"/>
</g>
<g filter="url(#filter2_d_69_635)">
<path d="M36 353.5H146.5L227.5 411L300.5 294.5H383.5L451.5 181.5L515.5 77L600 130.5L701 269L718.5 353.5" stroke="#823AA4" stroke-width="5" stroke-linecap="round" stroke-linejoin="round"/>
</g>
<g filter="url(#filter3_d_69_635)">
<path d="M42.5 405L146.5 353.5L223.5 185L300.5 294.5L380.5 405L451.5 294.5L515.5 238L600 78L682 405H719.5" stroke="#A43A4D" stroke-width="5" stroke-linecap="round" stroke-linejoin="round"/>
</g>
<defs>
<filter id="filter0_d_69_635" x="0" y="0" width="757" height="472" filterUnits="userSpaceOnUse" color-interpolation-filters="sRGB">
<feFlood flood-opacity="0" result="BackgroundImageFix"/>
<feColorMatrix in="SourceAlpha" type="matrix" values="0 0 0 0 0 0 0 0 0 0 0 0 0 0 0 0 0 0 127 0" result="hardAlpha"/>
<feOffset dy="4"/>
<feGaussianBlur stdDeviation="6"/>
<feComposite in2="hardAlpha" operator="out"/>
<feColorMatrix type="matrix" values="0 0 0 0 0 0 0 0 0 0 0 0 0 0 0 0 0 0 0.04 0"/>
<feBlend mode="normal" in2="BackgroundImageFix" result="effect1_dropShadow_69_635"/>
<feBlend mode="normal" in="SourceGraphic" in2="effect1_dropShadow_69_635" result="shape"/>
</filter>
<filter id="filter1_d_69_635" x="29.5" y="76.5" width="695.5" height="341.5" filterUnits="userSpaceOnUse" color-interpolation-filters="sRGB">
<feFlood flood-opacity="0" result="BackgroundImageFix"/>
<feColorMatrix in="SourceAlpha" type="matrix" values="0 0 0 0 0 0 0 0 0 0 0 0 0 0 0 0 0 0 127 0" result="hardAlpha"/>
<feOffset dy="4"/>
<feGaussianBlur stdDeviation="2"/>
<feComposite in2="hardAlpha" operator="out"/>
<feColorMatrix type="matrix" values="0 0 0 0 0 0 0 0 0 0 0 0 0 0 0 0 0 0 0.25 0"/>
<feBlend mode="normal" in2="BackgroundImageFix" result="effect1_dropShadow_69_635"/>
<feBlend mode="normal" in="SourceGraphic" in2="effect1_dropShadow_69_635" result="shape"/>
</filter>
<filter id="filter2_d_69_635" x="29.5" y="74.5" width="695.501" height="347" filterUnits="userSpaceOnUse" color-interpolation-filters="sRGB">
<feFlood flood-opacity="0" result="BackgroundImageFix"/>
<feColorMatrix in="SourceAlpha" type="matrix" values="0 0 0 0 0 0 0 0 0 0 0 0 0 0 0 0 0 0 127 0" result="hardAlpha"/>
<feOffset dy="4"/>
<feGaussianBlur stdDeviation="2"/>
<feComposite in2="hardAlpha" operator="out"/>
<feColorMatrix type="matrix" values="0 0 0 0 0 0 0 0 0 0 0 0 0 0 0 0 0 0 0.25 0"/>
<feBlend mode="normal" in2="BackgroundImageFix" result="effect1_dropShadow_69_635"/>
<feBlend mode="normal" in="SourceGraphic" in2="effect1_dropShadow_69_635" result="shape"/>
</filter>
<filter id="filter3_d_69_635" x="35.999" y="75.4999" width="690.001" height="340.001" filterUnits="userSpaceOnUse" color-interpolation-filters="sRGB">
<feFlood flood-opacity="0" result="BackgroundImageFix"/>
<feColorMatrix in="SourceAlpha" type="matrix" values="0 0 0 0 0 0 0 0 0 0 0 0 0 0 0 0 0 0 127 0" result="hardAlpha"/>
<feOffset dy="4"/>
<feGaussianBlur stdDeviation="2"/>
<feComposite in2="hardAlpha" operator="out"/>
<feColorMatrix type="matrix" values="0 0 0 0 0 0 0 0 0 0 0 0 0 0 0 0 0 0 0.25 0"/>
<feBlend mode="normal" in2="BackgroundImageFix" result="effect1_dropShadow_69_635"/>
<feBlend mode="normal" in="SourceGraphic" in2="effect1_dropShadow_69_635" result="shape"/>
</filter>
</defs>
</svg>
