<svg width="532" height="472" viewBox="0 0 532 472" fill="none" xmlns="http://www.w3.org/2000/svg">
<g filter="url(#filter0_d_69_636)">
<g clip-path="url(#clip0_69_636)">
<rect x="12" y="8" width="508" height="448" rx="8" fill="white"/>
<path d="M36 79H721" stroke="#E6E6E6"/>
<path d="M36 133.833H721" stroke="#E6E6E6"/>
<path d="M36 188.667H721" stroke="#E6E6E6"/>
<path d="M36 243.5H721" stroke="#E6E6E6"/>
<path d="M36 298.333H721" stroke="#E6E6E6"/>
<path d="M36 353.167H721" stroke="#E6E6E6"/>
<path d="M36 408H721" stroke="#E6E6E6"/>
<path d="M109.393 419.909C109.338 419.441 109.113 419.078 108.719 418.82C108.325 418.561 107.842 418.432 107.269 418.432C106.851 418.432 106.485 418.5 106.171 418.635C105.86 418.77 105.617 418.957 105.441 419.194C105.269 419.431 105.183 419.7 105.183 420.001C105.183 420.254 105.243 420.471 105.363 420.652C105.486 420.831 105.643 420.98 105.834 421.1C106.024 421.217 106.225 421.314 106.434 421.391C106.643 421.465 106.835 421.525 107.011 421.571L107.971 421.83C108.217 421.894 108.491 421.983 108.793 422.097C109.098 422.211 109.388 422.367 109.665 422.564C109.945 422.757 110.176 423.007 110.358 423.311C110.539 423.616 110.63 423.99 110.63 424.433C110.63 424.944 110.496 425.406 110.229 425.818C109.964 426.231 109.576 426.558 109.065 426.801C108.557 427.045 107.94 427.166 107.214 427.166C106.537 427.166 105.951 427.057 105.455 426.838C104.963 426.62 104.575 426.315 104.292 425.924C104.012 425.533 103.853 425.08 103.816 424.562H104.998C105.029 424.92 105.149 425.215 105.358 425.449C105.571 425.68 105.838 425.852 106.161 425.966C106.488 426.077 106.839 426.132 107.214 426.132C107.651 426.132 108.043 426.061 108.391 425.92C108.739 425.775 109.014 425.575 109.218 425.32C109.421 425.061 109.522 424.759 109.522 424.415C109.522 424.101 109.435 423.845 109.259 423.648C109.084 423.451 108.853 423.291 108.567 423.168C108.28 423.045 107.971 422.937 107.639 422.845L106.475 422.513C105.737 422.3 105.152 421.997 104.721 421.603C104.29 421.209 104.075 420.694 104.075 420.057C104.075 419.527 104.218 419.066 104.504 418.672C104.793 418.275 105.181 417.967 105.667 417.749C106.157 417.527 106.703 417.416 107.306 417.416C107.916 417.416 108.457 417.525 108.931 417.744C109.405 417.959 109.781 418.255 110.058 418.63C110.338 419.006 110.486 419.432 110.501 419.909H109.393ZM116.834 424.101V419.909H117.923V427H116.834V425.8H116.76C116.594 426.16 116.335 426.466 115.984 426.718C115.633 426.968 115.19 427.092 114.655 427.092C114.211 427.092 113.817 426.995 113.473 426.801C113.128 426.605 112.857 426.309 112.66 425.915C112.463 425.518 112.365 425.018 112.365 424.415V419.909H113.454V424.341C113.454 424.858 113.599 425.27 113.888 425.578C114.181 425.886 114.553 426.04 115.005 426.04C115.276 426.04 115.552 425.971 115.832 425.832C116.115 425.694 116.352 425.481 116.543 425.195C116.737 424.909 116.834 424.544 116.834 424.101ZM121.008 422.734V427H119.919V419.909H120.971V421.017H121.063C121.23 420.657 121.482 420.368 121.821 420.149C122.159 419.928 122.596 419.817 123.132 419.817C123.612 419.817 124.032 419.915 124.392 420.112C124.752 420.306 125.032 420.602 125.232 420.999C125.432 421.393 125.532 421.891 125.532 422.494V427H124.443V422.568C124.443 422.011 124.298 421.577 124.009 421.266C123.719 420.952 123.322 420.795 122.818 420.795C122.47 420.795 122.159 420.871 121.885 421.022C121.614 421.172 121.4 421.393 121.243 421.682C121.087 421.971 121.008 422.322 121.008 422.734Z" fill="#828282"/>
<path d="M173.636 417.545H175.002L178.215 425.393H178.326L181.539 417.545H182.905V427H181.834V419.817H181.742L178.788 427H177.754L174.799 419.817H174.707V427H173.636V417.545ZM187.934 427.148C187.294 427.148 186.732 426.995 186.249 426.691C185.769 426.386 185.393 425.96 185.123 425.412C184.855 424.864 184.721 424.224 184.721 423.491C184.721 422.753 184.855 422.108 185.123 421.557C185.393 421.006 185.769 420.578 186.249 420.274C186.732 419.969 187.294 419.817 187.934 419.817C188.574 419.817 189.134 419.969 189.614 420.274C190.098 420.578 190.473 421.006 190.741 421.557C191.012 422.108 191.147 422.753 191.147 423.491C191.147 424.224 191.012 424.864 190.741 425.412C190.473 425.96 190.098 426.386 189.614 426.691C189.134 426.995 188.574 427.148 187.934 427.148ZM187.934 426.169C188.42 426.169 188.82 426.044 189.134 425.795C189.448 425.546 189.681 425.218 189.831 424.812C189.982 424.406 190.058 423.965 190.058 423.491C190.058 423.018 189.982 422.576 189.831 422.167C189.681 421.757 189.448 421.426 189.134 421.174C188.82 420.922 188.42 420.795 187.934 420.795C187.448 420.795 187.048 420.922 186.734 421.174C186.42 421.426 186.187 421.757 186.037 422.167C185.886 422.576 185.81 423.018 185.81 423.491C185.81 423.965 185.886 424.406 186.037 424.812C186.187 425.218 186.42 425.546 186.734 425.795C187.048 426.044 187.448 426.169 187.934 426.169ZM193.9 422.734V427H192.81V419.909H193.863V421.017H193.955C194.121 420.657 194.374 420.368 194.712 420.149C195.051 419.928 195.488 419.817 196.023 419.817C196.503 419.817 196.923 419.915 197.284 420.112C197.644 420.306 197.924 420.602 198.124 420.999C198.324 421.393 198.424 421.891 198.424 422.494V427H197.334V422.568C197.334 422.011 197.19 421.577 196.9 421.266C196.611 420.952 196.214 420.795 195.709 420.795C195.362 420.795 195.051 420.871 194.777 421.022C194.506 421.172 194.292 421.393 194.135 421.682C193.978 421.971 193.9 422.322 193.9 422.734Z" fill="#828282"/>
<path d="M243.09 418.561V417.545H250.181V418.561H247.208V427H246.063V418.561H243.09ZM255.304 424.101V419.909H256.394V427H255.304V425.8H255.23C255.064 426.16 254.806 426.466 254.455 426.718C254.104 426.968 253.661 427.092 253.125 427.092C252.682 427.092 252.288 426.995 251.943 426.801C251.599 426.605 251.328 426.309 251.131 425.915C250.934 425.518 250.836 425.018 250.836 424.415V419.909H251.925V424.341C251.925 424.858 252.07 425.27 252.359 425.578C252.651 425.886 253.024 426.04 253.476 426.04C253.747 426.04 254.022 425.971 254.303 425.832C254.586 425.694 254.823 425.481 255.013 425.195C255.207 424.909 255.304 424.544 255.304 424.101ZM261.362 427.148C260.679 427.148 260.09 426.997 259.594 426.695C259.102 426.391 258.722 425.966 258.454 425.421C258.189 424.873 258.057 424.236 258.057 423.51C258.057 422.784 258.189 422.143 258.454 421.589C258.722 421.032 259.094 420.598 259.571 420.288C260.051 419.974 260.611 419.817 261.251 419.817C261.621 419.817 261.985 419.878 262.346 420.001C262.706 420.125 263.033 420.325 263.329 420.602C263.624 420.875 263.86 421.239 264.035 421.691C264.211 422.143 264.298 422.701 264.298 423.362V423.824H258.832V422.882H263.19C263.19 422.482 263.11 422.125 262.95 421.811C262.793 421.497 262.569 421.249 262.276 421.068C261.987 420.886 261.645 420.795 261.251 420.795C260.818 420.795 260.442 420.903 260.125 421.119C259.811 421.331 259.57 421.608 259.4 421.95C259.231 422.291 259.146 422.657 259.146 423.048V423.676C259.146 424.212 259.239 424.666 259.423 425.038C259.611 425.407 259.871 425.689 260.204 425.883C260.536 426.074 260.922 426.169 261.362 426.169C261.648 426.169 261.907 426.129 262.138 426.049C262.372 425.966 262.573 425.843 262.743 425.68C262.912 425.513 263.043 425.307 263.135 425.061L264.188 425.357C264.077 425.714 263.891 426.027 263.629 426.298C263.367 426.566 263.044 426.775 262.659 426.926C262.275 427.074 261.842 427.148 261.362 427.148ZM270.978 421.497L270 421.774C269.938 421.611 269.847 421.453 269.727 421.299C269.61 421.142 269.45 421.012 269.247 420.911C269.044 420.809 268.784 420.759 268.467 420.759C268.033 420.759 267.671 420.859 267.382 421.059C267.096 421.256 266.953 421.506 266.953 421.811C266.953 422.082 267.051 422.296 267.248 422.453C267.445 422.61 267.753 422.741 268.172 422.845L269.224 423.104C269.858 423.258 270.331 423.493 270.641 423.81C270.952 424.124 271.108 424.529 271.108 425.024C271.108 425.43 270.991 425.794 270.757 426.114C270.526 426.434 270.203 426.686 269.787 426.871C269.372 427.055 268.889 427.148 268.338 427.148C267.615 427.148 267.016 426.991 266.542 426.677C266.068 426.363 265.768 425.904 265.642 425.301L266.676 425.043C266.774 425.424 266.961 425.71 267.234 425.901C267.511 426.092 267.873 426.188 268.319 426.188C268.827 426.188 269.23 426.08 269.529 425.864C269.83 425.646 269.981 425.384 269.981 425.08C269.981 424.833 269.895 424.627 269.723 424.461C269.55 424.292 269.286 424.165 268.929 424.082L267.747 423.805C267.097 423.652 266.62 423.413 266.316 423.09C266.014 422.764 265.863 422.356 265.863 421.866C265.863 421.466 265.976 421.112 266.2 420.805C266.428 420.497 266.737 420.255 267.128 420.08C267.522 419.904 267.968 419.817 268.467 419.817C269.169 419.817 269.72 419.971 270.12 420.278C270.523 420.586 270.809 420.992 270.978 421.497Z" fill="#828282"/>
<path d="M317.461 427L314.876 417.545H316.039L318.015 425.246H318.107L320.12 417.545H321.413L323.425 425.246H323.518L325.494 417.545H326.657L324.072 427H322.89L320.803 419.466H320.729L318.643 427H317.461ZM330.248 427.148C329.565 427.148 328.976 426.997 328.48 426.695C327.988 426.391 327.608 425.966 327.34 425.421C327.075 424.873 326.943 424.236 326.943 423.51C326.943 422.784 327.075 422.143 327.34 421.589C327.608 421.032 327.98 420.598 328.457 420.288C328.937 419.974 329.498 419.817 330.138 419.817C330.507 419.817 330.872 419.878 331.232 420.001C331.592 420.125 331.92 420.325 332.215 420.602C332.511 420.875 332.746 421.239 332.921 421.691C333.097 422.143 333.185 422.701 333.185 423.362V423.824H327.719V422.882H332.077C332.077 422.482 331.997 422.125 331.837 421.811C331.68 421.497 331.455 421.249 331.163 421.068C330.873 420.886 330.532 420.795 330.138 420.795C329.704 420.795 329.328 420.903 329.011 421.119C328.697 421.331 328.456 421.608 328.286 421.95C328.117 422.291 328.033 422.657 328.033 423.048V423.676C328.033 424.212 328.125 424.666 328.31 425.038C328.497 425.407 328.757 425.689 329.09 425.883C329.422 426.074 329.808 426.169 330.248 426.169C330.535 426.169 330.793 426.129 331.024 426.049C331.258 425.966 331.46 425.843 331.629 425.68C331.798 425.513 331.929 425.307 332.021 425.061L333.074 425.357C332.963 425.714 332.777 426.027 332.515 426.298C332.254 426.566 331.93 426.775 331.546 426.926C331.161 427.074 330.729 427.148 330.248 427.148ZM337.519 427.148C336.929 427.148 336.407 426.998 335.954 426.7C335.502 426.398 335.148 425.974 334.893 425.426C334.637 424.875 334.509 424.224 334.509 423.473C334.509 422.728 334.637 422.082 334.893 421.534C335.148 420.986 335.504 420.563 335.959 420.265C336.415 419.966 336.941 419.817 337.538 419.817C338 419.817 338.364 419.894 338.632 420.048C338.903 420.198 339.109 420.371 339.251 420.565C339.395 420.755 339.508 420.912 339.588 421.036H339.68V417.545H340.769V427H339.717V425.911H339.588C339.508 426.04 339.394 426.203 339.246 426.4C339.098 426.594 338.887 426.768 338.614 426.922C338.34 427.072 337.975 427.148 337.519 427.148ZM337.667 426.169C338.104 426.169 338.474 426.055 338.775 425.827C339.077 425.597 339.306 425.278 339.463 424.872C339.62 424.462 339.698 423.99 339.698 423.455C339.698 422.925 339.621 422.462 339.468 422.065C339.314 421.665 339.086 421.354 338.784 421.132C338.483 420.908 338.11 420.795 337.667 420.795C337.206 420.795 336.821 420.914 336.513 421.151C336.208 421.385 335.979 421.703 335.825 422.107C335.674 422.507 335.599 422.956 335.599 423.455C335.599 423.959 335.676 424.418 335.83 424.83C335.987 425.24 336.218 425.566 336.522 425.809C336.83 426.049 337.212 426.169 337.667 426.169Z" fill="#828282"/>
<path d="M382.437 418.561V417.545H389.528V418.561H386.555V427H385.41V418.561H382.437ZM392.237 422.734V427H391.147V417.545H392.237V421.017H392.329C392.495 420.651 392.744 420.36 393.077 420.145C393.412 419.926 393.858 419.817 394.416 419.817C394.899 419.817 395.322 419.914 395.685 420.108C396.048 420.298 396.33 420.592 396.53 420.989C396.733 421.383 396.835 421.885 396.835 422.494V427H395.745V422.568C395.745 422.005 395.599 421.569 395.307 421.262C395.017 420.951 394.616 420.795 394.102 420.795C393.745 420.795 393.425 420.871 393.141 421.022C392.861 421.172 392.64 421.393 392.477 421.682C392.317 421.971 392.237 422.322 392.237 422.734ZM403.296 424.101V419.909H404.386V427H403.296V425.8H403.223C403.056 426.16 402.798 426.466 402.447 426.718C402.096 426.968 401.653 427.092 401.117 427.092C400.674 427.092 400.28 426.995 399.936 426.801C399.591 426.605 399.32 426.309 399.123 425.915C398.926 425.518 398.828 425.018 398.828 424.415V419.909H399.917V424.341C399.917 424.858 400.062 425.27 400.351 425.578C400.644 425.886 401.016 426.04 401.468 426.04C401.739 426.04 402.015 425.971 402.295 425.832C402.578 425.694 402.815 425.481 403.006 425.195C403.2 424.909 403.296 424.544 403.296 424.101ZM406.381 427V419.909H407.434V420.98H407.508C407.637 420.629 407.871 420.345 408.21 420.126C408.548 419.908 408.93 419.798 409.354 419.798C409.434 419.798 409.534 419.8 409.655 419.803C409.775 419.806 409.865 419.811 409.927 419.817V420.925C409.89 420.915 409.805 420.902 409.673 420.883C409.544 420.862 409.407 420.851 409.262 420.851C408.917 420.851 408.61 420.923 408.339 421.068C408.071 421.209 407.859 421.406 407.702 421.659C407.548 421.908 407.471 422.193 407.471 422.513V427H406.381ZM416.241 421.497L415.262 421.774C415.201 421.611 415.11 421.453 414.99 421.299C414.873 421.142 414.713 421.012 414.51 420.911C414.307 420.809 414.047 420.759 413.73 420.759C413.296 420.759 412.934 420.859 412.645 421.059C412.359 421.256 412.216 421.506 412.216 421.811C412.216 422.082 412.314 422.296 412.511 422.453C412.708 422.61 413.016 422.741 413.434 422.845L414.487 423.104C415.121 423.258 415.593 423.493 415.904 423.81C416.215 424.124 416.37 424.529 416.37 425.024C416.37 425.43 416.253 425.794 416.019 426.114C415.789 426.434 415.466 426.686 415.05 426.871C414.635 427.055 414.151 427.148 413.6 427.148C412.877 427.148 412.279 426.991 411.805 426.677C411.331 426.363 411.031 425.904 410.904 425.301L411.939 425.043C412.037 425.424 412.223 425.71 412.497 425.901C412.774 426.092 413.136 426.188 413.582 426.188C414.09 426.188 414.493 426.08 414.792 425.864C415.093 425.646 415.244 425.384 415.244 425.08C415.244 424.833 415.158 424.627 414.985 424.461C414.813 424.292 414.548 424.165 414.191 424.082L413.01 423.805C412.36 423.652 411.883 423.413 411.578 423.09C411.277 422.764 411.126 422.356 411.126 421.866C411.126 421.466 411.238 421.112 411.463 420.805C411.691 420.497 412 420.255 412.391 420.08C412.785 419.904 413.231 419.817 413.73 419.817C414.431 419.817 414.982 419.971 415.382 420.278C415.786 420.586 416.072 420.992 416.241 421.497Z" fill="#828282"/>
<path d="M463.971 427V417.545H469.64V418.561H465.115V421.756H469.215V422.771H465.115V427H463.971ZM471.377 427V419.909H472.429V420.98H472.503C472.632 420.629 472.866 420.345 473.205 420.126C473.543 419.908 473.925 419.798 474.35 419.798C474.43 419.798 474.53 419.8 474.65 419.803C474.77 419.806 474.86 419.811 474.922 419.817V420.925C474.885 420.915 474.8 420.902 474.668 420.883C474.539 420.862 474.402 420.851 474.257 420.851C473.913 420.851 473.605 420.923 473.334 421.068C473.066 421.209 472.854 421.406 472.697 421.659C472.543 421.908 472.466 422.193 472.466 422.513V427H471.377ZM476.213 427V419.909H477.303V427H476.213ZM476.767 418.727C476.555 418.727 476.372 418.655 476.218 418.51C476.067 418.366 475.992 418.192 475.992 417.989C475.992 417.786 476.067 417.612 476.218 417.467C476.372 417.322 476.555 417.25 476.767 417.25C476.98 417.25 477.161 417.322 477.312 417.467C477.466 417.612 477.543 417.786 477.543 417.989C477.543 418.192 477.466 418.366 477.312 418.51C477.161 418.655 476.98 418.727 476.767 418.727Z" fill="#828282"/>
<path d="M39.9332 94.1293C39.3916 94.1293 38.9038 94.0215 38.4698 93.8061C38.0359 93.5907 37.6881 93.2952 37.4265 92.9197C37.1649 92.5443 37.0218 92.1165 36.9972 91.6364H38.1051C38.1482 92.0642 38.3421 92.4181 38.6868 92.6982C39.0346 92.9751 39.45 93.1136 39.9332 93.1136C40.321 93.1136 40.6657 93.0228 40.9673 92.8413C41.272 92.6597 41.5105 92.4104 41.6829 92.0934C41.8583 91.7733 41.946 91.4117 41.946 91.0085C41.946 90.5961 41.8552 90.2283 41.6737 89.9052C41.4951 89.579 41.2489 89.322 40.935 89.1342C40.6211 88.9465 40.2625 88.8511 39.8594 88.848C39.5701 88.8449 39.2731 88.8896 38.9684 88.9819C38.6637 89.0711 38.4129 89.1866 38.2159 89.3281L37.1449 89.1989L37.7173 84.5455H42.6293V85.5611H38.6776L38.3452 88.3494H38.4006C38.5945 88.1955 38.8376 88.0678 39.13 87.9663C39.4223 87.8647 39.727 87.8139 40.044 87.8139C40.6226 87.8139 41.1381 87.9524 41.5906 88.2294C42.046 88.5033 42.4031 88.8788 42.6616 89.3558C42.9232 89.8329 43.054 90.3776 43.054 90.9901C43.054 91.5933 42.9186 92.1319 42.6477 92.6058C42.38 93.0767 42.0107 93.4491 41.5398 93.723C41.0689 93.9938 40.5334 94.1293 39.9332 94.1293ZM48.2487 84.1023L45.2018 95.4219H44.2046L47.2515 84.1023H48.2487ZM52.4762 94.1293C51.9345 94.1293 51.4467 94.0215 51.0128 93.8061C50.5788 93.5907 50.2311 93.2952 49.9695 92.9197C49.7079 92.5443 49.5647 92.1165 49.5401 91.6364H50.6481C50.6912 92.0642 50.8851 92.4181 51.2298 92.6982C51.5775 92.9751 51.993 93.1136 52.4762 93.1136C52.864 93.1136 53.2087 93.0228 53.5103 92.8413C53.815 92.6597 54.0535 92.4104 54.2259 92.0934C54.4013 91.7733 54.489 91.4117 54.489 91.0085C54.489 90.5961 54.3982 90.2283 54.2166 89.9052C54.0381 89.579 53.7919 89.322 53.478 89.1342C53.1641 88.9465 52.8055 88.8511 52.4023 88.848C52.113 88.8449 51.8161 88.8896 51.5114 88.9819C51.2067 89.0711 50.9558 89.1866 50.7589 89.3281L49.6879 89.1989L50.2603 84.5455H55.1722V85.5611H51.2205L50.8881 88.3494H50.9435C51.1374 88.1955 51.3806 88.0678 51.6729 87.9663C51.9653 87.8647 52.27 87.8139 52.587 87.8139C53.1656 87.8139 53.6811 87.9524 54.1335 88.2294C54.589 88.5033 54.946 88.8788 55.2045 89.3558C55.4661 89.8329 55.5969 90.3776 55.5969 90.9901C55.5969 91.5933 55.4615 92.1319 55.1907 92.6058C54.9229 93.0767 54.5536 93.4491 54.0827 93.723C53.6119 93.9938 53.0763 94.1293 52.4762 94.1293Z" fill="#828282"/>
<path d="M36.7571 147.061V146.119L40.9119 139.545H41.5952V141.004H41.1335L37.9943 145.972V146.045H43.5895V147.061H36.7571ZM41.2074 149V146.775V146.336V139.545H42.2969V149H41.2074Z" fill="#828282"/>
<path d="M40.1733 204.129C39.5639 204.129 39.0207 204.025 38.5437 203.815C38.0697 203.606 37.6927 203.315 37.4126 202.943C37.1357 202.567 36.9848 202.132 36.9602 201.636H38.1236C38.1482 201.941 38.2528 202.204 38.4375 202.426C38.6222 202.644 38.8638 202.814 39.1623 202.934C39.4608 203.054 39.7917 203.114 40.1548 203.114C40.5611 203.114 40.9212 203.043 41.2351 202.901C41.549 202.76 41.7952 202.563 41.9737 202.31C42.1522 202.058 42.2415 201.766 42.2415 201.433C42.2415 201.085 42.1553 200.779 41.983 200.515C41.8106 200.247 41.5582 200.038 41.2259 199.887C40.8935 199.736 40.4872 199.661 40.0071 199.661H39.25V198.645H40.0071C40.3826 198.645 40.7119 198.577 40.995 198.442C41.2813 198.306 41.5044 198.116 41.6644 197.869C41.8275 197.623 41.9091 197.334 41.9091 197.001C41.9091 196.681 41.8383 196.403 41.6967 196.166C41.5552 195.929 41.3551 195.744 41.0966 195.612C40.8411 195.48 40.5395 195.413 40.1918 195.413C39.8655 195.413 39.5578 195.473 39.2685 195.593C38.9822 195.71 38.7483 195.881 38.5668 196.106C38.3852 196.327 38.2867 196.595 38.2713 196.909H37.1634C37.1818 196.414 37.3311 195.98 37.6112 195.607C37.8912 195.232 38.2575 194.939 38.7099 194.73C39.1654 194.521 39.6655 194.416 40.2102 194.416C40.795 194.416 41.2966 194.535 41.7152 194.772C42.1338 195.006 42.4554 195.315 42.68 195.7C42.9047 196.084 43.017 196.5 43.017 196.946C43.017 197.478 42.877 197.932 42.5969 198.308C42.32 198.683 41.9429 198.943 41.4659 199.088V199.162C42.063 199.26 42.5292 199.514 42.8647 199.924C43.2002 200.33 43.3679 200.833 43.3679 201.433C43.3679 201.947 43.2279 202.409 42.9478 202.818C42.6708 203.224 42.2923 203.545 41.8121 203.778C41.332 204.012 40.7857 204.129 40.1733 204.129Z" fill="#828282"/>
<path d="M36.9787 259V258.169L40.0994 254.753C40.4657 254.353 40.7673 254.005 41.0043 253.71C41.2412 253.411 41.4167 253.131 41.5305 252.869C41.6475 252.605 41.706 252.328 41.706 252.038C41.706 251.706 41.6259 251.418 41.4659 251.175C41.3089 250.932 41.0935 250.744 40.8196 250.612C40.5457 250.48 40.2379 250.413 39.8963 250.413C39.5331 250.413 39.2161 250.489 38.9453 250.64C38.6776 250.787 38.4698 250.995 38.3221 251.263C38.1774 251.531 38.1051 251.844 38.1051 252.205H37.0156C37.0156 251.651 37.1433 251.164 37.3988 250.746C37.6542 250.327 38.002 250.001 38.4421 249.767C38.8853 249.533 39.3823 249.416 39.9332 249.416C40.4872 249.416 40.9781 249.533 41.4059 249.767C41.8337 250.001 42.1692 250.316 42.4123 250.713C42.6554 251.11 42.777 251.552 42.777 252.038C42.777 252.386 42.7139 252.726 42.5877 253.059C42.4646 253.388 42.2492 253.756 41.9414 254.162C41.6367 254.565 41.2135 255.058 40.6719 255.639L38.5483 257.911V257.984H42.9432V259H36.9787Z" fill="#828282"/>
<path d="M40.3026 304.545V314H39.1577V305.746H39.1023L36.794 307.278V306.115L39.1577 304.545H40.3026Z" fill="#828282"/>
<path d="M40.0625 369.129C39.367 369.129 38.7745 368.94 38.2852 368.561C37.7958 368.18 37.4219 367.627 37.1634 366.904C36.9048 366.178 36.7756 365.301 36.7756 364.273C36.7756 363.251 36.9048 362.378 37.1634 361.655C37.425 360.929 37.8004 360.375 38.2898 359.993C38.7822 359.609 39.3731 359.416 40.0625 359.416C40.7519 359.416 41.3413 359.609 41.8306 359.993C42.323 360.375 42.6985 360.929 42.957 361.655C43.2186 362.378 43.3494 363.251 43.3494 364.273C43.3494 365.301 43.2202 366.178 42.9616 366.904C42.7031 367.627 42.3292 368.18 41.8398 368.561C41.3505 368.94 40.758 369.129 40.0625 369.129ZM40.0625 368.114C40.7519 368.114 41.2874 367.781 41.669 367.116C42.0507 366.452 42.2415 365.504 42.2415 364.273C42.2415 363.454 42.1538 362.757 41.9783 362.181C41.806 361.606 41.5567 361.167 41.2305 360.866C40.9073 360.564 40.518 360.413 40.0625 360.413C39.3793 360.413 38.8453 360.75 38.4606 361.424C38.0759 362.095 37.8835 363.045 37.8835 364.273C37.8835 365.091 37.9697 365.787 38.142 366.359C38.3144 366.932 38.5621 367.367 38.8853 367.666C39.2115 367.964 39.6039 368.114 40.0625 368.114ZM48.4645 359.102L45.4176 370.422H44.4205L47.4673 359.102H48.4645ZM52.692 369.129C52.1504 369.129 51.6626 369.022 51.2286 368.806C50.7947 368.591 50.4469 368.295 50.1853 367.92C49.9237 367.544 49.7806 367.116 49.7559 366.636H50.8639C50.907 367.064 51.1009 367.418 51.4456 367.698C51.7934 367.975 52.2088 368.114 52.692 368.114C53.0798 368.114 53.4245 368.023 53.7261 367.841C54.0308 367.66 54.2693 367.41 54.4417 367.093C54.6171 366.773 54.7048 366.412 54.7048 366.009C54.7048 365.596 54.614 365.228 54.4324 364.905C54.2539 364.579 54.0077 364.322 53.6938 364.134C53.3799 363.946 53.0213 363.851 52.6182 363.848C52.3289 363.845 52.0319 363.89 51.7272 363.982C51.4225 364.071 51.1717 364.187 50.9747 364.328L49.9037 364.199L50.4761 359.545H55.3881V360.561H51.4363L51.104 363.349H51.1594C51.3532 363.196 51.5964 363.068 51.8888 362.966C52.1811 362.865 52.4858 362.814 52.8028 362.814C53.3814 362.814 53.8969 362.952 54.3493 363.229C54.8048 363.503 55.1618 363.879 55.4204 364.356C55.682 364.833 55.8128 365.378 55.8128 365.99C55.8128 366.593 55.6773 367.132 55.4065 367.606C55.1388 368.077 54.7694 368.449 54.2986 368.723C53.8277 368.994 53.2922 369.129 52.692 369.129Z" fill="#828282"/>
<path d="M37.0341 50V48.4773L41.0739 44.517C41.4602 44.1269 41.7822 43.7803 42.0398 43.4773C42.2973 43.1742 42.4905 42.8807 42.6193 42.5966C42.7481 42.3125 42.8125 42.0095 42.8125 41.6875C42.8125 41.3201 42.7292 41.0057 42.5625 40.7443C42.3958 40.4792 42.1667 40.2746 41.875 40.1307C41.5833 39.9867 41.2519 39.9148 40.8807 39.9148C40.4981 39.9148 40.1629 39.9943 39.875 40.1534C39.5871 40.3087 39.3636 40.5303 39.2045 40.8182C39.0492 41.1061 38.9716 41.4489 38.9716 41.8466H36.9659C36.9659 41.108 37.1345 40.4659 37.4716 39.9205C37.8087 39.375 38.2727 38.9527 38.8636 38.6534C39.4583 38.3542 40.1402 38.2045 40.9091 38.2045C41.6894 38.2045 42.375 38.3504 42.9659 38.642C43.5568 38.9337 44.0152 39.3333 44.3409 39.8409C44.6705 40.3485 44.8352 40.928 44.8352 41.5795C44.8352 42.0152 44.7519 42.4432 44.5852 42.8636C44.4186 43.2841 44.125 43.75 43.7045 44.2614C43.2879 44.7727 42.7027 45.392 41.9489 46.1193L39.9432 48.1591V48.2386H45.0114V50H37.0341ZM51.2727 50.2216C50.3371 50.2216 49.5341 49.9848 48.8636 49.5114C48.197 49.0341 47.6837 48.3466 47.3239 47.4489C46.9678 46.5473 46.7898 45.4621 46.7898 44.1932C46.7936 42.9242 46.9735 41.8447 47.3295 40.9545C47.6894 40.0606 48.2027 39.3788 48.8693 38.9091C49.5398 38.4394 50.3409 38.2045 51.2727 38.2045C52.2045 38.2045 53.0057 38.4394 53.6761 38.9091C54.3466 39.3788 54.8598 40.0606 55.2159 40.9545C55.5758 41.8485 55.7557 42.928 55.7557 44.1932C55.7557 45.4659 55.5758 46.553 55.2159 47.4545C54.8598 48.3523 54.3466 49.0379 53.6761 49.5114C53.0095 49.9848 52.2083 50.2216 51.2727 50.2216ZM51.2727 48.4432C52 48.4432 52.5739 48.0852 52.9943 47.3693C53.4186 46.6496 53.6307 45.5909 53.6307 44.1932C53.6307 43.2689 53.5341 42.4924 53.3409 41.8636C53.1477 41.2348 52.875 40.7614 52.5227 40.4432C52.1705 40.1212 51.7538 39.9602 51.2727 39.9602C50.5492 39.9602 49.9773 40.3201 49.5568 41.0398C49.1364 41.7557 48.9242 42.8068 48.9205 44.1932C48.9167 45.1212 49.0095 45.9015 49.1989 46.5341C49.392 47.1667 49.6648 47.6439 50.017 47.9659C50.3693 48.2841 50.7879 48.4432 51.2727 48.4432ZM62.956 43.3352V45.0284H57.7173V43.3352H62.956ZM64.6903 50V48.4773L68.7301 44.517C69.1165 44.1269 69.4384 43.7803 69.696 43.4773C69.9536 43.1742 70.1468 42.8807 70.2756 42.5966C70.4044 42.3125 70.4688 42.0095 70.4688 41.6875C70.4688 41.3201 70.3854 41.0057 70.2188 40.7443C70.0521 40.4792 69.8229 40.2746 69.5312 40.1307C69.2396 39.9867 68.9081 39.9148 68.5369 39.9148C68.1544 39.9148 67.8191 39.9943 67.5312 40.1534C67.2434 40.3087 67.0199 40.5303 66.8608 40.8182C66.7055 41.1061 66.6278 41.4489 66.6278 41.8466H64.6222C64.6222 41.108 64.7907 40.4659 65.1278 39.9205C65.465 39.375 65.929 38.9527 66.5199 38.6534C67.1146 38.3542 67.7964 38.2045 68.5653 38.2045C69.3456 38.2045 70.0313 38.3504 70.6222 38.642C71.2131 38.9337 71.6714 39.3333 71.9972 39.8409C72.3267 40.3485 72.4915 40.928 72.4915 41.5795C72.4915 42.0152 72.4081 42.4432 72.2415 42.8636C72.0748 43.2841 71.7813 43.75 71.3608 44.2614C70.9441 44.7727 70.3589 45.392 69.6051 46.1193L67.5994 48.1591V48.2386H72.6676V50H64.6903ZM78.8892 50.1591C78.3324 50.1553 77.7888 50.0587 77.2585 49.8693C76.7282 49.6761 76.2509 49.3636 75.8267 48.9318C75.4025 48.4962 75.0653 47.9186 74.8153 47.1989C74.5653 46.4754 74.4422 45.5795 74.446 44.5114C74.446 43.5152 74.5521 42.6269 74.7642 41.8466C74.9763 41.0663 75.2812 40.4072 75.679 39.8693C76.0767 39.3277 76.5559 38.9148 77.1165 38.6307C77.6809 38.3466 78.3116 38.2045 79.0085 38.2045C79.7396 38.2045 80.3873 38.3485 80.9517 38.6364C81.5199 38.9242 81.9782 39.3182 82.3267 39.8182C82.6752 40.3144 82.8911 40.875 82.9744 41.5H80.9006C80.7945 41.053 80.5767 40.697 80.2472 40.4318C79.9214 40.1629 79.5085 40.0284 79.0085 40.0284C78.2017 40.0284 77.5805 40.3788 77.1449 41.0795C76.7131 41.7803 76.4953 42.7424 76.4915 43.9659H76.571C76.7566 43.6326 76.9972 43.3466 77.2926 43.108C77.5881 42.8693 77.9214 42.6856 78.2926 42.5568C78.6676 42.4242 79.0634 42.358 79.4801 42.358C80.1619 42.358 80.7737 42.5208 81.3153 42.8466C81.8608 43.1723 82.2926 43.6212 82.6108 44.1932C82.929 44.7614 83.0862 45.4129 83.0824 46.1477C83.0862 46.9129 82.9119 47.6004 82.5597 48.2102C82.2074 48.8163 81.7169 49.2936 81.0881 49.642C80.4593 49.9905 79.7263 50.1629 78.8892 50.1591ZM78.8778 48.4545C79.2907 48.4545 79.66 48.3542 79.9858 48.1534C80.3116 47.9527 80.5691 47.6818 80.7585 47.3409C80.9479 47 81.0407 46.6174 81.0369 46.1932C81.0407 45.7765 80.9498 45.3996 80.7642 45.0625C80.5824 44.7254 80.3305 44.4583 80.0085 44.2614C79.6866 44.0644 79.3191 43.9659 78.9062 43.9659C78.5994 43.9659 78.3134 44.0246 78.0483 44.142C77.7831 44.2595 77.5521 44.4223 77.3551 44.6307C77.1581 44.8352 77.0028 45.0739 76.8892 45.3466C76.7794 45.6155 76.7225 45.9034 76.7188 46.2102C76.7225 46.6155 76.8172 46.9886 77.0028 47.3295C77.1884 47.6705 77.4441 47.9432 77.7699 48.1477C78.0956 48.3523 78.465 48.4545 78.8778 48.4545ZM89.0852 38.3636H91.6648L95.1193 46.7955H95.2557L98.7102 38.3636H101.29V50H99.267V42.0057H99.1591L95.9432 49.9659H94.4318L91.2159 41.9886H91.108V50H89.0852V38.3636ZM106.006 50.1761C105.453 50.1761 104.955 50.0777 104.511 49.8807C104.072 49.6799 103.723 49.3845 103.466 48.9943C103.212 48.6042 103.085 48.1231 103.085 47.5511C103.085 47.0587 103.176 46.6515 103.358 46.3295C103.54 46.0076 103.788 45.75 104.102 45.5568C104.417 45.3636 104.771 45.2178 105.165 45.1193C105.563 45.017 105.973 44.9432 106.398 44.8977C106.909 44.8447 107.324 44.7973 107.642 44.7557C107.96 44.7102 108.191 44.642 108.335 44.5511C108.483 44.4564 108.557 44.3106 108.557 44.1136V44.0795C108.557 43.6515 108.43 43.3201 108.176 43.0852C107.922 42.8504 107.557 42.733 107.08 42.733C106.576 42.733 106.176 42.8428 105.881 43.0625C105.589 43.2822 105.392 43.5417 105.29 43.8409L103.369 43.5682C103.521 43.0379 103.771 42.5947 104.119 42.2386C104.468 41.8788 104.894 41.6098 105.398 41.4318C105.902 41.25 106.458 41.1591 107.068 41.1591C107.489 41.1591 107.907 41.2083 108.324 41.3068C108.741 41.4053 109.121 41.5682 109.466 41.7955C109.811 42.0189 110.087 42.3239 110.295 42.7102C110.508 43.0966 110.614 43.5795 110.614 44.1591V50H108.636V48.8011H108.568C108.443 49.0436 108.267 49.2708 108.04 49.483C107.816 49.6913 107.534 49.8598 107.193 49.9886C106.856 50.1136 106.46 50.1761 106.006 50.1761ZM106.54 48.6648C106.953 48.6648 107.311 48.5833 107.614 48.4205C107.917 48.2538 108.15 48.0341 108.312 47.7614C108.479 47.4886 108.562 47.1913 108.562 46.8693V45.8409C108.498 45.8939 108.388 45.9432 108.233 45.9886C108.081 46.0341 107.911 46.0739 107.722 46.108C107.532 46.142 107.345 46.1723 107.159 46.1989C106.973 46.2254 106.813 46.2481 106.676 46.267C106.369 46.3087 106.095 46.3769 105.852 46.4716C105.61 46.5663 105.419 46.6989 105.278 46.8693C105.138 47.036 105.068 47.2519 105.068 47.517C105.068 47.8958 105.206 48.1818 105.483 48.375C105.759 48.5682 106.112 48.6648 106.54 48.6648ZM113.648 53.2727C113.367 53.2727 113.108 53.25 112.869 53.2045C112.634 53.1629 112.447 53.1136 112.307 53.0568L112.784 51.4545C113.083 51.5417 113.35 51.5833 113.585 51.5795C113.82 51.5758 114.027 51.5019 114.205 51.358C114.386 51.2178 114.54 50.983 114.665 50.6534L114.841 50.1818L111.676 41.2727H113.858L115.869 47.8636H115.96L117.977 41.2727H120.165L116.67 51.0568C116.508 51.5189 116.292 51.9148 116.023 52.2443C115.754 52.5777 115.424 52.8314 115.034 53.0057C114.648 53.1837 114.186 53.2727 113.648 53.2727Z" fill="#3A53A4"/>
</g>
<rect x="12.5" y="8.5" width="507" height="447" rx="7.5" stroke="#E0E0E0"/>
</g>
<g filter="url(#filter1_d_69_636)">
<path d="M59 353.5L114.25 380.5L169.5 407.5L250.5 239.5L321.5 353.5L406.5 294.5L467 299L523 190.5" stroke="#3A97A4" stroke-width="5" stroke-linecap="round" stroke-linejoin="round"/>
</g>
<g filter="url(#filter2_d_69_636)">
<path d="M59 408.5H112.5L166 348L253 408.5H321.5L406.5 348L467 299L522 348" stroke="#A43A4D" stroke-width="5" stroke-linecap="round" stroke-linejoin="round"/>
</g>
<g filter="url(#filter3_d_69_636)">
<path d="M59 353.5L96.5 299L149.5 183.5L234 75L332.5 190.5L413.5 75L469 250L522 353.5" stroke="#823AA4" stroke-width="5" stroke-linecap="round" stroke-linejoin="round"/>
</g>
<defs>
<filter id="filter0_d_69_636" x="0" y="0" width="532" height="472" filterUnits="userSpaceOnUse" color-interpolation-filters="sRGB">
<feFlood flood-opacity="0" result="BackgroundImageFix"/>
<feColorMatrix in="SourceAlpha" type="matrix" values="0 0 0 0 0 0 0 0 0 0 0 0 0 0 0 0 0 0 127 0" result="hardAlpha"/>
<feOffset dy="4"/>
<feGaussianBlur stdDeviation="6"/>
<feComposite in2="hardAlpha" operator="out"/>
<feColorMatrix type="matrix" values="0 0 0 0 0 0 0 0 0 0 0 0 0 0 0 0 0 0 0.04 0"/>
<feBlend mode="normal" in2="BackgroundImageFix" result="effect1_dropShadow_69_636"/>
<feBlend mode="normal" in="SourceGraphic" in2="effect1_dropShadow_69_636" result="shape"/>
</filter>
<filter id="filter1_d_69_636" x="52.499" y="188" width="477.002" height="230" filterUnits="userSpaceOnUse" color-interpolation-filters="sRGB">
<feFlood flood-opacity="0" result="BackgroundImageFix"/>
<feColorMatrix in="SourceAlpha" type="matrix" values="0 0 0 0 0 0 0 0 0 0 0 0 0 0 0 0 0 0 127 0" result="hardAlpha"/>
<feOffset dy="4"/>
<feGaussianBlur stdDeviation="2"/>
<feComposite in2="hardAlpha" operator="out"/>
<feColorMatrix type="matrix" values="0 0 0 0 0 0 0 0 0 0 0 0 0 0 0 0 0 0 0.25 0"/>
<feBlend mode="normal" in2="BackgroundImageFix" result="effect1_dropShadow_69_636"/>
<feBlend mode="normal" in="SourceGraphic" in2="effect1_dropShadow_69_636" result="shape"/>
</filter>
<filter id="filter2_d_69_636" x="52.5" y="296.5" width="476" height="122.5" filterUnits="userSpaceOnUse" color-interpolation-filters="sRGB">
<feFlood flood-opacity="0" result="BackgroundImageFix"/>
<feColorMatrix in="SourceAlpha" type="matrix" values="0 0 0 0 0 0 0 0 0 0 0 0 0 0 0 0 0 0 127 0" result="hardAlpha"/>
<feOffset dy="4"/>
<feGaussianBlur stdDeviation="2"/>
<feComposite in2="hardAlpha" operator="out"/>
<feColorMatrix type="matrix" values="0 0 0 0 0 0 0 0 0 0 0 0 0 0 0 0 0 0 0.25 0"/>
<feBlend mode="normal" in2="BackgroundImageFix" result="effect1_dropShadow_69_636"/>
<feBlend mode="normal" in="SourceGraphic" in2="effect1_dropShadow_69_636" result="shape"/>
</filter>
<filter id="filter3_d_69_636" x="52.5" y="72.4999" width="476.001" height="291.501" filterUnits="userSpaceOnUse" color-interpolation-filters="sRGB">
<feFlood flood-opacity="0" result="BackgroundImageFix"/>
<feColorMatrix in="SourceAlpha" type="matrix" values="0 0 0 0 0 0 0 0 0 0 0 0 0 0 0 0 0 0 127 0" result="hardAlpha"/>
<feOffset dy="4"/>
<feGaussianBlur stdDeviation="2"/>
<feComposite in2="hardAlpha" operator="out"/>
<feColorMatrix type="matrix" values="0 0 0 0 0 0 0 0 0 0 0 0 0 0 0 0 0 0 0.25 0"/>
<feBlend mode="normal" in2="BackgroundImageFix" result="effect1_dropShadow_69_636"/>
<feBlend mode="normal" in="SourceGraphic" in2="effect1_dropShadow_69_636" result="shape"/>
</filter>
<clipPath id="clip0_69_636">
<rect x="12" y="8" width="508" height="448" rx="8" fill="white"/>
</clipPath>
</defs>
</svg>
