<svg width="429" height="196" viewBox="0 0 429 196" fill="none" xmlns="http://www.w3.org/2000/svg">
<g filter="url(#filter0_d_23_973)">
<rect x="12" y="8" width="405" height="172" rx="8" fill="white"/>
<rect x="12.5" y="8.5" width="404" height="171" rx="7.5" stroke="#E0E0E0"/>
<path d="M37.1477 50V38.3636H41.6023C42.4432 38.3636 43.142 38.4962 43.6989 38.7614C44.2595 39.0227 44.678 39.3807 44.9545 39.8352C45.2348 40.2898 45.375 40.8049 45.375 41.3807C45.375 41.8542 45.2841 42.2595 45.1023 42.5966C44.9205 42.9299 44.6761 43.2008 44.3693 43.4091C44.0625 43.6174 43.7197 43.767 43.3409 43.858V43.9716C43.7538 43.9943 44.1496 44.1212 44.5284 44.3523C44.911 44.5795 45.2235 44.9015 45.4659 45.3182C45.7083 45.7348 45.8295 46.2386 45.8295 46.8295C45.8295 47.4318 45.6837 47.9735 45.392 48.4545C45.1004 48.9318 44.661 49.3087 44.0739 49.5852C43.4867 49.8617 42.7481 50 41.858 50H37.1477ZM39.2557 48.2386H41.5227C42.2879 48.2386 42.839 48.0928 43.1761 47.8011C43.517 47.5057 43.6875 47.1269 43.6875 46.6648C43.6875 46.3201 43.6023 46.0095 43.4318 45.733C43.2614 45.4527 43.0189 45.233 42.7045 45.0739C42.3902 44.911 42.0152 44.8295 41.5795 44.8295H39.2557V48.2386ZM39.2557 43.3125H41.3409C41.7045 43.3125 42.0322 43.2462 42.3239 43.1136C42.6155 42.9773 42.8447 42.786 43.0114 42.5398C43.1818 42.2898 43.267 41.9943 43.267 41.6534C43.267 41.2027 43.108 40.8314 42.7898 40.5398C42.4754 40.2481 42.0076 40.1023 41.3864 40.1023H39.2557V43.3125ZM51.4361 50.1705C50.5611 50.1705 49.8054 49.9886 49.169 49.625C48.5365 49.2576 48.0497 48.7386 47.7088 48.0682C47.3679 47.3939 47.1974 46.6004 47.1974 45.6875C47.1974 44.7898 47.3679 44.0019 47.7088 43.3239C48.0535 42.642 48.5346 42.1117 49.152 41.733C49.7694 41.3504 50.4948 41.1591 51.3281 41.1591C51.866 41.1591 52.3736 41.2462 52.8509 41.4205C53.3319 41.5909 53.7562 41.8561 54.1236 42.2159C54.4948 42.5758 54.7865 43.0341 54.9986 43.5909C55.2107 44.1439 55.3168 44.803 55.3168 45.5682V46.1989H48.1634V44.8125H53.3452C53.3414 44.4186 53.2562 44.0682 53.0895 43.7614C52.9228 43.4508 52.6899 43.2064 52.3906 43.0284C52.0952 42.8504 51.7505 42.7614 51.3565 42.7614C50.9361 42.7614 50.5668 42.8636 50.2486 43.0682C49.9304 43.2689 49.6823 43.5341 49.5043 43.8636C49.33 44.1894 49.241 44.5473 49.2372 44.9375V46.1477C49.2372 46.6553 49.33 47.0909 49.5156 47.4545C49.7012 47.8144 49.9607 48.0909 50.294 48.2841C50.6274 48.4735 51.0175 48.5682 51.4645 48.5682C51.7637 48.5682 52.0346 48.5265 52.277 48.4432C52.5194 48.3561 52.7296 48.2292 52.9077 48.0625C53.0857 47.8958 53.2202 47.6894 53.3111 47.4432L55.2315 47.6591C55.1103 48.1667 54.8793 48.6098 54.5384 48.9886C54.2012 49.3636 53.7694 49.6553 53.2429 49.8636C52.7164 50.0682 52.1141 50.1705 51.4361 50.1705ZM61.4148 41.2727V42.8636H56.3977V41.2727H61.4148ZM57.6364 39.1818H59.6932V47.375C59.6932 47.6515 59.7348 47.8636 59.8182 48.0114C59.9053 48.1553 60.0189 48.2538 60.1591 48.3068C60.2992 48.3598 60.4545 48.3864 60.625 48.3864C60.7538 48.3864 60.8712 48.3769 60.9773 48.358C61.0871 48.339 61.1705 48.322 61.2273 48.3068L61.5739 49.9148C61.464 49.9527 61.3068 49.9943 61.1023 50.0398C60.9015 50.0852 60.6553 50.1117 60.3636 50.1193C59.8485 50.1345 59.3845 50.0568 58.9716 49.8864C58.5587 49.7121 58.2311 49.4432 57.9886 49.0795C57.75 48.7159 57.6326 48.2614 57.6364 47.7159V39.1818ZM67.4929 41.2727V42.8636H62.4759V41.2727H67.4929ZM63.7145 39.1818H65.7713V47.375C65.7713 47.6515 65.813 47.8636 65.8963 48.0114C65.9834 48.1553 66.0971 48.2538 66.2372 48.3068C66.3774 48.3598 66.5327 48.3864 66.7031 48.3864C66.8319 48.3864 66.9493 48.3769 67.0554 48.358C67.1652 48.339 67.2486 48.322 67.3054 48.3068L67.652 49.9148C67.5421 49.9527 67.3849 49.9943 67.1804 50.0398C66.9796 50.0852 66.7334 50.1117 66.4418 50.1193C65.9266 50.1345 65.4626 50.0568 65.0497 49.8864C64.6368 49.7121 64.3092 49.4432 64.0668 49.0795C63.8281 48.7159 63.7107 48.2614 63.7145 47.7159V39.1818ZM72.983 50.1705C72.108 50.1705 71.3523 49.9886 70.7159 49.625C70.0833 49.2576 69.5966 48.7386 69.2557 48.0682C68.9148 47.3939 68.7443 46.6004 68.7443 45.6875C68.7443 44.7898 68.9148 44.0019 69.2557 43.3239C69.6004 42.642 70.0814 42.1117 70.6989 41.733C71.3163 41.3504 72.0417 41.1591 72.875 41.1591C73.4129 41.1591 73.9205 41.2462 74.3977 41.4205C74.8788 41.5909 75.303 41.8561 75.6705 42.2159C76.0417 42.5758 76.3333 43.0341 76.5455 43.5909C76.7576 44.1439 76.8636 44.803 76.8636 45.5682V46.1989H69.7102V44.8125H74.892C74.8883 44.4186 74.803 44.0682 74.6364 43.7614C74.4697 43.4508 74.2367 43.2064 73.9375 43.0284C73.642 42.8504 73.2973 42.7614 72.9034 42.7614C72.483 42.7614 72.1136 42.8636 71.7955 43.0682C71.4773 43.2689 71.2292 43.5341 71.0511 43.8636C70.8769 44.1894 70.7879 44.5473 70.7841 44.9375V46.1477C70.7841 46.6553 70.8769 47.0909 71.0625 47.4545C71.2481 47.8144 71.5076 48.0909 71.8409 48.2841C72.1742 48.4735 72.5644 48.5682 73.0114 48.5682C73.3106 48.5682 73.5814 48.5265 73.8239 48.4432C74.0663 48.3561 74.2765 48.2292 74.4545 48.0625C74.6326 47.8958 74.767 47.6894 74.858 47.4432L76.7784 47.6591C76.6572 48.1667 76.4261 48.6098 76.0852 48.9886C75.7481 49.3636 75.3163 49.6553 74.7898 49.8636C74.2633 50.0682 73.661 50.1705 72.983 50.1705ZM78.6037 50V41.2727H80.598V42.7273H80.6889C80.848 42.2235 81.1207 41.8352 81.5071 41.5625C81.8973 41.286 82.3423 41.1477 82.8423 41.1477C82.956 41.1477 83.0829 41.1534 83.223 41.1648C83.367 41.1723 83.4863 41.1856 83.581 41.2045V43.0966C83.4938 43.0663 83.3556 43.0398 83.1662 43.017C82.9806 42.9905 82.8007 42.9773 82.6264 42.9773C82.2514 42.9773 81.9143 43.0587 81.6151 43.2216C81.3196 43.3807 81.0866 43.6023 80.9162 43.8864C80.7457 44.1705 80.6605 44.4981 80.6605 44.8693V50H78.6037ZM93.2741 41.2727V42.8636H88.2571V41.2727H93.2741ZM89.4957 39.1818H91.5526V47.375C91.5526 47.6515 91.5942 47.8636 91.6776 48.0114C91.7647 48.1553 91.8783 48.2538 92.0185 48.3068C92.1586 48.3598 92.3139 48.3864 92.4844 48.3864C92.6132 48.3864 92.7306 48.3769 92.8366 48.358C92.9465 48.339 93.0298 48.322 93.0866 48.3068L93.4332 49.9148C93.3234 49.9527 93.1662 49.9943 92.9616 50.0398C92.7609 50.0852 92.5147 50.1117 92.223 50.1193C91.7079 50.1345 91.2438 50.0568 90.831 49.8864C90.4181 49.7121 90.0904 49.4432 89.848 49.0795C89.6094 48.7159 89.492 48.2614 89.4957 47.7159V39.1818ZM97.2386 44.8864V50H95.1818V38.3636H97.1932V42.7557H97.2955C97.5 42.2633 97.8163 41.875 98.2443 41.5909C98.6761 41.303 99.2254 41.1591 99.892 41.1591C100.498 41.1591 101.027 41.286 101.477 41.5398C101.928 41.7936 102.277 42.1648 102.523 42.6534C102.773 43.142 102.898 43.7386 102.898 44.4432V50H100.841V44.7614C100.841 44.1742 100.689 43.7178 100.386 43.392C100.087 43.0625 99.6667 42.8977 99.125 42.8977C98.7614 42.8977 98.4356 42.9773 98.1477 43.1364C97.8636 43.2917 97.6402 43.517 97.4773 43.8125C97.3182 44.108 97.2386 44.4659 97.2386 44.8864ZM107.506 50.1761C106.953 50.1761 106.455 50.0777 106.011 49.8807C105.572 49.6799 105.223 49.3845 104.966 48.9943C104.712 48.6042 104.585 48.1231 104.585 47.5511C104.585 47.0587 104.676 46.6515 104.858 46.3295C105.04 46.0076 105.288 45.75 105.602 45.5568C105.917 45.3636 106.271 45.2178 106.665 45.1193C107.063 45.017 107.473 44.9432 107.898 44.8977C108.409 44.8447 108.824 44.7973 109.142 44.7557C109.46 44.7102 109.691 44.642 109.835 44.5511C109.983 44.4564 110.057 44.3106 110.057 44.1136V44.0795C110.057 43.6515 109.93 43.3201 109.676 43.0852C109.422 42.8504 109.057 42.733 108.58 42.733C108.076 42.733 107.676 42.8428 107.381 43.0625C107.089 43.2822 106.892 43.5417 106.79 43.8409L104.869 43.5682C105.021 43.0379 105.271 42.5947 105.619 42.2386C105.968 41.8788 106.394 41.6098 106.898 41.4318C107.402 41.25 107.958 41.1591 108.568 41.1591C108.989 41.1591 109.407 41.2083 109.824 41.3068C110.241 41.4053 110.621 41.5682 110.966 41.7955C111.311 42.0189 111.587 42.3239 111.795 42.7102C112.008 43.0966 112.114 43.5795 112.114 44.1591V50H110.136V48.8011H110.068C109.943 49.0436 109.767 49.2708 109.54 49.483C109.316 49.6913 109.034 49.8598 108.693 49.9886C108.356 50.1136 107.96 50.1761 107.506 50.1761ZM108.04 48.6648C108.453 48.6648 108.811 48.5833 109.114 48.4205C109.417 48.2538 109.65 48.0341 109.812 47.7614C109.979 47.4886 110.062 47.1913 110.062 46.8693V45.8409C109.998 45.8939 109.888 45.9432 109.733 45.9886C109.581 46.0341 109.411 46.0739 109.222 46.108C109.032 46.142 108.845 46.1723 108.659 46.1989C108.473 46.2254 108.313 46.2481 108.176 46.267C107.869 46.3087 107.595 46.3769 107.352 46.4716C107.11 46.5663 106.919 46.6989 106.778 46.8693C106.638 47.036 106.568 47.2519 106.568 47.517C106.568 47.8958 106.706 48.1818 106.983 48.375C107.259 48.5682 107.612 48.6648 108.04 48.6648ZM116.239 44.8864V50H114.182V41.2727H116.148V42.7557H116.25C116.451 42.267 116.771 41.8788 117.21 41.5909C117.653 41.303 118.201 41.1591 118.852 41.1591C119.455 41.1591 119.979 41.2879 120.426 41.5455C120.877 41.803 121.225 42.1761 121.472 42.6648C121.722 43.1534 121.845 43.7462 121.841 44.4432V50H119.784V44.7614C119.784 44.178 119.633 43.7216 119.33 43.392C119.03 43.0625 118.616 42.8977 118.085 42.8977C117.725 42.8977 117.405 42.9773 117.125 43.1364C116.848 43.2917 116.631 43.517 116.472 43.8125C116.316 44.108 116.239 44.4659 116.239 44.8864ZM129.957 38.3636V50H127.901V38.3636H129.957ZM134.584 50.1761C134.031 50.1761 133.533 50.0777 133.089 49.8807C132.65 49.6799 132.302 49.3845 132.044 48.9943C131.79 48.6042 131.663 48.1231 131.663 47.5511C131.663 47.0587 131.754 46.6515 131.936 46.3295C132.118 46.0076 132.366 45.75 132.68 45.5568C132.995 45.3636 133.349 45.2178 133.743 45.1193C134.141 45.017 134.552 44.9432 134.976 44.8977C135.487 44.8447 135.902 44.7973 136.22 44.7557C136.538 44.7102 136.769 44.642 136.913 44.5511C137.061 44.4564 137.135 44.3106 137.135 44.1136V44.0795C137.135 43.6515 137.008 43.3201 136.754 43.0852C136.5 42.8504 136.135 42.733 135.658 42.733C135.154 42.733 134.754 42.8428 134.459 43.0625C134.167 43.2822 133.97 43.5417 133.868 43.8409L131.947 43.5682C132.099 43.0379 132.349 42.5947 132.697 42.2386C133.046 41.8788 133.472 41.6098 133.976 41.4318C134.48 41.25 135.036 41.1591 135.646 41.1591C136.067 41.1591 136.485 41.2083 136.902 41.3068C137.319 41.4053 137.699 41.5682 138.044 41.7955C138.389 42.0189 138.665 42.3239 138.874 42.7102C139.086 43.0966 139.192 43.5795 139.192 44.1591V50H137.214V48.8011H137.146C137.021 49.0436 136.845 49.2708 136.618 49.483C136.394 49.6913 136.112 49.8598 135.771 49.9886C135.434 50.1136 135.038 50.1761 134.584 50.1761ZM135.118 48.6648C135.531 48.6648 135.889 48.5833 136.192 48.4205C136.495 48.2538 136.728 48.0341 136.891 47.7614C137.057 47.4886 137.141 47.1913 137.141 46.8693V45.8409C137.076 45.8939 136.966 45.9432 136.811 45.9886C136.66 46.0341 136.489 46.0739 136.3 46.108C136.11 46.142 135.923 46.1723 135.737 46.1989C135.552 46.2254 135.391 46.2481 135.254 46.267C134.947 46.3087 134.673 46.3769 134.43 46.4716C134.188 46.5663 133.997 46.6989 133.857 46.8693C133.716 47.036 133.646 47.2519 133.646 47.517C133.646 47.8958 133.785 48.1818 134.061 48.375C134.338 48.5682 134.69 48.6648 135.118 48.6648ZM148.158 43.5795L146.283 43.7841C146.23 43.5947 146.137 43.4167 146.004 43.25C145.875 43.0833 145.701 42.9489 145.482 42.8466C145.262 42.7443 144.993 42.6932 144.675 42.6932C144.247 42.6932 143.887 42.786 143.595 42.9716C143.307 43.1572 143.165 43.3977 143.169 43.6932C143.165 43.947 143.258 44.1534 143.447 44.3125C143.641 44.4716 143.959 44.6023 144.402 44.7045L145.891 45.0227C146.716 45.2008 147.33 45.483 147.732 45.8693C148.137 46.2557 148.341 46.7614 148.345 47.3864C148.341 47.9356 148.18 48.4205 147.862 48.8409C147.548 49.2576 147.11 49.5833 146.55 49.8182C145.989 50.053 145.345 50.1705 144.618 50.1705C143.55 50.1705 142.69 49.947 142.038 49.5C141.387 49.0492 140.999 48.4223 140.874 47.6193L142.879 47.4261C142.97 47.8201 143.163 48.1174 143.459 48.3182C143.754 48.5189 144.139 48.6193 144.612 48.6193C145.101 48.6193 145.493 48.5189 145.788 48.3182C146.088 48.1174 146.237 47.8693 146.237 47.5739C146.237 47.3239 146.141 47.1174 145.947 46.9545C145.758 46.7917 145.463 46.6667 145.061 46.5795L143.572 46.267C142.735 46.0928 142.116 45.7992 141.714 45.3864C141.313 44.9697 141.114 44.4432 141.118 43.8068C141.114 43.2689 141.26 42.803 141.555 42.4091C141.855 42.0114 142.269 41.7045 142.8 41.4886C143.334 41.2689 143.949 41.1591 144.646 41.1591C145.669 41.1591 146.474 41.3769 147.061 41.8125C147.652 42.2481 148.018 42.8371 148.158 43.5795ZM154.399 41.2727V42.8636H149.382V41.2727H154.399ZM150.621 39.1818H152.678V47.375C152.678 47.6515 152.719 47.8636 152.803 48.0114C152.89 48.1553 153.003 48.2538 153.143 48.3068C153.284 48.3598 153.439 48.3864 153.609 48.3864C153.738 48.3864 153.856 48.3769 153.962 48.358C154.071 48.339 154.155 48.322 154.212 48.3068L154.558 49.9148C154.448 49.9527 154.291 49.9943 154.087 50.0398C153.886 50.0852 153.64 50.1117 153.348 50.1193C152.833 50.1345 152.369 50.0568 151.956 49.8864C151.543 49.7121 151.215 49.4432 150.973 49.0795C150.734 48.7159 150.617 48.2614 150.621 47.7159V39.1818ZM160.088 50V41.2727H162.054V42.7557H162.156C162.338 42.2557 162.639 41.8655 163.06 41.5852C163.48 41.3011 163.982 41.1591 164.565 41.1591C165.156 41.1591 165.654 41.303 166.06 41.5909C166.469 41.875 166.757 42.2633 166.923 42.7557H167.014C167.207 42.2708 167.533 41.8845 167.991 41.5966C168.454 41.3049 169.001 41.1591 169.634 41.1591C170.437 41.1591 171.092 41.4129 171.599 41.9205C172.107 42.428 172.361 43.1686 172.361 44.142V50H170.298V44.4602C170.298 43.9186 170.154 43.5227 169.866 43.2727C169.579 43.0189 169.226 42.892 168.81 42.892C168.313 42.892 167.925 43.0473 167.645 43.358C167.368 43.6648 167.23 44.0644 167.23 44.5568V50H165.213V44.375C165.213 43.9242 165.077 43.5644 164.804 43.2955C164.535 43.0265 164.183 42.892 163.747 42.892C163.452 42.892 163.183 42.9678 162.94 43.1193C162.698 43.267 162.505 43.4773 162.361 43.75C162.217 44.0189 162.145 44.3333 162.145 44.6932V50H160.088ZM178.254 50.1705C177.402 50.1705 176.663 49.983 176.038 49.608C175.413 49.233 174.929 48.7083 174.584 48.0341C174.243 47.3598 174.072 46.572 174.072 45.6705C174.072 44.7689 174.243 43.9792 174.584 43.3011C174.929 42.6231 175.413 42.0966 176.038 41.7216C176.663 41.3466 177.402 41.1591 178.254 41.1591C179.107 41.1591 179.845 41.3466 180.47 41.7216C181.095 42.0966 181.578 42.6231 181.919 43.3011C182.264 43.9792 182.436 44.7689 182.436 45.6705C182.436 46.572 182.264 47.3598 181.919 48.0341C181.578 48.7083 181.095 49.233 180.47 49.608C179.845 49.983 179.107 50.1705 178.254 50.1705ZM178.266 48.5227C178.728 48.5227 179.114 48.3958 179.425 48.142C179.735 47.8845 179.966 47.5398 180.118 47.108C180.273 46.6761 180.351 46.1951 180.351 45.6648C180.351 45.1307 180.273 44.6477 180.118 44.2159C179.966 43.7803 179.735 43.4337 179.425 43.1761C179.114 42.9186 178.728 42.7898 178.266 42.7898C177.792 42.7898 177.398 42.9186 177.084 43.1761C176.773 43.4337 176.54 43.7803 176.385 44.2159C176.233 44.6477 176.158 45.1307 176.158 45.6648C176.158 46.1951 176.233 46.6761 176.385 47.108C176.54 47.5398 176.773 47.8845 177.084 48.142C177.398 48.3958 177.792 48.5227 178.266 48.5227ZM186.239 44.8864V50H184.182V41.2727H186.148V42.7557H186.25C186.451 42.267 186.771 41.8788 187.21 41.5909C187.653 41.303 188.201 41.1591 188.852 41.1591C189.455 41.1591 189.979 41.2879 190.426 41.5455C190.877 41.803 191.225 42.1761 191.472 42.6648C191.722 43.1534 191.845 43.7462 191.841 44.4432V50H189.784V44.7614C189.784 44.178 189.633 43.7216 189.33 43.392C189.03 43.0625 188.616 42.8977 188.085 42.8977C187.725 42.8977 187.405 42.9773 187.125 43.1364C186.848 43.2917 186.631 43.517 186.472 43.8125C186.316 44.108 186.239 44.4659 186.239 44.8864ZM198.29 41.2727V42.8636H193.273V41.2727H198.29ZM194.511 39.1818H196.568V47.375C196.568 47.6515 196.61 47.8636 196.693 48.0114C196.78 48.1553 196.894 48.2538 197.034 48.3068C197.174 48.3598 197.33 48.3864 197.5 48.3864C197.629 48.3864 197.746 48.3769 197.852 48.358C197.962 48.339 198.045 48.322 198.102 48.3068L198.449 49.9148C198.339 49.9527 198.182 49.9943 197.977 50.0398C197.777 50.0852 197.53 50.1117 197.239 50.1193C196.723 50.1345 196.259 50.0568 195.847 49.8864C195.434 49.7121 195.106 49.4432 194.864 49.0795C194.625 48.7159 194.508 48.2614 194.511 47.7159V39.1818ZM202.254 44.8864V50H200.197V38.3636H202.209V42.7557H202.311C202.516 42.2633 202.832 41.875 203.26 41.5909C203.692 41.303 204.241 41.1591 204.908 41.1591C205.514 41.1591 206.042 41.286 206.493 41.5398C206.944 41.7936 207.292 42.1648 207.538 42.6534C207.788 43.142 207.913 43.7386 207.913 44.4432V50H205.857V44.7614C205.857 44.1742 205.705 43.7178 205.402 43.392C205.103 43.0625 204.682 42.8977 204.141 42.8977C203.777 42.8977 203.451 42.9773 203.163 43.1364C202.879 43.2917 202.656 43.517 202.493 43.8125C202.334 44.108 202.254 44.4659 202.254 44.8864Z" fill="#3A97A4"/>
<path d="M38.8693 109V79.9091H44.1392V92.2244H57.6193V79.9091H62.9034V109H57.6193V96.642H44.1392V109H38.8693ZM77.2668 109.426C75.0793 109.426 73.1901 108.972 71.5991 108.062C70.0177 107.144 68.8009 105.847 67.9486 104.17C67.0963 102.485 66.6702 100.501 66.6702 98.2188C66.6702 95.9744 67.0963 94.0047 67.9486 92.3097C68.8103 90.6051 70.013 89.2794 71.5565 88.3324C73.1001 87.3759 74.9135 86.8977 76.9969 86.8977C78.3416 86.8977 79.6105 87.1155 80.8037 87.5511C82.0063 87.9773 83.067 88.6402 83.9855 89.5398C84.9135 90.4394 85.6427 91.5852 86.173 92.9773C86.7033 94.3598 86.9685 96.0076 86.9685 97.9205V99.4972H69.0849V96.0312H82.0395C82.03 95.0464 81.817 94.1705 81.4003 93.4034C80.9836 92.6269 80.4012 92.0161 79.6531 91.571C78.9145 91.1259 78.0527 90.9034 77.0679 90.9034C76.0168 90.9034 75.0935 91.1591 74.298 91.6705C73.5026 92.1723 72.8823 92.8352 72.4372 93.6591C72.0016 94.4735 71.7791 95.3684 71.7696 96.3438V99.3693C71.7696 100.638 72.0016 101.727 72.4656 102.636C72.9296 103.536 73.5783 104.227 74.4116 104.71C75.245 105.184 76.2204 105.42 77.3378 105.42C78.0859 105.42 78.763 105.316 79.369 105.108C79.9751 104.89 80.5007 104.573 80.9457 104.156C81.3908 103.74 81.727 103.223 81.9543 102.608L86.7554 103.148C86.4524 104.417 85.8747 105.525 85.0224 106.472C84.1796 107.409 83.1001 108.138 81.7838 108.659C80.4675 109.17 78.9618 109.426 77.2668 109.426ZM96.797 109.44C95.4144 109.44 94.1692 109.194 93.0612 108.702C91.9627 108.2 91.0915 107.461 90.4476 106.486C89.8131 105.51 89.4959 104.308 89.4959 102.878C89.4959 101.647 89.7232 100.629 90.1777 99.8239C90.6322 99.0189 91.2525 98.375 92.0385 97.892C92.8245 97.4091 93.7099 97.0445 94.6947 96.7983C95.6891 96.5426 96.7165 96.358 97.7771 96.2443C99.0555 96.1117 100.092 95.9934 100.888 95.8892C101.683 95.7756 102.261 95.6051 102.621 95.3778C102.99 95.1411 103.175 94.7765 103.175 94.2841V94.1989C103.175 93.1288 102.858 92.3002 102.223 91.7131C101.589 91.1259 100.675 90.8324 99.4817 90.8324C98.2222 90.8324 97.2232 91.107 96.4845 91.6562C95.7554 92.2055 95.2629 92.8542 95.0072 93.6023L90.2061 92.9205C90.5849 91.5947 91.2099 90.4867 92.0811 89.5966C92.9523 88.697 94.0177 88.0246 95.2771 87.5795C96.5366 87.125 97.9286 86.8977 99.4533 86.8977C100.504 86.8977 101.551 87.0208 102.592 87.267C103.634 87.5133 104.586 87.9205 105.448 88.4886C106.309 89.0473 107.001 89.8097 107.521 90.7756C108.052 91.7415 108.317 92.9489 108.317 94.3977V109H103.374V106.003H103.203C102.891 106.609 102.45 107.177 101.882 107.707C101.324 108.228 100.618 108.65 99.7658 108.972C98.923 109.284 97.9334 109.44 96.797 109.44ZM98.1322 105.662C99.1644 105.662 100.059 105.458 100.817 105.051C101.574 104.634 102.157 104.085 102.564 103.403C102.981 102.722 103.189 101.978 103.189 101.173V98.6023C103.028 98.7348 102.753 98.858 102.365 98.9716C101.986 99.0852 101.56 99.1847 101.087 99.2699C100.613 99.3551 100.145 99.4309 99.6805 99.4972C99.2165 99.5634 98.8141 99.6203 98.4732 99.6676C97.7061 99.7718 97.0196 99.9422 96.4135 100.179C95.8074 100.416 95.3292 100.747 94.9788 101.173C94.6285 101.59 94.4533 102.13 94.4533 102.793C94.4533 103.74 94.7989 104.455 95.4902 104.938C96.1815 105.42 97.0622 105.662 98.1322 105.662ZM120.784 109.384C119.07 109.384 117.536 108.943 116.182 108.062C114.828 107.182 113.757 105.903 112.971 104.227C112.185 102.551 111.792 100.515 111.792 98.1193C111.792 95.6951 112.19 93.6496 112.986 91.983C113.791 90.3068 114.875 89.0426 116.238 88.1903C117.602 87.3286 119.122 86.8977 120.798 86.8977C122.077 86.8977 123.128 87.1155 123.952 87.5511C124.775 87.9773 125.429 88.4934 125.912 89.0994C126.395 89.696 126.769 90.2595 127.034 90.7898H127.247V79.9091H132.403V109H127.346V105.562H127.034C126.769 106.093 126.385 106.656 125.883 107.253C125.381 107.84 124.719 108.342 123.895 108.759C123.071 109.175 122.034 109.384 120.784 109.384ZM122.219 105.165C123.308 105.165 124.236 104.871 125.003 104.284C125.77 103.687 126.352 102.859 126.75 101.798C127.148 100.738 127.346 99.5019 127.346 98.0909C127.346 96.6799 127.148 95.4536 126.75 94.4119C126.362 93.3703 125.784 92.5606 125.017 91.983C124.259 91.4053 123.327 91.1165 122.219 91.1165C121.073 91.1165 120.116 91.4148 119.349 92.0114C118.582 92.608 118.005 93.4318 117.616 94.483C117.228 95.5341 117.034 96.7367 117.034 98.0909C117.034 99.4545 117.228 100.671 117.616 101.741C118.014 102.802 118.596 103.64 119.363 104.256C120.14 104.862 121.092 105.165 122.219 105.165ZM143.361 109.44C141.979 109.44 140.733 109.194 139.625 108.702C138.527 108.2 137.656 107.461 137.012 106.486C136.377 105.51 136.06 104.308 136.06 102.878C136.06 101.647 136.287 100.629 136.742 99.8239C137.196 99.0189 137.817 98.375 138.603 97.892C139.389 97.4091 140.274 97.0445 141.259 96.7983C142.253 96.5426 143.281 96.358 144.341 96.2443C145.62 96.1117 146.657 95.9934 147.452 95.8892C148.247 95.7756 148.825 95.6051 149.185 95.3778C149.554 95.1411 149.739 94.7765 149.739 94.2841V94.1989C149.739 93.1288 149.422 92.3002 148.787 91.7131C148.153 91.1259 147.239 90.8324 146.046 90.8324C144.786 90.8324 143.787 91.107 143.049 91.6562C142.319 92.2055 141.827 92.8542 141.571 93.6023L136.77 92.9205C137.149 91.5947 137.774 90.4867 138.645 89.5966C139.516 88.697 140.582 88.0246 141.841 87.5795C143.101 87.125 144.493 86.8977 146.017 86.8977C147.068 86.8977 148.115 87.0208 149.157 87.267C150.198 87.5133 151.15 87.9205 152.012 88.4886C152.873 89.0473 153.565 89.8097 154.086 90.7756C154.616 91.7415 154.881 92.9489 154.881 94.3977V109H149.938V106.003H149.767C149.455 106.609 149.014 107.177 148.446 107.707C147.888 108.228 147.182 108.65 146.33 108.972C145.487 109.284 144.497 109.44 143.361 109.44ZM144.696 105.662C145.729 105.662 146.623 105.458 147.381 105.051C148.139 104.634 148.721 104.085 149.128 103.403C149.545 102.722 149.753 101.978 149.753 101.173V98.6023C149.592 98.7348 149.318 98.858 148.929 98.9716C148.55 99.0852 148.124 99.1847 147.651 99.2699C147.177 99.3551 146.709 99.4309 146.245 99.4972C145.781 99.5634 145.378 99.6203 145.037 99.6676C144.27 99.7718 143.584 99.9422 142.978 100.179C142.371 100.416 141.893 100.747 141.543 101.173C141.193 101.59 141.017 102.13 141.017 102.793C141.017 103.74 141.363 104.455 142.054 104.938C142.746 105.42 143.626 105.662 144.696 105.662ZM168.768 109.426C166.59 109.426 164.72 108.948 163.158 107.991C161.605 107.035 160.407 105.714 159.564 104.028C158.731 102.333 158.314 100.383 158.314 98.1761C158.314 95.9602 158.74 94.0047 159.592 92.3097C160.445 90.6051 161.647 89.2794 163.2 88.3324C164.763 87.3759 166.609 86.8977 168.74 86.8977C170.511 86.8977 172.078 87.2244 173.442 87.8778C174.815 88.5218 175.909 89.4356 176.723 90.6193C177.537 91.7936 178.001 93.1667 178.115 94.7386H173.2C173.001 93.6875 172.528 92.8116 171.78 92.1108C171.041 91.4006 170.052 91.0455 168.811 91.0455C167.76 91.0455 166.837 91.3295 166.041 91.8977C165.246 92.4564 164.625 93.2614 164.18 94.3125C163.745 95.3636 163.527 96.6231 163.527 98.0909C163.527 99.5777 163.745 100.856 164.18 101.926C164.616 102.987 165.227 103.806 166.013 104.384C166.808 104.952 167.741 105.236 168.811 105.236C169.569 105.236 170.246 105.094 170.842 104.81C171.448 104.516 171.955 104.095 172.362 103.545C172.769 102.996 173.049 102.329 173.2 101.543H178.115C177.992 103.086 177.537 104.455 176.751 105.648C175.965 106.831 174.895 107.759 173.541 108.432C172.187 109.095 170.596 109.426 168.768 109.426ZM186.679 96.2159V109H181.537V79.9091H186.566V90.8892H186.821C187.333 89.6581 188.124 88.6875 189.194 87.9773C190.273 87.2576 191.646 86.8977 193.313 86.8977C194.828 86.8977 196.149 87.215 197.276 87.8494C198.403 88.4839 199.274 89.4119 199.89 90.6335C200.515 91.8551 200.827 93.3466 200.827 95.108V109H195.685V95.9034C195.685 94.4356 195.306 93.2945 194.549 92.4801C193.801 91.6562 192.749 91.2443 191.395 91.2443C190.486 91.2443 189.672 91.4432 188.952 91.8409C188.242 92.2292 187.683 92.7926 187.276 93.5312C186.878 94.2699 186.679 95.1648 186.679 96.2159ZM214.928 109.426C212.74 109.426 210.851 108.972 209.26 108.062C207.679 107.144 206.462 105.847 205.61 104.17C204.757 102.485 204.331 100.501 204.331 98.2188C204.331 95.9744 204.757 94.0047 205.61 92.3097C206.471 90.6051 207.674 89.2794 209.217 88.3324C210.761 87.3759 212.574 86.8977 214.658 86.8977C216.003 86.8977 217.271 87.1155 218.465 87.5511C219.667 87.9773 220.728 88.6402 221.646 89.5398C222.574 90.4394 223.304 91.5852 223.834 92.9773C224.364 94.3598 224.629 96.0076 224.629 97.9205V99.4972H206.746V96.0312H219.7C219.691 95.0464 219.478 94.1705 219.061 93.4034C218.645 92.6269 218.062 92.0161 217.314 91.571C216.575 91.1259 215.714 90.9034 214.729 90.9034C213.678 90.9034 212.754 91.1591 211.959 91.6705C211.163 92.1723 210.543 92.8352 210.098 93.6591C209.663 94.4735 209.44 95.3684 209.431 96.3438V99.3693C209.431 100.638 209.663 101.727 210.127 102.636C210.591 103.536 211.239 104.227 212.073 104.71C212.906 105.184 213.881 105.42 214.999 105.42C215.747 105.42 216.424 105.316 217.03 105.108C217.636 104.89 218.162 104.573 218.607 104.156C219.052 103.74 219.388 103.223 219.615 102.608L224.416 103.148C224.113 104.417 223.536 105.525 222.683 106.472C221.841 107.409 220.761 108.138 219.445 108.659C218.128 109.17 216.623 109.426 214.928 109.426ZM245.424 92.9489L240.736 93.4602C240.604 92.9867 240.372 92.5417 240.04 92.125C239.718 91.7083 239.283 91.3722 238.734 91.1165C238.184 90.8608 237.512 90.733 236.716 90.733C235.646 90.733 234.747 90.965 234.018 91.429C233.298 91.893 232.943 92.4943 232.952 93.233C232.943 93.8674 233.175 94.3835 233.648 94.7812C234.131 95.179 234.927 95.5057 236.035 95.7614L239.756 96.5568C241.821 97.0019 243.355 97.7074 244.359 98.6733C245.372 99.6392 245.883 100.903 245.893 102.466C245.883 103.839 245.481 105.051 244.685 106.102C243.899 107.144 242.805 107.958 241.404 108.545C240.002 109.133 238.393 109.426 236.574 109.426C233.904 109.426 231.754 108.867 230.126 107.75C228.497 106.623 227.526 105.056 227.214 103.048L232.228 102.565C232.455 103.55 232.938 104.294 233.677 104.795C234.415 105.297 235.377 105.548 236.56 105.548C237.782 105.548 238.762 105.297 239.501 104.795C240.249 104.294 240.623 103.673 240.623 102.935C240.623 102.31 240.381 101.794 239.898 101.386C239.425 100.979 238.686 100.667 237.682 100.449L233.961 99.6676C231.868 99.232 230.32 98.4981 229.316 97.4659C228.312 96.4242 227.815 95.108 227.824 93.517C227.815 92.1723 228.18 91.0076 228.918 90.0227C229.666 89.0284 230.703 88.2614 232.029 87.7216C233.364 87.1723 234.903 86.8977 236.645 86.8977C239.202 86.8977 241.215 87.4422 242.682 88.5312C244.16 89.6203 245.073 91.0928 245.424 92.9489Z" fill="#3A97A4"/>
<path d="M46.9432 142.148H45.1705C45.1023 141.769 44.9754 141.436 44.7898 141.148C44.6042 140.86 44.3769 140.616 44.108 140.415C43.839 140.214 43.5379 140.062 43.2045 139.96C42.875 139.858 42.5246 139.807 42.1534 139.807C41.483 139.807 40.8826 139.975 40.3523 140.312C39.8258 140.65 39.4091 141.144 39.1023 141.795C38.7992 142.447 38.6477 143.242 38.6477 144.182C38.6477 145.129 38.7992 145.928 39.1023 146.58C39.4091 147.231 39.8277 147.723 40.358 148.057C40.8883 148.39 41.4848 148.557 42.1477 148.557C42.5152 148.557 42.8636 148.508 43.1932 148.409C43.5265 148.307 43.8277 148.157 44.0966 147.96C44.3655 147.763 44.5928 147.523 44.7784 147.239C44.9678 146.951 45.0985 146.621 45.1705 146.25L46.9432 146.256C46.8485 146.828 46.6648 147.354 46.392 147.835C46.1231 148.312 45.7765 148.725 45.3523 149.074C44.9318 149.419 44.4508 149.686 43.9091 149.875C43.3674 150.064 42.7765 150.159 42.1364 150.159C41.1288 150.159 40.2311 149.92 39.4432 149.443C38.6553 148.962 38.0341 148.275 37.5795 147.381C37.1288 146.487 36.9034 145.42 36.9034 144.182C36.9034 142.939 37.1307 141.873 37.5852 140.983C38.0398 140.089 38.661 139.403 39.4489 138.926C40.2367 138.445 41.1326 138.205 42.1364 138.205C42.7538 138.205 43.3295 138.294 43.8636 138.472C44.4015 138.646 44.8845 138.903 45.3125 139.244C45.7405 139.581 46.0947 139.994 46.375 140.483C46.6553 140.968 46.8447 141.523 46.9432 142.148ZM50.6065 138.364V150H48.9077V138.364H50.6065ZM52.892 150V141.273H54.5909V150H52.892ZM53.75 139.926C53.4545 139.926 53.2008 139.828 52.9886 139.631C52.7803 139.43 52.6761 139.191 52.6761 138.915C52.6761 138.634 52.7803 138.396 52.9886 138.199C53.2008 137.998 53.4545 137.898 53.75 137.898C54.0455 137.898 54.2973 137.998 54.5057 138.199C54.7178 138.396 54.8239 138.634 54.8239 138.915C54.8239 139.191 54.7178 139.43 54.5057 139.631C54.2973 139.828 54.0455 139.926 53.75 139.926ZM60.5526 150.176C59.7079 150.176 58.9806 149.985 58.3707 149.602C57.7647 149.216 57.2988 148.684 56.973 148.006C56.6473 147.328 56.4844 146.551 56.4844 145.676C56.4844 144.79 56.651 144.008 56.9844 143.33C57.3177 142.648 57.7874 142.116 58.3935 141.733C58.9995 141.35 59.7135 141.159 60.5355 141.159C61.1984 141.159 61.7893 141.282 62.3082 141.528C62.8272 141.771 63.2457 142.112 63.5639 142.551C63.8859 142.991 64.0772 143.504 64.1378 144.091H62.4844C62.3935 143.682 62.1851 143.33 61.8594 143.034C61.5374 142.739 61.1056 142.591 60.5639 142.591C60.0904 142.591 59.6757 142.716 59.3196 142.966C58.9673 143.212 58.6927 143.564 58.4957 144.023C58.2988 144.477 58.2003 145.015 58.2003 145.636C58.2003 146.273 58.2969 146.822 58.4901 147.284C58.6832 147.746 58.956 148.104 59.3082 148.358C59.6643 148.612 60.0829 148.739 60.5639 148.739C60.8859 148.739 61.1776 148.68 61.4389 148.562C61.7041 148.441 61.9257 148.269 62.1037 148.045C62.2855 147.822 62.4124 147.553 62.4844 147.239H64.1378C64.0772 147.803 63.8935 148.307 63.5866 148.75C63.2798 149.193 62.8688 149.542 62.3537 149.795C61.8423 150.049 61.242 150.176 60.5526 150.176ZM67.517 147.04L67.5057 144.966H67.8011L71.2784 141.273H73.3125L69.3466 145.477H69.0795L67.517 147.04ZM65.9545 150V138.364H67.6534V150H65.9545ZM71.4659 150L68.3409 145.852L69.5114 144.665L73.5511 150H71.4659ZM83.169 141.273V142.636H78.402V141.273H83.169ZM79.6804 139.182H81.3793V147.438C81.3793 147.767 81.4285 148.015 81.527 148.182C81.6255 148.345 81.7524 148.456 81.9077 148.517C82.0668 148.574 82.2391 148.602 82.4247 148.602C82.5611 148.602 82.6804 148.593 82.7827 148.574C82.8849 148.555 82.9645 148.54 83.0213 148.528L83.3281 149.932C83.2296 149.97 83.0895 150.008 82.9077 150.045C82.7259 150.087 82.4986 150.11 82.2259 150.114C81.7789 150.121 81.3622 150.042 80.9759 149.875C80.5895 149.708 80.277 149.451 80.0384 149.102C79.7997 148.754 79.6804 148.316 79.6804 147.79V139.182ZM88.6307 150.176C87.8125 150.176 87.0985 149.989 86.4886 149.614C85.8788 149.239 85.4053 148.714 85.0682 148.04C84.7311 147.366 84.5625 146.578 84.5625 145.676C84.5625 144.771 84.7311 143.979 85.0682 143.301C85.4053 142.623 85.8788 142.097 86.4886 141.722C87.0985 141.347 87.8125 141.159 88.6307 141.159C89.4489 141.159 90.1629 141.347 90.7727 141.722C91.3826 142.097 91.8561 142.623 92.1932 143.301C92.5303 143.979 92.6989 144.771 92.6989 145.676C92.6989 146.578 92.5303 147.366 92.1932 148.04C91.8561 148.714 91.3826 149.239 90.7727 149.614C90.1629 149.989 89.4489 150.176 88.6307 150.176ZM88.6364 148.75C89.1667 148.75 89.6061 148.61 89.9545 148.33C90.303 148.049 90.5606 147.676 90.7273 147.21C90.8977 146.744 90.983 146.231 90.983 145.67C90.983 145.114 90.8977 144.602 90.7273 144.136C90.5606 143.667 90.303 143.29 89.9545 143.006C89.6061 142.722 89.1667 142.58 88.6364 142.58C88.1023 142.58 87.6591 142.722 87.3068 143.006C86.9583 143.29 86.6989 143.667 86.5284 144.136C86.3617 144.602 86.2784 145.114 86.2784 145.67C86.2784 146.231 86.3617 146.744 86.5284 147.21C86.6989 147.676 86.9583 148.049 87.3068 148.33C87.6591 148.61 88.1023 148.75 88.6364 148.75ZM101.369 150.193C100.816 150.193 100.316 150.091 99.8693 149.886C99.4223 149.678 99.0682 149.377 98.8068 148.983C98.5492 148.589 98.4205 148.106 98.4205 147.534C98.4205 147.042 98.5152 146.636 98.7045 146.318C98.8939 146 99.1496 145.748 99.4716 145.562C99.7936 145.377 100.153 145.237 100.551 145.142C100.949 145.047 101.354 144.975 101.767 144.926C102.29 144.866 102.714 144.816 103.04 144.778C103.366 144.737 103.602 144.67 103.75 144.58C103.898 144.489 103.972 144.341 103.972 144.136V144.097C103.972 143.6 103.831 143.216 103.551 142.943C103.275 142.67 102.862 142.534 102.312 142.534C101.741 142.534 101.29 142.661 100.96 142.915C100.634 143.165 100.409 143.443 100.284 143.75L98.6875 143.386C98.8769 142.856 99.1534 142.428 99.517 142.102C99.8845 141.773 100.307 141.534 100.784 141.386C101.261 141.235 101.763 141.159 102.29 141.159C102.638 141.159 103.008 141.201 103.398 141.284C103.792 141.364 104.159 141.511 104.5 141.727C104.845 141.943 105.127 142.252 105.347 142.653C105.566 143.051 105.676 143.568 105.676 144.205V150H104.017V148.807H103.949C103.839 149.027 103.674 149.242 103.455 149.455C103.235 149.667 102.953 149.843 102.608 149.983C102.263 150.123 101.85 150.193 101.369 150.193ZM101.739 148.83C102.208 148.83 102.61 148.737 102.943 148.551C103.28 148.366 103.536 148.123 103.71 147.824C103.888 147.521 103.977 147.197 103.977 146.852V145.727C103.917 145.788 103.799 145.845 103.625 145.898C103.455 145.947 103.259 145.991 103.04 146.028C102.82 146.062 102.606 146.095 102.398 146.125C102.189 146.152 102.015 146.174 101.875 146.193C101.545 146.235 101.244 146.305 100.972 146.403C100.703 146.502 100.487 146.644 100.324 146.83C100.165 147.011 100.085 147.254 100.085 147.557C100.085 147.977 100.241 148.295 100.551 148.511C100.862 148.723 101.258 148.83 101.739 148.83ZM111.206 150.17C110.501 150.17 109.873 149.991 109.32 149.631C108.77 149.267 108.339 148.75 108.024 148.08C107.714 147.405 107.558 146.597 107.558 145.653C107.558 144.71 107.715 143.903 108.03 143.233C108.348 142.562 108.784 142.049 109.337 141.693C109.89 141.337 110.517 141.159 111.217 141.159C111.759 141.159 112.195 141.25 112.524 141.432C112.857 141.61 113.115 141.818 113.297 142.057C113.482 142.295 113.626 142.506 113.729 142.688H113.831V138.364H115.53V150H113.871V148.642H113.729C113.626 148.828 113.479 149.04 113.286 149.278C113.096 149.517 112.835 149.725 112.501 149.903C112.168 150.081 111.736 150.17 111.206 150.17ZM111.581 148.722C112.07 148.722 112.482 148.593 112.82 148.335C113.161 148.074 113.418 147.712 113.592 147.25C113.77 146.788 113.859 146.25 113.859 145.636C113.859 145.03 113.772 144.5 113.598 144.045C113.424 143.591 113.168 143.237 112.831 142.983C112.494 142.729 112.077 142.602 111.581 142.602C111.07 142.602 110.643 142.735 110.303 143C109.962 143.265 109.704 143.627 109.53 144.085C109.359 144.544 109.274 145.061 109.274 145.636C109.274 146.22 109.361 146.744 109.536 147.21C109.71 147.676 109.967 148.045 110.308 148.318C110.653 148.587 111.077 148.722 111.581 148.722ZM117.955 141.273H119.653V150.568C119.653 151.152 119.547 151.644 119.335 152.045C119.127 152.447 118.816 152.752 118.403 152.96C117.994 153.169 117.489 153.273 116.886 153.273C116.826 153.273 116.769 153.273 116.716 153.273C116.659 153.273 116.6 153.271 116.54 153.267V151.807C116.593 151.807 116.64 151.807 116.682 151.807C116.72 151.807 116.763 151.807 116.812 151.807C117.214 151.807 117.504 151.699 117.682 151.483C117.864 151.271 117.955 150.962 117.955 150.557V141.273ZM118.795 139.926C118.5 139.926 118.246 139.828 118.034 139.631C117.826 139.43 117.722 139.191 117.722 138.915C117.722 138.634 117.826 138.396 118.034 138.199C118.246 137.998 118.5 137.898 118.795 137.898C119.091 137.898 119.343 137.998 119.551 138.199C119.763 138.396 119.869 138.634 119.869 138.915C119.869 139.191 119.763 139.43 119.551 139.631C119.343 139.828 119.091 139.926 118.795 139.926ZM127.467 146.381V141.273H129.172V150H127.501V148.489H127.411C127.21 148.955 126.888 149.343 126.445 149.653C126.005 149.96 125.458 150.114 124.803 150.114C124.242 150.114 123.746 149.991 123.314 149.744C122.886 149.494 122.549 149.125 122.303 148.636C122.06 148.148 121.939 147.544 121.939 146.824V141.273H123.638V146.619C123.638 147.214 123.803 147.687 124.132 148.04C124.462 148.392 124.89 148.568 125.416 148.568C125.734 148.568 126.051 148.489 126.365 148.33C126.683 148.17 126.946 147.93 127.155 147.608C127.367 147.286 127.471 146.877 127.467 146.381ZM137.994 143.403L136.455 143.676C136.39 143.479 136.288 143.292 136.148 143.114C136.011 142.936 135.826 142.79 135.591 142.676C135.356 142.562 135.063 142.506 134.71 142.506C134.229 142.506 133.828 142.614 133.506 142.83C133.184 143.042 133.023 143.316 133.023 143.653C133.023 143.945 133.131 144.18 133.347 144.358C133.563 144.536 133.911 144.682 134.392 144.795L135.778 145.114C136.581 145.299 137.18 145.585 137.574 145.972C137.968 146.358 138.165 146.86 138.165 147.477C138.165 148 138.013 148.466 137.71 148.875C137.411 149.28 136.992 149.598 136.455 149.83C135.92 150.061 135.301 150.176 134.597 150.176C133.619 150.176 132.822 149.968 132.205 149.551C131.587 149.131 131.208 148.534 131.068 147.761L132.71 147.511C132.813 147.939 133.023 148.263 133.341 148.483C133.659 148.699 134.074 148.807 134.585 148.807C135.142 148.807 135.587 148.691 135.92 148.46C136.254 148.225 136.42 147.939 136.42 147.602C136.42 147.33 136.318 147.1 136.114 146.915C135.913 146.729 135.604 146.589 135.188 146.494L133.71 146.17C132.896 145.985 132.294 145.689 131.903 145.284C131.517 144.879 131.324 144.366 131.324 143.744C131.324 143.229 131.468 142.778 131.756 142.392C132.044 142.006 132.441 141.705 132.949 141.489C133.456 141.269 134.038 141.159 134.693 141.159C135.636 141.159 136.379 141.364 136.92 141.773C137.462 142.178 137.82 142.722 137.994 143.403ZM144.107 141.273V142.636H139.339V141.273H144.107ZM140.618 139.182H142.317V147.438C142.317 147.767 142.366 148.015 142.464 148.182C142.563 148.345 142.69 148.456 142.845 148.517C143.004 148.574 143.177 148.602 143.362 148.602C143.499 148.602 143.618 148.593 143.72 148.574C143.822 148.555 143.902 148.54 143.959 148.528L144.266 149.932C144.167 149.97 144.027 150.008 143.845 150.045C143.663 150.087 143.436 150.11 143.163 150.114C142.716 150.121 142.3 150.042 141.913 149.875C141.527 149.708 141.214 149.451 140.976 149.102C140.737 148.754 140.618 148.316 140.618 147.79V139.182Z" fill="#828282"/>
</g>
<defs>
<filter id="filter0_d_23_973" x="0" y="0" width="429" height="196" filterUnits="userSpaceOnUse" color-interpolation-filters="sRGB">
<feFlood flood-opacity="0" result="BackgroundImageFix"/>
<feColorMatrix in="SourceAlpha" type="matrix" values="0 0 0 0 0 0 0 0 0 0 0 0 0 0 0 0 0 0 127 0" result="hardAlpha"/>
<feOffset dy="4"/>
<feGaussianBlur stdDeviation="6"/>
<feComposite in2="hardAlpha" operator="out"/>
<feColorMatrix type="matrix" values="0 0 0 0 0 0 0 0 0 0 0 0 0 0 0 0 0 0 0.04 0"/>
<feBlend mode="normal" in2="BackgroundImageFix" result="effect1_dropShadow_23_973"/>
<feBlend mode="normal" in="SourceGraphic" in2="effect1_dropShadow_23_973" result="shape"/>
</filter>
</defs>
</svg>
