<svg width="673" height="472" viewBox="0 0 673 472" fill="none" xmlns="http://www.w3.org/2000/svg">
<g filter="url(#filter0_d_69_637)">
<g clip-path="url(#clip0_69_637)">
<rect x="12" y="8" width="649" height="448" rx="8" fill="white"/>
<path d="M36 79H721" stroke="#E6E6E6"/>
<path d="M36 133.833H721" stroke="#E6E6E6"/>
<path d="M36 188.667H721" stroke="#E6E6E6"/>
<path d="M36 243.5H721" stroke="#E6E6E6"/>
<path d="M36 298.333H721" stroke="#E6E6E6"/>
<path d="M36 353.167H721" stroke="#E6E6E6"/>
<path d="M36 408H721" stroke="#E6E6E6"/>
<path d="M114.379 417.545H115.524V424.304C115.524 424.907 115.413 425.42 115.192 425.841C114.97 426.263 114.658 426.583 114.255 426.801C113.851 427.02 113.376 427.129 112.828 427.129C112.311 427.129 111.851 427.035 111.448 426.848C111.045 426.657 110.728 426.386 110.497 426.035C110.266 425.684 110.15 425.267 110.15 424.784H111.277C111.277 425.052 111.343 425.286 111.475 425.486C111.611 425.683 111.795 425.837 112.029 425.947C112.263 426.058 112.53 426.114 112.828 426.114C113.157 426.114 113.437 426.044 113.668 425.906C113.899 425.767 114.074 425.564 114.195 425.297C114.318 425.026 114.379 424.695 114.379 424.304V417.545ZM119.757 427.166C119.308 427.166 118.9 427.082 118.534 426.912C118.168 426.74 117.877 426.492 117.662 426.169C117.446 425.843 117.338 425.449 117.338 424.987C117.338 424.581 117.418 424.252 117.578 423.999C117.738 423.744 117.952 423.544 118.22 423.399C118.488 423.254 118.783 423.147 119.106 423.076C119.433 423.002 119.76 422.944 120.09 422.901C120.521 422.845 120.87 422.804 121.138 422.776C121.409 422.745 121.606 422.694 121.729 422.624C121.855 422.553 121.918 422.43 121.918 422.254V422.217C121.918 421.762 121.793 421.408 121.544 421.156C121.298 420.903 120.924 420.777 120.422 420.777C119.902 420.777 119.494 420.891 119.199 421.119C118.903 421.346 118.696 421.589 118.576 421.848L117.541 421.479C117.726 421.048 117.972 420.712 118.28 420.472C118.591 420.229 118.929 420.06 119.296 419.964C119.665 419.866 120.028 419.817 120.385 419.817C120.613 419.817 120.875 419.844 121.17 419.9C121.469 419.952 121.756 420.061 122.033 420.228C122.313 420.394 122.546 420.645 122.73 420.98C122.915 421.316 123.007 421.765 123.007 422.328V427H121.918V426.04H121.862C121.789 426.194 121.666 426.358 121.493 426.534C121.321 426.709 121.092 426.858 120.805 426.982C120.519 427.105 120.17 427.166 119.757 427.166ZM119.924 426.188C120.354 426.188 120.718 426.103 121.013 425.934C121.312 425.764 121.536 425.546 121.687 425.278C121.841 425.01 121.918 424.729 121.918 424.433V423.436C121.872 423.491 121.77 423.542 121.613 423.588C121.459 423.632 121.281 423.67 121.078 423.704C120.878 423.735 120.682 423.762 120.491 423.787C120.304 423.808 120.151 423.827 120.034 423.842C119.751 423.879 119.487 423.939 119.24 424.022C118.997 424.102 118.8 424.224 118.649 424.387C118.502 424.547 118.428 424.766 118.428 425.043C118.428 425.421 118.568 425.707 118.848 425.901C119.131 426.092 119.49 426.188 119.924 426.188ZM126.085 422.734V427H124.996V419.909H126.048V421.017H126.141C126.307 420.657 126.559 420.368 126.898 420.149C127.236 419.928 127.673 419.817 128.209 419.817C128.689 419.817 129.109 419.915 129.469 420.112C129.829 420.306 130.109 420.602 130.309 420.999C130.51 421.393 130.61 421.891 130.61 422.494V427H129.52V422.568C129.52 422.011 129.375 421.577 129.086 421.266C128.797 420.952 128.4 420.795 127.895 420.795C127.547 420.795 127.236 420.871 126.963 421.022C126.692 421.172 126.478 421.393 126.321 421.682C126.164 421.971 126.085 422.322 126.085 422.734Z" fill="#828282"/>
<path d="M155.829 427V417.545H161.498V418.561H156.974V421.756H161.074V422.771H156.974V427H155.829ZM165.764 427.148C165.081 427.148 164.491 426.997 163.996 426.695C163.503 426.391 163.123 425.966 162.855 425.421C162.591 424.873 162.458 424.236 162.458 423.51C162.458 422.784 162.591 422.143 162.855 421.589C163.123 421.032 163.496 420.598 163.973 420.288C164.453 419.974 165.013 419.817 165.653 419.817C166.022 419.817 166.387 419.878 166.747 420.001C167.107 420.125 167.435 420.325 167.73 420.602C168.026 420.875 168.261 421.239 168.437 421.691C168.612 422.143 168.7 422.701 168.7 423.362V423.824H163.234V422.882H167.592C167.592 422.482 167.512 422.125 167.352 421.811C167.195 421.497 166.97 421.249 166.678 421.068C166.389 420.886 166.047 420.795 165.653 420.795C165.219 420.795 164.844 420.903 164.527 421.119C164.213 421.331 163.971 421.608 163.802 421.95C163.633 422.291 163.548 422.657 163.548 423.048V423.676C163.548 424.212 163.64 424.666 163.825 425.038C164.013 425.407 164.273 425.689 164.605 425.883C164.938 426.074 165.324 426.169 165.764 426.169C166.05 426.169 166.309 426.129 166.539 426.049C166.773 425.966 166.975 425.843 167.144 425.68C167.313 425.513 167.444 425.307 167.537 425.061L168.589 425.357C168.478 425.714 168.292 426.027 168.031 426.298C167.769 426.566 167.446 426.775 167.061 426.926C166.676 427.074 166.244 427.148 165.764 427.148ZM170.505 427V417.545H171.594V421.036H171.687C171.767 420.912 171.878 420.755 172.019 420.565C172.164 420.371 172.37 420.198 172.638 420.048C172.909 419.894 173.275 419.817 173.737 419.817C174.334 419.817 174.86 419.966 175.315 420.265C175.771 420.563 176.126 420.986 176.382 421.534C176.637 422.082 176.765 422.728 176.765 423.473C176.765 424.224 176.637 424.875 176.382 425.426C176.126 425.974 175.772 426.398 175.32 426.7C174.868 426.998 174.346 427.148 173.755 427.148C173.299 427.148 172.935 427.072 172.661 426.922C172.387 426.768 172.176 426.594 172.028 426.4C171.881 426.203 171.767 426.04 171.687 425.911H171.558V427H170.505ZM171.576 423.455C171.576 423.99 171.654 424.462 171.811 424.872C171.968 425.278 172.198 425.597 172.499 425.827C172.801 426.055 173.17 426.169 173.607 426.169C174.063 426.169 174.443 426.049 174.748 425.809C175.055 425.566 175.286 425.24 175.44 424.83C175.597 424.418 175.675 423.959 175.675 423.455C175.675 422.956 175.598 422.507 175.445 422.107C175.294 421.703 175.065 421.385 174.757 421.151C174.452 420.914 174.069 420.795 173.607 420.795C173.164 420.795 172.792 420.908 172.49 421.132C172.188 421.354 171.961 421.665 171.807 422.065C171.653 422.462 171.576 422.925 171.576 423.455Z" fill="#828282"/>
<path d="M200.792 417.545H202.158L205.371 425.393H205.482L208.695 417.545H210.061V427H208.99V419.817H208.898L205.944 427H204.91L201.955 419.817H201.863V427H200.792V417.545ZM214.296 427.166C213.847 427.166 213.439 427.082 213.073 426.912C212.706 426.74 212.416 426.492 212.2 426.169C211.985 425.843 211.877 425.449 211.877 424.987C211.877 424.581 211.957 424.252 212.117 423.999C212.277 423.744 212.491 423.544 212.759 423.399C213.026 423.254 213.322 423.147 213.645 423.076C213.971 423.002 214.299 422.944 214.628 422.901C215.059 422.845 215.409 422.804 215.676 422.776C215.947 422.745 216.144 422.694 216.267 422.624C216.393 422.553 216.456 422.43 216.456 422.254V422.217C216.456 421.762 216.332 421.408 216.083 421.156C215.836 420.903 215.462 420.777 214.961 420.777C214.441 420.777 214.033 420.891 213.737 421.119C213.442 421.346 213.234 421.589 213.114 421.848L212.08 421.479C212.265 421.048 212.511 420.712 212.819 420.472C213.13 420.229 213.468 420.06 213.834 419.964C214.204 419.866 214.567 419.817 214.924 419.817C215.152 419.817 215.413 419.844 215.709 419.9C216.007 419.952 216.295 420.061 216.572 420.228C216.852 420.394 217.084 420.645 217.269 420.98C217.454 421.316 217.546 421.765 217.546 422.328V427H216.456V426.04H216.401C216.327 426.194 216.204 426.358 216.032 426.534C215.859 426.709 215.63 426.858 215.344 426.982C215.058 427.105 214.708 427.166 214.296 427.166ZM214.462 426.188C214.893 426.188 215.256 426.103 215.552 425.934C215.85 425.764 216.075 425.546 216.226 425.278C216.38 425.01 216.456 424.729 216.456 424.433V423.436C216.41 423.491 216.309 423.542 216.152 423.588C215.998 423.632 215.819 423.67 215.616 423.704C215.416 423.735 215.221 423.762 215.03 423.787C214.842 423.808 214.69 423.827 214.573 423.842C214.29 423.879 214.025 423.939 213.779 424.022C213.536 424.102 213.339 424.224 213.188 424.387C213.04 424.547 212.966 424.766 212.966 425.043C212.966 425.421 213.106 425.707 213.387 425.901C213.67 426.092 214.028 426.188 214.462 426.188ZM219.535 427V419.909H220.587V420.98H220.661C220.79 420.629 221.024 420.345 221.363 420.126C221.701 419.908 222.083 419.798 222.508 419.798C222.588 419.798 222.688 419.8 222.808 419.803C222.928 419.806 223.018 419.811 223.08 419.817V420.925C223.043 420.915 222.958 420.902 222.826 420.883C222.697 420.862 222.56 420.851 222.415 420.851C222.07 420.851 221.763 420.923 221.492 421.068C221.224 421.209 221.012 421.406 220.855 421.659C220.701 421.908 220.624 422.193 220.624 422.513V427H219.535Z" fill="#828282"/>
<path d="M247.721 427H246.521L249.993 417.545H251.175L254.646 427H253.446L250.621 419.041H250.547L247.721 427ZM248.165 423.307H253.003V424.322H248.165V423.307ZM255.971 429.659V419.909H257.024V421.036H257.153C257.233 420.912 257.344 420.755 257.485 420.565C257.63 420.371 257.836 420.198 258.104 420.048C258.375 419.894 258.741 419.817 259.203 419.817C259.8 419.817 260.326 419.966 260.781 420.265C261.237 420.563 261.592 420.986 261.848 421.534C262.103 422.082 262.231 422.728 262.231 423.473C262.231 424.224 262.103 424.875 261.848 425.426C261.592 425.974 261.238 426.398 260.786 426.7C260.334 426.998 259.812 427.148 259.221 427.148C258.766 427.148 258.401 427.072 258.127 426.922C257.853 426.768 257.642 426.594 257.494 426.4C257.347 426.203 257.233 426.04 257.153 425.911H257.061V429.659H255.971ZM257.042 423.455C257.042 423.99 257.121 424.462 257.277 424.872C257.434 425.278 257.664 425.597 257.965 425.827C258.267 426.055 258.636 426.169 259.073 426.169C259.529 426.169 259.909 426.049 260.214 425.809C260.521 425.566 260.752 425.24 260.906 424.83C261.063 424.418 261.141 423.959 261.141 423.455C261.141 422.956 261.065 422.507 260.911 422.107C260.76 421.703 260.531 421.385 260.223 421.151C259.918 420.914 259.535 420.795 259.073 420.795C258.63 420.795 258.258 420.908 257.956 421.132C257.655 421.354 257.427 421.665 257.273 422.065C257.119 422.462 257.042 422.925 257.042 423.455ZM263.893 427V419.909H264.945V420.98H265.019C265.149 420.629 265.382 420.345 265.721 420.126C266.06 419.908 266.441 419.798 266.866 419.798C266.946 419.798 267.046 419.8 267.166 419.803C267.286 419.806 267.377 419.811 267.438 419.817V420.925C267.401 420.915 267.317 420.902 267.184 420.883C267.055 420.862 266.918 420.851 266.774 420.851C266.429 420.851 266.121 420.923 265.85 421.068C265.583 421.209 265.37 421.406 265.213 421.659C265.059 421.908 264.982 422.193 264.982 422.513V427H263.893Z" fill="#828282"/>
<path d="M290.62 417.545H291.987L295.2 425.393H295.311L298.524 417.545H299.89V427H298.819V419.817H298.727L295.772 427H294.738L291.784 419.817H291.691V427H290.62V417.545ZM304.125 427.166C303.675 427.166 303.267 427.082 302.901 426.912C302.535 426.74 302.244 426.492 302.029 426.169C301.813 425.843 301.706 425.449 301.706 424.987C301.706 424.581 301.786 424.252 301.946 423.999C302.106 423.744 302.32 423.544 302.587 423.399C302.855 423.254 303.15 423.147 303.474 423.076C303.8 423.002 304.128 422.944 304.457 422.901C304.888 422.845 305.237 422.804 305.505 422.776C305.776 422.745 305.973 422.694 306.096 422.624C306.222 422.553 306.285 422.43 306.285 422.254V422.217C306.285 421.762 306.16 421.408 305.911 421.156C305.665 420.903 305.291 420.777 304.789 420.777C304.269 420.777 303.861 420.891 303.566 421.119C303.271 421.346 303.063 421.589 302.943 421.848L301.909 421.479C302.093 421.048 302.34 420.712 302.647 420.472C302.958 420.229 303.297 420.06 303.663 419.964C304.032 419.866 304.395 419.817 304.752 419.817C304.98 419.817 305.242 419.844 305.537 419.9C305.836 419.952 306.124 420.061 306.4 420.228C306.681 420.394 306.913 420.645 307.098 420.98C307.282 421.316 307.375 421.765 307.375 422.328V427H306.285V426.04H306.23C306.156 426.194 306.033 426.358 305.86 426.534C305.688 426.709 305.459 426.858 305.173 426.982C304.886 427.105 304.537 427.166 304.125 427.166ZM304.291 426.188C304.722 426.188 305.085 426.103 305.38 425.934C305.679 425.764 305.903 425.546 306.054 425.278C306.208 425.01 306.285 424.729 306.285 424.433V423.436C306.239 423.491 306.137 423.542 305.98 423.588C305.827 423.632 305.648 423.67 305.445 423.704C305.245 423.735 305.049 423.762 304.859 423.787C304.671 423.808 304.519 423.827 304.402 423.842C304.118 423.879 303.854 423.939 303.608 424.022C303.364 424.102 303.167 424.224 303.017 424.387C302.869 424.547 302.795 424.766 302.795 425.043C302.795 425.421 302.935 425.707 303.215 425.901C303.498 426.092 303.857 426.188 304.291 426.188ZM309.811 429.659C309.626 429.659 309.462 429.644 309.317 429.613C309.172 429.585 309.072 429.558 309.017 429.53L309.294 428.57C309.559 428.637 309.792 428.662 309.996 428.643C310.199 428.625 310.379 428.534 310.536 428.371C310.696 428.211 310.842 427.951 310.974 427.591L311.177 427.037L308.555 419.909H309.737L311.694 425.56H311.768L313.726 419.909H314.908L311.898 428.034C311.762 428.4 311.594 428.703 311.394 428.944C311.194 429.187 310.962 429.367 310.697 429.484C310.436 429.601 310.14 429.659 309.811 429.659Z" fill="#828282"/>
<path d="M341.518 417.545H342.663V424.304C342.663 424.907 342.552 425.42 342.33 425.841C342.109 426.263 341.796 426.583 341.393 426.801C340.99 427.02 340.515 427.129 339.967 427.129C339.45 427.129 338.99 427.035 338.586 426.848C338.183 426.657 337.866 426.386 337.635 426.035C337.405 425.684 337.289 425.267 337.289 424.784H338.416C338.416 425.052 338.482 425.286 338.614 425.486C338.75 425.683 338.934 425.837 339.168 425.947C339.402 426.058 339.668 426.114 339.967 426.114C340.296 426.114 340.576 426.044 340.807 425.906C341.038 425.767 341.213 425.564 341.333 425.297C341.456 425.026 341.518 424.695 341.518 424.304V417.545ZM349.278 424.101V419.909H350.368V427H349.278V425.8H349.204C349.038 426.16 348.78 426.466 348.429 426.718C348.078 426.968 347.635 427.092 347.099 427.092C346.656 427.092 346.262 426.995 345.917 426.801C345.573 426.605 345.302 426.309 345.105 425.915C344.908 425.518 344.809 425.018 344.809 424.415V419.909H345.899V424.341C345.899 424.858 346.044 425.27 346.333 425.578C346.625 425.886 346.998 426.04 347.45 426.04C347.721 426.04 347.996 425.971 348.276 425.832C348.56 425.694 348.797 425.481 348.987 425.195C349.181 424.909 349.278 424.544 349.278 424.101ZM353.453 422.734V427H352.363V419.909H353.416V421.017H353.508C353.674 420.657 353.927 420.368 354.265 420.149C354.604 419.928 355.041 419.817 355.576 419.817C356.056 419.817 356.476 419.915 356.836 420.112C357.197 420.306 357.477 420.602 357.677 420.999C357.877 421.393 357.977 421.891 357.977 422.494V427H356.887V422.568C356.887 422.011 356.743 421.577 356.453 421.266C356.164 420.952 355.767 420.795 355.262 420.795C354.914 420.795 354.604 420.871 354.33 421.022C354.059 421.172 353.845 421.393 353.688 421.682C353.531 421.971 353.453 422.322 353.453 422.734Z" fill="#828282"/>
<path d="M389.229 417.545H390.374V424.304C390.374 424.907 390.263 425.42 390.041 425.841C389.82 426.263 389.507 426.583 389.104 426.801C388.701 427.02 388.225 427.129 387.678 427.129C387.161 427.129 386.701 427.035 386.297 426.848C385.894 426.657 385.577 426.386 385.346 426.035C385.116 425.684 385 425.267 385 424.784H386.127C386.127 425.052 386.193 425.286 386.325 425.486C386.46 425.683 386.645 425.837 386.879 425.947C387.113 426.058 387.379 426.114 387.678 426.114C388.007 426.114 388.287 426.044 388.518 425.906C388.749 425.767 388.924 425.564 389.044 425.297C389.167 425.026 389.229 424.695 389.229 424.304V417.545ZM396.989 424.101V419.909H398.079V427H396.989V425.8H396.915C396.749 426.16 396.491 426.466 396.14 426.718C395.789 426.968 395.346 427.092 394.81 427.092C394.367 427.092 393.973 426.995 393.628 426.801C393.284 426.605 393.013 426.309 392.816 425.915C392.619 425.518 392.52 425.018 392.52 424.415V419.909H393.61V424.341C393.61 424.858 393.754 425.27 394.044 425.578C394.336 425.886 394.709 426.04 395.161 426.04C395.432 426.04 395.707 425.971 395.987 425.832C396.27 425.694 396.507 425.481 396.698 425.195C396.892 424.909 396.989 424.544 396.989 424.101ZM401.164 417.545V427H400.074V417.545H401.164Z" fill="#828282"/>
<path d="M428.166 427H426.965L430.437 417.545H431.619L435.09 427H433.89L431.065 419.041H430.991L428.166 427ZM428.609 423.307H433.447V424.322H428.609V423.307ZM440.884 424.101V419.909H441.974V427H440.884V425.8H440.81C440.644 426.16 440.386 426.466 440.035 426.718C439.684 426.968 439.241 427.092 438.705 427.092C438.262 427.092 437.868 426.995 437.523 426.801C437.179 426.605 436.908 426.309 436.711 425.915C436.514 425.518 436.415 425.018 436.415 424.415V419.909H437.505V424.341C437.505 424.858 437.65 425.27 437.939 425.578C438.231 425.886 438.604 426.04 439.056 426.04C439.327 426.04 439.602 425.971 439.882 425.832C440.165 425.694 440.402 425.481 440.593 425.195C440.787 424.909 440.884 424.544 440.884 424.101ZM446.831 429.807C446.305 429.807 445.853 429.739 445.474 429.604C445.095 429.471 444.78 429.296 444.528 429.077C444.278 428.862 444.08 428.631 443.932 428.385L444.8 427.776C444.899 427.905 445.023 428.053 445.174 428.219C445.325 428.388 445.531 428.534 445.793 428.657C446.057 428.783 446.403 428.847 446.831 428.847C447.404 428.847 447.876 428.708 448.249 428.431C448.621 428.154 448.807 427.72 448.807 427.129V425.689H448.715C448.635 425.818 448.521 425.978 448.373 426.169C448.229 426.357 448.019 426.525 447.745 426.672C447.475 426.817 447.108 426.889 446.647 426.889C446.074 426.889 445.56 426.754 445.105 426.483C444.652 426.212 444.294 425.818 444.029 425.301C443.767 424.784 443.637 424.156 443.637 423.418C443.637 422.691 443.764 422.059 444.02 421.52C444.275 420.979 444.631 420.56 445.086 420.265C445.542 419.966 446.068 419.817 446.665 419.817C447.127 419.817 447.493 419.894 447.764 420.048C448.038 420.198 448.247 420.371 448.392 420.565C448.539 420.755 448.653 420.912 448.733 421.036H448.844V419.909H449.897V427.203C449.897 427.812 449.758 428.308 449.481 428.69C449.207 429.074 448.838 429.356 448.373 429.534C447.912 429.716 447.398 429.807 446.831 429.807ZM446.794 425.911C447.231 425.911 447.601 425.81 447.902 425.61C448.204 425.41 448.433 425.123 448.59 424.747C448.747 424.372 448.826 423.922 448.826 423.399C448.826 422.888 448.749 422.437 448.595 422.047C448.441 421.656 448.213 421.349 447.912 421.128C447.61 420.906 447.238 420.795 446.794 420.795C446.333 420.795 445.948 420.912 445.64 421.146C445.336 421.38 445.106 421.694 444.952 422.088C444.802 422.482 444.726 422.919 444.726 423.399C444.726 423.892 444.803 424.327 444.957 424.706C445.114 425.081 445.345 425.377 445.649 425.592C445.957 425.804 446.339 425.911 446.794 425.911Z" fill="#828282"/>
<path d="M478.641 419.909C478.585 419.441 478.361 419.078 477.967 418.82C477.573 418.561 477.09 418.432 476.517 418.432C476.099 418.432 475.732 418.5 475.418 418.635C475.108 418.77 474.864 418.957 474.689 419.194C474.517 419.431 474.431 419.7 474.431 420.001C474.431 420.254 474.491 420.471 474.611 420.652C474.734 420.831 474.891 420.98 475.081 421.1C475.272 421.217 475.472 421.314 475.682 421.391C475.891 421.465 476.083 421.525 476.259 421.571L477.219 421.83C477.465 421.894 477.739 421.983 478.041 422.097C478.345 422.211 478.636 422.367 478.913 422.564C479.193 422.757 479.424 423.007 479.606 423.311C479.787 423.616 479.878 423.99 479.878 424.433C479.878 424.944 479.744 425.406 479.476 425.818C479.212 426.231 478.824 426.558 478.313 426.801C477.805 427.045 477.188 427.166 476.462 427.166C475.785 427.166 475.198 427.057 474.703 426.838C474.21 426.62 473.823 426.315 473.54 425.924C473.259 425.533 473.101 425.08 473.064 424.562H474.246C474.277 424.92 474.397 425.215 474.606 425.449C474.818 425.68 475.086 425.852 475.409 425.966C475.735 426.077 476.086 426.132 476.462 426.132C476.899 426.132 477.291 426.061 477.639 425.92C477.987 425.775 478.262 425.575 478.465 425.32C478.668 425.061 478.77 424.759 478.77 424.415C478.77 424.101 478.682 423.845 478.507 423.648C478.331 423.451 478.101 423.291 477.814 423.168C477.528 423.045 477.219 422.937 476.887 422.845L475.723 422.513C474.985 422.3 474.4 421.997 473.969 421.603C473.538 421.209 473.323 420.694 473.323 420.057C473.323 419.527 473.466 419.066 473.752 418.672C474.041 418.275 474.429 417.967 474.915 417.749C475.405 417.527 475.951 417.416 476.554 417.416C477.164 417.416 477.705 417.525 478.179 417.744C478.653 417.959 479.029 418.255 479.306 418.63C479.586 419.006 479.733 419.432 479.749 419.909H478.641ZM484.586 427.148C483.902 427.148 483.313 426.997 482.818 426.695C482.325 426.391 481.945 425.966 481.677 425.421C481.413 424.873 481.28 424.236 481.28 423.51C481.28 422.784 481.413 422.143 481.677 421.589C481.945 421.032 482.317 420.598 482.794 420.288C483.275 419.974 483.835 419.817 484.475 419.817C484.844 419.817 485.209 419.878 485.569 420.001C485.929 420.125 486.257 420.325 486.552 420.602C486.848 420.875 487.083 421.239 487.259 421.691C487.434 422.143 487.522 422.701 487.522 423.362V423.824H482.056V422.882H486.414C486.414 422.482 486.334 422.125 486.174 421.811C486.017 421.497 485.792 421.249 485.5 421.068C485.21 420.886 484.869 420.795 484.475 420.795C484.041 420.795 483.665 420.903 483.348 421.119C483.035 421.331 482.793 421.608 482.624 421.95C482.454 422.291 482.37 422.657 482.37 423.048V423.676C482.37 424.212 482.462 424.666 482.647 425.038C482.834 425.407 483.095 425.689 483.427 425.883C483.759 426.074 484.146 426.169 484.586 426.169C484.872 426.169 485.13 426.129 485.361 426.049C485.595 425.966 485.797 425.843 485.966 425.68C486.135 425.513 486.266 425.307 486.358 425.061L487.411 425.357C487.3 425.714 487.114 426.027 486.852 426.298C486.591 426.566 486.268 426.775 485.883 426.926C485.498 427.074 485.066 427.148 484.586 427.148ZM489.179 429.659V419.909H490.232V421.036H490.361C490.441 420.912 490.552 420.755 490.693 420.565C490.838 420.371 491.044 420.198 491.312 420.048C491.583 419.894 491.949 419.817 492.411 419.817C493.008 419.817 493.534 419.966 493.989 420.265C494.445 420.563 494.8 420.986 495.056 421.534C495.311 422.082 495.439 422.728 495.439 423.473C495.439 424.224 495.311 424.875 495.056 425.426C494.8 425.974 494.446 426.398 493.994 426.7C493.542 426.998 493.02 427.148 492.429 427.148C491.974 427.148 491.609 427.072 491.335 426.922C491.061 426.768 490.85 426.594 490.702 426.4C490.555 426.203 490.441 426.04 490.361 425.911H490.269V429.659H489.179ZM490.25 423.455C490.25 423.99 490.329 424.462 490.485 424.872C490.642 425.278 490.872 425.597 491.173 425.827C491.475 426.055 491.844 426.169 492.281 426.169C492.737 426.169 493.117 426.049 493.422 425.809C493.729 425.566 493.96 425.24 494.114 424.83C494.271 424.418 494.349 423.959 494.349 423.455C494.349 422.956 494.273 422.507 494.119 422.107C493.968 421.703 493.739 421.385 493.431 421.151C493.126 420.914 492.743 420.795 492.281 420.795C491.838 420.795 491.466 420.908 491.164 421.132C490.863 421.354 490.635 421.665 490.481 422.065C490.327 422.462 490.25 422.925 490.25 423.455Z" fill="#828282"/>
<path d="M527.844 422.273C527.844 423.27 527.664 424.132 527.303 424.858C526.943 425.584 526.449 426.144 525.822 426.538C525.194 426.932 524.477 427.129 523.67 427.129C522.864 427.129 522.147 426.932 521.519 426.538C520.891 426.144 520.397 425.584 520.037 424.858C519.677 424.132 519.497 423.27 519.497 422.273C519.497 421.276 519.677 420.414 520.037 419.688C520.397 418.961 520.891 418.401 521.519 418.007C522.147 417.613 522.864 417.416 523.67 417.416C524.477 417.416 525.194 417.613 525.822 418.007C526.449 418.401 526.943 418.961 527.303 419.688C527.664 420.414 527.844 421.276 527.844 422.273ZM526.736 422.273C526.736 421.454 526.599 420.763 526.325 420.2C526.054 419.637 525.686 419.21 525.221 418.921C524.76 418.632 524.243 418.487 523.67 418.487C523.098 418.487 522.579 418.632 522.115 418.921C521.653 419.21 521.285 419.637 521.011 420.2C520.74 420.763 520.605 421.454 520.605 422.273C520.605 423.091 520.74 423.782 521.011 424.346C521.285 424.909 521.653 425.335 522.115 425.624C522.579 425.914 523.098 426.058 523.67 426.058C524.243 426.058 524.76 425.914 525.221 425.624C525.686 425.335 526.054 424.909 526.325 424.346C526.599 423.782 526.736 423.091 526.736 422.273ZM532.502 427.148C531.837 427.148 531.264 426.991 530.784 426.677C530.304 426.363 529.935 425.931 529.676 425.38C529.418 424.829 529.289 424.199 529.289 423.491C529.289 422.771 529.421 422.136 529.686 421.585C529.953 421.031 530.326 420.598 530.803 420.288C531.283 419.974 531.843 419.817 532.483 419.817C532.982 419.817 533.431 419.909 533.831 420.094C534.231 420.278 534.559 420.537 534.814 420.869C535.07 421.202 535.228 421.589 535.29 422.033H534.2C534.117 421.71 533.933 421.423 533.646 421.174C533.363 420.922 532.982 420.795 532.502 420.795C532.077 420.795 531.705 420.906 531.384 421.128C531.067 421.346 530.82 421.656 530.641 422.056C530.466 422.453 530.378 422.919 530.378 423.455C530.378 424.002 530.464 424.479 530.637 424.886C530.812 425.292 531.058 425.607 531.375 425.832C531.695 426.057 532.071 426.169 532.502 426.169C532.785 426.169 533.042 426.12 533.273 426.021C533.503 425.923 533.699 425.781 533.859 425.597C534.019 425.412 534.133 425.19 534.2 424.932H535.29C535.228 425.35 535.076 425.727 534.833 426.063C534.593 426.395 534.274 426.66 533.877 426.857C533.483 427.051 533.025 427.148 532.502 427.148ZM539.966 419.909V420.832H536.292V419.909H539.966ZM537.363 418.21H538.452V424.969C538.452 425.277 538.497 425.507 538.586 425.661C538.678 425.812 538.795 425.914 538.937 425.966C539.082 426.015 539.234 426.04 539.394 426.04C539.514 426.04 539.613 426.034 539.689 426.021C539.766 426.006 539.828 425.994 539.874 425.984L540.096 426.963C540.022 426.991 539.919 427.018 539.786 427.046C539.654 427.077 539.486 427.092 539.283 427.092C538.975 427.092 538.674 427.026 538.378 426.894C538.086 426.761 537.843 426.56 537.649 426.289C537.458 426.018 537.363 425.677 537.363 425.264V418.21Z" fill="#828282"/>
<path d="M571.494 417.545V427H570.386L565.234 419.577H565.142V427H563.997V417.545H565.105L570.276 424.987H570.368V417.545H571.494ZM576.518 427.148C575.878 427.148 575.316 426.995 574.833 426.691C574.353 426.386 573.978 425.96 573.707 425.412C573.439 424.864 573.305 424.224 573.305 423.491C573.305 422.753 573.439 422.108 573.707 421.557C573.978 421.006 574.353 420.578 574.833 420.274C575.316 419.969 575.878 419.817 576.518 419.817C577.158 419.817 577.718 419.969 578.199 420.274C578.682 420.578 579.057 421.006 579.325 421.557C579.596 422.108 579.731 422.753 579.731 423.491C579.731 424.224 579.596 424.864 579.325 425.412C579.057 425.96 578.682 426.386 578.199 426.691C577.718 426.995 577.158 427.148 576.518 427.148ZM576.518 426.169C577.004 426.169 577.405 426.044 577.718 425.795C578.032 425.546 578.265 425.218 578.416 424.812C578.566 424.406 578.642 423.965 578.642 423.491C578.642 423.018 578.566 422.576 578.416 422.167C578.265 421.757 578.032 421.426 577.718 421.174C577.405 420.922 577.004 420.795 576.518 420.795C576.032 420.795 575.632 420.922 575.318 421.174C575.004 421.426 574.772 421.757 574.621 422.167C574.47 422.576 574.395 423.018 574.395 423.491C574.395 423.965 574.47 424.406 574.621 424.812C574.772 425.218 575.004 425.546 575.318 425.795C575.632 426.044 576.032 426.169 576.518 426.169ZM586.939 419.909L584.317 427H583.209L580.586 419.909H581.768L583.726 425.56H583.8L585.757 419.909H586.939Z" fill="#828282"/>
<path d="M612.543 427H609.625V417.545H612.672C613.589 417.545 614.374 417.735 615.026 418.113C615.679 418.489 616.179 419.029 616.527 419.734C616.875 420.435 617.048 421.276 617.048 422.254C617.048 423.239 616.873 424.087 616.522 424.798C616.171 425.506 615.66 426.051 614.989 426.432C614.319 426.811 613.503 427 612.543 427ZM610.77 425.984H612.469C613.251 425.984 613.898 425.834 614.412 425.532C614.926 425.23 615.31 424.801 615.562 424.244C615.814 423.687 615.94 423.024 615.94 422.254C615.94 421.491 615.816 420.834 615.567 420.283C615.317 419.729 614.945 419.304 614.449 419.009C613.954 418.71 613.337 418.561 612.598 418.561H610.77V425.984ZM621.794 427.148C621.111 427.148 620.522 426.997 620.026 426.695C619.534 426.391 619.154 425.966 618.886 425.421C618.621 424.873 618.489 424.236 618.489 423.51C618.489 422.784 618.621 422.143 618.886 421.589C619.154 421.032 619.526 420.598 620.003 420.288C620.483 419.974 621.043 419.817 621.683 419.817C622.053 419.817 622.417 419.878 622.777 420.001C623.138 420.125 623.465 420.325 623.761 420.602C624.056 420.875 624.292 421.239 624.467 421.691C624.643 422.143 624.73 422.701 624.73 423.362V423.824H619.264V422.882H623.622C623.622 422.482 623.542 422.125 623.382 421.811C623.225 421.497 623.001 421.249 622.708 421.068C622.419 420.886 622.077 420.795 621.683 420.795C621.249 420.795 620.874 420.903 620.557 421.119C620.243 421.331 620.001 421.608 619.832 421.95C619.663 422.291 619.578 422.657 619.578 423.048V423.676C619.578 424.212 619.671 424.666 619.855 425.038C620.043 425.407 620.303 425.689 620.635 425.883C620.968 426.074 621.354 426.169 621.794 426.169C622.08 426.169 622.339 426.129 622.57 426.049C622.804 425.966 623.005 425.843 623.174 425.68C623.344 425.513 623.475 425.307 623.567 425.061L624.619 425.357C624.509 425.714 624.322 426.027 624.061 426.298C623.799 426.566 623.476 426.775 623.091 426.926C622.707 427.074 622.274 427.148 621.794 427.148ZM629.268 427.148C628.603 427.148 628.031 426.991 627.551 426.677C627.071 426.363 626.701 425.931 626.443 425.38C626.184 424.829 626.055 424.199 626.055 423.491C626.055 422.771 626.187 422.136 626.452 421.585C626.72 421.031 627.092 420.598 627.569 420.288C628.049 419.974 628.61 419.817 629.25 419.817C629.748 419.817 630.198 419.909 630.598 420.094C630.998 420.278 631.326 420.537 631.581 420.869C631.837 421.202 631.995 421.589 632.057 422.033H630.967C630.884 421.71 630.699 421.423 630.413 421.174C630.13 420.922 629.748 420.795 629.268 420.795C628.843 420.795 628.471 420.906 628.151 421.128C627.834 421.346 627.586 421.656 627.408 422.056C627.232 422.453 627.145 422.919 627.145 423.455C627.145 424.002 627.231 424.479 627.403 424.886C627.579 425.292 627.825 425.607 628.142 425.832C628.462 426.057 628.837 426.169 629.268 426.169C629.551 426.169 629.808 426.12 630.039 426.021C630.27 425.923 630.465 425.781 630.625 425.597C630.785 425.412 630.899 425.19 630.967 424.932H632.057C631.995 425.35 631.843 425.727 631.6 426.063C631.359 426.395 631.041 426.66 630.644 426.857C630.25 427.051 629.791 427.148 629.268 427.148Z" fill="#828282"/>
<path d="M40.4594 94.1293C39.8501 94.1293 39.3068 94.0246 38.8298 93.8153C38.3559 93.6061 37.9788 93.3152 37.6988 92.9428C37.4218 92.5674 37.271 92.1319 37.2464 91.6364H38.4097C38.4343 91.9411 38.539 92.2042 38.7236 92.4258C38.9083 92.6443 39.1499 92.8136 39.4484 92.9336C39.747 93.0536 40.0778 93.1136 40.441 93.1136C40.8472 93.1136 41.2073 93.0429 41.5212 92.9013C41.8351 92.7597 42.0814 92.5627 42.2599 92.3104C42.4384 92.058 42.5276 91.7656 42.5276 91.4332C42.5276 91.0855 42.4414 90.7792 42.2691 90.5146C42.0967 90.2468 41.8444 90.0375 41.512 89.8867C41.1796 89.7359 40.7733 89.6605 40.2932 89.6605H39.5361V88.6449H40.2932C40.6687 88.6449 40.998 88.5772 41.2812 88.4418C41.5674 88.3063 41.7905 88.1155 41.9506 87.8693C42.1137 87.6231 42.1952 87.3338 42.1952 87.0014C42.1952 86.6813 42.1244 86.4028 41.9829 86.1658C41.8413 85.9289 41.6412 85.7442 41.3827 85.6119C41.1273 85.4795 40.8257 85.4134 40.4779 85.4134C40.1517 85.4134 39.8439 85.4734 39.5546 85.5934C39.2684 85.7103 39.0345 85.8812 38.8529 86.1058C38.6713 86.3274 38.5728 86.5952 38.5574 86.9091H37.4495C37.468 86.4136 37.6172 85.9796 37.8973 85.6072C38.1773 85.2318 38.5436 84.9394 38.996 84.7301C39.4515 84.5208 39.9516 84.4162 40.4964 84.4162C41.0811 84.4162 41.5828 84.5347 42.0013 84.7717C42.4199 85.0056 42.7415 85.3149 42.9662 85.6996C43.1908 86.0843 43.3032 86.4998 43.3032 86.946C43.3032 87.4785 43.1631 87.9324 42.8831 88.3079C42.6061 88.6834 42.2291 88.9434 41.752 89.0881V89.1619C42.3491 89.2604 42.8154 89.5143 43.1508 89.9237C43.4863 90.3299 43.654 90.8331 43.654 91.4332C43.654 91.9472 43.514 92.4089 43.2339 92.8182C42.9569 93.2244 42.5784 93.5445 42.0983 93.7784C41.6182 94.0123 41.0719 94.1293 40.4594 94.1293ZM48.626 94.1293C47.9304 94.1293 47.338 93.94 46.8486 93.5614C46.3593 93.1798 45.9854 92.6274 45.7268 91.9041C45.4683 91.1778 45.339 90.3007 45.339 89.2727C45.339 88.2509 45.4683 87.3784 45.7268 86.6552C45.9884 85.9289 46.3639 85.3749 46.8532 84.9933C47.3457 84.6085 47.9366 84.4162 48.626 84.4162C49.3154 84.4162 49.9047 84.6085 50.3941 84.9933C50.8865 85.3749 51.262 85.9289 51.5205 86.6552C51.7821 87.3784 51.9129 88.2509 51.9129 89.2727C51.9129 90.3007 51.7836 91.1778 51.5251 91.9041C51.2666 92.6274 50.8927 93.1798 50.4033 93.5614C49.914 93.94 49.3215 94.1293 48.626 94.1293ZM48.626 93.1136C49.3154 93.1136 49.8509 92.7812 50.2325 92.1165C50.6141 91.4517 50.805 90.5038 50.805 89.2727C50.805 88.4541 50.7172 87.757 50.5418 87.1815C50.3695 86.6059 50.1202 86.1674 49.7939 85.8658C49.4708 85.5642 49.0815 85.4134 48.626 85.4134C47.9427 85.4134 47.4088 85.7504 47.0241 86.4244C46.6394 87.0953 46.447 88.0447 46.447 89.2727C46.447 90.0914 46.5332 90.7869 46.7055 91.3594C46.8779 91.9318 47.1256 92.3673 47.4488 92.6658C47.775 92.9644 48.1674 93.1136 48.626 93.1136ZM60.0194 94.1477C59.4285 94.1477 58.9069 93.9985 58.4545 93.6999C58.002 93.3983 57.6481 92.9736 57.3927 92.4258C57.1372 91.8749 57.0095 91.224 57.0095 90.473C57.0095 89.7282 57.1372 89.0819 57.3927 88.5341C57.6481 87.9863 58.0036 87.5631 58.4591 87.2646C58.9146 86.966 59.4408 86.8168 60.0379 86.8168C60.4996 86.8168 60.8643 86.8937 61.132 87.0476C61.4028 87.1984 61.609 87.3707 61.7506 87.5646C61.8953 87.7554 62.0076 87.9124 62.0876 88.0355H62.18V84.5455H63.2694V94H62.2169V92.9105H62.0876C62.0076 93.0398 61.8937 93.2029 61.746 93.3999C61.5983 93.5937 61.3875 93.7676 61.1135 93.9215C60.8396 94.0723 60.4749 94.1477 60.0194 94.1477ZM60.1672 93.169C60.6042 93.169 60.9735 93.0552 61.2751 92.8274C61.5767 92.5966 61.806 92.2781 61.963 91.8718C62.1199 91.4625 62.1984 90.9901 62.1984 90.4545C62.1984 89.9252 62.1215 89.462 61.9676 89.065C61.8137 88.6649 61.586 88.354 61.2844 88.1325C60.9827 87.9078 60.6104 87.7955 60.1672 87.7955C59.7055 87.7955 59.3208 87.9139 59.0131 88.1509C58.7084 88.3848 58.4791 88.7034 58.3252 89.1065C58.1744 89.5066 58.099 89.956 58.099 90.4545C58.099 90.9593 58.1759 91.4179 58.3298 91.8303C58.4868 92.2396 58.7176 92.5658 59.0223 92.8089C59.33 93.049 59.7117 93.169 60.1672 93.169ZM67.5028 94.1662C67.0534 94.1662 66.6456 94.0816 66.2794 93.9123C65.9131 93.7399 65.6223 93.4922 65.4069 93.169C65.1914 92.8428 65.0837 92.4489 65.0837 91.9872C65.0837 91.581 65.1637 91.2517 65.3238 90.9993C65.4838 90.7438 65.6977 90.5438 65.9655 90.3991C66.2332 90.2545 66.5287 90.1468 66.8518 90.076C67.1781 90.0021 67.5058 89.9437 67.8351 89.9006C68.266 89.8452 68.6153 89.8036 68.8831 89.7759C69.1539 89.7451 69.3509 89.6944 69.474 89.6236C69.6002 89.5528 69.6633 89.4297 69.6633 89.2543V89.2173C69.6633 88.7618 69.5386 88.4079 69.2893 88.1555C69.0431 87.9032 68.6692 87.777 68.1675 87.777C67.6474 87.777 67.2396 87.8909 66.9442 88.1186C66.6487 88.3464 66.441 88.5895 66.3209 88.848L65.2868 88.4787C65.4715 88.0478 65.7177 87.7124 66.0255 87.4723C66.3363 87.2292 66.6749 87.0599 67.0411 86.9645C67.4104 86.866 67.7736 86.8168 68.1306 86.8168C68.3583 86.8168 68.6199 86.8445 68.9154 86.8999C69.2139 86.9522 69.5017 87.0614 69.7787 87.2276C70.0587 87.3938 70.2911 87.6446 70.4758 87.9801C70.6604 88.3156 70.7528 88.7649 70.7528 89.3281V94H69.6633V93.0398H69.6079C69.534 93.1937 69.4109 93.3583 69.2385 93.5337C69.0662 93.7092 68.8369 93.8584 68.5507 93.9815C68.2645 94.1046 67.9152 94.1662 67.5028 94.1662ZM67.6689 93.1875C68.0998 93.1875 68.463 93.1029 68.7584 92.9336C69.057 92.7643 69.2816 92.5458 69.4324 92.2781C69.5863 92.0103 69.6633 91.7287 69.6633 91.4332V90.4361C69.6171 90.4915 69.5155 90.5423 69.3586 90.5884C69.2047 90.6315 69.0262 90.67 68.8231 90.7038C68.623 90.7346 68.4276 90.7623 68.2368 90.7869C68.049 90.8085 67.8967 90.8269 67.7797 90.8423C67.4966 90.8793 67.2319 90.9393 66.9857 91.0224C66.7426 91.1024 66.5456 91.224 66.3948 91.3871C66.2471 91.5471 66.1732 91.7656 66.1732 92.0426C66.1732 92.4212 66.3132 92.7074 66.5933 92.9013C66.8765 93.0921 67.235 93.1875 67.6689 93.1875ZM73.1891 96.6591C73.0044 96.6591 72.8398 96.6437 72.6951 96.6129C72.5505 96.5852 72.4505 96.5575 72.3951 96.5298L72.6721 95.5696C72.9367 95.6373 73.1706 95.6619 73.3738 95.6435C73.5769 95.625 73.7569 95.5342 73.9139 95.3711C74.0739 95.2111 74.2201 94.951 74.3525 94.5909L74.5556 94.0369L71.9334 86.9091H73.1152L75.0726 92.5597H75.1465L77.1039 86.9091H78.2857L75.2757 95.0341C75.1403 95.4003 74.9726 95.7035 74.7725 95.9435C74.5725 96.1867 74.3401 96.3667 74.0755 96.4837C73.8139 96.6006 73.5184 96.6591 73.1891 96.6591ZM84.7464 88.4972L83.7678 88.7741C83.7062 88.611 83.6154 88.4525 83.4954 88.2987C83.3784 88.1417 83.2184 88.0124 83.0153 87.9109C82.8121 87.8093 82.5521 87.7585 82.2351 87.7585C81.8011 87.7585 81.4395 87.8585 81.1502 88.0586C80.864 88.2556 80.7209 88.5064 80.7209 88.8111C80.7209 89.0819 80.8194 89.2958 81.0163 89.4528C81.2133 89.6097 81.5211 89.7405 81.9396 89.8452L82.9922 90.1037C83.6262 90.2576 84.0986 90.493 84.4094 90.81C84.7203 91.1239 84.8757 91.5286 84.8757 92.0241C84.8757 92.4304 84.7588 92.7936 84.5249 93.1136C84.294 93.4337 83.9709 93.6861 83.5554 93.8707C83.1399 94.0554 82.6567 94.1477 82.1058 94.1477C81.3826 94.1477 80.784 93.9908 80.31 93.6768C79.8361 93.3629 79.536 92.9044 79.4098 92.3011L80.4439 92.0426C80.5424 92.4242 80.7286 92.7105 81.0025 92.9013C81.2795 93.0921 81.6411 93.1875 82.0874 93.1875C82.5952 93.1875 82.9983 93.0798 83.2969 92.8643C83.5985 92.6458 83.7493 92.3842 83.7493 92.0795C83.7493 91.8333 83.6631 91.6271 83.4908 91.4609C83.3184 91.2917 83.0537 91.1655 82.6967 91.0824L81.5149 90.8054C80.8655 90.6515 80.3885 90.413 80.0838 90.0898C79.7822 89.7636 79.6314 89.3558 79.6314 88.8665C79.6314 88.4664 79.7437 88.1125 79.9684 87.8047C80.1961 87.4969 80.5054 87.2553 80.8963 87.0799C81.2902 86.9045 81.7365 86.8168 82.2351 86.8168C82.9368 86.8168 83.4877 86.9706 83.8878 87.2784C84.291 87.5862 84.5772 87.9924 84.7464 88.4972Z" fill="#828282"/>
<path d="M37.2648 149V148.169L40.3856 144.753C40.7518 144.353 41.0534 144.005 41.2904 143.71C41.5274 143.411 41.7028 143.131 41.8167 142.869C41.9336 142.605 41.9921 142.328 41.9921 142.038C41.9921 141.706 41.9121 141.418 41.752 141.175C41.5951 140.932 41.3796 140.744 41.1057 140.612C40.8318 140.48 40.5241 140.413 40.1824 140.413C39.8193 140.413 39.5023 140.489 39.2314 140.64C38.9637 140.787 38.7559 140.995 38.6082 141.263C38.4636 141.531 38.3912 141.844 38.3912 142.205H37.3018C37.3018 141.651 37.4295 141.164 37.6849 140.746C37.9404 140.327 38.2881 140.001 38.7282 139.767C39.1714 139.533 39.6685 139.416 40.2194 139.416C40.7733 139.416 41.2642 139.533 41.692 139.767C42.1198 140.001 42.4553 140.316 42.6984 140.713C42.9416 141.11 43.0631 141.552 43.0631 142.038C43.0631 142.386 43 142.726 42.8738 143.059C42.7507 143.388 42.5353 143.756 42.2275 144.162C41.9229 144.565 41.4997 145.058 40.958 145.639L38.8344 147.911V147.984H43.2293V149H37.2648ZM48.0905 149.129C47.5488 149.129 47.061 149.022 46.627 148.806C46.1931 148.591 45.8453 148.295 45.5837 147.92C45.3221 147.544 45.179 147.116 45.1544 146.636H46.2623C46.3054 147.064 46.4993 147.418 46.844 147.698C47.1918 147.975 47.6073 148.114 48.0905 148.114C48.4782 148.114 48.8229 148.023 49.1246 147.841C49.4292 147.66 49.6678 147.41 49.8401 147.093C50.0155 146.773 50.1032 146.412 50.1032 146.009C50.1032 145.596 50.0125 145.228 49.8309 144.905C49.6524 144.579 49.4062 144.322 49.0922 144.134C48.7783 143.946 48.4198 143.851 48.0166 143.848C47.7273 143.845 47.4303 143.89 47.1256 143.982C46.8209 144.071 46.5701 144.187 46.3731 144.328L45.3021 144.199L45.8746 139.545H50.7865V140.561H46.8348L46.5024 143.349H46.5578C46.7517 143.196 46.9948 143.068 47.2872 142.966C47.5796 142.865 47.8843 142.814 48.2013 142.814C48.7799 142.814 49.2954 142.952 49.7478 143.229C50.2033 143.503 50.5603 143.879 50.8188 144.356C51.0804 144.833 51.2112 145.378 51.2112 145.99C51.2112 146.593 51.0758 147.132 50.805 147.606C50.5372 148.077 50.1679 148.449 49.697 148.723C49.2261 148.994 48.6906 149.129 48.0905 149.129Z" fill="#828282"/>
<path d="M37.2648 204V203.169L40.3856 199.753C40.7518 199.353 41.0534 199.005 41.2904 198.71C41.5274 198.411 41.7028 198.131 41.8167 197.869C41.9336 197.605 41.9921 197.328 41.9921 197.038C41.9921 196.706 41.9121 196.418 41.752 196.175C41.5951 195.932 41.3796 195.744 41.1057 195.612C40.8318 195.48 40.5241 195.413 40.1824 195.413C39.8193 195.413 39.5023 195.489 39.2314 195.64C38.9637 195.787 38.7559 195.995 38.6082 196.263C38.4636 196.531 38.3912 196.844 38.3912 197.205H37.3018C37.3018 196.651 37.4295 196.164 37.6849 195.746C37.9404 195.327 38.2881 195.001 38.7282 194.767C39.1714 194.533 39.6685 194.416 40.2194 194.416C40.7733 194.416 41.2642 194.533 41.692 194.767C42.1198 195.001 42.4553 195.316 42.6984 195.713C42.9416 196.11 43.0631 196.552 43.0631 197.038C43.0631 197.386 43 197.726 42.8738 198.059C42.7507 198.388 42.5353 198.756 42.2275 199.162C41.9229 199.565 41.4997 200.058 40.958 200.639L38.8344 202.911V202.984H43.2293V204H37.2648ZM48.2197 204.129C47.5242 204.129 46.9317 203.94 46.4424 203.561C45.953 203.18 45.5791 202.627 45.3206 201.904C45.0621 201.178 44.9328 200.301 44.9328 199.273C44.9328 198.251 45.0621 197.378 45.3206 196.655C45.5822 195.929 45.9577 195.375 46.447 194.993C46.9394 194.609 47.5303 194.416 48.2197 194.416C48.9091 194.416 49.4985 194.609 49.9878 194.993C50.4803 195.375 50.8557 195.929 51.1143 196.655C51.3759 197.378 51.5067 198.251 51.5067 199.273C51.5067 200.301 51.3774 201.178 51.1189 201.904C50.8604 202.627 50.4864 203.18 49.9971 203.561C49.5077 203.94 48.9153 204.129 48.2197 204.129ZM48.2197 203.114C48.9091 203.114 49.4446 202.781 49.8263 202.116C50.2079 201.452 50.3987 200.504 50.3987 199.273C50.3987 198.454 50.311 197.757 50.1356 197.181C49.9632 196.606 49.7139 196.167 49.3877 195.866C49.0645 195.564 48.6752 195.413 48.2197 195.413C47.5365 195.413 47.0025 195.75 46.6178 196.424C46.2331 197.095 46.0407 198.045 46.0407 199.273C46.0407 200.091 46.1269 200.787 46.2993 201.359C46.4716 201.932 46.7194 202.367 47.0425 202.666C47.3688 202.964 47.7612 203.114 48.2197 203.114Z" fill="#828282"/>
<path d="M40.5887 249.545V259H39.4438V250.746H39.3884L37.0802 252.278V251.115L39.4438 249.545H40.5887ZM46.2623 259.129C45.7207 259.129 45.2329 259.022 44.7989 258.806C44.365 258.591 44.0172 258.295 43.7556 257.92C43.494 257.544 43.3509 257.116 43.3263 256.636H44.4342C44.4773 257.064 44.6712 257.418 45.0159 257.698C45.3637 257.975 45.7791 258.114 46.2623 258.114C46.6501 258.114 46.9948 258.023 47.2964 257.841C47.6011 257.66 47.8396 257.41 48.012 257.093C48.1874 256.773 48.2751 256.412 48.2751 256.009C48.2751 255.596 48.1843 255.228 48.0028 254.905C47.8242 254.579 47.578 254.322 47.2641 254.134C46.9502 253.946 46.5916 253.851 46.1885 253.848C45.8992 253.845 45.6022 253.89 45.2975 253.982C44.9928 254.071 44.742 254.187 44.545 254.328L43.474 254.199L44.0464 249.545H48.9584V250.561H45.0067L44.6743 253.349H44.7297C44.9236 253.196 45.1667 253.068 45.4591 252.966C45.7515 252.865 46.0561 252.814 46.3731 252.814C46.9517 252.814 47.4672 252.952 47.9197 253.229C48.3751 253.503 48.7322 253.879 48.9907 254.356C49.2523 254.833 49.3831 255.378 49.3831 255.99C49.3831 256.593 49.2477 257.132 48.9768 257.606C48.7091 258.077 48.3398 258.449 47.8689 258.723C47.398 258.994 46.8625 259.129 46.2623 259.129Z" fill="#828282"/>
<path d="M40.5887 304.545V314H39.4438V305.746H39.3884L37.0802 307.278V306.115L39.4438 304.545H40.5887ZM46.3916 314.129C45.6961 314.129 45.1036 313.94 44.6143 313.561C44.1249 313.18 43.751 312.627 43.4925 311.904C43.2339 311.178 43.1047 310.301 43.1047 309.273C43.1047 308.251 43.2339 307.378 43.4925 306.655C43.7541 305.929 44.1295 305.375 44.6189 304.993C45.1113 304.609 45.7022 304.416 46.3916 304.416C47.081 304.416 47.6704 304.609 48.1597 304.993C48.6521 305.375 49.0276 305.929 49.2861 306.655C49.5477 307.378 49.6785 308.251 49.6785 309.273C49.6785 310.301 49.5493 311.178 49.2907 311.904C49.0322 312.627 48.6583 313.18 48.1689 313.561C47.6796 313.94 47.0872 314.129 46.3916 314.129ZM46.3916 313.114C47.081 313.114 47.6165 312.781 47.9981 312.116C48.3798 311.452 48.5706 310.504 48.5706 309.273C48.5706 308.454 48.4829 307.757 48.3074 307.181C48.1351 306.606 47.8858 306.167 47.5596 305.866C47.2364 305.564 46.8471 305.413 46.3916 305.413C45.7084 305.413 45.1744 305.75 44.7897 306.424C44.405 307.095 44.2126 308.045 44.2126 309.273C44.2126 310.091 44.2988 310.787 44.4711 311.359C44.6435 311.932 44.8912 312.367 45.2144 312.666C45.5406 312.964 45.933 313.114 46.3916 313.114Z" fill="#828282"/>
<path d="M40.2194 369.129C39.6777 369.129 39.1899 369.022 38.7559 368.806C38.322 368.591 37.9742 368.295 37.7126 367.92C37.451 367.544 37.3079 367.116 37.2833 366.636H38.3912C38.4343 367.064 38.6282 367.418 38.9729 367.698C39.3207 367.975 39.7362 368.114 40.2194 368.114C40.6072 368.114 40.9519 368.023 41.2535 367.841C41.5581 367.66 41.7967 367.41 41.969 367.093C42.1444 366.773 42.2322 366.412 42.2322 366.009C42.2322 365.596 42.1414 365.228 41.9598 364.905C41.7813 364.579 41.5351 364.322 41.2211 364.134C40.9072 363.946 40.5487 363.851 40.1455 363.848C39.8562 363.845 39.5592 363.89 39.2545 363.982C38.9498 364.071 38.699 364.187 38.502 364.328L37.431 364.199L38.0035 359.545H42.9154V360.561H38.9637L38.6313 363.349H38.6867C38.8806 363.196 39.1237 363.068 39.4161 362.966C39.7085 362.865 40.0132 362.814 40.3302 362.814C40.9088 362.814 41.4243 362.952 41.8767 363.229C42.3322 363.503 42.6892 363.879 42.9477 364.356C43.2093 364.833 43.3401 365.378 43.3401 365.99C43.3401 366.593 43.2047 367.132 42.9339 367.606C42.6661 368.077 42.2968 368.449 41.8259 368.723C41.355 368.994 40.8195 369.129 40.2194 369.129ZM51.5263 369.148C50.9354 369.148 50.4137 368.998 49.9613 368.7C49.5089 368.398 49.1549 367.974 48.8995 367.426C48.6441 366.875 48.5163 366.224 48.5163 365.473C48.5163 364.728 48.6441 364.082 48.8995 363.534C49.1549 362.986 49.5104 362.563 49.9659 362.265C50.4214 361.966 50.9477 361.817 51.5447 361.817C52.0064 361.817 52.3711 361.894 52.6388 362.048C52.9097 362.198 53.1159 362.371 53.2575 362.565C53.4021 362.755 53.5144 362.912 53.5945 363.036H53.6868V359.545H54.7763V369H53.7237V367.911H53.5945C53.5144 368.04 53.4006 368.203 53.2528 368.4C53.1051 368.594 52.8943 368.768 52.6204 368.922C52.3465 369.072 51.9818 369.148 51.5263 369.148ZM51.674 368.169C52.111 368.169 52.4804 368.055 52.782 367.827C53.0836 367.597 53.3129 367.278 53.4698 366.872C53.6268 366.462 53.7053 365.99 53.7053 365.455C53.7053 364.925 53.6283 364.462 53.4744 364.065C53.3205 363.665 53.0928 363.354 52.7912 363.132C52.4896 362.908 52.1172 362.795 51.674 362.795C51.2124 362.795 50.8277 362.914 50.5199 363.151C50.2152 363.385 49.9859 363.703 49.832 364.107C49.6812 364.507 49.6058 364.956 49.6058 365.455C49.6058 365.959 49.6828 366.418 49.8366 366.83C49.9936 367.24 50.2244 367.566 50.5291 367.809C50.8369 368.049 51.2185 368.169 51.674 368.169ZM59.0096 369.166C58.5603 369.166 58.1525 369.082 57.7862 368.912C57.42 368.74 57.1291 368.492 56.9137 368.169C56.6983 367.843 56.5906 367.449 56.5906 366.987C56.5906 366.581 56.6706 366.252 56.8306 365.999C56.9906 365.744 57.2045 365.544 57.4723 365.399C57.7401 365.254 58.0355 365.147 58.3587 365.076C58.6849 365.002 59.0127 364.944 59.342 364.901C59.7728 364.845 60.1222 364.804 60.3899 364.776C60.6607 364.745 60.8577 364.694 60.9808 364.624C61.107 364.553 61.1701 364.43 61.1701 364.254V364.217C61.1701 363.762 61.0455 363.408 60.7962 363.156C60.55 362.903 60.176 362.777 59.6744 362.777C59.1542 362.777 58.7464 362.891 58.451 363.119C58.1555 363.346 57.9478 363.589 57.8278 363.848L56.7937 363.479C56.9783 363.048 57.2246 362.712 57.5323 362.472C57.8432 362.229 58.1817 362.06 58.5479 361.964C58.9173 361.866 59.2804 361.817 59.6374 361.817C59.8652 361.817 60.1268 361.844 60.4222 361.9C60.7208 361.952 61.0085 362.061 61.2855 362.228C61.5656 362.394 61.7979 362.645 61.9826 362.98C62.1673 363.316 62.2596 363.765 62.2596 364.328V369H61.1701V368.04H61.1147C61.0408 368.194 60.9177 368.358 60.7454 368.534C60.573 368.709 60.3438 368.858 60.0575 368.982C59.7713 369.105 59.422 369.166 59.0096 369.166ZM59.1758 368.188C59.6067 368.188 59.9698 368.103 60.2653 367.934C60.5638 367.764 60.7885 367.546 60.9393 367.278C61.0932 367.01 61.1701 366.729 61.1701 366.433V365.436C61.1239 365.491 61.0224 365.542 60.8654 365.588C60.7115 365.632 60.533 365.67 60.3299 365.704C60.1299 365.735 59.9344 365.762 59.7436 365.787C59.5559 365.808 59.4035 365.827 59.2866 365.842C59.0034 365.879 58.7388 365.939 58.4925 366.022C58.2494 366.102 58.0524 366.224 57.9016 366.387C57.7539 366.547 57.68 366.766 57.68 367.043C57.68 367.421 57.8201 367.707 58.1001 367.901C58.3833 368.092 58.7418 368.188 59.1758 368.188ZM64.6959 371.659C64.5113 371.659 64.3466 371.644 64.202 371.613C64.0573 371.585 63.9573 371.558 63.9019 371.53L64.1789 370.57C64.4436 370.637 64.6775 370.662 64.8806 370.643C65.0837 370.625 65.2638 370.534 65.4207 370.371C65.5808 370.211 65.7269 369.951 65.8593 369.591L66.0624 369.037L63.4403 361.909H64.6221L66.5795 367.56H66.6533L68.6107 361.909H69.7925L66.7826 370.034C66.6472 370.4 66.4794 370.703 66.2794 370.944C66.0793 371.187 65.847 371.367 65.5823 371.484C65.3207 371.601 65.0252 371.659 64.6959 371.659ZM76.2533 363.497L75.2746 363.774C75.213 363.611 75.1222 363.453 75.0022 363.299C74.8853 363.142 74.7252 363.012 74.5221 362.911C74.319 362.809 74.0589 362.759 73.7419 362.759C73.308 362.759 72.9463 362.859 72.657 363.059C72.3708 363.256 72.2277 363.506 72.2277 363.811C72.2277 364.082 72.3262 364.296 72.5232 364.453C72.7201 364.61 73.0279 364.741 73.4465 364.845L74.499 365.104C75.133 365.258 75.6054 365.493 75.9163 365.81C76.2271 366.124 76.3825 366.529 76.3825 367.024C76.3825 367.43 76.2656 367.794 76.0317 368.114C75.8009 368.434 75.4777 368.686 75.0622 368.871C74.6468 369.055 74.1636 369.148 73.6127 369.148C72.8894 369.148 72.2908 368.991 71.8169 368.677C71.3429 368.363 71.0428 367.904 70.9166 367.301L71.9507 367.043C72.0492 367.424 72.2354 367.71 72.5093 367.901C72.7863 368.092 73.1479 368.188 73.5942 368.188C74.102 368.188 74.5052 368.08 74.8037 367.864C75.1053 367.646 75.2561 367.384 75.2561 367.08C75.2561 366.833 75.17 366.627 74.9976 366.461C74.8253 366.292 74.5606 366.165 74.2036 366.082L73.0218 365.805C72.3724 365.652 71.8953 365.413 71.5906 365.09C71.289 364.764 71.1382 364.356 71.1382 363.866C71.1382 363.466 71.2506 363.112 71.4752 362.805C71.703 362.497 72.0123 362.255 72.4031 362.08C72.7971 361.904 73.2433 361.817 73.7419 361.817C74.4436 361.817 74.9945 361.971 75.3946 362.278C75.7978 362.586 76.084 362.992 76.2533 363.497Z" fill="#828282"/>
<path d="M119 369C119 366.791 120.791 365 123 365H147C149.209 365 151 366.791 151 369V408H119V369Z" fill="#823AA4"/>
<path d="M170 347C170 344.791 171.791 343 174 343H198C200.209 343 202 344.791 202 347V408H170V347Z" fill="#823AA4"/>
<path d="M221 391C221 388.791 222.791 387 225 387H249C251.209 387 253 388.791 253 391V408H221V391Z" fill="#823AA4"/>
<path d="M272 360C272 357.791 273.791 356 276 356H300C302.209 356 304 357.791 304 360V408H272V360Z" fill="#823AA4"/>
<path d="M323 347C323 344.791 324.791 343 327 343H351C353.209 343 355 344.791 355 347V408H323V347Z" fill="#823AA4"/>
<path d="M374 300C374 297.791 375.791 296 378 296H402C404.209 296 406 297.791 406 300V408H374V300Z" fill="#823AA4"/>
<path d="M425 360C425 357.791 426.791 356 429 356H453C455.209 356 457 357.791 457 360V408H425V360Z" fill="#823AA4"/>
<path d="M476 341C476 338.791 477.791 337 480 337H504C506.209 337 508 338.791 508 341V408H476V341Z" fill="#823AA4"/>
<path d="M527 227C527 224.791 528.791 223 531 223H555C557.209 223 559 224.791 559 227V408H527V227Z" fill="#823AA4"/>
<path d="M578 300C578 297.791 579.791 296 582 296H606C608.209 296 610 297.791 610 300V408H578V300Z" fill="#823AA4"/>
<path d="M629 369C629 366.791 630.791 365 633 365H657C659.209 365 661 366.791 661 369V408H629V369Z" fill="#823AA4"/>
<g opacity="0.3">
<path d="M119 276C119 273.791 120.791 272 123 272H147C149.209 272 151 273.791 151 276V408H119V276Z" fill="#823AA4"/>
<path d="M170 320C170 317.791 171.791 316 174 316H198C200.209 316 202 317.791 202 320V408H170V320Z" fill="#823AA4"/>
<path d="M221 300C221 297.791 222.791 296 225 296H249C251.209 296 253 297.791 253 300V408H221V300Z" fill="#823AA4"/>
<path d="M272 286C272 283.791 273.791 282 276 282H300C302.209 282 304 283.791 304 286V408H272V286Z" fill="#823AA4"/>
<path d="M323 320C323 317.791 324.791 316 327 316H351C353.209 316 355 317.791 355 320V408H323V320Z" fill="#823AA4"/>
<path d="M374 248C374 245.791 375.791 244 378 244H402C404.209 244 406 245.791 406 248V408H374V248Z" fill="#823AA4"/>
<path d="M425 300C425 297.791 426.791 296 429 296H453C455.209 296 457 297.791 457 300V408H425V300Z" fill="#823AA4"/>
<path d="M476 248C476 245.791 477.791 244 480 244H504C506.209 244 508 245.791 508 248V408H476V248Z" fill="#823AA4"/>
<path d="M527 136C527 133.791 528.791 132 531 132H555C557.209 132 559 133.791 559 136V408H527V136Z" fill="#823AA4"/>
<path d="M578 248C578 245.791 579.791 244 582 244H606C608.209 244 610 245.791 610 248V408H578V248Z" fill="#823AA4"/>
<path d="M629 300C629 297.791 630.791 296 633 296H657C659.209 296 661 297.791 661 300V408H629V300Z" fill="#823AA4"/>
</g>
<path d="M37.1477 50V38.3636H39.2557V48.233H44.3807V50H37.1477ZM49.9261 50.1705C49.0739 50.1705 48.3352 49.983 47.7102 49.608C47.0852 49.233 46.6004 48.7083 46.2557 48.0341C45.9148 47.3598 45.7443 46.572 45.7443 45.6705C45.7443 44.7689 45.9148 43.9792 46.2557 43.3011C46.6004 42.6231 47.0852 42.0966 47.7102 41.7216C48.3352 41.3466 49.0739 41.1591 49.9261 41.1591C50.7784 41.1591 51.517 41.3466 52.142 41.7216C52.767 42.0966 53.25 42.6231 53.5909 43.3011C53.9356 43.9792 54.108 44.7689 54.108 45.6705C54.108 46.572 53.9356 47.3598 53.5909 48.0341C53.25 48.7083 52.767 49.233 52.142 49.608C51.517 49.983 50.7784 50.1705 49.9261 50.1705ZM49.9375 48.5227C50.3996 48.5227 50.786 48.3958 51.0966 48.142C51.4072 47.8845 51.6383 47.5398 51.7898 47.108C51.9451 46.6761 52.0227 46.1951 52.0227 45.6648C52.0227 45.1307 51.9451 44.6477 51.7898 44.2159C51.6383 43.7803 51.4072 43.4337 51.0966 43.1761C50.786 42.9186 50.3996 42.7898 49.9375 42.7898C49.464 42.7898 49.0701 42.9186 48.7557 43.1761C48.4451 43.4337 48.2121 43.7803 48.0568 44.2159C47.9053 44.6477 47.8295 45.1307 47.8295 45.6648C47.8295 46.1951 47.9053 46.6761 48.0568 47.108C48.2121 47.5398 48.4451 47.8845 48.7557 48.142C49.0701 48.3958 49.464 48.5227 49.9375 48.5227ZM57.4048 50L54.9389 41.2727H57.0355L58.5696 47.4091H58.6491L60.2173 41.2727H62.2912L63.8594 47.375H63.9446L65.456 41.2727H67.5582L65.0866 50H62.9446L61.3082 44.1023H61.1889L59.5526 50H57.4048ZM72.608 50.1705C71.733 50.1705 70.9773 49.9886 70.3409 49.625C69.7083 49.2576 69.2216 48.7386 68.8807 48.0682C68.5398 47.3939 68.3693 46.6004 68.3693 45.6875C68.3693 44.7898 68.5398 44.0019 68.8807 43.3239C69.2254 42.642 69.7064 42.1117 70.3239 41.733C70.9413 41.3504 71.6667 41.1591 72.5 41.1591C73.0379 41.1591 73.5455 41.2462 74.0227 41.4205C74.5038 41.5909 74.928 41.8561 75.2955 42.2159C75.6667 42.5758 75.9583 43.0341 76.1705 43.5909C76.3826 44.1439 76.4886 44.803 76.4886 45.5682V46.1989H69.3352V44.8125H74.517C74.5133 44.4186 74.428 44.0682 74.2614 43.7614C74.0947 43.4508 73.8617 43.2064 73.5625 43.0284C73.267 42.8504 72.9223 42.7614 72.5284 42.7614C72.108 42.7614 71.7386 42.8636 71.4205 43.0682C71.1023 43.2689 70.8542 43.5341 70.6761 43.8636C70.5019 44.1894 70.4129 44.5473 70.4091 44.9375V46.1477C70.4091 46.6553 70.5019 47.0909 70.6875 47.4545C70.8731 47.8144 71.1326 48.0909 71.4659 48.2841C71.7992 48.4735 72.1894 48.5682 72.6364 48.5682C72.9356 48.5682 73.2064 48.5265 73.4489 48.4432C73.6913 48.3561 73.9015 48.2292 74.0795 48.0625C74.2576 47.8958 74.392 47.6894 74.483 47.4432L76.4034 47.6591C76.2822 48.1667 76.0511 48.6098 75.7102 48.9886C75.3731 49.3636 74.9413 49.6553 74.4148 49.8636C73.8883 50.0682 73.286 50.1705 72.608 50.1705ZM78.2287 50V41.2727H80.223V42.7273H80.3139C80.473 42.2235 80.7457 41.8352 81.1321 41.5625C81.5223 41.286 81.9673 41.1477 82.4673 41.1477C82.581 41.1477 82.7079 41.1534 82.848 41.1648C82.992 41.1723 83.1113 41.1856 83.206 41.2045V43.0966C83.1188 43.0663 82.9806 43.0398 82.7912 43.017C82.6056 42.9905 82.4257 42.9773 82.2514 42.9773C81.8764 42.9773 81.5393 43.0587 81.2401 43.2216C80.9446 43.3807 80.7116 43.6023 80.5412 43.8864C80.3707 44.1705 80.2855 44.4981 80.2855 44.8693V50H78.2287ZM88.6321 50V38.3636H93.0866C93.9276 38.3636 94.6264 38.4962 95.1832 38.7614C95.7438 39.0227 96.1624 39.3807 96.4389 39.8352C96.7192 40.2898 96.8594 40.8049 96.8594 41.3807C96.8594 41.8542 96.7685 42.2595 96.5866 42.5966C96.4048 42.9299 96.1605 43.2008 95.8537 43.4091C95.5469 43.6174 95.2041 43.767 94.8253 43.858V43.9716C95.2382 43.9943 95.634 44.1212 96.0128 44.3523C96.3954 44.5795 96.7079 44.9015 96.9503 45.3182C97.1927 45.7348 97.3139 46.2386 97.3139 46.8295C97.3139 47.4318 97.1681 47.9735 96.8764 48.4545C96.5848 48.9318 96.1454 49.3087 95.5582 49.5852C94.9711 49.8617 94.2325 50 93.3423 50H88.6321ZM90.7401 48.2386H93.0071C93.7723 48.2386 94.3234 48.0928 94.6605 47.8011C95.0014 47.5057 95.1719 47.1269 95.1719 46.6648C95.1719 46.3201 95.0866 46.0095 94.9162 45.733C94.7457 45.4527 94.5033 45.233 94.1889 45.0739C93.8745 44.911 93.4995 44.8295 93.0639 44.8295H90.7401V48.2386ZM90.7401 43.3125H92.8253C93.1889 43.3125 93.5166 43.2462 93.8082 43.1136C94.0999 42.9773 94.3291 42.786 94.4957 42.5398C94.6662 42.2898 94.7514 41.9943 94.7514 41.6534C94.7514 41.2027 94.5923 40.8314 94.2741 40.5398C93.9598 40.2481 93.492 40.1023 92.8707 40.1023H90.7401V43.3125ZM101.568 50.1761C101.015 50.1761 100.517 50.0777 100.074 49.8807C99.6345 49.6799 99.286 49.3845 99.0284 48.9943C98.7746 48.6042 98.6477 48.1231 98.6477 47.5511C98.6477 47.0587 98.7386 46.6515 98.9205 46.3295C99.1023 46.0076 99.3504 45.75 99.6648 45.5568C99.9792 45.3636 100.333 45.2178 100.727 45.1193C101.125 45.017 101.536 44.9432 101.96 44.8977C102.472 44.8447 102.886 44.7973 103.205 44.7557C103.523 44.7102 103.754 44.642 103.898 44.5511C104.045 44.4564 104.119 44.3106 104.119 44.1136V44.0795C104.119 43.6515 103.992 43.3201 103.739 43.0852C103.485 42.8504 103.119 42.733 102.642 42.733C102.138 42.733 101.739 42.8428 101.443 43.0625C101.152 43.2822 100.955 43.5417 100.852 43.8409L98.9318 43.5682C99.0833 43.0379 99.3333 42.5947 99.6818 42.2386C100.03 41.8788 100.456 41.6098 100.96 41.4318C101.464 41.25 102.021 41.1591 102.631 41.1591C103.051 41.1591 103.47 41.2083 103.886 41.3068C104.303 41.4053 104.684 41.5682 105.028 41.7955C105.373 42.0189 105.65 42.3239 105.858 42.7102C106.07 43.0966 106.176 43.5795 106.176 44.1591V50H104.199V48.8011H104.131C104.006 49.0436 103.83 49.2708 103.602 49.483C103.379 49.6913 103.097 49.8598 102.756 49.9886C102.419 50.1136 102.023 50.1761 101.568 50.1761ZM102.102 48.6648C102.515 48.6648 102.873 48.5833 103.176 48.4205C103.479 48.2538 103.712 48.0341 103.875 47.7614C104.042 47.4886 104.125 47.1913 104.125 46.8693V45.8409C104.061 45.8939 103.951 45.9432 103.795 45.9886C103.644 46.0341 103.473 46.0739 103.284 46.108C103.095 46.142 102.907 46.1723 102.722 46.1989C102.536 46.2254 102.375 46.2481 102.239 46.267C101.932 46.3087 101.657 46.3769 101.415 46.4716C101.172 46.5663 100.981 46.6989 100.841 46.8693C100.701 47.036 100.631 47.2519 100.631 47.517C100.631 47.8958 100.769 48.1818 101.045 48.375C101.322 48.5682 101.674 48.6648 102.102 48.6648ZM112.051 50.1705C111.18 50.1705 110.432 49.9792 109.807 49.5966C109.186 49.214 108.706 48.6856 108.369 48.0114C108.036 47.3333 107.869 46.553 107.869 45.6705C107.869 44.7841 108.04 44.0019 108.381 43.3239C108.722 42.642 109.203 42.1117 109.824 41.733C110.449 41.3504 111.188 41.1591 112.04 41.1591C112.748 41.1591 113.375 41.2898 113.92 41.5511C114.47 41.8087 114.907 42.1742 115.233 42.6477C115.559 43.1174 115.744 43.6667 115.79 44.2955H113.824C113.744 43.875 113.555 43.5246 113.256 43.2443C112.96 42.9602 112.564 42.8182 112.068 42.8182C111.648 42.8182 111.278 42.9318 110.96 43.1591C110.642 43.3826 110.394 43.7045 110.216 44.125C110.042 44.5455 109.955 45.0492 109.955 45.6364C109.955 46.2311 110.042 46.7424 110.216 47.1705C110.39 47.5947 110.634 47.9223 110.949 48.1534C111.267 48.3807 111.64 48.4943 112.068 48.4943C112.371 48.4943 112.642 48.4375 112.881 48.3239C113.123 48.2064 113.326 48.0379 113.489 47.8182C113.652 47.5985 113.763 47.3314 113.824 47.017H115.79C115.741 47.6345 115.559 48.1818 115.244 48.6591C114.93 49.1326 114.502 49.5038 113.96 49.7727C113.419 50.0379 112.782 50.1705 112.051 50.1705ZM119.354 47.2614L119.348 44.7784H119.678L122.814 41.2727H125.217L121.359 45.5682H120.933L119.354 47.2614ZM117.479 50V38.3636H119.536V50H117.479ZM122.956 50L120.115 46.0284L121.501 44.5795L125.416 50H122.956ZM130.648 50V38.3636H135.011C135.905 38.3636 136.655 38.5303 137.261 38.8636C137.871 39.197 138.331 39.6553 138.642 40.2386C138.956 40.8182 139.114 41.4773 139.114 42.2159C139.114 42.9621 138.956 43.625 138.642 44.2045C138.328 44.7841 137.864 45.2405 137.25 45.5739C136.636 45.9034 135.881 46.0682 134.983 46.0682H132.091V44.3352H134.699C135.222 44.3352 135.65 44.2443 135.983 44.0625C136.316 43.8807 136.563 43.6307 136.722 43.3125C136.884 42.9943 136.966 42.6288 136.966 42.2159C136.966 41.803 136.884 41.4394 136.722 41.125C136.563 40.8106 136.314 40.5663 135.977 40.392C135.644 40.214 135.214 40.125 134.688 40.125H132.756V50H130.648ZM143.209 50.1761C142.656 50.1761 142.158 50.0777 141.714 49.8807C141.275 49.6799 140.927 49.3845 140.669 48.9943C140.415 48.6042 140.288 48.1231 140.288 47.5511C140.288 47.0587 140.379 46.6515 140.561 46.3295C140.743 46.0076 140.991 45.75 141.305 45.5568C141.62 45.3636 141.974 45.2178 142.368 45.1193C142.766 45.017 143.177 44.9432 143.601 44.8977C144.112 44.8447 144.527 44.7973 144.845 44.7557C145.163 44.7102 145.394 44.642 145.538 44.5511C145.686 44.4564 145.76 44.3106 145.76 44.1136V44.0795C145.76 43.6515 145.633 43.3201 145.379 43.0852C145.125 42.8504 144.76 42.733 144.283 42.733C143.779 42.733 143.379 42.8428 143.084 43.0625C142.792 43.2822 142.595 43.5417 142.493 43.8409L140.572 43.5682C140.724 43.0379 140.974 42.5947 141.322 42.2386C141.671 41.8788 142.097 41.6098 142.601 41.4318C143.105 41.25 143.661 41.1591 144.271 41.1591C144.692 41.1591 145.11 41.2083 145.527 41.3068C145.944 41.4053 146.324 41.5682 146.669 41.7955C147.014 42.0189 147.29 42.3239 147.499 42.7102C147.711 43.0966 147.817 43.5795 147.817 44.1591V50H145.839V48.8011H145.771C145.646 49.0436 145.47 49.2708 145.243 49.483C145.019 49.6913 144.737 49.8598 144.396 49.9886C144.059 50.1136 143.663 50.1761 143.209 50.1761ZM143.743 48.6648C144.156 48.6648 144.514 48.5833 144.817 48.4205C145.12 48.2538 145.353 48.0341 145.516 47.7614C145.682 47.4886 145.766 47.1913 145.766 46.8693V45.8409C145.701 45.8939 145.591 45.9432 145.436 45.9886C145.285 46.0341 145.114 46.0739 144.925 46.108C144.735 46.142 144.548 46.1723 144.362 46.1989C144.177 46.2254 144.016 46.2481 143.879 46.267C143.572 46.3087 143.298 46.3769 143.055 46.4716C142.813 46.5663 142.622 46.6989 142.482 46.8693C142.341 47.036 142.271 47.2519 142.271 47.517C142.271 47.8958 142.41 48.1818 142.686 48.375C142.963 48.5682 143.315 48.6648 143.743 48.6648ZM149.885 50V41.2727H151.942V50H149.885ZM150.919 40.0341C150.593 40.0341 150.313 39.9261 150.078 39.7102C149.843 39.4905 149.726 39.2273 149.726 38.9205C149.726 38.6098 149.843 38.3466 150.078 38.1307C150.313 37.911 150.593 37.8011 150.919 37.8011C151.249 37.8011 151.529 37.911 151.76 38.1307C151.995 38.3466 152.112 38.6098 152.112 38.9205C152.112 39.2273 151.995 39.4905 151.76 39.7102C151.529 39.9261 151.249 40.0341 150.919 40.0341ZM156.114 44.8864V50H154.057V41.2727H156.023V42.7557H156.125C156.326 42.267 156.646 41.8788 157.085 41.5909C157.528 41.303 158.076 41.1591 158.727 41.1591C159.33 41.1591 159.854 41.2879 160.301 41.5455C160.752 41.803 161.1 42.1761 161.347 42.6648C161.597 43.1534 161.72 43.7462 161.716 44.4432V50H159.659V44.7614C159.659 44.178 159.508 43.7216 159.205 43.392C158.905 43.0625 158.491 42.8977 157.96 42.8977C157.6 42.8977 157.28 42.9773 157 43.1364C156.723 43.2917 156.506 43.517 156.347 43.8125C156.191 44.108 156.114 44.4659 156.114 44.8864Z" fill="#823AA4"/>
</g>
<rect x="12.5" y="8.5" width="648" height="447" rx="7.5" stroke="#E0E0E0"/>
</g>
<defs>
<filter id="filter0_d_69_637" x="0" y="0" width="673" height="472" filterUnits="userSpaceOnUse" color-interpolation-filters="sRGB">
<feFlood flood-opacity="0" result="BackgroundImageFix"/>
<feColorMatrix in="SourceAlpha" type="matrix" values="0 0 0 0 0 0 0 0 0 0 0 0 0 0 0 0 0 0 127 0" result="hardAlpha"/>
<feOffset dy="4"/>
<feGaussianBlur stdDeviation="6"/>
<feComposite in2="hardAlpha" operator="out"/>
<feColorMatrix type="matrix" values="0 0 0 0 0 0 0 0 0 0 0 0 0 0 0 0 0 0 0.04 0"/>
<feBlend mode="normal" in2="BackgroundImageFix" result="effect1_dropShadow_69_637"/>
<feBlend mode="normal" in="SourceGraphic" in2="effect1_dropShadow_69_637" result="shape"/>
</filter>
<clipPath id="clip0_69_637">
<rect x="12" y="8" width="649" height="448" rx="8" fill="white"/>
</clipPath>
</defs>
</svg>
