<svg width="429" height="196" viewBox="0 0 429 196" fill="none" xmlns="http://www.w3.org/2000/svg">
<g filter="url(#filter0_d_23_977)">
<rect x="12" y="8" width="405" height="172" rx="8" fill="white"/>
<rect x="12.5" y="8.5" width="404" height="171" rx="7.5" stroke="#E0E0E0"/>
<path d="M39.5966 50L36.3125 38.3636H38.5795L40.6761 46.9148H40.7841L43.0227 38.3636H45.0852L47.3295 46.9205H47.4318L49.5284 38.3636H51.7955L48.5114 50H46.4318L44.1023 41.8352H44.0114L41.6761 50H39.5966ZM56.0824 50.1705C55.2301 50.1705 54.4915 49.983 53.8665 49.608C53.2415 49.233 52.7566 48.7083 52.4119 48.0341C52.071 47.3598 51.9006 46.572 51.9006 45.6705C51.9006 44.7689 52.071 43.9792 52.4119 43.3011C52.7566 42.6231 53.2415 42.0966 53.8665 41.7216C54.4915 41.3466 55.2301 41.1591 56.0824 41.1591C56.9347 41.1591 57.6733 41.3466 58.2983 41.7216C58.9233 42.0966 59.4063 42.6231 59.7472 43.3011C60.0919 43.9792 60.2642 44.7689 60.2642 45.6705C60.2642 46.572 60.0919 47.3598 59.7472 48.0341C59.4063 48.7083 58.9233 49.233 58.2983 49.608C57.6733 49.983 56.9347 50.1705 56.0824 50.1705ZM56.0938 48.5227C56.5559 48.5227 56.9422 48.3958 57.2528 48.142C57.5634 47.8845 57.7945 47.5398 57.946 47.108C58.1013 46.6761 58.179 46.1951 58.179 45.6648C58.179 45.1307 58.1013 44.6477 57.946 44.2159C57.7945 43.7803 57.5634 43.4337 57.2528 43.1761C56.9422 42.9186 56.5559 42.7898 56.0938 42.7898C55.6203 42.7898 55.2263 42.9186 54.9119 43.1761C54.6013 43.4337 54.3684 43.7803 54.2131 44.2159C54.0616 44.6477 53.9858 45.1307 53.9858 45.6648C53.9858 46.1951 54.0616 46.6761 54.2131 47.108C54.3684 47.5398 54.6013 47.8845 54.9119 48.142C55.2263 48.3958 55.6203 48.5227 56.0938 48.5227ZM62.0099 50V41.2727H64.0043V42.7273H64.0952C64.2543 42.2235 64.527 41.8352 64.9134 41.5625C65.3035 41.286 65.7486 41.1477 66.2486 41.1477C66.3622 41.1477 66.4891 41.1534 66.6293 41.1648C66.7732 41.1723 66.8925 41.1856 66.9872 41.2045V43.0966C66.9001 43.0663 66.7618 43.0398 66.5724 43.017C66.3868 42.9905 66.2069 42.9773 66.0327 42.9773C65.6577 42.9773 65.3205 43.0587 65.0213 43.2216C64.7259 43.3807 64.4929 43.6023 64.3224 43.8864C64.152 44.1705 64.0668 44.4981 64.0668 44.8693V50H62.0099ZM75.2514 43.5795L73.3764 43.7841C73.3234 43.5947 73.2306 43.4167 73.098 43.25C72.9692 43.0833 72.795 42.9489 72.5753 42.8466C72.3556 42.7443 72.0866 42.6932 71.7685 42.6932C71.3404 42.6932 70.9806 42.786 70.6889 42.9716C70.401 43.1572 70.259 43.3977 70.2628 43.6932C70.259 43.947 70.3518 44.1534 70.5412 44.3125C70.7344 44.4716 71.0526 44.6023 71.4957 44.7045L72.9844 45.0227C73.8101 45.2008 74.4238 45.483 74.8253 45.8693C75.2306 46.2557 75.4351 46.7614 75.4389 47.3864C75.4351 47.9356 75.2741 48.4205 74.956 48.8409C74.6416 49.2576 74.2041 49.5833 73.6435 49.8182C73.0829 50.053 72.4389 50.1705 71.7116 50.1705C70.6435 50.1705 69.7836 49.947 69.1321 49.5C68.4806 49.0492 68.0923 48.4223 67.9673 47.6193L69.973 47.4261C70.0639 47.8201 70.2571 48.1174 70.5526 48.3182C70.848 48.5189 71.2325 48.6193 71.706 48.6193C72.1946 48.6193 72.5866 48.5189 72.8821 48.3182C73.1813 48.1174 73.331 47.8693 73.331 47.5739C73.331 47.3239 73.2344 47.1174 73.0412 46.9545C72.8518 46.7917 72.5563 46.6667 72.1548 46.5795L70.6662 46.267C69.8291 46.0928 69.2098 45.7992 68.8082 45.3864C68.4067 44.9697 68.2079 44.4432 68.2116 43.8068C68.2079 43.2689 68.3537 42.803 68.6491 42.4091C68.9484 42.0114 69.3632 41.7045 69.8935 41.4886C70.4276 41.2689 71.0431 41.1591 71.7401 41.1591C72.7628 41.1591 73.5677 41.3769 74.1548 41.8125C74.7457 42.2481 75.1113 42.8371 75.2514 43.5795ZM80.9986 50.1705C80.1236 50.1705 79.3679 49.9886 78.7315 49.625C78.099 49.2576 77.6122 48.7386 77.2713 48.0682C76.9304 47.3939 76.7599 46.6004 76.7599 45.6875C76.7599 44.7898 76.9304 44.0019 77.2713 43.3239C77.616 42.642 78.0971 42.1117 78.7145 41.733C79.3319 41.3504 80.0573 41.1591 80.8906 41.1591C81.4285 41.1591 81.9361 41.2462 82.4134 41.4205C82.8944 41.5909 83.3187 41.8561 83.6861 42.2159C84.0573 42.5758 84.349 43.0341 84.5611 43.5909C84.7732 44.1439 84.8793 44.803 84.8793 45.5682V46.1989H77.7259V44.8125H82.9077C82.9039 44.4186 82.8187 44.0682 82.652 43.7614C82.4853 43.4508 82.2524 43.2064 81.9531 43.0284C81.6577 42.8504 81.313 42.7614 80.919 42.7614C80.4986 42.7614 80.1293 42.8636 79.8111 43.0682C79.4929 43.2689 79.2448 43.5341 79.0668 43.8636C78.8925 44.1894 78.8035 44.5473 78.7997 44.9375V46.1477C78.7997 46.6553 78.8925 47.0909 79.0781 47.4545C79.2637 47.8144 79.5232 48.0909 79.8565 48.2841C80.1899 48.4735 80.58 48.5682 81.027 48.5682C81.3262 48.5682 81.5971 48.5265 81.8395 48.4432C82.0819 48.3561 82.2921 48.2292 82.4702 48.0625C82.6482 47.8958 82.7827 47.6894 82.8736 47.4432L84.794 47.6591C84.6728 48.1667 84.4418 48.6098 84.1009 48.9886C83.7637 49.3636 83.3319 49.6553 82.8054 49.8636C82.2789 50.0682 81.6766 50.1705 80.9986 50.1705ZM94.946 41.2727V42.8636H89.929V41.2727H94.946ZM91.1676 39.1818H93.2244V47.375C93.2244 47.6515 93.2661 47.8636 93.3494 48.0114C93.4366 48.1553 93.5502 48.2538 93.6903 48.3068C93.8305 48.3598 93.9858 48.3864 94.1562 48.3864C94.285 48.3864 94.4025 48.3769 94.5085 48.358C94.6184 48.339 94.7017 48.322 94.7585 48.3068L95.1051 49.9148C94.9953 49.9527 94.8381 49.9943 94.6335 50.0398C94.4328 50.0852 94.1866 50.1117 93.8949 50.1193C93.3797 50.1345 92.9157 50.0568 92.5028 49.8864C92.09 49.7121 91.7623 49.4432 91.5199 49.0795C91.2813 48.7159 91.1638 48.2614 91.1676 47.7159V39.1818ZM98.9105 44.8864V50H96.8537V38.3636H98.8651V42.7557H98.9673C99.1719 42.2633 99.4882 41.875 99.9162 41.5909C100.348 41.303 100.897 41.1591 101.564 41.1591C102.17 41.1591 102.698 41.286 103.149 41.5398C103.6 41.7936 103.948 42.1648 104.195 42.6534C104.445 43.142 104.57 43.7386 104.57 44.4432V50H102.513V44.7614C102.513 44.1742 102.361 43.7178 102.058 43.392C101.759 43.0625 101.339 42.8977 100.797 42.8977C100.433 42.8977 100.107 42.9773 99.8196 43.1364C99.5355 43.2917 99.312 43.517 99.1491 43.8125C98.9901 44.108 98.9105 44.4659 98.9105 44.8864ZM109.178 50.1761C108.625 50.1761 108.126 50.0777 107.683 49.8807C107.244 49.6799 106.895 49.3845 106.638 48.9943C106.384 48.6042 106.257 48.1231 106.257 47.5511C106.257 47.0587 106.348 46.6515 106.53 46.3295C106.712 46.0076 106.96 45.75 107.274 45.5568C107.589 45.3636 107.943 45.2178 108.337 45.1193C108.734 45.017 109.145 44.9432 109.57 44.8977C110.081 44.8447 110.496 44.7973 110.814 44.7557C111.132 44.7102 111.363 44.642 111.507 44.5511C111.655 44.4564 111.729 44.3106 111.729 44.1136V44.0795C111.729 43.6515 111.602 43.3201 111.348 43.0852C111.094 42.8504 110.729 42.733 110.251 42.733C109.748 42.733 109.348 42.8428 109.053 43.0625C108.761 43.2822 108.564 43.5417 108.462 43.8409L106.541 43.5682C106.693 43.0379 106.943 42.5947 107.291 42.2386C107.64 41.8788 108.066 41.6098 108.57 41.4318C109.073 41.25 109.63 41.1591 110.24 41.1591C110.661 41.1591 111.079 41.2083 111.496 41.3068C111.912 41.4053 112.293 41.5682 112.638 41.7955C112.982 42.0189 113.259 42.3239 113.467 42.7102C113.679 43.0966 113.786 43.5795 113.786 44.1591V50H111.808V48.8011H111.74C111.615 49.0436 111.439 49.2708 111.212 49.483C110.988 49.6913 110.706 49.8598 110.365 49.9886C110.028 50.1136 109.632 50.1761 109.178 50.1761ZM109.712 48.6648C110.125 48.6648 110.482 48.5833 110.786 48.4205C111.089 48.2538 111.321 48.0341 111.484 47.7614C111.651 47.4886 111.734 47.1913 111.734 46.8693V45.8409C111.67 45.8939 111.56 45.9432 111.405 45.9886C111.253 46.0341 111.083 46.0739 110.893 46.108C110.704 46.142 110.517 46.1723 110.331 46.1989C110.145 46.2254 109.984 46.2481 109.848 46.267C109.541 46.3087 109.267 46.3769 109.024 46.4716C108.782 46.5663 108.59 46.6989 108.45 46.8693C108.31 47.036 108.24 47.2519 108.24 47.517C108.24 47.8958 108.378 48.1818 108.655 48.375C108.931 48.5682 109.284 48.6648 109.712 48.6648ZM117.911 44.8864V50H115.854V41.2727H117.82V42.7557H117.922C118.123 42.267 118.443 41.8788 118.882 41.5909C119.325 41.303 119.873 41.1591 120.524 41.1591C121.126 41.1591 121.651 41.2879 122.098 41.5455C122.549 41.803 122.897 42.1761 123.143 42.6648C123.393 43.1534 123.517 43.7462 123.513 44.4432V50H121.456V44.7614C121.456 44.178 121.304 43.7216 121.001 43.392C120.702 43.0625 120.287 42.8977 119.757 42.8977C119.397 42.8977 119.077 42.9773 118.797 43.1364C118.52 43.2917 118.303 43.517 118.143 43.8125C117.988 44.108 117.911 44.4659 117.911 44.8864ZM131.629 38.3636V50H129.572V38.3636H131.629ZM136.256 50.1761C135.703 50.1761 135.205 50.0777 134.761 49.8807C134.322 49.6799 133.973 49.3845 133.716 48.9943C133.462 48.6042 133.335 48.1231 133.335 47.5511C133.335 47.0587 133.426 46.6515 133.608 46.3295C133.79 46.0076 134.038 45.75 134.352 45.5568C134.667 45.3636 135.021 45.2178 135.415 45.1193C135.813 45.017 136.223 44.9432 136.648 44.8977C137.159 44.8447 137.574 44.7973 137.892 44.7557C138.21 44.7102 138.441 44.642 138.585 44.5511C138.733 44.4564 138.807 44.3106 138.807 44.1136V44.0795C138.807 43.6515 138.68 43.3201 138.426 43.0852C138.172 42.8504 137.807 42.733 137.33 42.733C136.826 42.733 136.426 42.8428 136.131 43.0625C135.839 43.2822 135.642 43.5417 135.54 43.8409L133.619 43.5682C133.771 43.0379 134.021 42.5947 134.369 42.2386C134.718 41.8788 135.144 41.6098 135.648 41.4318C136.152 41.25 136.708 41.1591 137.318 41.1591C137.739 41.1591 138.157 41.2083 138.574 41.3068C138.991 41.4053 139.371 41.5682 139.716 41.7955C140.061 42.0189 140.337 42.3239 140.545 42.7102C140.758 43.0966 140.864 43.5795 140.864 44.1591V50H138.886V48.8011H138.818C138.693 49.0436 138.517 49.2708 138.29 49.483C138.066 49.6913 137.784 49.8598 137.443 49.9886C137.106 50.1136 136.71 50.1761 136.256 50.1761ZM136.79 48.6648C137.203 48.6648 137.561 48.5833 137.864 48.4205C138.167 48.2538 138.4 48.0341 138.562 47.7614C138.729 47.4886 138.812 47.1913 138.812 46.8693V45.8409C138.748 45.8939 138.638 45.9432 138.483 45.9886C138.331 46.0341 138.161 46.0739 137.972 46.108C137.782 46.142 137.595 46.1723 137.409 46.1989C137.223 46.2254 137.063 46.2481 136.926 46.267C136.619 46.3087 136.345 46.3769 136.102 46.4716C135.86 46.5663 135.669 46.6989 135.528 46.8693C135.388 47.036 135.318 47.2519 135.318 47.517C135.318 47.8958 135.456 48.1818 135.733 48.375C136.009 48.5682 136.362 48.6648 136.79 48.6648ZM149.83 43.5795L147.955 43.7841C147.902 43.5947 147.809 43.4167 147.676 43.25C147.547 43.0833 147.373 42.9489 147.153 42.8466C146.934 42.7443 146.665 42.6932 146.347 42.6932C145.919 42.6932 145.559 42.786 145.267 42.9716C144.979 43.1572 144.837 43.3977 144.841 43.6932C144.837 43.947 144.93 44.1534 145.119 44.3125C145.313 44.4716 145.631 44.6023 146.074 44.7045L147.562 45.0227C148.388 45.2008 149.002 45.483 149.403 45.8693C149.809 46.2557 150.013 46.7614 150.017 47.3864C150.013 47.9356 149.852 48.4205 149.534 48.8409C149.22 49.2576 148.782 49.5833 148.222 49.8182C147.661 50.053 147.017 50.1705 146.29 50.1705C145.222 50.1705 144.362 49.947 143.71 49.5C143.059 49.0492 142.67 48.4223 142.545 47.6193L144.551 47.4261C144.642 47.8201 144.835 48.1174 145.131 48.3182C145.426 48.5189 145.811 48.6193 146.284 48.6193C146.773 48.6193 147.165 48.5189 147.46 48.3182C147.759 48.1174 147.909 47.8693 147.909 47.5739C147.909 47.3239 147.813 47.1174 147.619 46.9545C147.43 46.7917 147.134 46.6667 146.733 46.5795L145.244 46.267C144.407 46.0928 143.788 45.7992 143.386 45.3864C142.985 44.9697 142.786 44.4432 142.79 43.8068C142.786 43.2689 142.932 42.803 143.227 42.4091C143.527 42.0114 143.941 41.7045 144.472 41.4886C145.006 41.2689 145.621 41.1591 146.318 41.1591C147.341 41.1591 148.146 41.3769 148.733 41.8125C149.324 42.2481 149.689 42.8371 149.83 43.5795ZM156.071 41.2727V42.8636H151.054V41.2727H156.071ZM152.293 39.1818H154.349V47.375C154.349 47.6515 154.391 47.8636 154.474 48.0114C154.562 48.1553 154.675 48.2538 154.815 48.3068C154.955 48.3598 155.111 48.3864 155.281 48.3864C155.41 48.3864 155.527 48.3769 155.634 48.358C155.743 48.339 155.827 48.322 155.884 48.3068L156.23 49.9148C156.12 49.9527 155.963 49.9943 155.759 50.0398C155.558 50.0852 155.312 50.1117 155.02 50.1193C154.505 50.1345 154.041 50.0568 153.628 49.8864C153.215 49.7121 152.887 49.4432 152.645 49.0795C152.406 48.7159 152.289 48.2614 152.293 47.7159V39.1818ZM161.76 50V41.2727H163.726V42.7557H163.828C164.01 42.2557 164.311 41.8655 164.732 41.5852C165.152 41.3011 165.654 41.1591 166.237 41.1591C166.828 41.1591 167.326 41.303 167.732 41.5909C168.141 41.875 168.429 42.2633 168.595 42.7557H168.686C168.879 42.2708 169.205 41.8845 169.663 41.5966C170.125 41.3049 170.673 41.1591 171.305 41.1591C172.108 41.1591 172.764 41.4129 173.271 41.9205C173.779 42.428 174.033 43.1686 174.033 44.142V50H171.97V44.4602C171.97 43.9186 171.826 43.5227 171.538 43.2727C171.25 43.0189 170.898 42.892 170.482 42.892C169.985 42.892 169.597 43.0473 169.317 43.358C169.04 43.6648 168.902 44.0644 168.902 44.5568V50H166.885V44.375C166.885 43.9242 166.749 43.5644 166.476 43.2955C166.207 43.0265 165.855 42.892 165.419 42.892C165.124 42.892 164.855 42.9678 164.612 43.1193C164.37 43.267 164.177 43.4773 164.033 43.75C163.889 44.0189 163.817 44.3333 163.817 44.6932V50H161.76ZM179.926 50.1705C179.074 50.1705 178.335 49.983 177.71 49.608C177.085 49.233 176.6 48.7083 176.256 48.0341C175.915 47.3598 175.744 46.572 175.744 45.6705C175.744 44.7689 175.915 43.9792 176.256 43.3011C176.6 42.6231 177.085 42.0966 177.71 41.7216C178.335 41.3466 179.074 41.1591 179.926 41.1591C180.778 41.1591 181.517 41.3466 182.142 41.7216C182.767 42.0966 183.25 42.6231 183.591 43.3011C183.936 43.9792 184.108 44.7689 184.108 45.6705C184.108 46.572 183.936 47.3598 183.591 48.0341C183.25 48.7083 182.767 49.233 182.142 49.608C181.517 49.983 180.778 50.1705 179.926 50.1705ZM179.938 48.5227C180.4 48.5227 180.786 48.3958 181.097 48.142C181.407 47.8845 181.638 47.5398 181.79 47.108C181.945 46.6761 182.023 46.1951 182.023 45.6648C182.023 45.1307 181.945 44.6477 181.79 44.2159C181.638 43.7803 181.407 43.4337 181.097 43.1761C180.786 42.9186 180.4 42.7898 179.938 42.7898C179.464 42.7898 179.07 42.9186 178.756 43.1761C178.445 43.4337 178.212 43.7803 178.057 44.2159C177.905 44.6477 177.83 45.1307 177.83 45.6648C177.83 46.1951 177.905 46.6761 178.057 47.108C178.212 47.5398 178.445 47.8845 178.756 48.142C179.07 48.3958 179.464 48.5227 179.938 48.5227ZM187.911 44.8864V50H185.854V41.2727H187.82V42.7557H187.922C188.123 42.267 188.443 41.8788 188.882 41.5909C189.325 41.303 189.873 41.1591 190.524 41.1591C191.126 41.1591 191.651 41.2879 192.098 41.5455C192.549 41.803 192.897 42.1761 193.143 42.6648C193.393 43.1534 193.517 43.7462 193.513 44.4432V50H191.456V44.7614C191.456 44.178 191.304 43.7216 191.001 43.392C190.702 43.0625 190.287 42.8977 189.757 42.8977C189.397 42.8977 189.077 42.9773 188.797 43.1364C188.52 43.2917 188.303 43.517 188.143 43.8125C187.988 44.108 187.911 44.4659 187.911 44.8864ZM199.962 41.2727V42.8636H194.945V41.2727H199.962ZM196.183 39.1818H198.24V47.375C198.24 47.6515 198.282 47.8636 198.365 48.0114C198.452 48.1553 198.566 48.2538 198.706 48.3068C198.846 48.3598 199.001 48.3864 199.172 48.3864C199.301 48.3864 199.418 48.3769 199.524 48.358C199.634 48.339 199.717 48.322 199.774 48.3068L200.121 49.9148C200.011 49.9527 199.854 49.9943 199.649 50.0398C199.448 50.0852 199.202 50.1117 198.911 50.1193C198.395 50.1345 197.931 50.0568 197.518 49.8864C197.106 49.7121 196.778 49.4432 196.536 49.0795C196.297 48.7159 196.179 48.2614 196.183 47.7159V39.1818ZM203.926 44.8864V50H201.869V38.3636H203.881V42.7557H203.983C204.188 42.2633 204.504 41.875 204.932 41.5909C205.364 41.303 205.913 41.1591 206.58 41.1591C207.186 41.1591 207.714 41.286 208.165 41.5398C208.616 41.7936 208.964 42.1648 209.21 42.6534C209.46 43.142 209.585 43.7386 209.585 44.4432V50H207.528V44.7614C207.528 44.1742 207.377 43.7178 207.074 43.392C206.775 43.0625 206.354 42.8977 205.812 42.8977C205.449 42.8977 205.123 42.9773 204.835 43.1364C204.551 43.2917 204.328 43.517 204.165 43.8125C204.006 44.108 203.926 44.4659 203.926 44.8864Z" fill="#823AA4"/>
<path d="M38.8693 109V79.9091H44.1392V104.582H56.9517V109H38.8693ZM70.0153 109.426C67.8847 109.426 66.0381 108.957 64.4756 108.02C62.9131 107.082 61.7009 105.771 60.8392 104.085C59.9869 102.4 59.5608 100.43 59.5608 98.1761C59.5608 95.9223 59.9869 93.9479 60.8392 92.2528C61.7009 90.5578 62.9131 89.2415 64.4756 88.304C66.0381 87.3665 67.8847 86.8977 70.0153 86.8977C72.146 86.8977 73.9926 87.3665 75.5551 88.304C77.1176 89.2415 78.325 90.5578 79.1773 92.2528C80.039 93.9479 80.4699 95.9223 80.4699 98.1761C80.4699 100.43 80.039 102.4 79.1773 104.085C78.325 105.771 77.1176 107.082 75.5551 108.02C73.9926 108.957 72.146 109.426 70.0153 109.426ZM70.0438 105.307C71.1991 105.307 72.165 104.99 72.9415 104.355C73.718 103.711 74.2956 102.849 74.6744 101.77C75.0627 100.69 75.2568 99.4877 75.2568 98.1619C75.2568 96.8267 75.0627 95.6193 74.6744 94.5398C74.2956 93.4508 73.718 92.5843 72.9415 91.9403C72.165 91.2964 71.1991 90.9744 70.0438 90.9744C68.86 90.9744 67.8752 91.2964 67.0892 91.9403C66.3127 92.5843 65.7303 93.4508 65.342 94.5398C64.9633 95.6193 64.7739 96.8267 64.7739 98.1619C64.7739 99.4877 64.9633 100.69 65.342 101.77C65.7303 102.849 66.3127 103.711 67.0892 104.355C67.8752 104.99 68.86 105.307 70.0438 105.307ZM87.9121 109L81.7473 87.1818H86.9888L90.824 102.523H91.0229L94.9433 87.1818H100.128L104.048 102.438H104.262L108.04 87.1818H113.296L107.117 109H101.762L97.6706 94.2557H97.3723L93.2814 109H87.9121ZM125.12 109.426C122.932 109.426 121.043 108.972 119.452 108.062C117.871 107.144 116.654 105.847 115.802 104.17C114.949 102.485 114.523 100.501 114.523 98.2188C114.523 95.9744 114.949 94.0047 115.802 92.3097C116.663 90.6051 117.866 89.2794 119.41 88.3324C120.953 87.3759 122.767 86.8977 124.85 86.8977C126.195 86.8977 127.464 87.1155 128.657 87.5511C129.859 87.9773 130.92 88.6402 131.839 89.5398C132.767 90.4394 133.496 91.5852 134.026 92.9773C134.556 94.3598 134.822 96.0076 134.822 97.9205V99.4972H116.938V96.0312H129.893C129.883 95.0464 129.67 94.1705 129.253 93.4034C128.837 92.6269 128.254 92.0161 127.506 91.571C126.768 91.1259 125.906 90.9034 124.921 90.9034C123.87 90.9034 122.947 91.1591 122.151 91.6705C121.356 92.1723 120.735 92.8352 120.29 93.6591C119.855 94.4735 119.632 95.3684 119.623 96.3438V99.3693C119.623 100.638 119.855 101.727 120.319 102.636C120.783 103.536 121.431 104.227 122.265 104.71C123.098 105.184 124.073 105.42 125.191 105.42C125.939 105.42 126.616 105.316 127.222 105.108C127.828 104.89 128.354 104.573 128.799 104.156C129.244 103.74 129.58 103.223 129.807 102.608L134.609 103.148C134.305 104.417 133.728 105.525 132.876 106.472C132.033 107.409 130.953 108.138 129.637 108.659C128.321 109.17 126.815 109.426 125.12 109.426ZM138.372 109V87.1818H143.358V90.8182H143.585C143.983 89.5587 144.664 88.5881 145.63 87.9062C146.606 87.215 147.718 86.8693 148.968 86.8693C149.252 86.8693 149.57 86.8835 149.92 86.9119C150.28 86.9309 150.578 86.964 150.815 87.0114V91.7415C150.597 91.6657 150.251 91.5994 149.778 91.5426C149.314 91.4763 148.864 91.4432 148.429 91.4432C147.491 91.4432 146.648 91.6468 145.9 92.054C145.162 92.4517 144.579 93.0057 144.153 93.7159C143.727 94.4261 143.514 95.2453 143.514 96.1733V109H138.372ZM162.78 109V79.9091H173.917C176.019 79.9091 177.766 80.2405 179.158 80.9034C180.56 81.5568 181.606 82.4517 182.297 83.5881C182.998 84.7244 183.348 86.0123 183.348 87.4517C183.348 88.6354 183.121 89.6487 182.667 90.4915C182.212 91.3248 181.601 92.0019 180.834 92.5227C180.067 93.0436 179.21 93.4176 178.263 93.6449V93.929C179.295 93.9858 180.285 94.303 181.232 94.8807C182.188 95.4489 182.97 96.2538 183.576 97.2955C184.182 98.3371 184.485 99.5966 184.485 101.074C184.485 102.58 184.12 103.934 183.391 105.136C182.662 106.33 181.563 107.272 180.096 107.963C178.628 108.654 176.781 109 174.556 109H162.78ZM168.05 104.597H173.718C175.631 104.597 177.008 104.232 177.851 103.503C178.704 102.764 179.13 101.817 179.13 100.662C179.13 99.8002 178.917 99.0237 178.49 98.3324C178.064 97.6316 177.458 97.0824 176.672 96.6847C175.886 96.2775 174.949 96.0739 173.86 96.0739H168.05V104.597ZM168.05 92.2812H173.263C174.172 92.2812 174.991 92.1155 175.721 91.7841C176.45 91.4432 177.023 90.965 177.439 90.3494C177.865 89.7244 178.079 88.9858 178.079 88.1335C178.079 87.0066 177.681 86.0786 176.885 85.3494C176.099 84.6203 174.93 84.2557 173.377 84.2557H168.05V92.2812ZM194.32 109.44C192.938 109.44 191.693 109.194 190.585 108.702C189.486 108.2 188.615 107.461 187.971 106.486C187.337 105.51 187.019 104.308 187.019 102.878C187.019 101.647 187.247 100.629 187.701 99.8239C188.156 99.0189 188.776 98.375 189.562 97.892C190.348 97.4091 191.233 97.0445 192.218 96.7983C193.212 96.5426 194.24 96.358 195.301 96.2443C196.579 96.1117 197.616 95.9934 198.411 95.8892C199.207 95.7756 199.784 95.6051 200.144 95.3778C200.514 95.1411 200.698 94.7765 200.698 94.2841V94.1989C200.698 93.1288 200.381 92.3002 199.747 91.7131C199.112 91.1259 198.198 90.8324 197.005 90.8324C195.746 90.8324 194.747 91.107 194.008 91.6562C193.279 92.2055 192.786 92.8542 192.531 93.6023L187.73 92.9205C188.108 91.5947 188.733 90.4867 189.605 89.5966C190.476 88.697 191.541 88.0246 192.801 87.5795C194.06 87.125 195.452 86.8977 196.977 86.8977C198.028 86.8977 199.074 87.0208 200.116 87.267C201.158 87.5133 202.109 87.9205 202.971 88.4886C203.833 89.0473 204.524 89.8097 205.045 90.7756C205.575 91.7415 205.84 92.9489 205.84 94.3977V109H200.897V106.003H200.727C200.414 106.609 199.974 107.177 199.406 107.707C198.847 108.228 198.141 108.65 197.289 108.972C196.446 109.284 195.457 109.44 194.32 109.44ZM195.656 105.662C196.688 105.662 197.583 105.458 198.34 105.051C199.098 104.634 199.68 104.085 200.087 103.403C200.504 102.722 200.712 101.978 200.712 101.173V98.6023C200.552 98.7348 200.277 98.858 199.889 98.9716C199.51 99.0852 199.084 99.1847 198.61 99.2699C198.137 99.3551 197.668 99.4309 197.204 99.4972C196.74 99.5634 196.337 99.6203 195.997 99.6676C195.23 99.7718 194.543 99.9422 193.937 100.179C193.331 100.416 192.853 100.747 192.502 101.173C192.152 101.59 191.977 102.13 191.977 102.793C191.977 103.74 192.322 104.455 193.014 104.938C193.705 105.42 194.586 105.662 195.656 105.662ZM219.728 109.426C217.55 109.426 215.68 108.948 214.117 107.991C212.564 107.035 211.366 105.714 210.523 104.028C209.69 102.333 209.273 100.383 209.273 98.1761C209.273 95.9602 209.699 94.0047 210.552 92.3097C211.404 90.6051 212.607 89.2794 214.16 88.3324C215.722 87.3759 217.569 86.8977 219.699 86.8977C221.47 86.8977 223.038 87.2244 224.401 87.8778C225.774 88.5218 226.868 89.4356 227.682 90.6193C228.497 91.7936 228.961 93.1667 229.074 94.7386H224.16C223.961 93.6875 223.487 92.8116 222.739 92.1108C222.001 91.4006 221.011 91.0455 219.77 91.0455C218.719 91.0455 217.796 91.3295 217.001 91.8977C216.205 92.4564 215.585 93.2614 215.14 94.3125C214.704 95.3636 214.486 96.6231 214.486 98.0909C214.486 99.5777 214.704 100.856 215.14 101.926C215.575 102.987 216.186 103.806 216.972 104.384C217.768 104.952 218.7 105.236 219.77 105.236C220.528 105.236 221.205 105.094 221.802 104.81C222.408 104.516 222.914 104.095 223.322 103.545C223.729 102.996 224.008 102.329 224.16 101.543H229.074C228.951 103.086 228.497 104.455 227.711 105.648C226.925 106.831 225.855 107.759 224.501 108.432C223.146 109.095 221.555 109.426 219.728 109.426ZM237.184 102.153L237.17 95.946H237.994L245.835 87.1818H251.843L242.198 97.9205H241.133L237.184 102.153ZM232.497 109V79.9091H237.639V109H232.497ZM246.19 109L239.088 99.071L242.554 95.4489L252.34 109H246.19ZM263.819 109V79.9091H274.728C276.963 79.9091 278.838 80.3258 280.353 81.1591C281.878 81.9924 283.029 83.1383 283.805 84.5966C284.591 86.0455 284.984 87.6932 284.984 89.5398C284.984 91.4053 284.591 93.0625 283.805 94.5114C283.019 95.9602 281.859 97.1013 280.325 97.9347C278.791 98.7585 276.902 99.1705 274.657 99.1705H267.427V94.8381H273.947C275.254 94.8381 276.324 94.6108 277.157 94.1562C277.991 93.7017 278.606 93.0767 279.004 92.2812C279.411 91.4858 279.615 90.572 279.615 89.5398C279.615 88.5076 279.411 87.5985 279.004 86.8125C278.606 86.0265 277.986 85.4157 277.143 84.9801C276.31 84.535 275.235 84.3125 273.919 84.3125H269.089V109H263.819ZM294.422 109.44C293.039 109.44 291.794 109.194 290.686 108.702C289.588 108.2 288.717 107.461 288.073 106.486C287.438 105.51 287.121 104.308 287.121 102.878C287.121 101.647 287.348 100.629 287.803 99.8239C288.257 99.0189 288.878 98.375 289.663 97.892C290.449 97.4091 291.335 97.0445 292.32 96.7983C293.314 96.5426 294.342 96.358 295.402 96.2443C296.681 96.1117 297.717 95.9934 298.513 95.8892C299.308 95.7756 299.886 95.6051 300.246 95.3778C300.615 95.1411 300.8 94.7765 300.8 94.2841V94.1989C300.8 93.1288 300.483 92.3002 299.848 91.7131C299.214 91.1259 298.3 90.8324 297.107 90.8324C295.847 90.8324 294.848 91.107 294.11 91.6562C293.38 92.2055 292.888 92.8542 292.632 93.6023L287.831 92.9205C288.21 91.5947 288.835 90.4867 289.706 89.5966C290.577 88.697 291.643 88.0246 292.902 87.5795C294.162 87.125 295.554 86.8977 297.078 86.8977C298.129 86.8977 299.176 87.0208 300.217 87.267C301.259 87.5133 302.211 87.9205 303.073 88.4886C303.934 89.0473 304.626 89.8097 305.146 90.7756C305.677 91.7415 305.942 92.9489 305.942 94.3977V109H300.999V106.003H300.828C300.516 106.609 300.075 107.177 299.507 107.707C298.949 108.228 298.243 108.65 297.391 108.972C296.548 109.284 295.558 109.44 294.422 109.44ZM295.757 105.662C296.789 105.662 297.684 105.458 298.442 105.051C299.199 104.634 299.782 104.085 300.189 103.403C300.606 102.722 300.814 101.978 300.814 101.173V98.6023C300.653 98.7348 300.378 98.858 299.99 98.9716C299.611 99.0852 299.185 99.1847 298.712 99.2699C298.238 99.3551 297.77 99.4309 297.306 99.4972C296.842 99.5634 296.439 99.6203 296.098 99.6676C295.331 99.7718 294.645 99.9422 294.038 100.179C293.432 100.416 292.954 100.747 292.604 101.173C292.253 101.59 292.078 102.13 292.078 102.793C292.078 103.74 292.424 104.455 293.115 104.938C293.806 105.42 294.687 105.662 295.757 105.662ZM310.312 109V87.1818H315.454V109H310.312ZM312.898 84.0852C312.083 84.0852 311.382 83.8153 310.795 83.2756C310.208 82.7263 309.915 82.0682 309.915 81.3011C309.915 80.5246 310.208 79.8665 310.795 79.3267C311.382 78.7775 312.083 78.5028 312.898 78.5028C313.721 78.5028 314.422 78.7775 315 79.3267C315.587 79.8665 315.881 80.5246 315.881 81.3011C315.881 82.0682 315.587 82.7263 315 83.2756C314.422 83.8153 313.721 84.0852 312.898 84.0852ZM325.084 96.2159V109H319.942V87.1818H324.857V90.8892H325.112C325.614 89.6676 326.415 88.697 327.513 87.9773C328.621 87.2576 329.989 86.8977 331.618 86.8977C333.124 86.8977 334.435 87.2197 335.553 87.8636C336.68 88.5076 337.551 89.4403 338.166 90.6619C338.791 91.8835 339.099 93.3655 339.09 95.108V109H333.948V95.9034C333.948 94.4451 333.569 93.304 332.811 92.4801C332.063 91.6562 331.026 91.2443 329.701 91.2443C328.801 91.2443 328.001 91.4432 327.3 91.8409C326.609 92.2292 326.064 92.7926 325.666 93.5312C325.278 94.2699 325.084 95.1648 325.084 96.2159Z" fill="#823AA4"/>
<path d="M46.9432 142.148H45.1705C45.1023 141.769 44.9754 141.436 44.7898 141.148C44.6042 140.86 44.3769 140.616 44.108 140.415C43.839 140.214 43.5379 140.062 43.2045 139.96C42.875 139.858 42.5246 139.807 42.1534 139.807C41.483 139.807 40.8826 139.975 40.3523 140.312C39.8258 140.65 39.4091 141.144 39.1023 141.795C38.7992 142.447 38.6477 143.242 38.6477 144.182C38.6477 145.129 38.7992 145.928 39.1023 146.58C39.4091 147.231 39.8277 147.723 40.358 148.057C40.8883 148.39 41.4848 148.557 42.1477 148.557C42.5152 148.557 42.8636 148.508 43.1932 148.409C43.5265 148.307 43.8277 148.157 44.0966 147.96C44.3655 147.763 44.5928 147.523 44.7784 147.239C44.9678 146.951 45.0985 146.621 45.1705 146.25L46.9432 146.256C46.8485 146.828 46.6648 147.354 46.392 147.835C46.1231 148.312 45.7765 148.725 45.3523 149.074C44.9318 149.419 44.4508 149.686 43.9091 149.875C43.3674 150.064 42.7765 150.159 42.1364 150.159C41.1288 150.159 40.2311 149.92 39.4432 149.443C38.6553 148.962 38.0341 148.275 37.5795 147.381C37.1288 146.487 36.9034 145.42 36.9034 144.182C36.9034 142.939 37.1307 141.873 37.5852 140.983C38.0398 140.089 38.661 139.403 39.4489 138.926C40.2367 138.445 41.1326 138.205 42.1364 138.205C42.7538 138.205 43.3295 138.294 43.8636 138.472C44.4015 138.646 44.8845 138.903 45.3125 139.244C45.7405 139.581 46.0947 139.994 46.375 140.483C46.6553 140.968 46.8447 141.523 46.9432 142.148ZM50.6065 138.364V150H48.9077V138.364H50.6065ZM52.892 150V141.273H54.5909V150H52.892ZM53.75 139.926C53.4545 139.926 53.2008 139.828 52.9886 139.631C52.7803 139.43 52.6761 139.191 52.6761 138.915C52.6761 138.634 52.7803 138.396 52.9886 138.199C53.2008 137.998 53.4545 137.898 53.75 137.898C54.0455 137.898 54.2973 137.998 54.5057 138.199C54.7178 138.396 54.8239 138.634 54.8239 138.915C54.8239 139.191 54.7178 139.43 54.5057 139.631C54.2973 139.828 54.0455 139.926 53.75 139.926ZM60.5526 150.176C59.7079 150.176 58.9806 149.985 58.3707 149.602C57.7647 149.216 57.2988 148.684 56.973 148.006C56.6473 147.328 56.4844 146.551 56.4844 145.676C56.4844 144.79 56.651 144.008 56.9844 143.33C57.3177 142.648 57.7874 142.116 58.3935 141.733C58.9995 141.35 59.7135 141.159 60.5355 141.159C61.1984 141.159 61.7893 141.282 62.3082 141.528C62.8272 141.771 63.2457 142.112 63.5639 142.551C63.8859 142.991 64.0772 143.504 64.1378 144.091H62.4844C62.3935 143.682 62.1851 143.33 61.8594 143.034C61.5374 142.739 61.1056 142.591 60.5639 142.591C60.0904 142.591 59.6757 142.716 59.3196 142.966C58.9673 143.212 58.6927 143.564 58.4957 144.023C58.2988 144.477 58.2003 145.015 58.2003 145.636C58.2003 146.273 58.2969 146.822 58.4901 147.284C58.6832 147.746 58.956 148.104 59.3082 148.358C59.6643 148.612 60.0829 148.739 60.5639 148.739C60.8859 148.739 61.1776 148.68 61.4389 148.562C61.7041 148.441 61.9257 148.269 62.1037 148.045C62.2855 147.822 62.4124 147.553 62.4844 147.239H64.1378C64.0772 147.803 63.8935 148.307 63.5866 148.75C63.2798 149.193 62.8688 149.542 62.3537 149.795C61.8423 150.049 61.242 150.176 60.5526 150.176ZM67.517 147.04L67.5057 144.966H67.8011L71.2784 141.273H73.3125L69.3466 145.477H69.0795L67.517 147.04ZM65.9545 150V138.364H67.6534V150H65.9545ZM71.4659 150L68.3409 145.852L69.5114 144.665L73.5511 150H71.4659ZM83.169 141.273V142.636H78.402V141.273H83.169ZM79.6804 139.182H81.3793V147.438C81.3793 147.767 81.4285 148.015 81.527 148.182C81.6255 148.345 81.7524 148.456 81.9077 148.517C82.0668 148.574 82.2391 148.602 82.4247 148.602C82.5611 148.602 82.6804 148.593 82.7827 148.574C82.8849 148.555 82.9645 148.54 83.0213 148.528L83.3281 149.932C83.2296 149.97 83.0895 150.008 82.9077 150.045C82.7259 150.087 82.4986 150.11 82.2259 150.114C81.7789 150.121 81.3622 150.042 80.9759 149.875C80.5895 149.708 80.277 149.451 80.0384 149.102C79.7997 148.754 79.6804 148.316 79.6804 147.79V139.182ZM88.6307 150.176C87.8125 150.176 87.0985 149.989 86.4886 149.614C85.8788 149.239 85.4053 148.714 85.0682 148.04C84.7311 147.366 84.5625 146.578 84.5625 145.676C84.5625 144.771 84.7311 143.979 85.0682 143.301C85.4053 142.623 85.8788 142.097 86.4886 141.722C87.0985 141.347 87.8125 141.159 88.6307 141.159C89.4489 141.159 90.1629 141.347 90.7727 141.722C91.3826 142.097 91.8561 142.623 92.1932 143.301C92.5303 143.979 92.6989 144.771 92.6989 145.676C92.6989 146.578 92.5303 147.366 92.1932 148.04C91.8561 148.714 91.3826 149.239 90.7727 149.614C90.1629 149.989 89.4489 150.176 88.6307 150.176ZM88.6364 148.75C89.1667 148.75 89.6061 148.61 89.9545 148.33C90.303 148.049 90.5606 147.676 90.7273 147.21C90.8977 146.744 90.983 146.231 90.983 145.67C90.983 145.114 90.8977 144.602 90.7273 144.136C90.5606 143.667 90.303 143.29 89.9545 143.006C89.6061 142.722 89.1667 142.58 88.6364 142.58C88.1023 142.58 87.6591 142.722 87.3068 143.006C86.9583 143.29 86.6989 143.667 86.5284 144.136C86.3617 144.602 86.2784 145.114 86.2784 145.67C86.2784 146.231 86.3617 146.744 86.5284 147.21C86.6989 147.676 86.9583 148.049 87.3068 148.33C87.6591 148.61 88.1023 148.75 88.6364 148.75ZM101.369 150.193C100.816 150.193 100.316 150.091 99.8693 149.886C99.4223 149.678 99.0682 149.377 98.8068 148.983C98.5492 148.589 98.4205 148.106 98.4205 147.534C98.4205 147.042 98.5152 146.636 98.7045 146.318C98.8939 146 99.1496 145.748 99.4716 145.562C99.7936 145.377 100.153 145.237 100.551 145.142C100.949 145.047 101.354 144.975 101.767 144.926C102.29 144.866 102.714 144.816 103.04 144.778C103.366 144.737 103.602 144.67 103.75 144.58C103.898 144.489 103.972 144.341 103.972 144.136V144.097C103.972 143.6 103.831 143.216 103.551 142.943C103.275 142.67 102.862 142.534 102.312 142.534C101.741 142.534 101.29 142.661 100.96 142.915C100.634 143.165 100.409 143.443 100.284 143.75L98.6875 143.386C98.8769 142.856 99.1534 142.428 99.517 142.102C99.8845 141.773 100.307 141.534 100.784 141.386C101.261 141.235 101.763 141.159 102.29 141.159C102.638 141.159 103.008 141.201 103.398 141.284C103.792 141.364 104.159 141.511 104.5 141.727C104.845 141.943 105.127 142.252 105.347 142.653C105.566 143.051 105.676 143.568 105.676 144.205V150H104.017V148.807H103.949C103.839 149.027 103.674 149.242 103.455 149.455C103.235 149.667 102.953 149.843 102.608 149.983C102.263 150.123 101.85 150.193 101.369 150.193ZM101.739 148.83C102.208 148.83 102.61 148.737 102.943 148.551C103.28 148.366 103.536 148.123 103.71 147.824C103.888 147.521 103.977 147.197 103.977 146.852V145.727C103.917 145.788 103.799 145.845 103.625 145.898C103.455 145.947 103.259 145.991 103.04 146.028C102.82 146.062 102.606 146.095 102.398 146.125C102.189 146.152 102.015 146.174 101.875 146.193C101.545 146.235 101.244 146.305 100.972 146.403C100.703 146.502 100.487 146.644 100.324 146.83C100.165 147.011 100.085 147.254 100.085 147.557C100.085 147.977 100.241 148.295 100.551 148.511C100.862 148.723 101.258 148.83 101.739 148.83ZM111.206 150.17C110.501 150.17 109.873 149.991 109.32 149.631C108.77 149.267 108.339 148.75 108.024 148.08C107.714 147.405 107.558 146.597 107.558 145.653C107.558 144.71 107.715 143.903 108.03 143.233C108.348 142.562 108.784 142.049 109.337 141.693C109.89 141.337 110.517 141.159 111.217 141.159C111.759 141.159 112.195 141.25 112.524 141.432C112.857 141.61 113.115 141.818 113.297 142.057C113.482 142.295 113.626 142.506 113.729 142.688H113.831V138.364H115.53V150H113.871V148.642H113.729C113.626 148.828 113.479 149.04 113.286 149.278C113.096 149.517 112.835 149.725 112.501 149.903C112.168 150.081 111.736 150.17 111.206 150.17ZM111.581 148.722C112.07 148.722 112.482 148.593 112.82 148.335C113.161 148.074 113.418 147.712 113.592 147.25C113.77 146.788 113.859 146.25 113.859 145.636C113.859 145.03 113.772 144.5 113.598 144.045C113.424 143.591 113.168 143.237 112.831 142.983C112.494 142.729 112.077 142.602 111.581 142.602C111.07 142.602 110.643 142.735 110.303 143C109.962 143.265 109.704 143.627 109.53 144.085C109.359 144.544 109.274 145.061 109.274 145.636C109.274 146.22 109.361 146.744 109.536 147.21C109.71 147.676 109.967 148.045 110.308 148.318C110.653 148.587 111.077 148.722 111.581 148.722ZM117.955 141.273H119.653V150.568C119.653 151.152 119.547 151.644 119.335 152.045C119.127 152.447 118.816 152.752 118.403 152.96C117.994 153.169 117.489 153.273 116.886 153.273C116.826 153.273 116.769 153.273 116.716 153.273C116.659 153.273 116.6 153.271 116.54 153.267V151.807C116.593 151.807 116.64 151.807 116.682 151.807C116.72 151.807 116.763 151.807 116.812 151.807C117.214 151.807 117.504 151.699 117.682 151.483C117.864 151.271 117.955 150.962 117.955 150.557V141.273ZM118.795 139.926C118.5 139.926 118.246 139.828 118.034 139.631C117.826 139.43 117.722 139.191 117.722 138.915C117.722 138.634 117.826 138.396 118.034 138.199C118.246 137.998 118.5 137.898 118.795 137.898C119.091 137.898 119.343 137.998 119.551 138.199C119.763 138.396 119.869 138.634 119.869 138.915C119.869 139.191 119.763 139.43 119.551 139.631C119.343 139.828 119.091 139.926 118.795 139.926ZM127.467 146.381V141.273H129.172V150H127.501V148.489H127.411C127.21 148.955 126.888 149.343 126.445 149.653C126.005 149.96 125.458 150.114 124.803 150.114C124.242 150.114 123.746 149.991 123.314 149.744C122.886 149.494 122.549 149.125 122.303 148.636C122.06 148.148 121.939 147.544 121.939 146.824V141.273H123.638V146.619C123.638 147.214 123.803 147.687 124.132 148.04C124.462 148.392 124.89 148.568 125.416 148.568C125.734 148.568 126.051 148.489 126.365 148.33C126.683 148.17 126.946 147.93 127.155 147.608C127.367 147.286 127.471 146.877 127.467 146.381ZM137.994 143.403L136.455 143.676C136.39 143.479 136.288 143.292 136.148 143.114C136.011 142.936 135.826 142.79 135.591 142.676C135.356 142.562 135.063 142.506 134.71 142.506C134.229 142.506 133.828 142.614 133.506 142.83C133.184 143.042 133.023 143.316 133.023 143.653C133.023 143.945 133.131 144.18 133.347 144.358C133.563 144.536 133.911 144.682 134.392 144.795L135.778 145.114C136.581 145.299 137.18 145.585 137.574 145.972C137.968 146.358 138.165 146.86 138.165 147.477C138.165 148 138.013 148.466 137.71 148.875C137.411 149.28 136.992 149.598 136.455 149.83C135.92 150.061 135.301 150.176 134.597 150.176C133.619 150.176 132.822 149.968 132.205 149.551C131.587 149.131 131.208 148.534 131.068 147.761L132.71 147.511C132.813 147.939 133.023 148.263 133.341 148.483C133.659 148.699 134.074 148.807 134.585 148.807C135.142 148.807 135.587 148.691 135.92 148.46C136.254 148.225 136.42 147.939 136.42 147.602C136.42 147.33 136.318 147.1 136.114 146.915C135.913 146.729 135.604 146.589 135.188 146.494L133.71 146.17C132.896 145.985 132.294 145.689 131.903 145.284C131.517 144.879 131.324 144.366 131.324 143.744C131.324 143.229 131.468 142.778 131.756 142.392C132.044 142.006 132.441 141.705 132.949 141.489C133.456 141.269 134.038 141.159 134.693 141.159C135.636 141.159 136.379 141.364 136.92 141.773C137.462 142.178 137.82 142.722 137.994 143.403ZM144.107 141.273V142.636H139.339V141.273H144.107ZM140.618 139.182H142.317V147.438C142.317 147.767 142.366 148.015 142.464 148.182C142.563 148.345 142.69 148.456 142.845 148.517C143.004 148.574 143.177 148.602 143.362 148.602C143.499 148.602 143.618 148.593 143.72 148.574C143.822 148.555 143.902 148.54 143.959 148.528L144.266 149.932C144.167 149.97 144.027 150.008 143.845 150.045C143.663 150.087 143.436 150.11 143.163 150.114C142.716 150.121 142.3 150.042 141.913 149.875C141.527 149.708 141.214 149.451 140.976 149.102C140.737 148.754 140.618 148.316 140.618 147.79V139.182Z" fill="#828282"/>
</g>
<defs>
<filter id="filter0_d_23_977" x="0" y="0" width="429" height="196" filterUnits="userSpaceOnUse" color-interpolation-filters="sRGB">
<feFlood flood-opacity="0" result="BackgroundImageFix"/>
<feColorMatrix in="SourceAlpha" type="matrix" values="0 0 0 0 0 0 0 0 0 0 0 0 0 0 0 0 0 0 127 0" result="hardAlpha"/>
<feOffset dy="4"/>
<feGaussianBlur stdDeviation="6"/>
<feComposite in2="hardAlpha" operator="out"/>
<feColorMatrix type="matrix" values="0 0 0 0 0 0 0 0 0 0 0 0 0 0 0 0 0 0 0.04 0"/>
<feBlend mode="normal" in2="BackgroundImageFix" result="effect1_dropShadow_23_977"/>
<feBlend mode="normal" in="SourceGraphic" in2="effect1_dropShadow_23_977" result="shape"/>
</filter>
</defs>
</svg>
