<svg width="633" height="472" viewBox="0 0 633 472" fill="none" xmlns="http://www.w3.org/2000/svg">
<g filter="url(#filter0_d_69_638)">
<g clip-path="url(#clip0_69_638)">
<rect x="12" y="8" width="609" height="448" rx="8" fill="white"/>
<path d="M36 79H721" stroke="#E6E6E6"/>
<path d="M36 133.833H721" stroke="#E6E6E6"/>
<path d="M36 188.667H721" stroke="#E6E6E6"/>
<path d="M36 243.5H721" stroke="#E6E6E6"/>
<path d="M36 298.333H721" stroke="#E6E6E6"/>
<path d="M36 353.167H721" stroke="#E6E6E6"/>
<path d="M36 408H721" stroke="#E6E6E6"/>
<path d="M107.686 417.545H108.83V424.304C108.83 424.907 108.72 425.42 108.498 425.841C108.276 426.263 107.964 426.583 107.561 426.801C107.158 427.02 106.682 427.129 106.134 427.129C105.617 427.129 105.157 427.035 104.754 426.848C104.351 426.657 104.034 426.386 103.803 426.035C103.572 425.684 103.457 425.267 103.457 424.784H104.583C104.583 425.052 104.649 425.286 104.782 425.486C104.917 425.683 105.102 425.837 105.336 425.947C105.57 426.058 105.836 426.114 106.134 426.114C106.464 426.114 106.744 426.044 106.975 425.906C107.205 425.767 107.381 425.564 107.501 425.297C107.624 425.026 107.686 424.695 107.686 424.304V417.545ZM113.064 427.166C112.614 427.166 112.207 427.082 111.84 426.912C111.474 426.74 111.183 426.492 110.968 426.169C110.752 425.843 110.645 425.449 110.645 424.987C110.645 424.581 110.725 424.252 110.885 423.999C111.045 423.744 111.259 423.544 111.526 423.399C111.794 423.254 112.09 423.147 112.413 423.076C112.739 423.002 113.067 422.944 113.396 422.901C113.827 422.845 114.176 422.804 114.444 422.776C114.715 422.745 114.912 422.694 115.035 422.624C115.161 422.553 115.224 422.43 115.224 422.254V422.217C115.224 421.762 115.1 421.408 114.85 421.156C114.604 420.903 114.23 420.777 113.729 420.777C113.208 420.777 112.801 420.891 112.505 421.119C112.21 421.346 112.002 421.589 111.882 421.848L110.848 421.479C111.033 421.048 111.279 420.712 111.587 420.472C111.897 420.229 112.236 420.06 112.602 419.964C112.971 419.866 113.335 419.817 113.692 419.817C113.919 419.817 114.181 419.844 114.476 419.9C114.775 419.952 115.063 420.061 115.34 420.228C115.62 420.394 115.852 420.645 116.037 420.98C116.221 421.316 116.314 421.765 116.314 422.328V427H115.224V426.04H115.169C115.095 426.194 114.972 426.358 114.8 426.534C114.627 426.709 114.398 426.858 114.112 426.982C113.825 427.105 113.476 427.166 113.064 427.166ZM113.23 426.188C113.661 426.188 114.024 426.103 114.319 425.934C114.618 425.764 114.843 425.546 114.993 425.278C115.147 425.01 115.224 424.729 115.224 424.433V423.436C115.178 423.491 115.077 423.542 114.92 423.588C114.766 423.632 114.587 423.67 114.384 423.704C114.184 423.735 113.989 423.762 113.798 423.787C113.61 423.808 113.458 423.827 113.341 423.842C113.058 423.879 112.793 423.939 112.547 424.022C112.304 424.102 112.107 424.224 111.956 424.387C111.808 424.547 111.734 424.766 111.734 425.043C111.734 425.421 111.874 425.707 112.154 425.901C112.437 426.092 112.796 426.188 113.23 426.188ZM119.392 422.734V427H118.302V419.909H119.355V421.017H119.447C119.613 420.657 119.866 420.368 120.204 420.149C120.543 419.928 120.98 419.817 121.515 419.817C121.996 419.817 122.416 419.915 122.776 420.112C123.136 420.306 123.416 420.602 123.616 420.999C123.816 421.393 123.916 421.891 123.916 422.494V427H122.826V422.568C122.826 422.011 122.682 421.577 122.393 421.266C122.103 420.952 121.706 420.795 121.201 420.795C120.854 420.795 120.543 420.871 120.269 421.022C119.998 421.172 119.784 421.393 119.627 421.682C119.47 421.971 119.392 422.322 119.392 422.734Z" fill="#828282"/>
<path d="M146.335 427V417.545H152.004V418.561H147.48V421.756H151.579V422.771H147.48V427H146.335ZM156.269 427.148C155.586 427.148 154.997 426.997 154.501 426.695C154.009 426.391 153.629 425.966 153.361 425.421C153.096 424.873 152.964 424.236 152.964 423.51C152.964 422.784 153.096 422.143 153.361 421.589C153.629 421.032 154.001 420.598 154.478 420.288C154.958 419.974 155.519 419.817 156.159 419.817C156.528 419.817 156.893 419.878 157.253 420.001C157.613 420.125 157.941 420.325 158.236 420.602C158.532 420.875 158.767 421.239 158.942 421.691C159.118 422.143 159.206 422.701 159.206 423.362V423.824H153.74V422.882H158.098C158.098 422.482 158.018 422.125 157.858 421.811C157.701 421.497 157.476 421.249 157.184 421.068C156.894 420.886 156.553 420.795 156.159 420.795C155.725 420.795 155.349 420.903 155.032 421.119C154.718 421.331 154.477 421.608 154.307 421.95C154.138 422.291 154.054 422.657 154.054 423.048V423.676C154.054 424.212 154.146 424.666 154.331 425.038C154.518 425.407 154.778 425.689 155.111 425.883C155.443 426.074 155.829 426.169 156.269 426.169C156.556 426.169 156.814 426.129 157.045 426.049C157.279 425.966 157.481 425.843 157.65 425.68C157.819 425.513 157.95 425.307 158.042 425.061L159.095 425.357C158.984 425.714 158.798 426.027 158.536 426.298C158.275 426.566 157.951 426.775 157.567 426.926C157.182 427.074 156.75 427.148 156.269 427.148ZM161.011 427V417.545H162.1V421.036H162.192C162.272 420.912 162.383 420.755 162.525 420.565C162.669 420.371 162.876 420.198 163.143 420.048C163.414 419.894 163.78 419.817 164.242 419.817C164.839 419.817 165.365 419.966 165.821 420.265C166.276 420.563 166.632 420.986 166.887 421.534C167.143 422.082 167.271 422.728 167.271 423.473C167.271 424.224 167.143 424.875 166.887 425.426C166.632 425.974 166.278 426.398 165.826 426.7C165.373 426.998 164.852 427.148 164.261 427.148C163.805 427.148 163.44 427.072 163.166 426.922C162.893 426.768 162.682 426.594 162.534 426.4C162.386 426.203 162.272 426.04 162.192 425.911H162.063V427H161.011ZM162.082 423.455C162.082 423.99 162.16 424.462 162.317 424.872C162.474 425.278 162.703 425.597 163.005 425.827C163.307 426.055 163.676 426.169 164.113 426.169C164.568 426.169 164.948 426.049 165.253 425.809C165.561 425.566 165.792 425.24 165.946 424.83C166.103 424.418 166.181 423.959 166.181 423.455C166.181 422.956 166.104 422.507 165.95 422.107C165.799 421.703 165.57 421.385 165.262 421.151C164.958 420.914 164.575 420.795 164.113 420.795C163.67 420.795 163.297 420.908 162.996 421.132C162.694 421.354 162.466 421.665 162.312 422.065C162.159 422.462 162.082 422.925 162.082 423.455Z" fill="#828282"/>
<path d="M188.495 417.545H189.862L193.075 425.393H193.186L196.399 417.545H197.765V427H196.694V419.817H196.602L193.647 427H192.613L189.659 419.817H189.566V427H188.495V417.545ZM202 427.166C201.55 427.166 201.143 427.082 200.776 426.912C200.41 426.74 200.119 426.492 199.904 426.169C199.688 425.843 199.581 425.449 199.581 424.987C199.581 424.581 199.661 424.252 199.821 423.999C199.981 423.744 200.195 423.544 200.463 423.399C200.73 423.254 201.026 423.147 201.349 423.076C201.675 423.002 202.003 422.944 202.332 422.901C202.763 422.845 203.112 422.804 203.38 422.776C203.651 422.745 203.848 422.694 203.971 422.624C204.097 422.553 204.16 422.43 204.16 422.254V422.217C204.16 421.762 204.036 421.408 203.786 421.156C203.54 420.903 203.166 420.777 202.665 420.777C202.144 420.777 201.737 420.891 201.441 421.119C201.146 421.346 200.938 421.589 200.818 421.848L199.784 421.479C199.969 421.048 200.215 420.712 200.523 420.472C200.833 420.229 201.172 420.06 201.538 419.964C201.907 419.866 202.271 419.817 202.628 419.817C202.855 419.817 203.117 419.844 203.412 419.9C203.711 419.952 203.999 420.061 204.276 420.228C204.556 420.394 204.788 420.645 204.973 420.98C205.157 421.316 205.25 421.765 205.25 422.328V427H204.16V426.04H204.105C204.031 426.194 203.908 426.358 203.736 426.534C203.563 426.709 203.334 426.858 203.048 426.982C202.762 427.105 202.412 427.166 202 427.166ZM202.166 426.188C202.597 426.188 202.96 426.103 203.255 425.934C203.554 425.764 203.779 425.546 203.929 425.278C204.083 425.01 204.16 424.729 204.16 424.433V423.436C204.114 423.491 204.013 423.542 203.856 423.588C203.702 423.632 203.523 423.67 203.32 423.704C203.12 423.735 202.925 423.762 202.734 423.787C202.546 423.808 202.394 423.827 202.277 423.842C201.994 423.879 201.729 423.939 201.483 424.022C201.24 424.102 201.043 424.224 200.892 424.387C200.744 424.547 200.67 424.766 200.67 425.043C200.67 425.421 200.81 425.707 201.09 425.901C201.374 426.092 201.732 426.188 202.166 426.188ZM207.238 427V419.909H208.291V420.98H208.365C208.494 420.629 208.728 420.345 209.066 420.126C209.405 419.908 209.787 419.798 210.211 419.798C210.291 419.798 210.391 419.8 210.511 419.803C210.631 419.806 210.722 419.811 210.784 419.817V420.925C210.747 420.915 210.662 420.902 210.53 420.883C210.401 420.862 210.264 420.851 210.119 420.851C209.774 420.851 209.467 420.923 209.196 421.068C208.928 421.209 208.716 421.406 208.559 421.659C208.405 421.908 208.328 422.193 208.328 422.513V427H207.238Z" fill="#828282"/>
<path d="M232.624 427H231.424L234.896 417.545H236.078L239.549 427H238.349L235.524 419.041H235.45L232.624 427ZM233.068 423.307H237.906V424.322H233.068V423.307ZM240.874 429.659V419.909H241.927V421.036H242.056C242.136 420.912 242.247 420.755 242.388 420.565C242.533 420.371 242.739 420.198 243.007 420.048C243.278 419.894 243.644 419.817 244.106 419.817C244.703 419.817 245.229 419.966 245.684 420.265C246.14 420.563 246.495 420.986 246.751 421.534C247.006 422.082 247.134 422.728 247.134 423.473C247.134 424.224 247.006 424.875 246.751 425.426C246.495 425.974 246.141 426.398 245.689 426.7C245.237 426.998 244.715 427.148 244.124 427.148C243.669 427.148 243.304 427.072 243.03 426.922C242.756 426.768 242.545 426.594 242.398 426.4C242.25 426.203 242.136 426.04 242.056 425.911H241.964V429.659H240.874ZM241.945 423.455C241.945 423.99 242.024 424.462 242.181 424.872C242.338 425.278 242.567 425.597 242.868 425.827C243.17 426.055 243.539 426.169 243.976 426.169C244.432 426.169 244.812 426.049 245.117 425.809C245.424 425.566 245.655 425.24 245.809 424.83C245.966 424.418 246.045 423.959 246.045 423.455C246.045 422.956 245.968 422.507 245.814 422.107C245.663 421.703 245.434 421.385 245.126 421.151C244.821 420.914 244.438 420.795 243.976 420.795C243.533 420.795 243.161 420.908 242.859 421.132C242.558 421.354 242.33 421.665 242.176 422.065C242.022 422.462 241.945 422.925 241.945 423.455ZM248.796 427V419.909H249.849V420.98H249.922C250.052 420.629 250.286 420.345 250.624 420.126C250.963 419.908 251.344 419.798 251.769 419.798C251.849 419.798 251.949 419.8 252.069 419.803C252.189 419.806 252.28 419.811 252.341 419.817V420.925C252.304 420.915 252.22 420.902 252.088 420.883C251.958 420.862 251.821 420.851 251.677 420.851C251.332 420.851 251.024 420.923 250.753 421.068C250.486 421.209 250.273 421.406 250.116 421.659C249.962 421.908 249.885 422.193 249.885 422.513V427H248.796Z" fill="#828282"/>
<path d="M272.722 417.545H274.088L277.301 425.393H277.412L280.625 417.545H281.991V427H280.92V419.817H280.828L277.874 427H276.839L273.885 419.817H273.793V427H272.722V417.545ZM286.226 427.166C285.777 427.166 285.369 427.082 285.003 426.912C284.636 426.74 284.345 426.492 284.13 426.169C283.915 425.843 283.807 425.449 283.807 424.987C283.807 424.581 283.887 424.252 284.047 423.999C284.207 423.744 284.421 423.544 284.689 423.399C284.956 423.254 285.252 423.147 285.575 423.076C285.901 423.002 286.229 422.944 286.558 422.901C286.989 422.845 287.338 422.804 287.606 422.776C287.877 422.745 288.074 422.694 288.197 422.624C288.323 422.553 288.386 422.43 288.386 422.254V422.217C288.386 421.762 288.262 421.408 288.012 421.156C287.766 420.903 287.392 420.777 286.891 420.777C286.371 420.777 285.963 420.891 285.667 421.119C285.372 421.346 285.164 421.589 285.044 421.848L284.01 421.479C284.195 421.048 284.441 420.712 284.749 420.472C285.059 420.229 285.398 420.06 285.764 419.964C286.134 419.866 286.497 419.817 286.854 419.817C287.081 419.817 287.343 419.844 287.639 419.9C287.937 419.952 288.225 420.061 288.502 420.228C288.782 420.394 289.014 420.645 289.199 420.98C289.384 421.316 289.476 421.765 289.476 422.328V427H288.386V426.04H288.331C288.257 426.194 288.134 426.358 287.962 426.534C287.789 426.709 287.56 426.858 287.274 426.982C286.988 427.105 286.638 427.166 286.226 427.166ZM286.392 426.188C286.823 426.188 287.186 426.103 287.482 425.934C287.78 425.764 288.005 425.546 288.156 425.278C288.309 425.01 288.386 424.729 288.386 424.433V423.436C288.34 423.491 288.239 423.542 288.082 423.588C287.928 423.632 287.749 423.67 287.546 423.704C287.346 423.735 287.151 423.762 286.96 423.787C286.772 423.808 286.62 423.827 286.503 423.842C286.22 423.879 285.955 423.939 285.709 424.022C285.466 424.102 285.269 424.224 285.118 424.387C284.97 424.547 284.896 424.766 284.896 425.043C284.896 425.421 285.036 425.707 285.316 425.901C285.6 426.092 285.958 426.188 286.392 426.188ZM291.912 429.659C291.728 429.659 291.563 429.644 291.418 429.613C291.274 429.585 291.174 429.558 291.118 429.53L291.395 428.57C291.66 428.637 291.894 428.662 292.097 428.643C292.3 428.625 292.48 428.534 292.637 428.371C292.797 428.211 292.943 427.951 293.076 427.591L293.279 427.037L290.657 419.909H291.838L293.796 425.56H293.87L295.827 419.909H297.009L293.999 428.034C293.863 428.4 293.696 428.703 293.496 428.944C293.296 429.187 293.063 429.367 292.799 429.484C292.537 429.601 292.242 429.659 291.912 429.659Z" fill="#828282"/>
<path d="M320.818 417.545H321.963V424.304C321.963 424.907 321.852 425.42 321.631 425.841C321.409 426.263 321.097 426.583 320.694 426.801C320.291 427.02 319.815 427.129 319.267 427.129C318.75 427.129 318.29 427.035 317.887 426.848C317.484 426.657 317.167 426.386 316.936 426.035C316.705 425.684 316.59 425.267 316.59 424.784H317.716C317.716 425.052 317.782 425.286 317.915 425.486C318.05 425.683 318.235 425.837 318.469 425.947C318.703 426.058 318.969 426.114 319.267 426.114C319.597 426.114 319.877 426.044 320.107 425.906C320.338 425.767 320.514 425.564 320.634 425.297C320.757 425.026 320.818 424.695 320.818 424.304V417.545ZM328.579 424.101V419.909H329.668V427H328.579V425.8H328.505C328.339 426.16 328.08 426.466 327.729 426.718C327.378 426.968 326.935 427.092 326.4 427.092C325.957 427.092 325.563 426.995 325.218 426.801C324.873 426.605 324.602 426.309 324.405 425.915C324.208 425.518 324.11 425.018 324.11 424.415V419.909H325.199V424.341C325.199 424.858 325.344 425.27 325.633 425.578C325.926 425.886 326.298 426.04 326.751 426.04C327.021 426.04 327.297 425.971 327.577 425.832C327.86 425.694 328.097 425.481 328.288 425.195C328.482 424.909 328.579 424.544 328.579 424.101ZM332.753 422.734V427H331.664V419.909H332.716V421.017H332.809C332.975 420.657 333.227 420.368 333.566 420.149C333.904 419.928 334.341 419.817 334.877 419.817C335.357 419.817 335.777 419.915 336.137 420.112C336.497 420.306 336.777 420.602 336.977 420.999C337.177 421.393 337.277 421.891 337.277 422.494V427H336.188V422.568C336.188 422.011 336.043 421.577 335.754 421.266C335.465 420.952 335.068 420.795 334.563 420.795C334.215 420.795 333.904 420.871 333.63 421.022C333.359 421.172 333.146 421.393 332.989 421.682C332.832 421.971 332.753 422.322 332.753 422.734Z" fill="#828282"/>
<path d="M365.728 417.545H366.872V424.304C366.872 424.907 366.762 425.42 366.54 425.841C366.318 426.263 366.006 426.583 365.603 426.801C365.2 427.02 364.724 427.129 364.176 427.129C363.659 427.129 363.199 427.035 362.796 426.848C362.393 426.657 362.076 426.386 361.845 426.035C361.614 425.684 361.499 425.267 361.499 424.784H362.625C362.625 425.052 362.691 425.286 362.824 425.486C362.959 425.683 363.144 425.837 363.378 425.947C363.612 426.058 363.878 426.114 364.176 426.114C364.506 426.114 364.786 426.044 365.017 425.906C365.247 425.767 365.423 425.564 365.543 425.297C365.666 425.026 365.728 424.695 365.728 424.304V417.545ZM373.488 424.101V419.909H374.577V427H373.488V425.8H373.414C373.248 426.16 372.989 426.466 372.638 426.718C372.288 426.968 371.844 427.092 371.309 427.092C370.866 427.092 370.472 426.995 370.127 426.801C369.782 426.605 369.512 426.309 369.315 425.915C369.118 425.518 369.019 425.018 369.019 424.415V419.909H370.109V424.341C370.109 424.858 370.253 425.27 370.543 425.578C370.835 425.886 371.207 426.04 371.66 426.04C371.931 426.04 372.206 425.971 372.486 425.832C372.769 425.694 373.006 425.481 373.197 425.195C373.391 424.909 373.488 424.544 373.488 424.101ZM377.662 417.545V427H376.573V417.545H377.662Z" fill="#828282"/>
<path d="M401.864 427H400.663L404.135 417.545H405.317L408.788 427H407.588L404.763 419.041H404.689L401.864 427ZM402.307 423.307H407.145V424.322H402.307V423.307ZM414.582 424.101V419.909H415.672V427H414.582V425.8H414.508C414.342 426.16 414.084 426.466 413.733 426.718C413.382 426.968 412.939 427.092 412.403 427.092C411.96 427.092 411.566 426.995 411.221 426.801C410.877 426.605 410.606 426.309 410.409 425.915C410.212 425.518 410.113 425.018 410.113 424.415V419.909H411.203V424.341C411.203 424.858 411.347 425.27 411.637 425.578C411.929 425.886 412.302 426.04 412.754 426.04C413.025 426.04 413.3 425.971 413.58 425.832C413.863 425.694 414.1 425.481 414.291 425.195C414.485 424.909 414.582 424.544 414.582 424.101ZM420.529 429.807C420.003 429.807 419.551 429.739 419.172 429.604C418.793 429.471 418.478 429.296 418.226 429.077C417.976 428.862 417.778 428.631 417.63 428.385L418.498 427.776C418.597 427.905 418.721 428.053 418.872 428.219C419.023 428.388 419.229 428.534 419.491 428.657C419.755 428.783 420.101 428.847 420.529 428.847C421.102 428.847 421.574 428.708 421.947 428.431C422.319 428.154 422.505 427.72 422.505 427.129V425.689H422.413C422.333 425.818 422.219 425.978 422.071 426.169C421.927 426.357 421.717 426.525 421.443 426.672C421.173 426.817 420.806 426.889 420.345 426.889C419.772 426.889 419.258 426.754 418.803 426.483C418.35 426.212 417.992 425.818 417.727 425.301C417.465 424.784 417.335 424.156 417.335 423.418C417.335 422.691 417.462 422.059 417.718 421.52C417.973 420.979 418.329 420.56 418.784 420.265C419.24 419.966 419.766 419.817 420.363 419.817C420.825 419.817 421.191 419.894 421.462 420.048C421.736 420.198 421.945 420.371 422.09 420.565C422.237 420.755 422.351 420.912 422.431 421.036H422.542V419.909H423.595V427.203C423.595 427.812 423.456 428.308 423.179 428.69C422.905 429.074 422.536 429.356 422.071 429.534C421.61 429.716 421.096 429.807 420.529 429.807ZM420.492 425.911C420.929 425.911 421.299 425.81 421.6 425.61C421.902 425.41 422.131 425.123 422.288 424.747C422.445 424.372 422.524 423.922 422.524 423.399C422.524 422.888 422.447 422.437 422.293 422.047C422.139 421.656 421.911 421.349 421.61 421.128C421.308 420.906 420.936 420.795 420.492 420.795C420.031 420.795 419.646 420.912 419.338 421.146C419.034 421.38 418.804 421.694 418.65 422.088C418.5 422.482 418.424 422.919 418.424 423.399C418.424 423.892 418.501 424.327 418.655 424.706C418.812 425.081 419.043 425.377 419.347 425.592C419.655 425.804 420.037 425.911 420.492 425.911Z" fill="#828282"/>
<path d="M449.537 419.909C449.482 419.441 449.257 419.078 448.863 418.82C448.469 418.561 447.986 418.432 447.413 418.432C446.995 418.432 446.629 418.5 446.315 418.635C446.004 418.77 445.761 418.957 445.585 419.194C445.413 419.431 445.327 419.7 445.327 420.001C445.327 420.254 445.387 420.471 445.507 420.652C445.63 420.831 445.787 420.98 445.978 421.1C446.169 421.217 446.369 421.314 446.578 421.391C446.787 421.465 446.979 421.525 447.155 421.571L448.115 421.83C448.361 421.894 448.635 421.983 448.937 422.097C449.242 422.211 449.532 422.367 449.809 422.564C450.089 422.757 450.32 423.007 450.502 423.311C450.683 423.616 450.774 423.99 450.774 424.433C450.774 424.944 450.64 425.406 450.373 425.818C450.108 426.231 449.72 426.558 449.209 426.801C448.701 427.045 448.084 427.166 447.358 427.166C446.681 427.166 446.095 427.057 445.599 426.838C445.107 426.62 444.719 426.315 444.436 425.924C444.156 425.533 443.997 425.08 443.96 424.562H445.142C445.173 424.92 445.293 425.215 445.502 425.449C445.715 425.68 445.982 425.852 446.305 425.966C446.632 426.077 446.983 426.132 447.358 426.132C447.795 426.132 448.187 426.061 448.535 425.92C448.883 425.775 449.158 425.575 449.362 425.32C449.565 425.061 449.666 424.759 449.666 424.415C449.666 424.101 449.579 423.845 449.403 423.648C449.228 423.451 448.997 423.291 448.711 423.168C448.424 423.045 448.115 422.937 447.783 422.845L446.619 422.513C445.881 422.3 445.296 421.997 444.865 421.603C444.434 421.209 444.219 420.694 444.219 420.057C444.219 419.527 444.362 419.066 444.648 418.672C444.937 418.275 445.325 417.967 445.812 417.749C446.301 417.527 446.847 417.416 447.45 417.416C448.06 417.416 448.601 417.525 449.075 417.744C449.549 417.959 449.925 418.255 450.202 418.63C450.482 419.006 450.63 419.432 450.645 419.909H449.537ZM455.482 427.148C454.799 427.148 454.209 426.997 453.714 426.695C453.221 426.391 452.841 425.966 452.573 425.421C452.309 424.873 452.176 424.236 452.176 423.51C452.176 422.784 452.309 422.143 452.573 421.589C452.841 421.032 453.214 420.598 453.691 420.288C454.171 419.974 454.731 419.817 455.371 419.817C455.74 419.817 456.105 419.878 456.465 420.001C456.825 420.125 457.153 420.325 457.448 420.602C457.744 420.875 457.979 421.239 458.155 421.691C458.33 422.143 458.418 422.701 458.418 423.362V423.824H452.952V422.882H457.31C457.31 422.482 457.23 422.125 457.07 421.811C456.913 421.497 456.688 421.249 456.396 421.068C456.107 420.886 455.765 420.795 455.371 420.795C454.937 420.795 454.562 420.903 454.245 421.119C453.931 421.331 453.689 421.608 453.52 421.95C453.351 422.291 453.266 422.657 453.266 423.048V423.676C453.266 424.212 453.358 424.666 453.543 425.038C453.731 425.407 453.991 425.689 454.323 425.883C454.656 426.074 455.042 426.169 455.482 426.169C455.768 426.169 456.027 426.129 456.257 426.049C456.491 425.966 456.693 425.843 456.862 425.68C457.031 425.513 457.162 425.307 457.255 425.061L458.307 425.357C458.196 425.714 458.01 426.027 457.749 426.298C457.487 426.566 457.164 426.775 456.779 426.926C456.394 427.074 455.962 427.148 455.482 427.148ZM460.075 429.659V419.909H461.128V421.036H461.257C461.337 420.912 461.448 420.755 461.589 420.565C461.734 420.371 461.94 420.198 462.208 420.048C462.479 419.894 462.845 419.817 463.307 419.817C463.904 419.817 464.43 419.966 464.886 420.265C465.341 420.563 465.697 420.986 465.952 421.534C466.207 422.082 466.335 422.728 466.335 423.473C466.335 424.224 466.207 424.875 465.952 425.426C465.697 425.974 465.343 426.398 464.89 426.7C464.438 426.998 463.916 427.148 463.325 427.148C462.87 427.148 462.505 427.072 462.231 426.922C461.957 426.768 461.746 426.594 461.599 426.4C461.451 426.203 461.337 426.04 461.257 425.911H461.165V429.659H460.075ZM461.146 423.455C461.146 423.99 461.225 424.462 461.382 424.872C461.539 425.278 461.768 425.597 462.07 425.827C462.371 426.055 462.741 426.169 463.178 426.169C463.633 426.169 464.013 426.049 464.318 425.809C464.626 425.566 464.856 425.24 465.01 424.83C465.167 424.418 465.246 423.959 465.246 423.455C465.246 422.956 465.169 422.507 465.015 422.107C464.864 421.703 464.635 421.385 464.327 421.151C464.022 420.914 463.639 420.795 463.178 420.795C462.734 420.795 462.362 420.908 462.06 421.132C461.759 421.354 461.531 421.665 461.377 422.065C461.223 422.462 461.146 422.925 461.146 423.455Z" fill="#828282"/>
<path d="M495.939 422.273C495.939 423.27 495.759 424.132 495.399 424.858C495.039 425.584 494.545 426.144 493.917 426.538C493.289 426.932 492.572 427.129 491.766 427.129C490.959 427.129 490.242 426.932 489.614 426.538C488.987 426.144 488.493 425.584 488.133 424.858C487.772 424.132 487.592 423.27 487.592 422.273C487.592 421.276 487.772 420.414 488.133 419.688C488.493 418.961 488.987 418.401 489.614 418.007C490.242 417.613 490.959 417.416 491.766 417.416C492.572 417.416 493.289 417.613 493.917 418.007C494.545 418.401 495.039 418.961 495.399 419.688C495.759 420.414 495.939 421.276 495.939 422.273ZM494.831 422.273C494.831 421.454 494.694 420.763 494.42 420.2C494.149 419.637 493.782 419.21 493.317 418.921C492.855 418.632 492.338 418.487 491.766 418.487C491.193 418.487 490.675 418.632 490.21 418.921C489.748 419.21 489.381 419.637 489.107 420.2C488.836 420.763 488.7 421.454 488.7 422.273C488.7 423.091 488.836 423.782 489.107 424.346C489.381 424.909 489.748 425.335 490.21 425.624C490.675 425.914 491.193 426.058 491.766 426.058C492.338 426.058 492.855 425.914 493.317 425.624C493.782 425.335 494.149 424.909 494.42 424.346C494.694 423.782 494.831 423.091 494.831 422.273ZM500.597 427.148C499.932 427.148 499.36 426.991 498.88 426.677C498.4 426.363 498.03 425.931 497.772 425.38C497.513 424.829 497.384 424.199 497.384 423.491C497.384 422.771 497.516 422.136 497.781 421.585C498.049 421.031 498.421 420.598 498.898 420.288C499.378 419.974 499.938 419.817 500.579 419.817C501.077 419.817 501.527 419.909 501.927 420.094C502.327 420.278 502.654 420.537 502.91 420.869C503.165 421.202 503.324 421.589 503.385 422.033H502.296C502.213 421.71 502.028 421.423 501.742 421.174C501.459 420.922 501.077 420.795 500.597 420.795C500.172 420.795 499.8 420.906 499.48 421.128C499.163 421.346 498.915 421.656 498.737 422.056C498.561 422.453 498.473 422.919 498.473 423.455C498.473 424.002 498.56 424.479 498.732 424.886C498.907 425.292 499.154 425.607 499.471 425.832C499.791 426.057 500.166 426.169 500.597 426.169C500.88 426.169 501.137 426.12 501.368 426.021C501.599 425.923 501.794 425.781 501.954 425.597C502.114 425.412 502.228 425.19 502.296 424.932H503.385C503.324 425.35 503.172 425.727 502.928 426.063C502.688 426.395 502.37 426.66 501.973 426.857C501.579 427.051 501.12 427.148 500.597 427.148ZM508.062 419.909V420.832H504.387V419.909H508.062ZM505.458 418.21H506.548V424.969C506.548 425.277 506.592 425.507 506.682 425.661C506.774 425.812 506.891 425.914 507.032 425.966C507.177 426.015 507.329 426.04 507.489 426.04C507.609 426.04 507.708 426.034 507.785 426.021C507.862 426.006 507.923 425.994 507.97 425.984L508.191 426.963C508.117 426.991 508.014 427.018 507.882 427.046C507.75 427.077 507.582 427.092 507.379 427.092C507.071 427.092 506.769 427.026 506.474 426.894C506.181 426.761 505.938 426.56 505.744 426.289C505.554 426.018 505.458 425.677 505.458 425.264V418.21Z" fill="#828282"/>
<path d="M536.788 417.545V427H535.68L530.528 419.577H530.436V427H529.291V417.545H530.399L535.569 424.987H535.662V417.545H536.788ZM541.812 427.148C541.172 427.148 540.61 426.995 540.127 426.691C539.647 426.386 539.271 425.96 539 425.412C538.733 424.864 538.599 424.224 538.599 423.491C538.599 422.753 538.733 422.108 539 421.557C539.271 421.006 539.647 420.578 540.127 420.274C540.61 419.969 541.172 419.817 541.812 419.817C542.452 419.817 543.012 419.969 543.492 420.274C543.976 420.578 544.351 421.006 544.619 421.557C544.89 422.108 545.025 422.753 545.025 423.491C545.025 424.224 544.89 424.864 544.619 425.412C544.351 425.96 543.976 426.386 543.492 426.691C543.012 426.995 542.452 427.148 541.812 427.148ZM541.812 426.169C542.298 426.169 542.698 426.044 543.012 425.795C543.326 425.546 543.558 425.218 543.709 424.812C543.86 424.406 543.935 423.965 543.935 423.491C543.935 423.018 543.86 422.576 543.709 422.167C543.558 421.757 543.326 421.426 543.012 421.174C542.698 420.922 542.298 420.795 541.812 420.795C541.326 420.795 540.926 420.922 540.612 421.174C540.298 421.426 540.065 421.757 539.915 422.167C539.764 422.576 539.688 423.018 539.688 423.491C539.688 423.965 539.764 424.406 539.915 424.812C540.065 425.218 540.298 425.546 540.612 425.795C540.926 426.044 541.326 426.169 541.812 426.169ZM552.232 419.909L549.61 427H548.502L545.88 419.909H547.062L549.019 425.56H549.093L551.051 419.909H552.232Z" fill="#828282"/>
<path d="M575.036 427H572.118V417.545H575.165C576.082 417.545 576.867 417.735 577.519 418.113C578.172 418.489 578.672 419.029 579.02 419.734C579.367 420.435 579.541 421.276 579.541 422.254C579.541 423.239 579.366 424.087 579.015 424.798C578.664 425.506 578.153 426.051 577.482 426.432C576.811 426.811 575.996 427 575.036 427ZM573.263 425.984H574.962C575.743 425.984 576.391 425.834 576.905 425.532C577.419 425.23 577.802 424.801 578.055 424.244C578.307 423.687 578.433 423.024 578.433 422.254C578.433 421.491 578.309 420.834 578.059 420.283C577.81 419.729 577.438 419.304 576.942 419.009C576.447 418.71 575.83 418.561 575.091 418.561H573.263V425.984ZM584.287 427.148C583.604 427.148 583.014 426.997 582.519 426.695C582.027 426.391 581.646 425.966 581.379 425.421C581.114 424.873 580.982 424.236 580.982 423.51C580.982 422.784 581.114 422.143 581.379 421.589C581.646 421.032 582.019 420.598 582.496 420.288C582.976 419.974 583.536 419.817 584.176 419.817C584.546 419.817 584.91 419.878 585.27 420.001C585.63 420.125 585.958 420.325 586.254 420.602C586.549 420.875 586.785 421.239 586.96 421.691C587.135 422.143 587.223 422.701 587.223 423.362V423.824H581.757V422.882H586.115C586.115 422.482 586.035 422.125 585.875 421.811C585.718 421.497 585.493 421.249 585.201 421.068C584.912 420.886 584.57 420.795 584.176 420.795C583.742 420.795 583.367 420.903 583.05 421.119C582.736 421.331 582.494 421.608 582.325 421.95C582.156 422.291 582.071 422.657 582.071 423.048V423.676C582.071 424.212 582.163 424.666 582.348 425.038C582.536 425.407 582.796 425.689 583.128 425.883C583.461 426.074 583.847 426.169 584.287 426.169C584.573 426.169 584.832 426.129 585.063 426.049C585.297 425.966 585.498 425.843 585.667 425.68C585.837 425.513 585.967 425.307 586.06 425.061L587.112 425.357C587.002 425.714 586.815 426.027 586.554 426.298C586.292 426.566 585.969 426.775 585.584 426.926C585.2 427.074 584.767 427.148 584.287 427.148ZM591.761 427.148C591.096 427.148 590.524 426.991 590.044 426.677C589.564 426.363 589.194 425.931 588.936 425.38C588.677 424.829 588.548 424.199 588.548 423.491C588.548 422.771 588.68 422.136 588.945 421.585C589.213 421.031 589.585 420.598 590.062 420.288C590.542 419.974 591.103 419.817 591.743 419.817C592.241 419.817 592.691 419.909 593.091 420.094C593.491 420.278 593.819 420.537 594.074 420.869C594.329 421.202 594.488 421.589 594.549 422.033H593.46C593.377 421.71 593.192 421.423 592.906 421.174C592.623 420.922 592.241 420.795 591.761 420.795C591.336 420.795 590.964 420.906 590.644 421.128C590.327 421.346 590.079 421.656 589.901 422.056C589.725 422.453 589.638 422.919 589.638 423.455C589.638 424.002 589.724 424.479 589.896 424.886C590.071 425.292 590.318 425.607 590.635 425.832C590.955 426.057 591.33 426.169 591.761 426.169C592.044 426.169 592.301 426.12 592.532 426.021C592.763 425.923 592.958 425.781 593.118 425.597C593.278 425.412 593.392 425.19 593.46 424.932H594.549C594.488 425.35 594.336 425.727 594.092 426.063C593.852 426.395 593.534 426.66 593.137 426.857C592.743 427.051 592.284 427.148 591.761 427.148Z" fill="#828282"/>
<path d="M40.4594 94.1293C39.8501 94.1293 39.3068 94.0246 38.8298 93.8153C38.3559 93.6061 37.9788 93.3152 37.6988 92.9428C37.4218 92.5674 37.271 92.1319 37.2464 91.6364H38.4097C38.4343 91.9411 38.539 92.2042 38.7236 92.4258C38.9083 92.6443 39.1499 92.8136 39.4484 92.9336C39.747 93.0536 40.0778 93.1136 40.441 93.1136C40.8472 93.1136 41.2073 93.0429 41.5212 92.9013C41.8351 92.7597 42.0814 92.5627 42.2599 92.3104C42.4384 92.058 42.5276 91.7656 42.5276 91.4332C42.5276 91.0855 42.4414 90.7792 42.2691 90.5146C42.0967 90.2468 41.8444 90.0375 41.512 89.8867C41.1796 89.7359 40.7733 89.6605 40.2932 89.6605H39.5361V88.6449H40.2932C40.6687 88.6449 40.998 88.5772 41.2812 88.4418C41.5674 88.3063 41.7905 88.1155 41.9506 87.8693C42.1137 87.6231 42.1952 87.3338 42.1952 87.0014C42.1952 86.6813 42.1244 86.4028 41.9829 86.1658C41.8413 85.9289 41.6412 85.7442 41.3827 85.6119C41.1273 85.4795 40.8257 85.4134 40.4779 85.4134C40.1517 85.4134 39.8439 85.4734 39.5546 85.5934C39.2684 85.7103 39.0345 85.8812 38.8529 86.1058C38.6713 86.3274 38.5728 86.5952 38.5574 86.9091H37.4495C37.468 86.4136 37.6172 85.9796 37.8973 85.6072C38.1773 85.2318 38.5436 84.9394 38.996 84.7301C39.4515 84.5208 39.9516 84.4162 40.4964 84.4162C41.0811 84.4162 41.5828 84.5347 42.0013 84.7717C42.4199 85.0056 42.7415 85.3149 42.9662 85.6996C43.1908 86.0843 43.3032 86.4998 43.3032 86.946C43.3032 87.4785 43.1631 87.9324 42.8831 88.3079C42.6061 88.6834 42.2291 88.9434 41.752 89.0881V89.1619C42.3491 89.2604 42.8154 89.5143 43.1508 89.9237C43.4863 90.3299 43.654 90.8331 43.654 91.4332C43.654 91.9472 43.514 92.4089 43.2339 92.8182C42.9569 93.2244 42.5784 93.5445 42.0983 93.7784C41.6182 94.0123 41.0719 94.1293 40.4594 94.1293ZM48.626 94.1293C47.9304 94.1293 47.338 93.94 46.8486 93.5614C46.3593 93.1798 45.9854 92.6274 45.7268 91.9041C45.4683 91.1778 45.339 90.3007 45.339 89.2727C45.339 88.2509 45.4683 87.3784 45.7268 86.6552C45.9884 85.9289 46.3639 85.3749 46.8532 84.9933C47.3457 84.6085 47.9366 84.4162 48.626 84.4162C49.3154 84.4162 49.9047 84.6085 50.3941 84.9933C50.8865 85.3749 51.262 85.9289 51.5205 86.6552C51.7821 87.3784 51.9129 88.2509 51.9129 89.2727C51.9129 90.3007 51.7836 91.1778 51.5251 91.9041C51.2666 92.6274 50.8927 93.1798 50.4033 93.5614C49.914 93.94 49.3215 94.1293 48.626 94.1293ZM48.626 93.1136C49.3154 93.1136 49.8509 92.7812 50.2325 92.1165C50.6141 91.4517 50.805 90.5038 50.805 89.2727C50.805 88.4541 50.7172 87.757 50.5418 87.1815C50.3695 86.6059 50.1202 86.1674 49.7939 85.8658C49.4708 85.5642 49.0815 85.4134 48.626 85.4134C47.9427 85.4134 47.4088 85.7504 47.0241 86.4244C46.6394 87.0953 46.447 88.0447 46.447 89.2727C46.447 90.0914 46.5332 90.7869 46.7055 91.3594C46.8779 91.9318 47.1256 92.3673 47.4488 92.6658C47.775 92.9644 48.1674 93.1136 48.626 93.1136ZM60.0194 94.1477C59.4285 94.1477 58.9069 93.9985 58.4545 93.6999C58.002 93.3983 57.6481 92.9736 57.3927 92.4258C57.1372 91.8749 57.0095 91.224 57.0095 90.473C57.0095 89.7282 57.1372 89.0819 57.3927 88.5341C57.6481 87.9863 58.0036 87.5631 58.4591 87.2646C58.9146 86.966 59.4408 86.8168 60.0379 86.8168C60.4996 86.8168 60.8643 86.8937 61.132 87.0476C61.4028 87.1984 61.609 87.3707 61.7506 87.5646C61.8953 87.7554 62.0076 87.9124 62.0876 88.0355H62.18V84.5455H63.2694V94H62.2169V92.9105H62.0876C62.0076 93.0398 61.8937 93.2029 61.746 93.3999C61.5983 93.5937 61.3875 93.7676 61.1135 93.9215C60.8396 94.0723 60.4749 94.1477 60.0194 94.1477ZM60.1672 93.169C60.6042 93.169 60.9735 93.0552 61.2751 92.8274C61.5767 92.5966 61.806 92.2781 61.963 91.8718C62.1199 91.4625 62.1984 90.9901 62.1984 90.4545C62.1984 89.9252 62.1215 89.462 61.9676 89.065C61.8137 88.6649 61.586 88.354 61.2844 88.1325C60.9827 87.9078 60.6104 87.7955 60.1672 87.7955C59.7055 87.7955 59.3208 87.9139 59.0131 88.1509C58.7084 88.3848 58.4791 88.7034 58.3252 89.1065C58.1744 89.5066 58.099 89.956 58.099 90.4545C58.099 90.9593 58.1759 91.4179 58.3298 91.8303C58.4868 92.2396 58.7176 92.5658 59.0223 92.8089C59.33 93.049 59.7117 93.169 60.1672 93.169ZM67.5028 94.1662C67.0534 94.1662 66.6456 94.0816 66.2794 93.9123C65.9131 93.7399 65.6223 93.4922 65.4069 93.169C65.1914 92.8428 65.0837 92.4489 65.0837 91.9872C65.0837 91.581 65.1637 91.2517 65.3238 90.9993C65.4838 90.7438 65.6977 90.5438 65.9655 90.3991C66.2332 90.2545 66.5287 90.1468 66.8518 90.076C67.1781 90.0021 67.5058 89.9437 67.8351 89.9006C68.266 89.8452 68.6153 89.8036 68.8831 89.7759C69.1539 89.7451 69.3509 89.6944 69.474 89.6236C69.6002 89.5528 69.6633 89.4297 69.6633 89.2543V89.2173C69.6633 88.7618 69.5386 88.4079 69.2893 88.1555C69.0431 87.9032 68.6692 87.777 68.1675 87.777C67.6474 87.777 67.2396 87.8909 66.9442 88.1186C66.6487 88.3464 66.441 88.5895 66.3209 88.848L65.2868 88.4787C65.4715 88.0478 65.7177 87.7124 66.0255 87.4723C66.3363 87.2292 66.6749 87.0599 67.0411 86.9645C67.4104 86.866 67.7736 86.8168 68.1306 86.8168C68.3583 86.8168 68.6199 86.8445 68.9154 86.8999C69.2139 86.9522 69.5017 87.0614 69.7787 87.2276C70.0587 87.3938 70.2911 87.6446 70.4758 87.9801C70.6604 88.3156 70.7528 88.7649 70.7528 89.3281V94H69.6633V93.0398H69.6079C69.534 93.1937 69.4109 93.3583 69.2385 93.5337C69.0662 93.7092 68.8369 93.8584 68.5507 93.9815C68.2645 94.1046 67.9152 94.1662 67.5028 94.1662ZM67.6689 93.1875C68.0998 93.1875 68.463 93.1029 68.7584 92.9336C69.057 92.7643 69.2816 92.5458 69.4324 92.2781C69.5863 92.0103 69.6633 91.7287 69.6633 91.4332V90.4361C69.6171 90.4915 69.5155 90.5423 69.3586 90.5884C69.2047 90.6315 69.0262 90.67 68.8231 90.7038C68.623 90.7346 68.4276 90.7623 68.2368 90.7869C68.049 90.8085 67.8967 90.8269 67.7797 90.8423C67.4966 90.8793 67.2319 90.9393 66.9857 91.0224C66.7426 91.1024 66.5456 91.224 66.3948 91.3871C66.2471 91.5471 66.1732 91.7656 66.1732 92.0426C66.1732 92.4212 66.3132 92.7074 66.5933 92.9013C66.8765 93.0921 67.235 93.1875 67.6689 93.1875ZM73.1891 96.6591C73.0044 96.6591 72.8398 96.6437 72.6951 96.6129C72.5505 96.5852 72.4505 96.5575 72.3951 96.5298L72.6721 95.5696C72.9367 95.6373 73.1706 95.6619 73.3738 95.6435C73.5769 95.625 73.7569 95.5342 73.9139 95.3711C74.0739 95.2111 74.2201 94.951 74.3525 94.5909L74.5556 94.0369L71.9334 86.9091H73.1152L75.0726 92.5597H75.1465L77.1039 86.9091H78.2857L75.2757 95.0341C75.1403 95.4003 74.9726 95.7035 74.7725 95.9435C74.5725 96.1867 74.3401 96.3667 74.0755 96.4837C73.8139 96.6006 73.5184 96.6591 73.1891 96.6591ZM84.7464 88.4972L83.7678 88.7741C83.7062 88.611 83.6154 88.4525 83.4954 88.2987C83.3784 88.1417 83.2184 88.0124 83.0153 87.9109C82.8121 87.8093 82.5521 87.7585 82.2351 87.7585C81.8011 87.7585 81.4395 87.8585 81.1502 88.0586C80.864 88.2556 80.7209 88.5064 80.7209 88.8111C80.7209 89.0819 80.8194 89.2958 81.0163 89.4528C81.2133 89.6097 81.5211 89.7405 81.9396 89.8452L82.9922 90.1037C83.6262 90.2576 84.0986 90.493 84.4094 90.81C84.7203 91.1239 84.8757 91.5286 84.8757 92.0241C84.8757 92.4304 84.7588 92.7936 84.5249 93.1136C84.294 93.4337 83.9709 93.6861 83.5554 93.8707C83.1399 94.0554 82.6567 94.1477 82.1058 94.1477C81.3826 94.1477 80.784 93.9908 80.31 93.6768C79.8361 93.3629 79.536 92.9044 79.4098 92.3011L80.4439 92.0426C80.5424 92.4242 80.7286 92.7105 81.0025 92.9013C81.2795 93.0921 81.6411 93.1875 82.0874 93.1875C82.5952 93.1875 82.9983 93.0798 83.2969 92.8643C83.5985 92.6458 83.7493 92.3842 83.7493 92.0795C83.7493 91.8333 83.6631 91.6271 83.4908 91.4609C83.3184 91.2917 83.0537 91.1655 82.6967 91.0824L81.5149 90.8054C80.8655 90.6515 80.3885 90.413 80.0838 90.0898C79.7822 89.7636 79.6314 89.3558 79.6314 88.8665C79.6314 88.4664 79.7437 88.1125 79.9684 87.8047C80.1961 87.4969 80.5054 87.2553 80.8963 87.0799C81.2902 86.9045 81.7365 86.8168 82.2351 86.8168C82.9368 86.8168 83.4877 86.9706 83.8878 87.2784C84.291 87.5862 84.5772 87.9924 84.7464 88.4972Z" fill="#828282"/>
<path d="M37.2648 149V148.169L40.3856 144.753C40.7518 144.353 41.0534 144.005 41.2904 143.71C41.5274 143.411 41.7028 143.131 41.8167 142.869C41.9336 142.605 41.9921 142.328 41.9921 142.038C41.9921 141.706 41.9121 141.418 41.752 141.175C41.5951 140.932 41.3796 140.744 41.1057 140.612C40.8318 140.48 40.5241 140.413 40.1824 140.413C39.8193 140.413 39.5023 140.489 39.2314 140.64C38.9637 140.787 38.7559 140.995 38.6082 141.263C38.4636 141.531 38.3912 141.844 38.3912 142.205H37.3018C37.3018 141.651 37.4295 141.164 37.6849 140.746C37.9404 140.327 38.2881 140.001 38.7282 139.767C39.1714 139.533 39.6685 139.416 40.2194 139.416C40.7733 139.416 41.2642 139.533 41.692 139.767C42.1198 140.001 42.4553 140.316 42.6984 140.713C42.9416 141.11 43.0631 141.552 43.0631 142.038C43.0631 142.386 43 142.726 42.8738 143.059C42.7507 143.388 42.5353 143.756 42.2275 144.162C41.9229 144.565 41.4997 145.058 40.958 145.639L38.8344 147.911V147.984H43.2293V149H37.2648ZM48.0905 149.129C47.5488 149.129 47.061 149.022 46.627 148.806C46.1931 148.591 45.8453 148.295 45.5837 147.92C45.3221 147.544 45.179 147.116 45.1544 146.636H46.2623C46.3054 147.064 46.4993 147.418 46.844 147.698C47.1918 147.975 47.6073 148.114 48.0905 148.114C48.4782 148.114 48.8229 148.023 49.1246 147.841C49.4292 147.66 49.6678 147.41 49.8401 147.093C50.0155 146.773 50.1032 146.412 50.1032 146.009C50.1032 145.596 50.0125 145.228 49.8309 144.905C49.6524 144.579 49.4062 144.322 49.0922 144.134C48.7783 143.946 48.4198 143.851 48.0166 143.848C47.7273 143.845 47.4303 143.89 47.1256 143.982C46.8209 144.071 46.5701 144.187 46.3731 144.328L45.3021 144.199L45.8746 139.545H50.7865V140.561H46.8348L46.5024 143.349H46.5578C46.7517 143.196 46.9948 143.068 47.2872 142.966C47.5796 142.865 47.8843 142.814 48.2013 142.814C48.7799 142.814 49.2954 142.952 49.7478 143.229C50.2033 143.503 50.5603 143.879 50.8188 144.356C51.0804 144.833 51.2112 145.378 51.2112 145.99C51.2112 146.593 51.0758 147.132 50.805 147.606C50.5372 148.077 50.1679 148.449 49.697 148.723C49.2261 148.994 48.6906 149.129 48.0905 149.129Z" fill="#828282"/>
<path d="M37.2648 204V203.169L40.3856 199.753C40.7518 199.353 41.0534 199.005 41.2904 198.71C41.5274 198.411 41.7028 198.131 41.8167 197.869C41.9336 197.605 41.9921 197.328 41.9921 197.038C41.9921 196.706 41.9121 196.418 41.752 196.175C41.5951 195.932 41.3796 195.744 41.1057 195.612C40.8318 195.48 40.5241 195.413 40.1824 195.413C39.8193 195.413 39.5023 195.489 39.2314 195.64C38.9637 195.787 38.7559 195.995 38.6082 196.263C38.4636 196.531 38.3912 196.844 38.3912 197.205H37.3018C37.3018 196.651 37.4295 196.164 37.6849 195.746C37.9404 195.327 38.2881 195.001 38.7282 194.767C39.1714 194.533 39.6685 194.416 40.2194 194.416C40.7733 194.416 41.2642 194.533 41.692 194.767C42.1198 195.001 42.4553 195.316 42.6984 195.713C42.9416 196.11 43.0631 196.552 43.0631 197.038C43.0631 197.386 43 197.726 42.8738 198.059C42.7507 198.388 42.5353 198.756 42.2275 199.162C41.9229 199.565 41.4997 200.058 40.958 200.639L38.8344 202.911V202.984H43.2293V204H37.2648ZM48.2197 204.129C47.5242 204.129 46.9317 203.94 46.4424 203.561C45.953 203.18 45.5791 202.627 45.3206 201.904C45.0621 201.178 44.9328 200.301 44.9328 199.273C44.9328 198.251 45.0621 197.378 45.3206 196.655C45.5822 195.929 45.9577 195.375 46.447 194.993C46.9394 194.609 47.5303 194.416 48.2197 194.416C48.9091 194.416 49.4985 194.609 49.9878 194.993C50.4803 195.375 50.8557 195.929 51.1143 196.655C51.3759 197.378 51.5067 198.251 51.5067 199.273C51.5067 200.301 51.3774 201.178 51.1189 201.904C50.8604 202.627 50.4864 203.18 49.9971 203.561C49.5077 203.94 48.9153 204.129 48.2197 204.129ZM48.2197 203.114C48.9091 203.114 49.4446 202.781 49.8263 202.116C50.2079 201.452 50.3987 200.504 50.3987 199.273C50.3987 198.454 50.311 197.757 50.1356 197.181C49.9632 196.606 49.7139 196.167 49.3877 195.866C49.0645 195.564 48.6752 195.413 48.2197 195.413C47.5365 195.413 47.0025 195.75 46.6178 196.424C46.2331 197.095 46.0407 198.045 46.0407 199.273C46.0407 200.091 46.1269 200.787 46.2993 201.359C46.4716 201.932 46.7194 202.367 47.0425 202.666C47.3688 202.964 47.7612 203.114 48.2197 203.114Z" fill="#828282"/>
<path d="M40.5887 249.545V259H39.4438V250.746H39.3884L37.0802 252.278V251.115L39.4438 249.545H40.5887ZM46.2623 259.129C45.7207 259.129 45.2329 259.022 44.7989 258.806C44.365 258.591 44.0172 258.295 43.7556 257.92C43.494 257.544 43.3509 257.116 43.3263 256.636H44.4342C44.4773 257.064 44.6712 257.418 45.0159 257.698C45.3637 257.975 45.7791 258.114 46.2623 258.114C46.6501 258.114 46.9948 258.023 47.2964 257.841C47.6011 257.66 47.8396 257.41 48.012 257.093C48.1874 256.773 48.2751 256.412 48.2751 256.009C48.2751 255.596 48.1843 255.228 48.0028 254.905C47.8242 254.579 47.578 254.322 47.2641 254.134C46.9502 253.946 46.5916 253.851 46.1885 253.848C45.8992 253.845 45.6022 253.89 45.2975 253.982C44.9928 254.071 44.742 254.187 44.545 254.328L43.474 254.199L44.0464 249.545H48.9584V250.561H45.0067L44.6743 253.349H44.7297C44.9236 253.196 45.1667 253.068 45.4591 252.966C45.7515 252.865 46.0561 252.814 46.3731 252.814C46.9517 252.814 47.4672 252.952 47.9197 253.229C48.3751 253.503 48.7322 253.879 48.9907 254.356C49.2523 254.833 49.3831 255.378 49.3831 255.99C49.3831 256.593 49.2477 257.132 48.9768 257.606C48.7091 258.077 48.3398 258.449 47.8689 258.723C47.398 258.994 46.8625 259.129 46.2623 259.129Z" fill="#828282"/>
<path d="M40.5887 304.545V314H39.4438V305.746H39.3884L37.0802 307.278V306.115L39.4438 304.545H40.5887ZM46.3916 314.129C45.6961 314.129 45.1036 313.94 44.6143 313.561C44.1249 313.18 43.751 312.627 43.4925 311.904C43.2339 311.178 43.1047 310.301 43.1047 309.273C43.1047 308.251 43.2339 307.378 43.4925 306.655C43.7541 305.929 44.1295 305.375 44.6189 304.993C45.1113 304.609 45.7022 304.416 46.3916 304.416C47.081 304.416 47.6704 304.609 48.1597 304.993C48.6521 305.375 49.0276 305.929 49.2861 306.655C49.5477 307.378 49.6785 308.251 49.6785 309.273C49.6785 310.301 49.5493 311.178 49.2907 311.904C49.0322 312.627 48.6583 313.18 48.1689 313.561C47.6796 313.94 47.0872 314.129 46.3916 314.129ZM46.3916 313.114C47.081 313.114 47.6165 312.781 47.9981 312.116C48.3798 311.452 48.5706 310.504 48.5706 309.273C48.5706 308.454 48.4829 307.757 48.3074 307.181C48.1351 306.606 47.8858 306.167 47.5596 305.866C47.2364 305.564 46.8471 305.413 46.3916 305.413C45.7084 305.413 45.1744 305.75 44.7897 306.424C44.405 307.095 44.2126 308.045 44.2126 309.273C44.2126 310.091 44.2988 310.787 44.4711 311.359C44.6435 311.932 44.8912 312.367 45.2144 312.666C45.5406 312.964 45.933 313.114 46.3916 313.114Z" fill="#828282"/>
<path d="M40.2194 369.129C39.6777 369.129 39.1899 369.022 38.7559 368.806C38.322 368.591 37.9742 368.295 37.7126 367.92C37.451 367.544 37.3079 367.116 37.2833 366.636H38.3912C38.4343 367.064 38.6282 367.418 38.9729 367.698C39.3207 367.975 39.7362 368.114 40.2194 368.114C40.6072 368.114 40.9519 368.023 41.2535 367.841C41.5581 367.66 41.7967 367.41 41.969 367.093C42.1444 366.773 42.2322 366.412 42.2322 366.009C42.2322 365.596 42.1414 365.228 41.9598 364.905C41.7813 364.579 41.5351 364.322 41.2211 364.134C40.9072 363.946 40.5487 363.851 40.1455 363.848C39.8562 363.845 39.5592 363.89 39.2545 363.982C38.9498 364.071 38.699 364.187 38.502 364.328L37.431 364.199L38.0035 359.545H42.9154V360.561H38.9637L38.6313 363.349H38.6867C38.8806 363.196 39.1237 363.068 39.4161 362.966C39.7085 362.865 40.0132 362.814 40.3302 362.814C40.9088 362.814 41.4243 362.952 41.8767 363.229C42.3322 363.503 42.6892 363.879 42.9477 364.356C43.2093 364.833 43.3401 365.378 43.3401 365.99C43.3401 366.593 43.2047 367.132 42.9339 367.606C42.6661 368.077 42.2968 368.449 41.8259 368.723C41.355 368.994 40.8195 369.129 40.2194 369.129ZM51.5263 369.148C50.9354 369.148 50.4137 368.998 49.9613 368.7C49.5089 368.398 49.1549 367.974 48.8995 367.426C48.6441 366.875 48.5163 366.224 48.5163 365.473C48.5163 364.728 48.6441 364.082 48.8995 363.534C49.1549 362.986 49.5104 362.563 49.9659 362.265C50.4214 361.966 50.9477 361.817 51.5447 361.817C52.0064 361.817 52.3711 361.894 52.6388 362.048C52.9097 362.198 53.1159 362.371 53.2575 362.565C53.4021 362.755 53.5144 362.912 53.5945 363.036H53.6868V359.545H54.7763V369H53.7237V367.911H53.5945C53.5144 368.04 53.4006 368.203 53.2528 368.4C53.1051 368.594 52.8943 368.768 52.6204 368.922C52.3465 369.072 51.9818 369.148 51.5263 369.148ZM51.674 368.169C52.111 368.169 52.4804 368.055 52.782 367.827C53.0836 367.597 53.3129 367.278 53.4698 366.872C53.6268 366.462 53.7053 365.99 53.7053 365.455C53.7053 364.925 53.6283 364.462 53.4744 364.065C53.3205 363.665 53.0928 363.354 52.7912 363.132C52.4896 362.908 52.1172 362.795 51.674 362.795C51.2124 362.795 50.8277 362.914 50.5199 363.151C50.2152 363.385 49.9859 363.703 49.832 364.107C49.6812 364.507 49.6058 364.956 49.6058 365.455C49.6058 365.959 49.6828 366.418 49.8366 366.83C49.9936 367.24 50.2244 367.566 50.5291 367.809C50.8369 368.049 51.2185 368.169 51.674 368.169ZM59.0096 369.166C58.5603 369.166 58.1525 369.082 57.7862 368.912C57.42 368.74 57.1291 368.492 56.9137 368.169C56.6983 367.843 56.5906 367.449 56.5906 366.987C56.5906 366.581 56.6706 366.252 56.8306 365.999C56.9906 365.744 57.2045 365.544 57.4723 365.399C57.7401 365.254 58.0355 365.147 58.3587 365.076C58.6849 365.002 59.0127 364.944 59.342 364.901C59.7728 364.845 60.1222 364.804 60.3899 364.776C60.6607 364.745 60.8577 364.694 60.9808 364.624C61.107 364.553 61.1701 364.43 61.1701 364.254V364.217C61.1701 363.762 61.0455 363.408 60.7962 363.156C60.55 362.903 60.176 362.777 59.6744 362.777C59.1542 362.777 58.7464 362.891 58.451 363.119C58.1555 363.346 57.9478 363.589 57.8278 363.848L56.7937 363.479C56.9783 363.048 57.2246 362.712 57.5323 362.472C57.8432 362.229 58.1817 362.06 58.5479 361.964C58.9173 361.866 59.2804 361.817 59.6374 361.817C59.8652 361.817 60.1268 361.844 60.4222 361.9C60.7208 361.952 61.0085 362.061 61.2855 362.228C61.5656 362.394 61.7979 362.645 61.9826 362.98C62.1673 363.316 62.2596 363.765 62.2596 364.328V369H61.1701V368.04H61.1147C61.0408 368.194 60.9177 368.358 60.7454 368.534C60.573 368.709 60.3438 368.858 60.0575 368.982C59.7713 369.105 59.422 369.166 59.0096 369.166ZM59.1758 368.188C59.6067 368.188 59.9698 368.103 60.2653 367.934C60.5638 367.764 60.7885 367.546 60.9393 367.278C61.0932 367.01 61.1701 366.729 61.1701 366.433V365.436C61.1239 365.491 61.0224 365.542 60.8654 365.588C60.7115 365.632 60.533 365.67 60.3299 365.704C60.1299 365.735 59.9344 365.762 59.7436 365.787C59.5559 365.808 59.4035 365.827 59.2866 365.842C59.0034 365.879 58.7388 365.939 58.4925 366.022C58.2494 366.102 58.0524 366.224 57.9016 366.387C57.7539 366.547 57.68 366.766 57.68 367.043C57.68 367.421 57.8201 367.707 58.1001 367.901C58.3833 368.092 58.7418 368.188 59.1758 368.188ZM64.6959 371.659C64.5113 371.659 64.3466 371.644 64.202 371.613C64.0573 371.585 63.9573 371.558 63.9019 371.53L64.1789 370.57C64.4436 370.637 64.6775 370.662 64.8806 370.643C65.0837 370.625 65.2638 370.534 65.4207 370.371C65.5808 370.211 65.7269 369.951 65.8593 369.591L66.0624 369.037L63.4403 361.909H64.6221L66.5795 367.56H66.6533L68.6107 361.909H69.7925L66.7826 370.034C66.6472 370.4 66.4794 370.703 66.2794 370.944C66.0793 371.187 65.847 371.367 65.5823 371.484C65.3207 371.601 65.0252 371.659 64.6959 371.659ZM76.2533 363.497L75.2746 363.774C75.213 363.611 75.1222 363.453 75.0022 363.299C74.8853 363.142 74.7252 363.012 74.5221 362.911C74.319 362.809 74.0589 362.759 73.7419 362.759C73.308 362.759 72.9463 362.859 72.657 363.059C72.3708 363.256 72.2277 363.506 72.2277 363.811C72.2277 364.082 72.3262 364.296 72.5232 364.453C72.7201 364.61 73.0279 364.741 73.4465 364.845L74.499 365.104C75.133 365.258 75.6054 365.493 75.9163 365.81C76.2271 366.124 76.3825 366.529 76.3825 367.024C76.3825 367.43 76.2656 367.794 76.0317 368.114C75.8009 368.434 75.4777 368.686 75.0622 368.871C74.6468 369.055 74.1636 369.148 73.6127 369.148C72.8894 369.148 72.2908 368.991 71.8169 368.677C71.3429 368.363 71.0428 367.904 70.9166 367.301L71.9507 367.043C72.0492 367.424 72.2354 367.71 72.5093 367.901C72.7863 368.092 73.1479 368.188 73.5942 368.188C74.102 368.188 74.5052 368.08 74.8037 367.864C75.1053 367.646 75.2561 367.384 75.2561 367.08C75.2561 366.833 75.17 366.627 74.9976 366.461C74.8253 366.292 74.5606 366.165 74.2036 366.082L73.0218 365.805C72.3724 365.652 71.8953 365.413 71.5906 365.09C71.289 364.764 71.1382 364.356 71.1382 363.866C71.1382 363.466 71.2506 363.112 71.4752 362.805C71.703 362.497 72.0123 362.255 72.4031 362.08C72.7971 361.904 73.2433 361.817 73.7419 361.817C74.4436 361.817 74.9945 361.971 75.3946 362.278C75.7978 362.586 76.084 362.992 76.2533 363.497Z" fill="#828282"/>
<g opacity="0.3">
<path d="M119 263C119 260.791 120.791 259 123 259H147C149.209 259 151 260.791 151 263V408H119V263Z" fill="#3A97A4"/>
<path d="M170 233C170 230.791 171.791 229 174 229H198C200.209 229 202 230.791 202 233V408H170V233Z" fill="#3A97A4"/>
<path d="M221 263C221 260.791 222.791 259 225 259H249C251.209 259 253 260.791 253 263V408H221V263Z" fill="#3A97A4"/>
<path d="M272 275C272 272.791 273.791 271 276 271H300C302.209 271 304 272.791 304 275V408H272V275Z" fill="#3A97A4"/>
<path d="M323 208C323 205.791 324.791 204 327 204H351C353.209 204 355 205.791 355 208V408H323V208Z" fill="#3A97A4"/>
<path d="M374 98C374 95.7909 375.791 94 378 94H402C404.209 94 406 95.7909 406 98V408H374V98Z" fill="#3A97A4"/>
<path d="M425 202C425 199.791 426.791 198 429 198H453C455.209 198 457 199.791 457 202V408H425V202Z" fill="#3A97A4"/>
<path d="M476 158C476 155.791 477.791 154 480 154H504C506.209 154 508 155.791 508 158V408H476V158Z" fill="#3A97A4"/>
<path d="M527 227C527 224.791 528.791 223 531 223H555C557.209 223 559 224.791 559 227V408H527V227Z" fill="#3A97A4"/>
<path d="M578 256C578 253.791 579.791 252 582 252H606C608.209 252 610 253.791 610 256V408H578V256Z" fill="#3A97A4"/>
</g>
<path d="M119 263C119 260.791 120.791 259 123 259H147C149.209 259 151 260.791 151 263V408H119V263Z" fill="#3A97A4"/>
<path d="M170 302C170 299.791 171.791 298 174 298H198C200.209 298 202 299.791 202 302V408H170V302Z" fill="#3A97A4"/>
<path d="M221 263C221 260.791 222.791 259 225 259H249C251.209 259 253 260.791 253 263V408H221V263Z" fill="#3A97A4"/>
<path d="M272 322C272 319.791 273.791 318 276 318H300C302.209 318 304 319.791 304 322V408H272V322Z" fill="#3A97A4"/>
<path d="M323 275C323 272.791 324.791 271 327 271H351C353.209 271 355 272.791 355 275V408H323V275Z" fill="#3A97A4"/>
<path d="M374 330C374 327.791 375.791 326 378 326H402C404.209 326 406 327.791 406 330V408H374V330Z" fill="#3A97A4"/>
<path d="M425 353C425 350.791 426.791 349 429 349H453C455.209 349 457 350.791 457 353V408H425V353Z" fill="#3A97A4"/>
<path d="M476 249C476 246.791 477.791 245 480 245H504C506.209 245 508 246.791 508 249V408H476V249Z" fill="#3A97A4"/>
<path d="M527 360C527 357.791 528.791 356 531 356H555C557.209 356 559 357.791 559 360V408H527V360Z" fill="#3A97A4"/>
<path d="M578 360C578 357.791 579.791 356 582 356H606C608.209 356 610 357.791 610 360V408H578V360Z" fill="#3A97A4"/>
<path d="M37.1477 50V38.3636H39.2557V43.2898H44.6477V38.3636H46.7614V50H44.6477V45.0568H39.2557V50H37.1477ZM52.8267 50.1705C51.9517 50.1705 51.196 49.9886 50.5597 49.625C49.9271 49.2576 49.4403 48.7386 49.0994 48.0682C48.7585 47.3939 48.5881 46.6004 48.5881 45.6875C48.5881 44.7898 48.7585 44.0019 49.0994 43.3239C49.4441 42.642 49.9252 42.1117 50.5426 41.733C51.16 41.3504 51.8854 41.1591 52.7188 41.1591C53.2566 41.1591 53.7642 41.2462 54.2415 41.4205C54.7225 41.5909 55.1468 41.8561 55.5142 42.2159C55.8854 42.5758 56.1771 43.0341 56.3892 43.5909C56.6013 44.1439 56.7074 44.803 56.7074 45.5682V46.1989H49.554V44.8125H54.7358C54.732 44.4186 54.6468 44.0682 54.4801 43.7614C54.3134 43.4508 54.0805 43.2064 53.7812 43.0284C53.4858 42.8504 53.1411 42.7614 52.7472 42.7614C52.3267 42.7614 51.9574 42.8636 51.6392 43.0682C51.321 43.2689 51.0729 43.5341 50.8949 43.8636C50.7206 44.1894 50.6316 44.5473 50.6278 44.9375V46.1477C50.6278 46.6553 50.7206 47.0909 50.9062 47.4545C51.0919 47.8144 51.3513 48.0909 51.6847 48.2841C52.018 48.4735 52.4081 48.5682 52.8551 48.5682C53.1544 48.5682 53.4252 48.5265 53.6676 48.4432C53.91 48.3561 54.1203 48.2292 54.2983 48.0625C54.4763 47.8958 54.6108 47.6894 54.7017 47.4432L56.6222 47.6591C56.5009 48.1667 56.2699 48.6098 55.929 48.9886C55.5919 49.3636 55.16 49.6553 54.6335 49.8636C54.107 50.0682 53.5047 50.1705 52.8267 50.1705ZM60.9588 50.1761C60.4058 50.1761 59.9077 50.0777 59.4645 49.8807C59.0251 49.6799 58.6766 49.3845 58.419 48.9943C58.1652 48.6042 58.0384 48.1231 58.0384 47.5511C58.0384 47.0587 58.1293 46.6515 58.3111 46.3295C58.4929 46.0076 58.741 45.75 59.0554 45.5568C59.3698 45.3636 59.724 45.2178 60.1179 45.1193C60.5156 45.017 60.9266 44.9432 61.3509 44.8977C61.8622 44.8447 62.277 44.7973 62.5952 44.7557C62.9134 44.7102 63.1444 44.642 63.2884 44.5511C63.4361 44.4564 63.5099 44.3106 63.5099 44.1136V44.0795C63.5099 43.6515 63.383 43.3201 63.1293 43.0852C62.8755 42.8504 62.5099 42.733 62.0327 42.733C61.5289 42.733 61.1293 42.8428 60.8338 43.0625C60.5421 43.2822 60.3452 43.5417 60.2429 43.8409L58.3224 43.5682C58.474 43.0379 58.724 42.5947 59.0724 42.2386C59.4209 41.8788 59.8471 41.6098 60.3509 41.4318C60.8546 41.25 61.4115 41.1591 62.0213 41.1591C62.4418 41.1591 62.8603 41.2083 63.277 41.3068C63.6937 41.4053 64.0743 41.5682 64.419 41.7955C64.7637 42.0189 65.0402 42.3239 65.2486 42.7102C65.4607 43.0966 65.5668 43.5795 65.5668 44.1591V50H63.5895V48.8011H63.5213C63.3963 49.0436 63.2202 49.2708 62.9929 49.483C62.7694 49.6913 62.4872 49.8598 62.1463 49.9886C61.8092 50.1136 61.4134 50.1761 60.9588 50.1761ZM61.4929 48.6648C61.9058 48.6648 62.2637 48.5833 62.5668 48.4205C62.8698 48.2538 63.1027 48.0341 63.2656 47.7614C63.4323 47.4886 63.5156 47.1913 63.5156 46.8693V45.8409C63.4512 45.8939 63.3414 45.9432 63.1861 45.9886C63.0346 46.0341 62.8641 46.0739 62.6747 46.108C62.4853 46.142 62.2978 46.1723 62.1122 46.1989C61.9266 46.2254 61.7656 46.2481 61.6293 46.267C61.3224 46.3087 61.0478 46.3769 60.8054 46.4716C60.563 46.5663 60.3717 46.6989 60.2315 46.8693C60.0914 47.036 60.0213 47.2519 60.0213 47.517C60.0213 47.8958 60.1596 48.1818 60.4361 48.375C60.7126 48.5682 61.0649 48.6648 61.4929 48.6648ZM70.8736 50.1534C70.188 50.1534 69.5743 49.9773 69.0327 49.625C68.491 49.2727 68.063 48.7614 67.7486 48.0909C67.4342 47.4205 67.277 46.6061 67.277 45.6477C67.277 44.678 67.4361 43.8598 67.7543 43.1932C68.0762 42.5227 68.5099 42.017 69.0554 41.6761C69.6009 41.3314 70.2088 41.1591 70.8793 41.1591C71.3906 41.1591 71.8111 41.2462 72.1406 41.4205C72.4702 41.5909 72.7315 41.7973 72.9247 42.0398C73.1179 42.2784 73.2675 42.5038 73.3736 42.7159H73.4588V38.3636H75.5213V50H73.4986V48.625H73.3736C73.2675 48.8371 73.1141 49.0625 72.9134 49.3011C72.7126 49.536 72.4474 49.7367 72.1179 49.9034C71.7884 50.0701 71.3736 50.1534 70.8736 50.1534ZM71.4474 48.4659C71.883 48.4659 72.2543 48.3485 72.5611 48.1136C72.8679 47.875 73.1009 47.5436 73.2599 47.1193C73.419 46.6951 73.4986 46.2008 73.4986 45.6364C73.4986 45.072 73.419 44.5814 73.2599 44.1648C73.1046 43.7481 72.8736 43.4242 72.5668 43.1932C72.2637 42.9621 71.8906 42.8466 71.4474 42.8466C70.9891 42.8466 70.6065 42.9659 70.2997 43.2045C69.9929 43.4432 69.7618 43.7727 69.6065 44.1932C69.4512 44.6136 69.3736 45.0947 69.3736 45.6364C69.3736 46.1818 69.4512 46.6686 69.6065 47.0966C69.7656 47.5208 69.9986 47.8561 70.3054 48.1023C70.616 48.3447 70.9967 48.4659 71.4474 48.4659ZM80.2244 50.1761C79.6714 50.1761 79.1733 50.0777 78.7301 49.8807C78.2907 49.6799 77.9422 49.3845 77.6847 48.9943C77.4309 48.6042 77.304 48.1231 77.304 47.5511C77.304 47.0587 77.3949 46.6515 77.5767 46.3295C77.7585 46.0076 78.0066 45.75 78.321 45.5568C78.6354 45.3636 78.9896 45.2178 79.3835 45.1193C79.7813 45.017 80.1922 44.9432 80.6165 44.8977C81.1278 44.8447 81.5426 44.7973 81.8608 44.7557C82.179 44.7102 82.41 44.642 82.554 44.5511C82.7017 44.4564 82.7756 44.3106 82.7756 44.1136V44.0795C82.7756 43.6515 82.6487 43.3201 82.3949 43.0852C82.1411 42.8504 81.7756 42.733 81.2983 42.733C80.7945 42.733 80.3949 42.8428 80.0994 43.0625C79.8078 43.2822 79.6108 43.5417 79.5085 43.8409L77.5881 43.5682C77.7396 43.0379 77.9896 42.5947 78.3381 42.2386C78.6866 41.8788 79.1127 41.6098 79.6165 41.4318C80.1203 41.25 80.6771 41.1591 81.2869 41.1591C81.7074 41.1591 82.1259 41.2083 82.5426 41.3068C82.9593 41.4053 83.34 41.5682 83.6847 41.7955C84.0294 42.0189 84.3059 42.3239 84.5142 42.7102C84.7263 43.0966 84.8324 43.5795 84.8324 44.1591V50H82.8551V48.8011H82.7869C82.6619 49.0436 82.4858 49.2708 82.2585 49.483C82.035 49.6913 81.7528 49.8598 81.4119 49.9886C81.0748 50.1136 80.679 50.1761 80.2244 50.1761ZM80.7585 48.6648C81.1714 48.6648 81.5294 48.5833 81.8324 48.4205C82.1354 48.2538 82.3684 48.0341 82.5312 47.7614C82.6979 47.4886 82.7812 47.1913 82.7812 46.8693V45.8409C82.7169 45.8939 82.607 45.9432 82.4517 45.9886C82.3002 46.0341 82.1297 46.0739 81.9403 46.108C81.7509 46.142 81.5634 46.1723 81.3778 46.1989C81.1922 46.2254 81.0313 46.2481 80.8949 46.267C80.5881 46.3087 80.3134 46.3769 80.071 46.4716C79.8286 46.5663 79.6373 46.6989 79.4972 46.8693C79.357 47.036 79.2869 47.2519 79.2869 47.517C79.2869 47.8958 79.4252 48.1818 79.7017 48.375C79.9782 48.5682 80.3305 48.6648 80.7585 48.6648ZM90.7074 50.1705C89.8362 50.1705 89.0881 49.9792 88.4631 49.5966C87.8419 49.214 87.3627 48.6856 87.0256 48.0114C86.6922 47.3333 86.5256 46.553 86.5256 45.6705C86.5256 44.7841 86.696 44.0019 87.0369 43.3239C87.3778 42.642 87.8589 42.1117 88.4801 41.733C89.1051 41.3504 89.8438 41.1591 90.696 41.1591C91.4044 41.1591 92.0313 41.2898 92.5767 41.5511C93.1259 41.8087 93.5634 42.1742 93.8892 42.6477C94.215 43.1174 94.4006 43.6667 94.446 44.2955H92.4801C92.4006 43.875 92.2112 43.5246 91.9119 43.2443C91.6165 42.9602 91.2206 42.8182 90.7244 42.8182C90.304 42.8182 89.9347 42.9318 89.6165 43.1591C89.2983 43.3826 89.0502 43.7045 88.8722 44.125C88.6979 44.5455 88.6108 45.0492 88.6108 45.6364C88.6108 46.2311 88.6979 46.7424 88.8722 47.1705C89.0464 47.5947 89.2907 47.9223 89.6051 48.1534C89.9233 48.3807 90.2964 48.4943 90.7244 48.4943C91.0275 48.4943 91.2983 48.4375 91.5369 48.3239C91.7794 48.2064 91.982 48.0379 92.1449 47.8182C92.3078 47.5985 92.4195 47.3314 92.4801 47.017H94.446C94.3968 47.6345 94.215 48.1818 93.9006 48.6591C93.5862 49.1326 93.1581 49.5038 92.6165 49.7727C92.0748 50.0379 91.4384 50.1705 90.7074 50.1705ZM98.1918 44.8864V50H96.1349V38.3636H98.1463V42.7557H98.2486C98.4531 42.2633 98.7694 41.875 99.1974 41.5909C99.6293 41.303 100.179 41.1591 100.845 41.1591C101.451 41.1591 101.98 41.286 102.43 41.5398C102.881 41.7936 103.23 42.1648 103.476 42.6534C103.726 43.142 103.851 43.7386 103.851 44.4432V50H101.794V44.7614C101.794 44.1742 101.643 43.7178 101.339 43.392C101.04 43.0625 100.62 42.8977 100.078 42.8977C99.7145 42.8977 99.3887 42.9773 99.1009 43.1364C98.8168 43.2917 98.5933 43.517 98.4304 43.8125C98.2713 44.108 98.1918 44.4659 98.1918 44.8864ZM109.811 50.1705C108.936 50.1705 108.18 49.9886 107.544 49.625C106.911 49.2576 106.425 48.7386 106.084 48.0682C105.743 47.3939 105.572 46.6004 105.572 45.6875C105.572 44.7898 105.743 44.0019 106.084 43.3239C106.429 42.642 106.91 42.1117 107.527 41.733C108.144 41.3504 108.87 41.1591 109.703 41.1591C110.241 41.1591 110.749 41.2462 111.226 41.4205C111.707 41.5909 112.131 41.8561 112.499 42.2159C112.87 42.5758 113.161 43.0341 113.374 43.5909C113.586 44.1439 113.692 44.803 113.692 45.5682V46.1989H106.538V44.8125H111.72C111.716 44.4186 111.631 44.0682 111.464 43.7614C111.298 43.4508 111.065 43.2064 110.766 43.0284C110.47 42.8504 110.125 42.7614 109.732 42.7614C109.311 42.7614 108.942 42.8636 108.624 43.0682C108.305 43.2689 108.057 43.5341 107.879 43.8636C107.705 44.1894 107.616 44.5473 107.612 44.9375V46.1477C107.612 46.6553 107.705 47.0909 107.891 47.4545C108.076 47.8144 108.336 48.0909 108.669 48.2841C109.002 48.4735 109.393 48.5682 109.839 48.5682C110.139 48.5682 110.41 48.5265 110.652 48.4432C110.894 48.3561 111.105 48.2292 111.283 48.0625C111.461 47.8958 111.595 47.6894 111.686 47.4432L113.607 47.6591C113.485 48.1667 113.254 48.6098 112.913 48.9886C112.576 49.3636 112.144 49.6553 111.618 49.8636C111.091 50.0682 110.489 50.1705 109.811 50.1705ZM122.33 43.5795L120.455 43.7841C120.402 43.5947 120.309 43.4167 120.176 43.25C120.047 43.0833 119.873 42.9489 119.653 42.8466C119.434 42.7443 119.165 42.6932 118.847 42.6932C118.419 42.6932 118.059 42.786 117.767 42.9716C117.479 43.1572 117.337 43.3977 117.341 43.6932C117.337 43.947 117.43 44.1534 117.619 44.3125C117.813 44.4716 118.131 44.6023 118.574 44.7045L120.062 45.0227C120.888 45.2008 121.502 45.483 121.903 45.8693C122.309 46.2557 122.513 46.7614 122.517 47.3864C122.513 47.9356 122.352 48.4205 122.034 48.8409C121.72 49.2576 121.282 49.5833 120.722 49.8182C120.161 50.053 119.517 50.1705 118.79 50.1705C117.722 50.1705 116.862 49.947 116.21 49.5C115.559 49.0492 115.17 48.4223 115.045 47.6193L117.051 47.4261C117.142 47.8201 117.335 48.1174 117.631 48.3182C117.926 48.5189 118.311 48.6193 118.784 48.6193C119.273 48.6193 119.665 48.5189 119.96 48.3182C120.259 48.1174 120.409 47.8693 120.409 47.5739C120.409 47.3239 120.313 47.1174 120.119 46.9545C119.93 46.7917 119.634 46.6667 119.233 46.5795L117.744 46.267C116.907 46.0928 116.288 45.7992 115.886 45.3864C115.485 44.9697 115.286 44.4432 115.29 43.8068C115.286 43.2689 115.432 42.803 115.727 42.4091C116.027 42.0114 116.441 41.7045 116.972 41.4886C117.506 41.2689 118.121 41.1591 118.818 41.1591C119.841 41.1591 120.646 41.3769 121.233 41.8125C121.824 42.2481 122.189 42.8371 122.33 43.5795Z" fill="#3A97A4"/>
</g>
<rect x="12.5" y="8.5" width="608" height="447" rx="7.5" stroke="#E0E0E0"/>
</g>
<defs>
<filter id="filter0_d_69_638" x="0" y="0" width="633" height="472" filterUnits="userSpaceOnUse" color-interpolation-filters="sRGB">
<feFlood flood-opacity="0" result="BackgroundImageFix"/>
<feColorMatrix in="SourceAlpha" type="matrix" values="0 0 0 0 0 0 0 0 0 0 0 0 0 0 0 0 0 0 127 0" result="hardAlpha"/>
<feOffset dy="4"/>
<feGaussianBlur stdDeviation="6"/>
<feComposite in2="hardAlpha" operator="out"/>
<feColorMatrix type="matrix" values="0 0 0 0 0 0 0 0 0 0 0 0 0 0 0 0 0 0 0.04 0"/>
<feBlend mode="normal" in2="BackgroundImageFix" result="effect1_dropShadow_69_638"/>
<feBlend mode="normal" in="SourceGraphic" in2="effect1_dropShadow_69_638" result="shape"/>
</filter>
<clipPath id="clip0_69_638">
<rect x="12" y="8" width="609" height="448" rx="8" fill="white"/>
</clipPath>
</defs>
</svg>
