<svg width="429" height="196" viewBox="0 0 429 196" fill="none" xmlns="http://www.w3.org/2000/svg">
<g filter="url(#filter0_d_23_981)">
<rect x="12" y="8" width="405" height="172" rx="8" fill="white"/>
<rect x="12.5" y="8.5" width="404" height="171" rx="7.5" stroke="#E0E0E0"/>
<path d="M43.4716 41.5625C43.4186 41.0663 43.1951 40.6799 42.8011 40.4034C42.411 40.1269 41.9034 39.9886 41.2784 39.9886C40.839 39.9886 40.4621 40.0549 40.1477 40.1875C39.8333 40.3201 39.5928 40.5 39.4261 40.7273C39.2595 40.9545 39.1742 41.214 39.1705 41.5057C39.1705 41.7481 39.2254 41.9583 39.3352 42.1364C39.4489 42.3144 39.6023 42.4659 39.7955 42.5909C39.9886 42.7121 40.2027 42.8144 40.4375 42.8977C40.6723 42.9811 40.9091 43.0511 41.1477 43.108L42.2386 43.3807C42.678 43.483 43.1004 43.6212 43.5057 43.7955C43.9148 43.9697 44.2803 44.1894 44.6023 44.4545C44.928 44.7197 45.1856 45.0398 45.375 45.4148C45.5644 45.7898 45.6591 46.2292 45.6591 46.733C45.6591 47.4148 45.4848 48.0152 45.1364 48.5341C44.7879 49.0492 44.2841 49.4527 43.625 49.7443C42.9697 50.0322 42.1761 50.1761 41.2443 50.1761C40.339 50.1761 39.553 50.036 38.8864 49.7557C38.2235 49.4754 37.7045 49.0663 37.3295 48.5284C36.9583 47.9905 36.7576 47.3352 36.7273 46.5625H38.8011C38.8314 46.9678 38.9564 47.3049 39.1761 47.5739C39.3958 47.8428 39.6818 48.0436 40.0341 48.1761C40.3902 48.3087 40.7879 48.375 41.2273 48.375C41.6856 48.375 42.0871 48.3068 42.4318 48.1705C42.7803 48.0303 43.053 47.8371 43.25 47.5909C43.447 47.3409 43.5473 47.0492 43.5511 46.7159C43.5473 46.4129 43.4583 46.1629 43.2841 45.9659C43.1098 45.7652 42.8655 45.5985 42.5511 45.4659C42.2405 45.3295 41.8769 45.2083 41.4602 45.1023L40.1364 44.7614C39.178 44.5152 38.4205 44.142 37.8636 43.642C37.3106 43.1383 37.0341 42.4697 37.0341 41.6364C37.0341 40.9508 37.2197 40.3504 37.5909 39.8352C37.9659 39.3201 38.4754 38.9205 39.1193 38.6364C39.7633 38.3485 40.4924 38.2045 41.3068 38.2045C42.1326 38.2045 42.8561 38.3485 43.4773 38.6364C44.1023 38.9205 44.5928 39.3163 44.9489 39.8239C45.3049 40.3277 45.4886 40.9072 45.5 41.5625H43.4716ZM49.9588 50.1761C49.4058 50.1761 48.9077 50.0777 48.4645 49.8807C48.0251 49.6799 47.6766 49.3845 47.419 48.9943C47.1652 48.6042 47.0384 48.1231 47.0384 47.5511C47.0384 47.0587 47.1293 46.6515 47.3111 46.3295C47.4929 46.0076 47.741 45.75 48.0554 45.5568C48.3698 45.3636 48.724 45.2178 49.1179 45.1193C49.5156 45.017 49.9266 44.9432 50.3509 44.8977C50.8622 44.8447 51.277 44.7973 51.5952 44.7557C51.9134 44.7102 52.1444 44.642 52.2884 44.5511C52.4361 44.4564 52.5099 44.3106 52.5099 44.1136V44.0795C52.5099 43.6515 52.383 43.3201 52.1293 43.0852C51.8755 42.8504 51.5099 42.733 51.0327 42.733C50.5289 42.733 50.1293 42.8428 49.8338 43.0625C49.5421 43.2822 49.3452 43.5417 49.2429 43.8409L47.3224 43.5682C47.474 43.0379 47.724 42.5947 48.0724 42.2386C48.4209 41.8788 48.8471 41.6098 49.3509 41.4318C49.8546 41.25 50.4115 41.1591 51.0213 41.1591C51.4418 41.1591 51.8603 41.2083 52.277 41.3068C52.6937 41.4053 53.0743 41.5682 53.419 41.7955C53.7637 42.0189 54.0402 42.3239 54.2486 42.7102C54.4607 43.0966 54.5668 43.5795 54.5668 44.1591V50H52.5895V48.8011H52.5213C52.3963 49.0436 52.2202 49.2708 51.9929 49.483C51.7694 49.6913 51.4872 49.8598 51.1463 49.9886C50.8092 50.1136 50.4134 50.1761 49.9588 50.1761ZM50.4929 48.6648C50.9058 48.6648 51.2637 48.5833 51.5668 48.4205C51.8698 48.2538 52.1027 48.0341 52.2656 47.7614C52.4323 47.4886 52.5156 47.1913 52.5156 46.8693V45.8409C52.4512 45.8939 52.3414 45.9432 52.1861 45.9886C52.0346 46.0341 51.8641 46.0739 51.6747 46.108C51.4853 46.142 51.2978 46.1723 51.1122 46.1989C50.9266 46.2254 50.7656 46.2481 50.6293 46.267C50.3224 46.3087 50.0478 46.3769 49.8054 46.4716C49.563 46.5663 49.3717 46.6989 49.2315 46.8693C49.0914 47.036 49.0213 47.2519 49.0213 47.517C49.0213 47.8958 49.1596 48.1818 49.4361 48.375C49.7126 48.5682 50.0649 48.6648 50.4929 48.6648ZM56.6349 50V41.2727H58.6009V42.7557H58.7031C58.8849 42.2557 59.1861 41.8655 59.6065 41.5852C60.027 41.3011 60.5289 41.1591 61.1122 41.1591C61.7031 41.1591 62.2012 41.303 62.6065 41.5909C63.0156 41.875 63.3035 42.2633 63.4702 42.7557H63.5611C63.7543 42.2708 64.08 41.8845 64.5384 41.5966C65.0005 41.3049 65.5478 41.1591 66.1804 41.1591C66.9834 41.1591 67.6387 41.4129 68.1463 41.9205C68.6539 42.428 68.9077 43.1686 68.9077 44.142V50H66.8452V44.4602C66.8452 43.9186 66.7012 43.5227 66.4134 43.2727C66.1255 43.0189 65.7732 42.892 65.3565 42.892C64.8603 42.892 64.4721 43.0473 64.1918 43.358C63.9152 43.6648 63.777 44.0644 63.777 44.5568V50H61.7599V44.375C61.7599 43.9242 61.6236 43.5644 61.3509 43.2955C61.0819 43.0265 60.7296 42.892 60.294 42.892C59.9986 42.892 59.7296 42.9678 59.4872 43.1193C59.2448 43.267 59.0516 43.4773 58.9077 43.75C58.7637 44.0189 58.6918 44.3333 58.6918 44.6932V50H56.6349ZM74.858 50.1705C73.983 50.1705 73.2273 49.9886 72.5909 49.625C71.9583 49.2576 71.4716 48.7386 71.1307 48.0682C70.7898 47.3939 70.6193 46.6004 70.6193 45.6875C70.6193 44.7898 70.7898 44.0019 71.1307 43.3239C71.4754 42.642 71.9564 42.1117 72.5739 41.733C73.1913 41.3504 73.9167 41.1591 74.75 41.1591C75.2879 41.1591 75.7955 41.2462 76.2727 41.4205C76.7538 41.5909 77.178 41.8561 77.5455 42.2159C77.9167 42.5758 78.2083 43.0341 78.4205 43.5909C78.6326 44.1439 78.7386 44.803 78.7386 45.5682V46.1989H71.5852V44.8125H76.767C76.7633 44.4186 76.678 44.0682 76.5114 43.7614C76.3447 43.4508 76.1117 43.2064 75.8125 43.0284C75.517 42.8504 75.1723 42.7614 74.7784 42.7614C74.358 42.7614 73.9886 42.8636 73.6705 43.0682C73.3523 43.2689 73.1042 43.5341 72.9261 43.8636C72.7519 44.1894 72.6629 44.5473 72.6591 44.9375V46.1477C72.6591 46.6553 72.7519 47.0909 72.9375 47.4545C73.1231 47.8144 73.3826 48.0909 73.7159 48.2841C74.0492 48.4735 74.4394 48.5682 74.8864 48.5682C75.1856 48.5682 75.4564 48.5265 75.6989 48.4432C75.9413 48.3561 76.1515 48.2292 76.3295 48.0625C76.5076 47.8958 76.642 47.6894 76.733 47.4432L78.6534 47.6591C78.5322 48.1667 78.3011 48.6098 77.9602 48.9886C77.6231 49.3636 77.1913 49.6553 76.6648 49.8636C76.1383 50.0682 75.536 50.1705 74.858 50.1705ZM86.9588 50.1761C86.4058 50.1761 85.9077 50.0777 85.4645 49.8807C85.0251 49.6799 84.6766 49.3845 84.419 48.9943C84.1652 48.6042 84.0384 48.1231 84.0384 47.5511C84.0384 47.0587 84.1293 46.6515 84.3111 46.3295C84.4929 46.0076 84.741 45.75 85.0554 45.5568C85.3698 45.3636 85.724 45.2178 86.1179 45.1193C86.5156 45.017 86.9266 44.9432 87.3509 44.8977C87.8622 44.8447 88.277 44.7973 88.5952 44.7557C88.9134 44.7102 89.1444 44.642 89.2884 44.5511C89.4361 44.4564 89.5099 44.3106 89.5099 44.1136V44.0795C89.5099 43.6515 89.383 43.3201 89.1293 43.0852C88.8755 42.8504 88.5099 42.733 88.0327 42.733C87.5289 42.733 87.1293 42.8428 86.8338 43.0625C86.5421 43.2822 86.3452 43.5417 86.2429 43.8409L84.3224 43.5682C84.474 43.0379 84.724 42.5947 85.0724 42.2386C85.4209 41.8788 85.8471 41.6098 86.3509 41.4318C86.8546 41.25 87.4115 41.1591 88.0213 41.1591C88.4418 41.1591 88.8603 41.2083 89.277 41.3068C89.6937 41.4053 90.0743 41.5682 90.419 41.7955C90.7637 42.0189 91.0402 42.3239 91.2486 42.7102C91.4607 43.0966 91.5668 43.5795 91.5668 44.1591V50H89.5895V48.8011H89.5213C89.3963 49.0436 89.2202 49.2708 88.9929 49.483C88.7694 49.6913 88.4872 49.8598 88.1463 49.9886C87.8092 50.1136 87.4134 50.1761 86.9588 50.1761ZM87.4929 48.6648C87.9058 48.6648 88.2637 48.5833 88.5668 48.4205C88.8698 48.2538 89.1027 48.0341 89.2656 47.7614C89.4323 47.4886 89.5156 47.1913 89.5156 46.8693V45.8409C89.4512 45.8939 89.3414 45.9432 89.1861 45.9886C89.0346 46.0341 88.8641 46.0739 88.6747 46.108C88.4853 46.142 88.2978 46.1723 88.1122 46.1989C87.9266 46.2254 87.7656 46.2481 87.6293 46.267C87.3224 46.3087 87.0478 46.3769 86.8054 46.4716C86.563 46.5663 86.3717 46.6989 86.2315 46.8693C86.0914 47.036 86.0213 47.2519 86.0213 47.517C86.0213 47.8958 86.1596 48.1818 86.4361 48.375C86.7126 48.5682 87.0649 48.6648 87.4929 48.6648ZM100.533 43.5795L98.6577 43.7841C98.6046 43.5947 98.5118 43.4167 98.3793 43.25C98.2505 43.0833 98.0762 42.9489 97.8565 42.8466C97.6368 42.7443 97.3679 42.6932 97.0497 42.6932C96.6217 42.6932 96.2618 42.786 95.9702 42.9716C95.6823 43.1572 95.5402 43.3977 95.544 43.6932C95.5402 43.947 95.633 44.1534 95.8224 44.3125C96.0156 44.4716 96.3338 44.6023 96.777 44.7045L98.2656 45.0227C99.0914 45.2008 99.705 45.483 100.107 45.8693C100.512 46.2557 100.716 46.7614 100.72 47.3864C100.716 47.9356 100.555 48.4205 100.237 48.8409C99.9228 49.2576 99.4853 49.5833 98.9247 49.8182C98.3641 50.053 97.7202 50.1705 96.9929 50.1705C95.9247 50.1705 95.0649 49.947 94.4134 49.5C93.7618 49.0492 93.3736 48.4223 93.2486 47.6193L95.2543 47.4261C95.3452 47.8201 95.5384 48.1174 95.8338 48.3182C96.1293 48.5189 96.5137 48.6193 96.9872 48.6193C97.4759 48.6193 97.8679 48.5189 98.1634 48.3182C98.4626 48.1174 98.6122 47.8693 98.6122 47.5739C98.6122 47.3239 98.5156 47.1174 98.3224 46.9545C98.133 46.7917 97.8376 46.6667 97.4361 46.5795L95.9474 46.267C95.1103 46.0928 94.491 45.7992 94.0895 45.3864C93.688 44.9697 93.4891 44.4432 93.4929 43.8068C93.4891 43.2689 93.6349 42.803 93.9304 42.4091C94.2296 42.0114 94.6444 41.7045 95.1747 41.4886C95.7088 41.2689 96.3243 41.1591 97.0213 41.1591C98.044 41.1591 98.849 41.3769 99.4361 41.8125C100.027 42.2481 100.393 42.8371 100.533 43.5795ZM106.385 53.2727V41.2727H108.408V42.7159H108.527C108.633 42.5038 108.783 42.2784 108.976 42.0398C109.169 41.7973 109.43 41.5909 109.76 41.4205C110.089 41.2462 110.51 41.1591 111.021 41.1591C111.696 41.1591 112.304 41.3314 112.845 41.6761C113.391 42.017 113.822 42.5227 114.141 43.1932C114.463 43.8598 114.624 44.678 114.624 45.6477C114.624 46.6061 114.466 47.4205 114.152 48.0909C113.838 48.7614 113.41 49.2727 112.868 49.625C112.326 49.9773 111.713 50.1534 111.027 50.1534C110.527 50.1534 110.112 50.0701 109.783 49.9034C109.453 49.7367 109.188 49.536 108.987 49.3011C108.79 49.0625 108.637 48.8371 108.527 48.625H108.442V53.2727H106.385ZM108.402 45.6364C108.402 46.2008 108.482 46.6951 108.641 47.1193C108.804 47.5436 109.036 47.875 109.339 48.1136C109.646 48.3485 110.018 48.4659 110.453 48.4659C110.908 48.4659 111.288 48.3447 111.595 48.1023C111.902 47.8561 112.133 47.5208 112.288 47.0966C112.447 46.6686 112.527 46.1818 112.527 45.6364C112.527 45.0947 112.449 44.6136 112.294 44.1932C112.139 43.7727 111.908 43.4432 111.601 43.2045C111.294 42.9659 110.911 42.8466 110.453 42.8466C110.014 42.8466 109.641 42.9621 109.334 43.1932C109.027 43.4242 108.794 43.7481 108.635 44.1648C108.48 44.5814 108.402 45.072 108.402 45.6364ZM118.896 50.1761C118.343 50.1761 117.845 50.0777 117.402 49.8807C116.963 49.6799 116.614 49.3845 116.357 48.9943C116.103 48.6042 115.976 48.1231 115.976 47.5511C115.976 47.0587 116.067 46.6515 116.249 46.3295C116.43 46.0076 116.679 45.75 116.993 45.5568C117.307 45.3636 117.661 45.2178 118.055 45.1193C118.453 45.017 118.864 44.9432 119.288 44.8977C119.8 44.8447 120.214 44.7973 120.533 44.7557C120.851 44.7102 121.082 44.642 121.226 44.5511C121.374 44.4564 121.447 44.3106 121.447 44.1136V44.0795C121.447 43.6515 121.321 43.3201 121.067 43.0852C120.813 42.8504 120.447 42.733 119.97 42.733C119.466 42.733 119.067 42.8428 118.771 43.0625C118.48 43.2822 118.283 43.5417 118.18 43.8409L116.26 43.5682C116.411 43.0379 116.661 42.5947 117.01 42.2386C117.358 41.8788 117.785 41.6098 118.288 41.4318C118.792 41.25 119.349 41.1591 119.959 41.1591C120.379 41.1591 120.798 41.2083 121.214 41.3068C121.631 41.4053 122.012 41.5682 122.357 41.7955C122.701 42.0189 122.978 42.3239 123.186 42.7102C123.398 43.0966 123.504 43.5795 123.504 44.1591V50H121.527V48.8011H121.459C121.334 49.0436 121.158 49.2708 120.93 49.483C120.707 49.6913 120.425 49.8598 120.084 49.9886C119.747 50.1136 119.351 50.1761 118.896 50.1761ZM119.43 48.6648C119.843 48.6648 120.201 48.5833 120.504 48.4205C120.807 48.2538 121.04 48.0341 121.203 47.7614C121.37 47.4886 121.453 47.1913 121.453 46.8693V45.8409C121.389 45.8939 121.279 45.9432 121.124 45.9886C120.972 46.0341 120.802 46.0739 120.612 46.108C120.423 46.142 120.235 46.1723 120.05 46.1989C119.864 46.2254 119.703 46.2481 119.567 46.267C119.26 46.3087 118.985 46.3769 118.743 46.4716C118.5 46.5663 118.309 46.6989 118.169 46.8693C118.029 47.036 117.959 47.2519 117.959 47.517C117.959 47.8958 118.097 48.1818 118.374 48.375C118.65 48.5682 119.002 48.6648 119.43 48.6648ZM132.47 43.5795L130.595 43.7841C130.542 43.5947 130.449 43.4167 130.317 43.25C130.188 43.0833 130.014 42.9489 129.794 42.8466C129.574 42.7443 129.305 42.6932 128.987 42.6932C128.559 42.6932 128.199 42.786 127.908 42.9716C127.62 43.1572 127.478 43.3977 127.482 43.6932C127.478 43.947 127.571 44.1534 127.76 44.3125C127.953 44.4716 128.271 44.6023 128.714 44.7045L130.203 45.0227C131.029 45.2008 131.643 45.483 132.044 45.8693C132.449 46.2557 132.654 46.7614 132.658 47.3864C132.654 47.9356 132.493 48.4205 132.175 48.8409C131.86 49.2576 131.423 49.5833 130.862 49.8182C130.302 50.053 129.658 50.1705 128.93 50.1705C127.862 50.1705 127.002 49.947 126.351 49.5C125.699 49.0492 125.311 48.4223 125.186 47.6193L127.192 47.4261C127.283 47.8201 127.476 48.1174 127.771 48.3182C128.067 48.5189 128.451 48.6193 128.925 48.6193C129.413 48.6193 129.805 48.5189 130.101 48.3182C130.4 48.1174 130.55 47.8693 130.55 47.5739C130.55 47.3239 130.453 47.1174 130.26 46.9545C130.071 46.7917 129.775 46.6667 129.374 46.5795L127.885 46.267C127.048 46.0928 126.429 45.7992 126.027 45.3864C125.625 44.9697 125.427 44.4432 125.43 43.8068C125.427 43.2689 125.572 42.803 125.868 42.4091C126.167 42.0114 126.582 41.7045 127.112 41.4886C127.646 41.2689 128.262 41.1591 128.959 41.1591C129.982 41.1591 130.786 41.3769 131.374 41.8125C131.964 42.2481 132.33 42.8371 132.47 43.5795ZM138.712 41.2727V42.8636H133.695V41.2727H138.712ZM134.933 39.1818H136.99V47.375C136.99 47.6515 137.032 47.8636 137.115 48.0114C137.202 48.1553 137.316 48.2538 137.456 48.3068C137.596 48.3598 137.751 48.3864 137.922 48.3864C138.051 48.3864 138.168 48.3769 138.274 48.358C138.384 48.339 138.467 48.322 138.524 48.3068L138.871 49.9148C138.761 49.9527 138.604 49.9943 138.399 50.0398C138.198 50.0852 137.952 50.1117 137.661 50.1193C137.145 50.1345 136.681 50.0568 136.268 49.8864C135.856 49.7121 135.528 49.4432 135.286 49.0795C135.047 48.7159 134.929 48.2614 134.933 47.7159V39.1818ZM148.639 50.1591C148.082 50.1553 147.539 50.0587 147.009 49.8693C146.478 49.6761 146.001 49.3636 145.577 48.9318C145.152 48.4962 144.815 47.9186 144.565 47.1989C144.315 46.4754 144.192 45.5795 144.196 44.5114C144.196 43.5152 144.302 42.6269 144.514 41.8466C144.726 41.0663 145.031 40.4072 145.429 39.8693C145.827 39.3277 146.306 38.9148 146.866 38.6307C147.431 38.3466 148.062 38.2045 148.759 38.2045C149.49 38.2045 150.137 38.3485 150.702 38.6364C151.27 38.9242 151.728 39.3182 152.077 39.8182C152.425 40.3144 152.641 40.875 152.724 41.5H150.651C150.545 41.053 150.327 40.697 149.997 40.4318C149.671 40.1629 149.259 40.0284 148.759 40.0284C147.952 40.0284 147.33 40.3788 146.895 41.0795C146.463 41.7803 146.245 42.7424 146.241 43.9659H146.321C146.507 43.6326 146.747 43.3466 147.043 43.108C147.338 42.8693 147.671 42.6856 148.043 42.5568C148.418 42.4242 148.813 42.358 149.23 42.358C149.912 42.358 150.524 42.5208 151.065 42.8466C151.611 43.1723 152.043 43.6212 152.361 44.1932C152.679 44.7614 152.836 45.4129 152.832 46.1477C152.836 46.9129 152.662 47.6004 152.31 48.2102C151.957 48.8163 151.467 49.2936 150.838 49.642C150.209 49.9905 149.476 50.1629 148.639 50.1591ZM148.628 48.4545C149.041 48.4545 149.41 48.3542 149.736 48.1534C150.062 47.9527 150.319 47.6818 150.509 47.3409C150.698 47 150.791 46.6174 150.787 46.1932C150.791 45.7765 150.7 45.3996 150.514 45.0625C150.332 44.7254 150.08 44.4583 149.759 44.2614C149.437 44.0644 149.069 43.9659 148.656 43.9659C148.349 43.9659 148.063 44.0246 147.798 44.142C147.533 44.2595 147.302 44.4223 147.105 44.6307C146.908 44.8352 146.753 45.0739 146.639 45.3466C146.529 45.6155 146.473 45.9034 146.469 46.2102C146.473 46.6155 146.567 46.9886 146.753 47.3295C146.938 47.6705 147.194 47.9432 147.52 48.1477C147.846 48.3523 148.215 48.4545 148.628 48.4545ZM158.744 50V41.2727H160.71V42.7557H160.812C160.994 42.2557 161.295 41.8655 161.716 41.5852C162.136 41.3011 162.638 41.1591 163.222 41.1591C163.812 41.1591 164.311 41.303 164.716 41.5909C165.125 41.875 165.413 42.2633 165.58 42.7557H165.67C165.864 42.2708 166.189 41.8845 166.648 41.5966C167.11 41.3049 167.657 41.1591 168.29 41.1591C169.093 41.1591 169.748 41.4129 170.256 41.9205C170.763 42.428 171.017 43.1686 171.017 44.142V50H168.955V44.4602C168.955 43.9186 168.811 43.5227 168.523 43.2727C168.235 43.0189 167.883 42.892 167.466 42.892C166.97 42.892 166.581 43.0473 166.301 43.358C166.025 43.6648 165.886 44.0644 165.886 44.5568V50H163.869V44.375C163.869 43.9242 163.733 43.5644 163.46 43.2955C163.191 43.0265 162.839 42.892 162.403 42.892C162.108 42.892 161.839 42.9678 161.597 43.1193C161.354 43.267 161.161 43.4773 161.017 43.75C160.873 44.0189 160.801 44.3333 160.801 44.6932V50H158.744ZM176.911 50.1705C176.058 50.1705 175.32 49.983 174.695 49.608C174.07 49.233 173.585 48.7083 173.24 48.0341C172.899 47.3598 172.729 46.572 172.729 45.6705C172.729 44.7689 172.899 43.9792 173.24 43.3011C173.585 42.6231 174.07 42.0966 174.695 41.7216C175.32 41.3466 176.058 41.1591 176.911 41.1591C177.763 41.1591 178.501 41.3466 179.126 41.7216C179.751 42.0966 180.234 42.6231 180.575 43.3011C180.92 43.9792 181.092 44.7689 181.092 45.6705C181.092 46.572 180.92 47.3598 180.575 48.0341C180.234 48.7083 179.751 49.233 179.126 49.608C178.501 49.983 177.763 50.1705 176.911 50.1705ZM176.922 48.5227C177.384 48.5227 177.77 48.3958 178.081 48.142C178.392 47.8845 178.623 47.5398 178.774 47.108C178.929 46.6761 179.007 46.1951 179.007 45.6648C179.007 45.1307 178.929 44.6477 178.774 44.2159C178.623 43.7803 178.392 43.4337 178.081 43.1761C177.77 42.9186 177.384 42.7898 176.922 42.7898C176.448 42.7898 176.054 42.9186 175.74 43.1761C175.429 43.4337 175.196 43.7803 175.041 44.2159C174.89 44.6477 174.814 45.1307 174.814 45.6648C174.814 46.1951 174.89 46.6761 175.041 47.108C175.196 47.5398 175.429 47.8845 175.74 48.142C176.054 48.3958 176.448 48.5227 176.922 48.5227ZM184.895 44.8864V50H182.838V41.2727H184.804V42.7557H184.906C185.107 42.267 185.427 41.8788 185.866 41.5909C186.31 41.303 186.857 41.1591 187.509 41.1591C188.111 41.1591 188.635 41.2879 189.082 41.5455C189.533 41.803 189.882 42.1761 190.128 42.6648C190.378 43.1534 190.501 43.7462 190.497 44.4432V50H188.44V44.7614C188.44 44.178 188.289 43.7216 187.986 43.392C187.687 43.0625 187.272 42.8977 186.741 42.8977C186.382 42.8977 186.062 42.9773 185.781 43.1364C185.505 43.2917 185.287 43.517 185.128 43.8125C184.973 44.108 184.895 44.4659 184.895 44.8864ZM196.946 41.2727V42.8636H191.929V41.2727H196.946ZM193.168 39.1818H195.224V47.375C195.224 47.6515 195.266 47.8636 195.349 48.0114C195.437 48.1553 195.55 48.2538 195.69 48.3068C195.83 48.3598 195.986 48.3864 196.156 48.3864C196.285 48.3864 196.402 48.3769 196.509 48.358C196.618 48.339 196.702 48.322 196.759 48.3068L197.105 49.9148C196.995 49.9527 196.838 49.9943 196.634 50.0398C196.433 50.0852 196.187 50.1117 195.895 50.1193C195.38 50.1345 194.916 50.0568 194.503 49.8864C194.09 49.7121 193.762 49.4432 193.52 49.0795C193.281 48.7159 193.164 48.2614 193.168 47.7159V39.1818ZM200.911 44.8864V50H198.854V38.3636H200.865V42.7557H200.967C201.172 42.2633 201.488 41.875 201.916 41.5909C202.348 41.303 202.897 41.1591 203.564 41.1591C204.17 41.1591 204.698 41.286 205.149 41.5398C205.6 41.7936 205.948 42.1648 206.195 42.6534C206.445 43.142 206.57 43.7386 206.57 44.4432V50H204.513V44.7614C204.513 44.1742 204.361 43.7178 204.058 43.392C203.759 43.0625 203.339 42.8977 202.797 42.8977C202.433 42.8977 202.107 42.9773 201.82 43.1364C201.536 43.2917 201.312 43.517 201.149 43.8125C200.99 44.108 200.911 44.4659 200.911 44.8864ZM215.564 43.5795L213.689 43.7841C213.636 43.5947 213.543 43.4167 213.411 43.25C213.282 43.0833 213.107 42.9489 212.888 42.8466C212.668 42.7443 212.399 42.6932 212.081 42.6932C211.653 42.6932 211.293 42.786 211.001 42.9716C210.714 43.1572 210.571 43.3977 210.575 43.6932C210.571 43.947 210.664 44.1534 210.854 44.3125C211.047 44.4716 211.365 44.6023 211.808 44.7045L213.297 45.0227C214.123 45.2008 214.736 45.483 215.138 45.8693C215.543 46.2557 215.748 46.7614 215.751 47.3864C215.748 47.9356 215.587 48.4205 215.268 48.8409C214.954 49.2576 214.517 49.5833 213.956 49.8182C213.395 50.053 212.751 50.1705 212.024 50.1705C210.956 50.1705 210.096 49.947 209.445 49.5C208.793 49.0492 208.405 48.4223 208.28 47.6193L210.286 47.4261C210.376 47.8201 210.57 48.1174 210.865 48.3182C211.161 48.5189 211.545 48.6193 212.018 48.6193C212.507 48.6193 212.899 48.5189 213.195 48.3182C213.494 48.1174 213.643 47.8693 213.643 47.5739C213.643 47.3239 213.547 47.1174 213.354 46.9545C213.164 46.7917 212.869 46.6667 212.467 46.5795L210.979 46.267C210.142 46.0928 209.522 45.7992 209.121 45.3864C208.719 44.9697 208.52 44.4432 208.524 43.8068C208.52 43.2689 208.666 42.803 208.962 42.4091C209.261 42.0114 209.676 41.7045 210.206 41.4886C210.74 41.2689 211.356 41.1591 212.053 41.1591C213.075 41.1591 213.88 41.3769 214.467 41.8125C215.058 42.2481 215.424 42.8371 215.564 43.5795Z" fill="#A43A4D"/>
<path d="M38.8693 109V79.9091H50.0057C52.108 79.9091 53.8551 80.2405 55.2472 80.9034C56.6487 81.5568 57.6951 82.4517 58.3864 83.5881C59.0871 84.7244 59.4375 86.0123 59.4375 87.4517C59.4375 88.6354 59.2102 89.6487 58.7557 90.4915C58.3011 91.3248 57.6903 92.0019 56.9233 92.5227C56.1562 93.0436 55.2992 93.4176 54.3523 93.6449V93.929C55.3845 93.9858 56.3741 94.303 57.321 94.8807C58.2775 95.4489 59.0587 96.2538 59.6648 97.2955C60.2708 98.3371 60.5739 99.5966 60.5739 101.074C60.5739 102.58 60.2093 103.934 59.4801 105.136C58.7509 106.33 57.6525 107.272 56.1847 107.963C54.7169 108.654 52.8703 109 50.6449 109H38.8693ZM44.1392 104.597H49.8068C51.7197 104.597 53.0975 104.232 53.9403 103.503C54.7926 102.764 55.2188 101.817 55.2188 100.662C55.2188 99.8002 55.0057 99.0237 54.5795 98.3324C54.1534 97.6316 53.5473 97.0824 52.7614 96.6847C51.9754 96.2775 51.0379 96.0739 49.9489 96.0739H44.1392V104.597ZM44.1392 92.2812H49.3523C50.2614 92.2812 51.0805 92.1155 51.8097 91.7841C52.5388 91.4432 53.1117 90.965 53.5284 90.3494C53.9545 89.7244 54.1676 88.9858 54.1676 88.1335C54.1676 87.0066 53.7699 86.0786 52.9744 85.3494C52.1884 84.6203 51.0189 84.2557 49.4659 84.2557H44.1392V92.2812ZM69.2732 79.9091V109H64.1311V79.9091H69.2732ZM83.4199 109.426C81.2324 109.426 79.3432 108.972 77.7523 108.062C76.1708 107.144 74.954 105.847 74.1017 104.17C73.2494 102.485 72.8233 100.501 72.8233 98.2188C72.8233 95.9744 73.2494 94.0047 74.1017 92.3097C74.9634 90.6051 76.1661 89.2794 77.7097 88.3324C79.2532 87.3759 81.0667 86.8977 83.15 86.8977C84.4947 86.8977 85.7636 87.1155 86.9568 87.5511C88.1595 87.9773 89.2201 88.6402 90.1386 89.5398C91.0667 90.4394 91.7958 91.5852 92.3261 92.9773C92.8564 94.3598 93.1216 96.0076 93.1216 97.9205V99.4972H75.2381V96.0312H88.1926C88.1831 95.0464 87.9701 94.1705 87.5534 93.4034C87.1367 92.6269 86.5544 92.0161 85.8063 91.571C85.0676 91.1259 84.2059 90.9034 83.221 90.9034C82.1699 90.9034 81.2466 91.1591 80.4511 91.6705C79.6557 92.1723 79.0354 92.8352 78.5903 93.6591C78.1547 94.4735 77.9322 95.3684 77.9227 96.3438V99.3693C77.9227 100.638 78.1547 101.727 78.6188 102.636C79.0828 103.536 79.7314 104.227 80.5648 104.71C81.3981 105.184 82.3735 105.42 83.4909 105.42C84.239 105.42 84.9161 105.316 85.5222 105.108C86.1282 104.89 86.6538 104.573 87.0989 104.156C87.5439 103.74 87.8801 103.223 88.1074 102.608L92.9085 103.148C92.6055 104.417 92.0278 105.525 91.1756 106.472C90.3328 107.409 89.2532 108.138 87.9369 108.659C86.6206 109.17 85.115 109.426 83.4199 109.426ZM106.331 109.426C104.143 109.426 102.254 108.972 100.663 108.062C99.0818 107.144 97.8649 105.847 97.0126 104.17C96.1604 102.485 95.7342 100.501 95.7342 98.2188C95.7342 95.9744 96.1604 94.0047 97.0126 92.3097C97.8744 90.6051 99.077 89.2794 100.621 88.3324C102.164 87.3759 103.978 86.8977 106.061 86.8977C107.406 86.8977 108.675 87.1155 109.868 87.5511C111.07 87.9773 112.131 88.6402 113.05 89.5398C113.978 90.4394 114.707 91.5852 115.237 92.9773C115.767 94.3598 116.033 96.0076 116.033 97.9205V99.4972H98.149V96.0312H111.104C111.094 95.0464 110.881 94.1705 110.464 93.4034C110.048 92.6269 109.465 92.0161 108.717 91.571C107.979 91.1259 107.117 90.9034 106.132 90.9034C105.081 90.9034 104.158 91.1591 103.362 91.6705C102.567 92.1723 101.946 92.8352 101.501 93.6591C101.066 94.4735 100.843 95.3684 100.834 96.3438V99.3693C100.834 100.638 101.066 101.727 101.53 102.636C101.994 103.536 102.642 104.227 103.476 104.71C104.309 105.184 105.284 105.42 106.402 105.42C107.15 105.42 107.827 105.316 108.433 105.108C109.039 104.89 109.565 104.573 110.01 104.156C110.455 103.74 110.791 103.223 111.018 102.608L115.819 103.148C115.516 104.417 114.939 105.525 114.087 106.472C113.244 107.409 112.164 108.138 110.848 108.659C109.532 109.17 108.026 109.426 106.331 109.426ZM127.679 109.384C125.965 109.384 124.431 108.943 123.077 108.062C121.723 107.182 120.653 105.903 119.867 104.227C119.081 102.551 118.688 100.515 118.688 98.1193C118.688 95.6951 119.086 93.6496 119.881 91.983C120.686 90.3068 121.77 89.0426 123.134 88.1903C124.497 87.3286 126.017 86.8977 127.693 86.8977C128.972 86.8977 130.023 87.1155 130.847 87.5511C131.671 87.9773 132.324 88.4934 132.807 89.0994C133.29 89.696 133.664 90.2595 133.929 90.7898H134.142V79.9091H139.299V109H134.242V105.562H133.929C133.664 106.093 133.281 106.656 132.779 107.253C132.277 107.84 131.614 108.342 130.79 108.759C129.966 109.175 128.929 109.384 127.679 109.384ZM129.114 105.165C130.203 105.165 131.131 104.871 131.898 104.284C132.665 103.687 133.247 102.859 133.645 101.798C134.043 100.738 134.242 99.5019 134.242 98.0909C134.242 96.6799 134.043 95.4536 133.645 94.4119C133.257 93.3703 132.679 92.5606 131.912 91.983C131.155 91.4053 130.222 91.1165 129.114 91.1165C127.968 91.1165 127.012 91.4148 126.245 92.0114C125.478 92.608 124.9 93.4318 124.512 94.483C124.123 95.5341 123.929 96.7367 123.929 98.0909C123.929 99.4545 124.123 100.671 124.512 101.741C124.909 102.802 125.492 103.64 126.259 104.256C127.035 104.862 127.987 105.165 129.114 105.165ZM143.978 109V87.1818H149.12V109H143.978ZM146.563 84.0852C145.749 84.0852 145.048 83.8153 144.461 83.2756C143.874 82.7263 143.58 82.0682 143.58 81.3011C143.58 80.5246 143.874 79.8665 144.461 79.3267C145.048 78.7775 145.749 78.5028 146.563 78.5028C147.387 78.5028 148.088 78.7775 148.665 79.3267C149.253 79.8665 149.546 80.5246 149.546 81.3011C149.546 82.0682 149.253 82.7263 148.665 83.2756C148.088 83.8153 147.387 84.0852 146.563 84.0852ZM158.75 96.2159V109H153.608V87.1818H158.522V90.8892H158.778C159.28 89.6676 160.08 88.697 161.179 87.9773C162.287 87.2576 163.655 86.8977 165.284 86.8977C166.789 86.8977 168.101 87.2197 169.218 87.8636C170.345 88.5076 171.217 89.4403 171.832 90.6619C172.457 91.8835 172.765 93.3655 172.755 95.108V109H167.613V95.9034C167.613 94.4451 167.235 93.304 166.477 92.4801C165.729 91.6562 164.692 91.2443 163.366 91.2443C162.467 91.2443 161.666 91.4432 160.966 91.8409C160.274 92.2292 159.73 92.7926 159.332 93.5312C158.944 94.2699 158.75 95.1648 158.75 96.2159ZM186.671 117.636C184.825 117.636 183.239 117.385 181.913 116.884C180.587 116.391 179.522 115.728 178.717 114.895C177.912 114.062 177.353 113.138 177.041 112.125L181.671 111.003C181.88 111.429 182.183 111.85 182.58 112.267C182.978 112.693 183.513 113.044 184.186 113.318C184.867 113.602 185.724 113.744 186.757 113.744C188.215 113.744 189.422 113.389 190.379 112.679C191.335 111.978 191.813 110.823 191.813 109.213V105.08H191.558C191.293 105.61 190.904 106.154 190.393 106.713C189.891 107.272 189.223 107.741 188.39 108.119C187.566 108.498 186.529 108.688 185.279 108.688C183.603 108.688 182.083 108.295 180.72 107.509C179.365 106.713 178.286 105.529 177.481 103.957C176.686 102.376 176.288 100.397 176.288 98.0199C176.288 95.6241 176.686 93.6023 177.481 91.9545C178.286 90.2973 179.37 89.0426 180.734 88.1903C182.097 87.3286 183.617 86.8977 185.293 86.8977C186.572 86.8977 187.623 87.1155 188.447 87.5511C189.28 87.9773 189.943 88.4934 190.436 89.0994C190.928 89.696 191.302 90.2595 191.558 90.7898H191.842V87.1818H196.913V109.355C196.913 111.221 196.468 112.764 195.578 113.986C194.687 115.207 193.471 116.121 191.927 116.727C190.383 117.333 188.632 117.636 186.671 117.636ZM186.714 104.653C187.803 104.653 188.731 104.388 189.498 103.858C190.265 103.328 190.847 102.565 191.245 101.571C191.643 100.577 191.842 99.3835 191.842 97.9915C191.842 96.6184 191.643 95.4157 191.245 94.3835C190.857 93.3513 190.279 92.5511 189.512 91.983C188.755 91.4053 187.822 91.1165 186.714 91.1165C185.568 91.1165 184.612 91.4148 183.845 92.0114C183.078 92.608 182.5 93.4271 182.112 94.4688C181.723 95.5009 181.529 96.6752 181.529 97.9915C181.529 99.3267 181.723 100.496 182.112 101.5C182.509 102.494 183.092 103.271 183.859 103.83C184.635 104.379 185.587 104.653 186.714 104.653Z" fill="#A43A4D"/>
<path d="M46.9432 142.148H45.1705C45.1023 141.769 44.9754 141.436 44.7898 141.148C44.6042 140.86 44.3769 140.616 44.108 140.415C43.839 140.214 43.5379 140.062 43.2045 139.96C42.875 139.858 42.5246 139.807 42.1534 139.807C41.483 139.807 40.8826 139.975 40.3523 140.312C39.8258 140.65 39.4091 141.144 39.1023 141.795C38.7992 142.447 38.6477 143.242 38.6477 144.182C38.6477 145.129 38.7992 145.928 39.1023 146.58C39.4091 147.231 39.8277 147.723 40.358 148.057C40.8883 148.39 41.4848 148.557 42.1477 148.557C42.5152 148.557 42.8636 148.508 43.1932 148.409C43.5265 148.307 43.8277 148.157 44.0966 147.96C44.3655 147.763 44.5928 147.523 44.7784 147.239C44.9678 146.951 45.0985 146.621 45.1705 146.25L46.9432 146.256C46.8485 146.828 46.6648 147.354 46.392 147.835C46.1231 148.312 45.7765 148.725 45.3523 149.074C44.9318 149.419 44.4508 149.686 43.9091 149.875C43.3674 150.064 42.7765 150.159 42.1364 150.159C41.1288 150.159 40.2311 149.92 39.4432 149.443C38.6553 148.962 38.0341 148.275 37.5795 147.381C37.1288 146.487 36.9034 145.42 36.9034 144.182C36.9034 142.939 37.1307 141.873 37.5852 140.983C38.0398 140.089 38.661 139.403 39.4489 138.926C40.2367 138.445 41.1326 138.205 42.1364 138.205C42.7538 138.205 43.3295 138.294 43.8636 138.472C44.4015 138.646 44.8845 138.903 45.3125 139.244C45.7405 139.581 46.0947 139.994 46.375 140.483C46.6553 140.968 46.8447 141.523 46.9432 142.148ZM50.6065 138.364V150H48.9077V138.364H50.6065ZM52.892 150V141.273H54.5909V150H52.892ZM53.75 139.926C53.4545 139.926 53.2008 139.828 52.9886 139.631C52.7803 139.43 52.6761 139.191 52.6761 138.915C52.6761 138.634 52.7803 138.396 52.9886 138.199C53.2008 137.998 53.4545 137.898 53.75 137.898C54.0455 137.898 54.2973 137.998 54.5057 138.199C54.7178 138.396 54.8239 138.634 54.8239 138.915C54.8239 139.191 54.7178 139.43 54.5057 139.631C54.2973 139.828 54.0455 139.926 53.75 139.926ZM60.5526 150.176C59.7079 150.176 58.9806 149.985 58.3707 149.602C57.7647 149.216 57.2988 148.684 56.973 148.006C56.6473 147.328 56.4844 146.551 56.4844 145.676C56.4844 144.79 56.651 144.008 56.9844 143.33C57.3177 142.648 57.7874 142.116 58.3935 141.733C58.9995 141.35 59.7135 141.159 60.5355 141.159C61.1984 141.159 61.7893 141.282 62.3082 141.528C62.8272 141.771 63.2457 142.112 63.5639 142.551C63.8859 142.991 64.0772 143.504 64.1378 144.091H62.4844C62.3935 143.682 62.1851 143.33 61.8594 143.034C61.5374 142.739 61.1056 142.591 60.5639 142.591C60.0904 142.591 59.6757 142.716 59.3196 142.966C58.9673 143.212 58.6927 143.564 58.4957 144.023C58.2988 144.477 58.2003 145.015 58.2003 145.636C58.2003 146.273 58.2969 146.822 58.4901 147.284C58.6832 147.746 58.956 148.104 59.3082 148.358C59.6643 148.612 60.0829 148.739 60.5639 148.739C60.8859 148.739 61.1776 148.68 61.4389 148.562C61.7041 148.441 61.9257 148.269 62.1037 148.045C62.2855 147.822 62.4124 147.553 62.4844 147.239H64.1378C64.0772 147.803 63.8935 148.307 63.5866 148.75C63.2798 149.193 62.8688 149.542 62.3537 149.795C61.8423 150.049 61.242 150.176 60.5526 150.176ZM67.517 147.04L67.5057 144.966H67.8011L71.2784 141.273H73.3125L69.3466 145.477H69.0795L67.517 147.04ZM65.9545 150V138.364H67.6534V150H65.9545ZM71.4659 150L68.3409 145.852L69.5114 144.665L73.5511 150H71.4659ZM83.169 141.273V142.636H78.402V141.273H83.169ZM79.6804 139.182H81.3793V147.438C81.3793 147.767 81.4285 148.015 81.527 148.182C81.6255 148.345 81.7524 148.456 81.9077 148.517C82.0668 148.574 82.2391 148.602 82.4247 148.602C82.5611 148.602 82.6804 148.593 82.7827 148.574C82.8849 148.555 82.9645 148.54 83.0213 148.528L83.3281 149.932C83.2296 149.97 83.0895 150.008 82.9077 150.045C82.7259 150.087 82.4986 150.11 82.2259 150.114C81.7789 150.121 81.3622 150.042 80.9759 149.875C80.5895 149.708 80.277 149.451 80.0384 149.102C79.7997 148.754 79.6804 148.316 79.6804 147.79V139.182ZM88.6307 150.176C87.8125 150.176 87.0985 149.989 86.4886 149.614C85.8788 149.239 85.4053 148.714 85.0682 148.04C84.7311 147.366 84.5625 146.578 84.5625 145.676C84.5625 144.771 84.7311 143.979 85.0682 143.301C85.4053 142.623 85.8788 142.097 86.4886 141.722C87.0985 141.347 87.8125 141.159 88.6307 141.159C89.4489 141.159 90.1629 141.347 90.7727 141.722C91.3826 142.097 91.8561 142.623 92.1932 143.301C92.5303 143.979 92.6989 144.771 92.6989 145.676C92.6989 146.578 92.5303 147.366 92.1932 148.04C91.8561 148.714 91.3826 149.239 90.7727 149.614C90.1629 149.989 89.4489 150.176 88.6307 150.176ZM88.6364 148.75C89.1667 148.75 89.6061 148.61 89.9545 148.33C90.303 148.049 90.5606 147.676 90.7273 147.21C90.8977 146.744 90.983 146.231 90.983 145.67C90.983 145.114 90.8977 144.602 90.7273 144.136C90.5606 143.667 90.303 143.29 89.9545 143.006C89.6061 142.722 89.1667 142.58 88.6364 142.58C88.1023 142.58 87.6591 142.722 87.3068 143.006C86.9583 143.29 86.6989 143.667 86.5284 144.136C86.3617 144.602 86.2784 145.114 86.2784 145.67C86.2784 146.231 86.3617 146.744 86.5284 147.21C86.6989 147.676 86.9583 148.049 87.3068 148.33C87.6591 148.61 88.1023 148.75 88.6364 148.75ZM101.369 150.193C100.816 150.193 100.316 150.091 99.8693 149.886C99.4223 149.678 99.0682 149.377 98.8068 148.983C98.5492 148.589 98.4205 148.106 98.4205 147.534C98.4205 147.042 98.5152 146.636 98.7045 146.318C98.8939 146 99.1496 145.748 99.4716 145.562C99.7936 145.377 100.153 145.237 100.551 145.142C100.949 145.047 101.354 144.975 101.767 144.926C102.29 144.866 102.714 144.816 103.04 144.778C103.366 144.737 103.602 144.67 103.75 144.58C103.898 144.489 103.972 144.341 103.972 144.136V144.097C103.972 143.6 103.831 143.216 103.551 142.943C103.275 142.67 102.862 142.534 102.312 142.534C101.741 142.534 101.29 142.661 100.96 142.915C100.634 143.165 100.409 143.443 100.284 143.75L98.6875 143.386C98.8769 142.856 99.1534 142.428 99.517 142.102C99.8845 141.773 100.307 141.534 100.784 141.386C101.261 141.235 101.763 141.159 102.29 141.159C102.638 141.159 103.008 141.201 103.398 141.284C103.792 141.364 104.159 141.511 104.5 141.727C104.845 141.943 105.127 142.252 105.347 142.653C105.566 143.051 105.676 143.568 105.676 144.205V150H104.017V148.807H103.949C103.839 149.027 103.674 149.242 103.455 149.455C103.235 149.667 102.953 149.843 102.608 149.983C102.263 150.123 101.85 150.193 101.369 150.193ZM101.739 148.83C102.208 148.83 102.61 148.737 102.943 148.551C103.28 148.366 103.536 148.123 103.71 147.824C103.888 147.521 103.977 147.197 103.977 146.852V145.727C103.917 145.788 103.799 145.845 103.625 145.898C103.455 145.947 103.259 145.991 103.04 146.028C102.82 146.062 102.606 146.095 102.398 146.125C102.189 146.152 102.015 146.174 101.875 146.193C101.545 146.235 101.244 146.305 100.972 146.403C100.703 146.502 100.487 146.644 100.324 146.83C100.165 147.011 100.085 147.254 100.085 147.557C100.085 147.977 100.241 148.295 100.551 148.511C100.862 148.723 101.258 148.83 101.739 148.83ZM111.206 150.17C110.501 150.17 109.873 149.991 109.32 149.631C108.77 149.267 108.339 148.75 108.024 148.08C107.714 147.405 107.558 146.597 107.558 145.653C107.558 144.71 107.715 143.903 108.03 143.233C108.348 142.562 108.784 142.049 109.337 141.693C109.89 141.337 110.517 141.159 111.217 141.159C111.759 141.159 112.195 141.25 112.524 141.432C112.857 141.61 113.115 141.818 113.297 142.057C113.482 142.295 113.626 142.506 113.729 142.688H113.831V138.364H115.53V150H113.871V148.642H113.729C113.626 148.828 113.479 149.04 113.286 149.278C113.096 149.517 112.835 149.725 112.501 149.903C112.168 150.081 111.736 150.17 111.206 150.17ZM111.581 148.722C112.07 148.722 112.482 148.593 112.82 148.335C113.161 148.074 113.418 147.712 113.592 147.25C113.77 146.788 113.859 146.25 113.859 145.636C113.859 145.03 113.772 144.5 113.598 144.045C113.424 143.591 113.168 143.237 112.831 142.983C112.494 142.729 112.077 142.602 111.581 142.602C111.07 142.602 110.643 142.735 110.303 143C109.962 143.265 109.704 143.627 109.53 144.085C109.359 144.544 109.274 145.061 109.274 145.636C109.274 146.22 109.361 146.744 109.536 147.21C109.71 147.676 109.967 148.045 110.308 148.318C110.653 148.587 111.077 148.722 111.581 148.722ZM117.955 141.273H119.653V150.568C119.653 151.152 119.547 151.644 119.335 152.045C119.127 152.447 118.816 152.752 118.403 152.96C117.994 153.169 117.489 153.273 116.886 153.273C116.826 153.273 116.769 153.273 116.716 153.273C116.659 153.273 116.6 153.271 116.54 153.267V151.807C116.593 151.807 116.64 151.807 116.682 151.807C116.72 151.807 116.763 151.807 116.812 151.807C117.214 151.807 117.504 151.699 117.682 151.483C117.864 151.271 117.955 150.962 117.955 150.557V141.273ZM118.795 139.926C118.5 139.926 118.246 139.828 118.034 139.631C117.826 139.43 117.722 139.191 117.722 138.915C117.722 138.634 117.826 138.396 118.034 138.199C118.246 137.998 118.5 137.898 118.795 137.898C119.091 137.898 119.343 137.998 119.551 138.199C119.763 138.396 119.869 138.634 119.869 138.915C119.869 139.191 119.763 139.43 119.551 139.631C119.343 139.828 119.091 139.926 118.795 139.926ZM127.467 146.381V141.273H129.172V150H127.501V148.489H127.411C127.21 148.955 126.888 149.343 126.445 149.653C126.005 149.96 125.458 150.114 124.803 150.114C124.242 150.114 123.746 149.991 123.314 149.744C122.886 149.494 122.549 149.125 122.303 148.636C122.06 148.148 121.939 147.544 121.939 146.824V141.273H123.638V146.619C123.638 147.214 123.803 147.687 124.132 148.04C124.462 148.392 124.89 148.568 125.416 148.568C125.734 148.568 126.051 148.489 126.365 148.33C126.683 148.17 126.946 147.93 127.155 147.608C127.367 147.286 127.471 146.877 127.467 146.381ZM137.994 143.403L136.455 143.676C136.39 143.479 136.288 143.292 136.148 143.114C136.011 142.936 135.826 142.79 135.591 142.676C135.356 142.562 135.063 142.506 134.71 142.506C134.229 142.506 133.828 142.614 133.506 142.83C133.184 143.042 133.023 143.316 133.023 143.653C133.023 143.945 133.131 144.18 133.347 144.358C133.563 144.536 133.911 144.682 134.392 144.795L135.778 145.114C136.581 145.299 137.18 145.585 137.574 145.972C137.968 146.358 138.165 146.86 138.165 147.477C138.165 148 138.013 148.466 137.71 148.875C137.411 149.28 136.992 149.598 136.455 149.83C135.92 150.061 135.301 150.176 134.597 150.176C133.619 150.176 132.822 149.968 132.205 149.551C131.587 149.131 131.208 148.534 131.068 147.761L132.71 147.511C132.813 147.939 133.023 148.263 133.341 148.483C133.659 148.699 134.074 148.807 134.585 148.807C135.142 148.807 135.587 148.691 135.92 148.46C136.254 148.225 136.42 147.939 136.42 147.602C136.42 147.33 136.318 147.1 136.114 146.915C135.913 146.729 135.604 146.589 135.188 146.494L133.71 146.17C132.896 145.985 132.294 145.689 131.903 145.284C131.517 144.879 131.324 144.366 131.324 143.744C131.324 143.229 131.468 142.778 131.756 142.392C132.044 142.006 132.441 141.705 132.949 141.489C133.456 141.269 134.038 141.159 134.693 141.159C135.636 141.159 136.379 141.364 136.92 141.773C137.462 142.178 137.82 142.722 137.994 143.403ZM144.107 141.273V142.636H139.339V141.273H144.107ZM140.618 139.182H142.317V147.438C142.317 147.767 142.366 148.015 142.464 148.182C142.563 148.345 142.69 148.456 142.845 148.517C143.004 148.574 143.177 148.602 143.362 148.602C143.499 148.602 143.618 148.593 143.72 148.574C143.822 148.555 143.902 148.54 143.959 148.528L144.266 149.932C144.167 149.97 144.027 150.008 143.845 150.045C143.663 150.087 143.436 150.11 143.163 150.114C142.716 150.121 142.3 150.042 141.913 149.875C141.527 149.708 141.214 149.451 140.976 149.102C140.737 148.754 140.618 148.316 140.618 147.79V139.182Z" fill="#828282"/>
</g>
<defs>
<filter id="filter0_d_23_981" x="0" y="0" width="429" height="196" filterUnits="userSpaceOnUse" color-interpolation-filters="sRGB">
<feFlood flood-opacity="0" result="BackgroundImageFix"/>
<feColorMatrix in="SourceAlpha" type="matrix" values="0 0 0 0 0 0 0 0 0 0 0 0 0 0 0 0 0 0 127 0" result="hardAlpha"/>
<feOffset dy="4"/>
<feGaussianBlur stdDeviation="6"/>
<feComposite in2="hardAlpha" operator="out"/>
<feColorMatrix type="matrix" values="0 0 0 0 0 0 0 0 0 0 0 0 0 0 0 0 0 0 0.04 0"/>
<feBlend mode="normal" in2="BackgroundImageFix" result="effect1_dropShadow_23_981"/>
<feBlend mode="normal" in="SourceGraphic" in2="effect1_dropShadow_23_981" result="shape"/>
</filter>
</defs>
</svg>
