<svg width="188" height="178" viewBox="0 0 188 178" fill="none" xmlns="http://www.w3.org/2000/svg">
<path d="M20 148.04C14.5 148.04 10 152.53 10 158.06C10 163.06 13.66 167.21 18.44 167.96V160.96H15.9V158.06H18.44V155.85C18.44 153.34 19.93 151.96 22.22 151.96C23.31 151.96 24.45 152.15 24.45 152.15V154.62H23.19C21.95 154.62 21.56 155.39 21.56 156.18V158.06H24.34L23.89 160.96H21.56V167.96C23.9164 167.588 26.0622 166.386 27.6099 164.57C29.1576 162.755 30.0054 160.446 30 158.06C30 152.53 25.5 148.04 20 148.04Z" fill="white"/>
<path d="M75 149C75.5304 149 76.0391 149.211 76.4142 149.586C76.7893 149.961 77 150.47 77 151V165C77 165.53 76.7893 166.039 76.4142 166.414C76.0391 166.789 75.5304 167 75 167H61C60.4696 167 59.9609 166.789 59.5858 166.414C59.2107 166.039 59 165.53 59 165V151C59 150.47 59.2107 149.961 59.5858 149.586C59.9609 149.211 60.4696 149 61 149H75ZM74.5 164.5V159.2C74.5 158.335 74.1565 157.506 73.5452 156.895C72.9338 156.283 72.1046 155.94 71.24 155.94C70.39 155.94 69.4 156.46 68.92 157.24V156.13H66.13V164.5H68.92V159.57C68.92 158.8 69.54 158.17 70.31 158.17C70.6813 158.17 71.0374 158.317 71.2999 158.58C71.5625 158.843 71.71 159.199 71.71 159.57V164.5H74.5ZM62.88 154.56C63.3256 154.56 63.7529 154.383 64.0679 154.068C64.383 153.753 64.56 153.326 64.56 152.88C64.56 151.95 63.81 151.19 62.88 151.19C62.4318 151.19 62.0019 151.368 61.685 151.685C61.3681 152.002 61.19 152.432 61.19 152.88C61.19 153.81 61.95 154.56 62.88 154.56ZM64.27 164.5V156.13H61.5V164.5H64.27Z" fill="white"/>
<path d="M114 161L119.19 158L114 155V161ZM125.56 153.17C125.69 153.64 125.78 154.27 125.84 155.07C125.91 155.87 125.94 156.56 125.94 157.16L126 158C126 160.19 125.84 161.8 125.56 162.83C125.31 163.73 124.73 164.31 123.83 164.56C123.36 164.69 122.5 164.78 121.18 164.84C119.88 164.91 118.69 164.94 117.59 164.94L116 165C111.81 165 109.2 164.84 108.17 164.56C107.27 164.31 106.69 163.73 106.44 162.83C106.31 162.36 106.22 161.73 106.16 160.93C106.09 160.13 106.06 159.44 106.06 158.84L106 158C106 155.81 106.16 154.2 106.44 153.17C106.69 152.27 107.27 151.69 108.17 151.44C108.64 151.31 109.5 151.22 110.82 151.16C112.12 151.09 113.31 151.06 114.41 151.06L116 151C120.19 151 122.8 151.16 123.83 151.44C124.73 151.69 125.31 152.27 125.56 153.17Z" fill="white"/>
<path d="M159.8 148H168.2C171.4 148 174 150.6 174 153.8V162.2C174 163.738 173.389 165.214 172.301 166.301C171.214 167.389 169.738 168 168.2 168H159.8C156.6 168 154 165.4 154 162.2V153.8C154 152.262 154.611 150.786 155.699 149.699C156.786 148.611 158.262 148 159.8 148ZM159.6 150C158.645 150 157.73 150.379 157.054 151.054C156.379 151.73 156 152.645 156 153.6V162.4C156 164.39 157.61 166 159.6 166H168.4C169.355 166 170.27 165.621 170.946 164.946C171.621 164.27 172 163.355 172 162.4V153.6C172 151.61 170.39 150 168.4 150H159.6ZM169.25 151.5C169.582 151.5 169.899 151.632 170.134 151.866C170.368 152.101 170.5 152.418 170.5 152.75C170.5 153.082 170.368 153.399 170.134 153.634C169.899 153.868 169.582 154 169.25 154C168.918 154 168.601 153.868 168.366 153.634C168.132 153.399 168 153.082 168 152.75C168 152.418 168.132 152.101 168.366 151.866C168.601 151.632 168.918 151.5 169.25 151.5ZM164 153C165.326 153 166.598 153.527 167.536 154.464C168.473 155.402 169 156.674 169 158C169 159.326 168.473 160.598 167.536 161.536C166.598 162.473 165.326 163 164 163C162.674 163 161.402 162.473 160.464 161.536C159.527 160.598 159 159.326 159 158C159 156.674 159.527 155.402 160.464 154.464C161.402 153.527 162.674 153 164 153ZM164 155C163.204 155 162.441 155.316 161.879 155.879C161.316 156.441 161 157.204 161 158C161 158.796 161.316 159.559 161.879 160.121C162.441 160.684 163.204 161 164 161C164.796 161 165.559 160.684 166.121 160.121C166.684 159.559 167 158.796 167 158C167 157.204 166.684 156.441 166.121 155.879C165.559 155.316 164.796 155 164 155Z" fill="white"/>
<g clip-path="url(#clip0_64_634)">
<mask id="mask0_64_634" style="mask-type:luminance" maskUnits="userSpaceOnUse" x="5" y="0" width="183" height="139">
<path d="M187.08 0H5V138.01H187.08V0Z" fill="white"/>
</mask>
<g mask="url(#mask0_64_634)">
<mask id="mask1_64_634" style="mask-type:luminance" maskUnits="userSpaceOnUse" x="5" y="0" width="183" height="139">
<path d="M187.08 0H5V138.01H187.08V0Z" fill="white"/>
</mask>
<g mask="url(#mask1_64_634)">
<path d="M20.7302 72.67V80.77H12.9102V7.95996H20.7302V39.8C23.5602 35 30.2402 30.66 37.4002 30.66C50.3002 30.66 59.8202 40.08 59.8202 55.43V56.18C59.8202 71.25 50.9702 81.61 37.4002 81.61C29.3902 81.61 23.5502 77.56 20.7302 72.66V72.67ZM51.7202 56.57V55.82C51.7202 43.39 44.8402 37.17 36.5502 37.17C27.4102 37.17 20.4402 43.2 20.4402 55.82V56.57C20.4402 69.19 27.0302 75.13 36.6402 75.13C46.2502 75.13 51.7102 68.54 51.7102 56.57H51.7202Z" fill="white"/>
<path d="M69.71 51.2H89.87V58.5499H69.71V51.2Z" fill="white"/>
<path d="M132.26 93.68V92.93C132.26 77.86 141.68 67.22 155.24 67.22C163.43 67.22 168.52 71.18 171.35 75.98V44.52H179.17V117.33H171.35V108.85C168.52 113.65 161.65 118.18 154.49 118.18C141.59 118.18 132.26 109.04 132.26 93.69V93.68ZM171.64 93.02V92.27C171.64 79.65 165.61 73.71 156 73.71C146.39 73.71 140.36 80.59 140.36 92.55V93.3C140.36 105.73 147.05 111.67 155.34 111.67C164.48 111.67 171.64 105.64 171.64 93.02Z" fill="white"/>
</g>
</g>
</g>
<defs>
<clipPath id="clip0_64_634">
<rect width="182.08" height="138.01" fill="white" transform="translate(5)"/>
</clipPath>
</defs>
</svg>
